<svg id="Layer_1" data-name="Layer 1" xmlns="http://www.w3.org/2000/svg" viewBox="0 0 202 68"><defs><style>.cls-1{fill:#fff;}</style></defs><title>leedsArtGallery-logo-w</title><path class="cls-1" d="M9,30.32V14.75h2.36V28.2h7.5v2.12Z"/><path class="cls-1" d="M22.94,25.42c0,1.9,1,3.11,2.82,3.11a3.31,3.31,0,0,0,2.69-1.14l1.42,1.33a5.21,5.21,0,0,1-4.16,1.73c-2.78,0-5-1.47-5-5.69,0-3.59,1.86-5.67,4.7-5.67s4.7,2.19,4.7,5.34v1Zm4.68-3.06A2.28,2.28,0,0,0,25.43,21a2.32,2.32,0,0,0-2.21,1.4,3.51,3.51,0,0,0-.29,1.51h5A3.5,3.5,0,0,0,27.62,22.36Z"/><path class="cls-1" d="M34.71,25.42c0,1.9,1,3.11,2.82,3.11a3.32,3.32,0,0,0,2.69-1.14l1.42,1.33a5.21,5.21,0,0,1-4.16,1.73c-2.78,0-5-1.47-5-5.69,0-3.59,1.86-5.67,4.7-5.67s4.7,2.19,4.7,5.34v1Zm4.68-3.06A2.29,2.29,0,0,0,37.2,21,2.32,2.32,0,0,0,35,22.36a3.53,3.53,0,0,0-.28,1.51h5A3.5,3.5,0,0,0,39.39,22.36Z"/><path class="cls-1" d="M51.2,30.32V29.14a3.42,3.42,0,0,1-2.93,1.31,3.83,3.83,0,0,1-2.71-1c-1.12-1.12-1.25-3-1.25-4.7s.13-3.57,1.25-4.68a3.78,3.78,0,0,1,2.69-1,3.43,3.43,0,0,1,2.91,1.25v-5.6h2.23V30.32Zm-2.34-9.23c-2,0-2.32,1.71-2.32,3.68s.31,3.7,2.32,3.7,2.3-1.73,2.3-3.7S50.88,21.09,48.86,21.09Z"/><path class="cls-1" d="M60.5,30.45a6.1,6.1,0,0,1-4.66-1.6l1.46-1.47a4.31,4.31,0,0,0,3.2,1.16c1.36,0,2.43-.48,2.43-1.53,0-.74-.42-1.22-1.49-1.31l-1.77-.15c-2.08-.18-3.28-1.12-3.28-3.06,0-2.17,1.86-3.39,4.18-3.39a6.08,6.08,0,0,1,4.11,1.25l-1.4,1.42A4.19,4.19,0,0,0,60.55,21c-1.33,0-2,.59-2,1.42,0,.66.35,1.16,1.53,1.27l1.75.15c2.08.17,3.3,1.16,3.3,3.13C65.12,29.25,63.15,30.45,60.5,30.45Z"/><path class="cls-1" d="M18,49.88,16.9,46.75H10.76L9.68,49.88H7.17l5.71-15.58h1.9l5.71,15.58ZM13.88,37.83l-2.43,6.91h4.79Z"/><path class="cls-1" d="M28.52,41.39a2.06,2.06,0,0,0-1.66-.74,2.28,2.28,0,0,0-2.21,2.49v6.74H22.42V38.79H24.6V40a3.68,3.68,0,0,1,3-1.33,3.43,3.43,0,0,1,2.65,1.05Z"/><path class="cls-1" d="M35.3,49.88a2.89,2.89,0,0,1-3-3.08v-6.1H31V39h1.27V35.62h2.23V39h2.14v1.71H34.49v6A1.13,1.13,0,0,0,35.72,48h.92v1.9Z"/><path class="cls-1" d="M54.27,48.24a6,6,0,0,1-8.38.11c-1.53-1.53-1.51-3.26-1.51-6.26s0-4.72,1.51-6.26A5.58,5.58,0,0,1,50,34.17,5.48,5.48,0,0,1,55.65,39H53.26A3.18,3.18,0,0,0,50,36.3a3.13,3.13,0,0,0-2.3,1c-.77.83-.94,1.71-.94,4.83s.18,4,.94,4.86a3.11,3.11,0,0,0,2.3.94,3.3,3.3,0,0,0,2.54-1.09,3.52,3.52,0,0,0,.79-2.45v-.88H50v-2h5.69v2.38A5.83,5.83,0,0,1,54.27,48.24Z"/><path class="cls-1" d="M64.83,49.88v-1a3.65,3.65,0,0,1-3,1.14,3.92,3.92,0,0,1-3-1A3.39,3.39,0,0,1,58,46.62c0-1.86,1.29-3.19,3.83-3.19h2.93v-.79c0-1.4-.7-2.08-2.43-2.08a2.6,2.6,0,0,0-2.43,1.07l-1.47-1.38a4.55,4.55,0,0,1,4-1.6c3,0,4.57,1.29,4.57,3.81v7.42Zm0-4.9H62.19c-1.31,0-2,.59-2,1.6s.64,1.58,2,1.58a2.65,2.65,0,0,0,2.08-.63,2.23,2.23,0,0,0,.48-1.64Z"/><path class="cls-1" d="M73.41,49.88a2.83,2.83,0,0,1-3-3.06V34.31H72.6V46.69c0,.85.31,1.29,1.2,1.29h1v1.9Z"/><path class="cls-1" d="M80.19,49.88a2.83,2.83,0,0,1-3-3.06V34.31h2.23V46.69c0,.85.31,1.29,1.2,1.29h1v1.9Z"/><path class="cls-1" d="M85.09,45c0,1.9,1,3.11,2.82,3.11A3.31,3.31,0,0,0,90.6,47L92,48.29A5.21,5.21,0,0,1,87.87,50c-2.78,0-5-1.47-5-5.69,0-3.59,1.86-5.67,4.7-5.67s4.7,2.19,4.7,5.34v1Zm4.68-3.06a2.28,2.28,0,0,0-2.19-1.4,2.31,2.31,0,0,0-2.21,1.4,3.51,3.51,0,0,0-.29,1.51h5A3.46,3.46,0,0,0,89.77,41.92Z"/><path class="cls-1" d="M101.32,41.39a2.06,2.06,0,0,0-1.66-.74,2.28,2.28,0,0,0-2.21,2.49v6.74H95.22V38.79h2.19V40a3.68,3.68,0,0,1,3-1.33A3.43,3.43,0,0,1,103,39.71Z"/><path class="cls-1" d="M108.28,52.09a3.59,3.59,0,0,1-.81,1.38,3.08,3.08,0,0,1-2.28.81h-.9v-2h.57c.94,0,1.27-.28,1.6-1.18l.61-1.73L103.2,38.79h2.36l2.65,7.81,2.58-7.81h2.39Z"/></svg>