<?xml version="1.0" encoding="utf-8"?>
<!-- Generator: Adobe Illustrator 16.0.3, SVG Export Plug-In . SVG Version: 6.00 Build 0)  -->
<!DOCTYPE svg PUBLIC "-//W3C//DTD SVG 1.1//EN" "http://www.w3.org/Graphics/SVG/1.1/DTD/svg11.dtd">
<svg version="1.1" id="Layer_1" xmlns="http://www.w3.org/2000/svg" xmlns:xlink="http://www.w3.org/1999/xlink" x="0px" y="0px"
	 width="82px" height="129.377px" viewBox="0 0 82 129.377" enable-background="new 0 0 82 129.377" xml:space="preserve">
<g>
	<rect x="5.721" y="12.461" fill="#0062AD" width="70.558" height="3.08"/>
	<path fill="#0062AD" d="M41.352,23.642H5.897l6.862,103.548c0,1.207,12.643,2.188,28.241,2.188c15.597,0,28.241-0.98,28.241-2.188
		l6.862-103.548H41.352z"/>
	<path fill="#58595B" d="M71.59,104.492l-1.533,23.138h5.1c0.772-2.594,1.275-6.808,1.275-11.569s-0.503-8.975-1.275-11.568H71.59z"
		/>
	<path fill="#58595B" d="M10.418,104.492l1.533,23.138h-5.1c-0.772-2.594-1.275-6.808-1.275-11.569s0.503-8.975,1.275-11.568H10.418
		z"/>
	<rect y="16.956" fill="#0062AD" width="82" height="6.686"/>
	<path fill="#0062AD" d="M62.771,7.851h-4.253V1.408c0-0.778-0.63-1.408-1.408-1.408H24.926c-0.777,0-1.408,0.629-1.408,1.408v6.443
		h-4.251V7.105L7.789,7.798v3.255h66.423V7.798l-11.44-0.691V7.851z M25.685,7.851l-0.014-4.18
		c-0.003-0.778,0.625-1.408,1.403-1.408h27.852c0.777,0,1.41,0.629,1.413,1.408l0.014,4.18H25.685z"/>
</g>
</svg>
