<?xml version="1.0" encoding="utf-8"?>
<!-- Generator: Adobe Illustrator 16.0.3, SVG Export Plug-In . SVG Version: 6.00 Build 0)  -->
<!DOCTYPE svg PUBLIC "-//W3C//DTD SVG 1.1//EN" "http://www.w3.org/Graphics/SVG/1.1/DTD/svg11.dtd">
<svg version="1.1" id="Layer_1" xmlns="http://www.w3.org/2000/svg" xmlns:xlink="http://www.w3.org/1999/xlink" x="0px" y="0px"
	 width="82px" height="129.378px" viewBox="0 0 82 129.378" enable-background="new 0 0 82 129.378" xml:space="preserve">
<g>
	<rect x="5.722" y="12.462" fill="#4D4D4F" width="70.557" height="3.079"/>
	<path fill="#4D4D4F" d="M41.352,23.643H5.897l6.862,103.549c0,1.207,12.642,2.187,28.24,2.187c15.597,0,28.24-0.979,28.24-2.187
		l6.862-103.549H41.352z"/>
	<path d="M71.59,104.495l-1.533,23.137h5.101c0.772-2.594,1.275-6.807,1.275-11.568s-0.503-8.976-1.275-11.568H71.59z"/>
	<path d="M10.419,104.495l1.532,23.137h-5.1c-0.772-2.594-1.276-6.807-1.276-11.568s0.504-8.976,1.276-11.568H10.419z"/>
	<rect y="16.957" fill="#4D4D4F" width="82" height="6.686"/>
	<path fill="#4D4D4F" d="M62.771,7.851h-4.253V1.408C58.519,0.63,57.889,0,57.11,0H24.926c-0.776,0-1.407,0.63-1.407,1.408v6.443
		h-4.251V7.105L7.789,7.799v3.255h66.422V7.799L62.771,7.108V7.851z M25.685,7.851l-0.014-4.18
		c-0.003-0.777,0.625-1.408,1.403-1.408h27.852c0.777,0,1.409,0.63,1.412,1.408l0.014,4.18H25.685z"/>
</g>
</svg>
