<?xml version="1.0" encoding="utf-8"?>
<svg class="dodont" version="1.1" xmlns="http://www.w3.org/2000/svg" xmlns:xlink="http://www.w3.org/1999/xlink"
    height="78" width="78">
    <defs>
        <ellipse id="ellipse-1" opacity="1" rx="39" ry="39" cx="39" cy="39" />
        <rect id="rect-2" opacity="1" x="21" y="21" width="36" height="36.00000000000032" />
        <mask id="mask-3" maskUnits="userSpaceOnUse" maskContentUnits="userSpaceOnUse">
            <rect opacity="1" x="0" y="0" width="78" height="78" fill="Black" />
            <use xlink:href="#rect-2" fill="White" />
        </mask>
        <path id="path-4" opacity="1" fill-rule="evenodd"
            d="M51.76171875000004,48.182812500000594 L42.57890625000002,39.00000000000051 L51.76171875000004,29.81718750000043 C52.75312500000005,28.825781250000418 52.75312500000005,27.229687500000406 51.76171875000004,26.238281250000394 C50.77031250000004,25.246875000000387 49.17421875000004,25.246875000000387 48.18281250000004,26.238281250000394 L39.00000000000001,35.42109375000048 L29.817187499999985,26.238281250000394 C28.825781249999984,25.246875000000387 27.22968749999998,25.246875000000387 26.238281249999975,26.238281250000394 C25.246874999999974,27.229687500000406 25.246874999999974,28.825781250000418 26.238281249999975,29.81718750000043 L35.42109375,39.00000000000051 L26.238281249999975,48.182812500000594 C25.246874999999974,49.174218750000605 25.246874999999974,50.77031250000062 26.238281249999975,51.761718750000625 C27.22968749999998,52.75312500000064 28.825781249999984,52.75312500000064 29.817187499999985,51.761718750000625 L39.00000000000001,42.57890625000054 L48.18281250000004,51.761718750000625 C49.17421875000004,52.75312500000064 50.770312500000045,52.75312500000064 51.76171875000004,51.761718750000625 C52.74609375000004,50.770312500000614 52.74609375000004,49.16718750000061 51.76171875000004,48.182812500000594Z" />
    </defs>
    <g opacity="1">
        <g opacity="1">
            <use xlink:href="#ellipse-1" fill="rgb(204,83,83)" fill-opacity="1" />
        </g>
        <g opacity="1">
            <g />
            <g mask="url(#mask-3)">
                <g opacity="1">
                    <g opacity="1">
                        <use xlink:href="#path-4" fill="rgb(255,255,255)" fill-opacity="1" />
                    </g>
                </g>
            </g>
        </g>
    </g>
</svg>