<?xml version="1.0" encoding="utf-8"?>
<!-- Generator: Adobe Illustrator 21.0.2, SVG Export Plug-In . SVG Version: 6.00 Build 0)  -->
<svg version="1.1" id="Layer_1" xmlns="http://www.w3.org/2000/svg" xmlns:xlink="http://www.w3.org/1999/xlink" x="0px" y="0px"
	 viewBox="0 0 680.3 192.1" style="enable-background:new 0 0 680.3 192.1;" xml:space="preserve">
<style type="text/css">
	.st0{fill:#FFFFFF;}
</style>
<g>
	<g>
		<path class="st0" d="M224.1,1.4H242v68.5h35.6v15.8h-53.6V1.4z"/>
		<path class="st0" d="M282.7,43.6c0-25.9,19.6-43.6,44.2-43.6c19.2,0,29.9,10.1,35.9,20.6l-15.4,7.6c-3.5-6.8-11.1-12.3-20.5-12.3
			c-14.7,0-25.8,11.7-25.8,27.7c0,15.9,11.1,27.7,25.8,27.7c9.3,0,16.9-5.3,20.5-12.3l15.4,7.5c-6.1,10.5-16.7,20.7-35.9,20.7
			C302.3,87.2,282.7,69.5,282.7,43.6z"/>
		<path class="st0" d="M369.5,43.6C369.5,17.7,389,0,413.7,0c19.2,0,29.9,10.1,35.9,20.6l-15.4,7.6c-3.5-6.8-11.1-12.3-20.5-12.3
			c-14.7,0-25.8,11.7-25.8,27.7c0,15.9,11.1,27.7,25.8,27.7c9.3,0,16.9-5.3,20.5-12.3l15.4,7.5c-6.1,10.5-16.7,20.7-35.9,20.7
			C389,87.2,369.5,69.5,369.5,43.6z"/>
		<path class="st0" d="M224.1,106.2h33.2c26.4,0,44.7,16.8,44.7,42.2c0,25.4-18.3,42.1-44.7,42.1h-33.2V106.2z M257.3,174.7
			c16.7,0,26.4-12,26.4-26.3c0-14.9-9.1-26.4-26.4-26.4H242v52.7H257.3z"/>
		<path class="st0" d="M314.8,106.2h17.9v84.3h-17.9V106.2z"/>
		<path class="st0" d="M390.2,104.8c17.4,0,28.4,8.5,34.9,18.4l-14.9,8.1c-3.9-5.9-11.1-10.6-20-10.6c-15.3,0-26.4,11.7-26.4,27.7
			c0,15.9,11.1,27.7,26.4,27.7c7.7,0,14.5-3.2,18.2-6.4v-10.2h-22.5V144h40.2v32.2c-8.6,9.6-20.6,15.9-35.9,15.9
			c-24.6,0-44.8-17.2-44.8-43.7C345.3,121.8,365.5,104.8,390.2,104.8z"/>
		<path class="st0" d="M440.3,106.2h17.9v84.3h-17.9V106.2z"/>
		<path class="st0" d="M494.4,122h-24.6v-15.8H537V122h-24.5v68.5h-18.1V122z"/>
		<path class="st0" d="M594,176h-37.6l-5.3,14.5h-19.7l32.6-84.3h22.5l32.5,84.3h-19.6L594,176z M561.2,160.4h27.9l-13.9-38.7
			L561.2,160.4z"/>
		<path class="st0" d="M626.8,106.2h17.9v68.5h35.6v15.8h-53.6V106.2z"/>
	</g>
	<path class="st0" d="M193.2,171.1l-4.4,6.7l6,6.6h-46.1v-9.4h-7.3v-4L193.2,171.1L193.2,171.1z M51.4,177.7h95v13.2h-95V177.7z
		 M4.2,171.1h51.7v3.9h-7.2v9.4H2.5l6-6.7L4.2,171.1z M51.2,29c0-1,1.1-1.8,2.6-1.8c1.4,0,2.5,0.8,2.5,1.8c0,1-1.1,1.8-2.5,1.8
		l-0.6-0.1c-1.9,2.2-2.1,5-2.1,5v4H27c0,0,0.1-2.8,0-3.8c-0.1-1.2-1.6-3.9-2.6-5h-0.3c-1.5,0-2.6-0.8-2.6-1.8c0-1,1.1-1.8,2.6-1.8
		c1.4,0,2.5,0.8,2.5,1.8l0,0.3c5.9,6.3,10.6,7,11.2-0.2h2.3c0.1,7,3.7,6.9,11.2,0.4C51.2,29.4,51.2,29.2,51.2,29z M36.6,26.6
		c0-1,1.1-1.8,2.5-1.8c1.5,0,2.6,0.8,2.6,1.8c0,1-1.1,1.8-2.6,1.8C37.7,28.3,36.6,27.6,36.6,26.6z M27.1,42.8c0,0.2-0.2,2.2,1.3,2.9
		c3.5,1.4,9.9-0.3,11.9,8.8c0.1,0.3,0.6,0.4,0.8-0.1c-0.3-5.3,2.8-7.9,7.8-9.2c1.4-0.4,2.7-0.8,3-1.6c0.2-0.9-0.4-4,2.5-4
		c0.4,0,1.3,0.3,1.4,1.2c0.2,1.6-1.1,2.1-0.7,2.7c0.5,0.6,0.1,1.3,0.1,1.3c-0.4,0.6-0.7,0.3-2.4,1.1c-1.9,0.8-2.8,2-3.1,2.7
		c-0.2,0.6-0.1,0.5,0,1.3c0.1,0.9,1.9,1.4,1.4,1.5c-0.5,0.1-1.5,0.2-1.8,0.5c-0.3,0.4-1.2,1.6-2.5,1.7c-1.3,0.2-1.3-0.1-2.3,0.4
		c-2.6,1.2-3.1,3.1-3.3,3.9c-0.1,0.8-0.3,1-0.6,0.8c-0.3-0.3-0.1-0.7-0.7-1.6c-0.7-0.9-1.3-2.5-3.2-2.6c-1.3-0.1-3.8,0.2-4.4-0.6
		c-1.1-1.6-2.2-1.4-2.2-1.8c0-0.3,1.2-0.4,1-1.4c-0.1-1.1-0.6-1.8-2.5-2.7c-1.9-0.9-3.5-0.9-3.8-1.3c-0.3-0.5-0.3-0.6-0.1-1.1
		c0.2-0.9,0.1-0.5-0.6-1.1c-0.7-0.7-0.4-3.5,1.4-3.4C26.5,41.1,27.1,42.3,27.1,42.8z M32.5,51.8c0.1,1,1,1.7,2,1.6
		c0.9-0.1,1.6-1,1.5-2c-0.1-1-0.9-1.6-2-1.5C33,49.9,32.3,50.8,32.5,51.8z M43.8,51.1c0.1,1,1,1.7,2,1.6c0.9-0.1,1.6-1,1.5-1.9
		c-0.1-1-1-1.7-2-1.6C44.4,49.3,43.7,50.2,43.8,51.1z M54.3,91.4l-1,3.9c-0.4-1-1.6-0.6-2.5-0.1l1.5-4.5
		C53.3,89.7,54.1,89.9,54.3,91.4z M49.7,105.8c-1.4,4-5.6,8.5-9.3,11.2c-3.6,2.3-0.6-0.3-0.6-0.5c4.9-5.2,6.3-7.4,8.3-12.1
		C48.9,103.7,50.4,104.5,49.7,105.8z M55.3,77.7v4.1c-0.7-0.8-1.4-0.8-2.1,0v-4.1C53.8,76.4,54.7,76.3,55.3,77.7z M51.6,65.9
		c1.8,1.6,2.1,2.9,2.3,4.4c-0.1-0.2-1.6-1.7-2.3-0.1c-0.4-1.4-0.9-2.5-1.9-3.4C49.3,66.7,49.1,64.4,51.6,65.9z M47.5,77.6l0.2,4.1
		c-0.7-0.7-1.4-0.7-2,0.1l-0.2-4C45.9,76.5,46.8,76.3,47.5,77.6z M42.5,66.4c1.9,1.5,2.6,2.3,3.2,3.8c-0.1-0.2-2.8-2.3-3.1,0.2
		c-0.4-1.4-1-2.3-2-3C40.2,67.4,39.9,65.1,42.5,66.4z M141.6,29c0-1,1.1-1.8,2.6-1.8c1.4,0,2.5,0.8,2.5,1.8c0,0.2,0,0.3-0.1,0.5
		c7.4,6.4,11,6.5,11.2-0.4h2.3c0.6,7.2,5.3,6.4,11.2,0.2l-0.1-0.3c0-1,1.2-1.8,2.6-1.8c1.4,0,2.5,0.8,2.5,1.8c0,1-1.1,1.8-2.5,1.8
		l-0.4-0.1c-0.9,1.1-2.5,3.8-2.5,5.1c-0.1,1,0,3.8,0,3.8h-24v-4c0,0-0.2-2.8-2.2-5l-0.6,0.1C142.7,30.9,141.6,30,141.6,29z
		 M156.2,26.5c0-0.9,1.1-1.8,2.5-1.8c1.4,0,2.6,0.8,2.6,1.8c0,1-1.2,1.8-2.6,1.8C157.4,28.3,156.2,27.5,156.2,26.5z M170.9,42.8
		c-0.1-0.5,0.5-1.7,1.7-1.8c1.8-0.1,2.1,2.7,1.4,3.4c-0.7,0.7-0.9,0.3-0.7,1.1c0.1,0.5,0.1,0.6-0.1,1.1c-0.2,0.4-2,0.4-3.8,1.3
		c-1.9,0.8-2.4,1.6-2.5,2.7c-0.1,1.2,1.1,1.2,1,1.5c0,0.4-1.1,0.2-2.2,1.8c-0.6,0.9-3.2,0.6-4.4,0.7c-1.9,0.1-2.5,1.7-3.2,2.6
		c-0.7,0.9-0.4,1.3-0.8,1.6c-0.3,0.2-0.4,0.1-0.6-0.8c-0.2-0.8-0.7-2.7-3.2-4c-0.9-0.4-1-0.3-2.3-0.4c-1.3-0.2-2.2-1.3-2.5-1.7
		c-0.3-0.4-1.2-0.4-1.7-0.6c-0.5-0.1,1.3-0.5,1.4-1.5c0.1-0.8,0.2-0.6-0.1-1.3c-0.3-0.7-1.1-1.7-3-2.6c-1.8-0.8-2-0.5-2.5-1.1
		c-0.1-0.1-0.4-0.7,0.1-1.4c0.5-0.6-0.8-0.9-0.7-2.6c0.1-1,1-1.2,1.4-1.2c2.8-0.1,2.1,3.1,2.5,4c0.2,0.8,1.6,1.1,3,1.6
		c4.9,1.3,8,3.8,7.8,9.2c0.3,0.4,0.6,0.3,0.8,0c2-9.1,8.5-7.4,11.9-8.8C171.1,45.1,170.8,43,170.9,42.8z M153.4,51.1
		c0.1-0.9-0.5-1.8-1.5-1.9c-0.9-0.1-1.8,0.6-2,1.5c-0.1,1,0.6,1.9,1.5,2C152.4,52.8,153.3,52.1,153.4,51.1z M164.8,51.8
		c0.1-1-0.6-1.9-1.5-2c-1-0.1-1.8,0.6-2,1.5c-0.1,1,0.6,1.8,1.5,2C163.8,53.4,164.6,52.7,164.8,51.8z M143.5,91.4
		c0.2-1.5,1.1-1.7,1.9-0.7l1.6,4.5c-0.8-0.4-2-0.9-2.5,0.1L143.5,91.4z M148.2,105.8c-0.7-1.3,0.8-2.1,1.7-1.3
		c1.9,4.7,3.3,6.9,8.2,12.1c0.1,0.2,3,2.9-0.6,0.5C153.8,114.3,149.6,109.8,148.2,105.8z M142.6,77.6c0.6-1.3,1.4-1.2,2,0.1v4
		c-0.6-0.8-1.3-0.8-2,0V77.6z M146.2,65.9c2.5-1.5,2.4,0.8,1.9,0.9c-1,0.8-1.4,1.9-1.8,3.4c-0.7-1.6-2.2-0.1-2.3,0
		C144.2,68.8,144.5,67.4,146.2,65.9z M150.4,77.6c0.7-1.3,1.6-1.1,2.1,0.1l-0.3,4.1c-0.6-0.8-1.3-0.8-2-0.1L150.4,77.6z M155.5,66.4
		c2.5-1.4,2.2,0.9,1.8,0.9c-1,0.8-1.5,1.7-2,3.1c-0.3-2.5-3-0.4-3.1-0.3C152.8,68.7,153.6,67.9,155.5,66.4z M129.3,1.5
		c7,1.2,7.7,2.5,8.1,3c0.4,1.4,0.3,2.9,0,5.8c0,0.9-1.7,2.5-1.7,2.3c-0.3-4.2-0.8-3-2.3-4.3C131.3,6.2,129.7,3.4,129.3,1.5z
		 M182.6,10c2.1,0.9,1.2,4.1,0.9,4.4c-1.6,3.2-4.7,5.3-10.4,5.5c1.7-0.8,4.2-1.3,5.2-5.6C178.9,10.9,180.1,9.2,182.6,10z M67.9,1.4
		c-0.4,1.8-2,4.7-4,6.8c-1.6,1.3-2.1,0.1-2.4,4.2c0,0.2-1.7-1.3-1.7-2.3c-0.3-2.8-0.4-4.4,0-5.7C60.2,3.9,60.9,2.6,67.9,1.4z
		 M14.7,9.9c2.5-0.8,3.7,1,4.3,4.4c1,4.2,3.5,4.7,5.2,5.6c-5.6-0.3-8.8-2.3-10.4-5.5C13.5,13.8,12.5,10.8,14.7,9.9z M132.1,9.1
		c1.1,0.6,1.7,1.7,2.1,3.6c0.2,0.9,1.6,1.4,4.4,1.2c-0.6,0.7-1.2,1.1-1.4,1.6c-0.8,2.4-1.3,5.1-1.6,8.2c-0.4,0.1-0.8-2.9-0.8-2.9
		c-1.3,1.1-2.9,2-4.7,2.9l-1.3,0.5c-2.3,2.1-4.3,5.9-7.3,9.5c-1.7,1.4-3.7,1.4-5.7,1.4c-0.4,0.1-3.3-0.6-3.3-0.6
		c0.1,0.1,3.8-1.5,3.8-1.5c0.9-0.6,2.4-1.3,3.5-3c1.1-2,1.8-4.7,2-8.5c0,0-0.4-4.2,2.1-6.6c0.3-0.4,0.6-0.8,0.9-1.5
		c0.4,0.6,0.4,0.9,0.6,1.3c0.8,1,1.3,1.5,1.9,2.7c0.1,0.2,0.3,0.2,0.5,0.5c-0.1-1.5-0.1-2.8,0.4-3.9C128.7,11.8,131,9.8,132.1,9.1z
		 M172,10.8c2.5-0.5,4.3,0.2,5.4,1.8c-0.1,1.1,0.1,7-7.1,6.1c-1.2-1.3-2.8-2.2-3.7-1.9c-0.6,0.7,0,1.4,1.1,2.4
		c0.7,0.9,0.6,1.6,0.6,2.2c-5,0.7-9.2-2.5-10.3-8.1c-0.7-1.8-2.8-3.1-4.9-4.4c4.4-0.3,9.2,0.5,10-0.3c1.6-1.6,2.3-1.9,3.8-2.3
		c0.6,0,3.2,0.2,4.4,0.8c1.2,0,2.5-0.3,3.5-0.8C174.6,7.9,173.7,9.4,172,10.8z M25.3,10.7c-1.7-1.4-2.6-3-2.9-4.5
		C23.4,6.7,24.7,7,25.9,7c1.2-0.4,3.7-0.8,4.3-0.7c1.5,0.3,2.4,0.7,3.9,2.2c0.9,0.9,5.7,0,10.1,0.4c-2.2,1.3-4.2,2.6-4.9,4.4
		c-1.1,5.6-5.3,8.8-10.3,8.1c-0.1-0.6-0.1-1.3,0.6-2.2c1.1-1,1.6-1.7,1.1-2.4c-1-0.3-2.5,0.6-3.7,1.9c-7.3,0.9-7.1-5-7.2-6.1
		C20.9,10.9,22.8,10.2,25.3,10.7z M88.3,46.1c-0.3-0.8,0.5-1.1,1.1-0.7c1.3,2.5,2.3,3.7,5.6,6.5c0.1,0.1,0.1,0.6-0.4,0.3
		C92,50.8,89.2,48.4,88.3,46.1z M85.2,38.3c0.2-0.8,0.8-0.9,1.3-0.4l1.1,2.5c-0.6-0.3-1.4-0.5-1.7,0.1L85.2,38.3z M84.7,30.8
		c0.4-0.7,1-0.7,1.4,0.1V33c-0.5-0.4-0.9-0.4-1.4,0V30.8z M98.2,105.7c0-1.1,0.8-1.9,1.8-1.9c1.1,0,1.9,0.8,1.9,1.9
		c0,1-0.8,1.9-1.9,1.9C99.1,107.6,98.2,106.7,98.2,105.7z M97.6,118c-0.9,0.9-1.6,2-1.8,3.1l0,3.8l0.6,2.3l0.3,6
		c-0.2,1.4-2.2,1.3-2.5,1.8c-0.5,0.9-0.3,2.8-0.6,3.9c-0.4,1.4-1.5,2.2-1.6,2.5c-0.3,0.4,0,2,0,2c0.2,0.8,0.1,11.6,0.6,12.2
		c0.4,1.3,0.6,2.5,0.8,3.6c-0.1,1.3-0.5,1.9-1.3,1.9c-0.6,0.1-1-0.3-1.1-1.2c0.1-2.3-0.1-5.5-0.4-9.7c-0.1-1.3-0.2-2.5-0.5-3.5
		l-2.3-4.1c-0.3-0.4-0.8-1-1.6-1.6l0.6-1.7c0.2-0.8,0.3-1.7,0.2-2.7c1.6,0,3-0.7,4-1.9c2.3-1.8,1-8.3-1.6-9.9
		c-1.2-0.8-2.7-0.7-4.5-0.4c-2.1,0.6-3.7,1.3-3.9,3.2c-0.2,1.6,0.2,2.1,1.3,2.1c1.1-0.3,0.9-1.2,1.8-2c1.2-0.8,2.8-0.7,3.9-0.2
		c1.8,1.1,2,4.4,1.4,5.5c-1,1.1-2.1,1.3-3.7,0.9c-0.5-0.2-1.4-1.1-0.9-2c0.7-0.6,1.1-0.5,1.5-0.2c0.6,0.5,1.3,0.5,1.8-0.1
		c0.4-0.7,0.1-1.4-0.8-2c-0.6-0.4-1.6-0.4-2.9-0.1c-1.6,0.8-2.2,2.3-2.1,3.7c0.3,1.7,1,3.2,2.4,3.3c0.2,0.6,0.2,1.2,0.1,1.8
		c-0.5,1.4-1.1,2.4-1.7,3.1c-0.7,0.4-1.6,0.4-2.7,0.1c-1.1-0.6-2-2.3-2.6-5c-0.4-1.8-1.2-3-2.3-3.6c-1-0.3-1.6-0.8-1.7-1.7
		c0-1.2,1.2-1.4,3-1.3c1.6-0.6,2-1.1,2.8-2.8c0.1-0.1,0.7-1,0.8-1.1c0.2-0.5,0-1.1,0-1.6l0-0.8c0.4-2.8,1.9-2.5,3.1-3.1
		c0.1-0.1,0.3-0.2,0.3-0.5c-0.1-4.4,2.1-6.3,7.1-6.6c1.8-3,3.7-4.1,6.9-3L97.6,118L97.6,118z M82.4,144c1-0.2,1.9-0.6,2.6-1.3
		c0.1,0.4,0.3,0.8,0.6,1c-0.3,3.2-0.3,6.6-0.2,10.2l0.5,0.7c0.1,1.3,0.1,1.5-0.2,2c-0.4,0.3-0.9,0.1-1.1-0.1
		c-0.7-0.8-0.9-1.3-1.1-2.1c-0.3-1.4-0.3-3.2-0.3-5.2c-0.2-0.2-0.4-0.7-0.5-1.3L82.4,144z M102.7,110.5c0.8-0.7,1.9-0.9,3.1-0.5
		c1,0.8,1.6,1.7,2.1,3c2.7-0.3,4.5,0.2,5.4,1.5c0.3,0.8,0.3,1.7,0,2.7c2.2,1.3,3.6,2.4,4.2,3.3c0.8,1.2,0.8,2.3-0.1,3.1
		c-0.2,0.6-0.2,0.9,0,1.2l2.1,2.7c1.1,1.4,1,2.6-0.4,3.7c-0.3,0.8-0.3,1.3,0.1,1.7c1.3,2.8,1.8,5.1,1.6,7c-0.5,1.2-1.3,1.3-2.6,0.3
		l-0.1-6.4c-0.6-1.5-2.3-0.9-2.3,0.6v7.4c0,1,0.4,2.1,0.6,3c0.2,0.6,0.1,7.8,0.1,7.8c-0.1,1.3-0.4,2.4-0.8,3l-1.7,2.2
		c-0.3,0.1-0.4,0-0.5-0.3c0.7-4.7,0.7-8.8,0.2-12.3l-3-6.8c-0.3-2.7-0.5-5-0.2-6.9c0.6-1.3,1.3-2.2,1.8-2.7c0.5-1.5,0-2-1.4-1.8
		c-1.9,1.4-2.7,3.8-2.5,7.2c0.6,2.5,0.8,4.2,0.6,5c-0.4,0.3-0.6,0.7-0.7,1.3c-0.4,2-0.3,3.9-0.1,5.9l-0.4,6.4
		c-0.5,0.9-1,1.6-1.6,1.9c0.1-7.6-0.2-12.2-0.7-14.5c-0.6-2.2-1.1-4,0.1-5.4c0.5-1.6,0.2-2.9,0.2-2.9l-0.7-2.6
		c-0.3-1.8-0.2-3.7,0.4-5.8c0.1-2.5-0.8-4.2-2.7-5.2L102.7,110.5L102.7,110.5z M181.2,85c0.1,1,0.2,2,0.2,2.9l2.6,3.8
		c-0.1-0.4,0-2-1.1-3.7C182.4,87.1,181.8,86.1,181.2,85z M181.1,94c-0.1,1.1-0.3,2.2-0.6,3.2l5.1,5.3l-0.2-2.5
		C184,98.2,182.8,96.4,181.1,94z M179.3,101.5l-0.9,2.6c2.7,2.7,5.6,5.1,8.7,7.5l-0.2-1.7C183.5,106.6,181.1,103.8,179.3,101.5z
		 M177.1,107.4L176,110c2.6,2.9,6.8,6.3,12.6,10.1c0-0.3,0-0.9-0.1-1.3C183.6,114.4,179.8,110.6,177.1,107.4z M174.7,112.6l-2.1,4.2
		c4.7,5.7,10.8,11.5,18.2,17.4c-1.5-2.8-2.3-5.6-2.6-8.2C185.5,124.5,181.1,119.9,174.7,112.6z M160.4,77.9c3.2-4.7,7.8-8.2,13-7.9
		c0.2-0.8-0.2-1.4-1.2-2.1c-1.1-0.5-1.8-0.3-3.5,0.5c-2.5,0.1-4.2-0.4-5.2-1.6c-0.1-0.3,0-0.4,0.3-0.5l4.3-1.6V64
		c-2.6,0.7-5.3,0.8-8.1,0.3c-1.5-0.2-2.3-1.3-2.6-3.3c-0.3-0.7,0.3-0.8,0.7-0.4c0.7,1.1,1.8,1.6,3.2,1.6c3.9-0.1,6.1-0.3,6.8-0.6
		c1.5-0.5,2.4-1.4,2.6-2.7c0.1-0.4-0.1-0.4-0.5-0.3c-2,0.8-2.5,0.6-3.8,0.5c-0.8,0-0.7-0.4,0.2-0.9c3.4-1.9,4.9-4.2,4.5-6.9
		c0.2-0.5,0.4-0.7,0.7-0.5c2.2,4,1.9,8.7-0.6,12.1c-0.2,0.2-0.2,0.4-0.2,0.7l0.4,0.5c6.3,7.7,10.5,16.7,13.4,26.8
		c2,9.4,4.2,33.9,8,40.6c1.4,3.9,3.1,7.4,5.1,10.6c-3.5,0.4-7.3-0.6-9.5-1.4l2.6,20.6l-14.5-4.4l-3.7-10c-0.2-0.5-0.5-0.7-1.1-0.3
		c-1.3,0.8-5,0.3-5.3,0.3c-1-0.2-1.3-0.1-1.5,0.4c-0.1,0.9-0.2,2.8,0,5.6c0.1,1,0.8,1.8,2,2.5l2,0.8c0.9,0.3,1.6,0.8,2,1.5
		c0.3,1,1,1.9,2.1,2.8c0.6,0.2,1.1,0.3,0.9,1.4c-0.1,0.9-0.8,1.4-1.4,1.3c-1.1-0.1-1.9-0.6-2.5-1.4c-1.1-1.6-2.6-2.8-4.4-3.6
		c-1.8-0.9-4.5-1-7.8,0c-3.8,1.4-7.1,3.2-9.1,5.1c-0.4,0.2-0.6,0.2-0.8-0.1l0.9-4.9c0.3-0.7,0.7-1.3,1.3-1.5l10.6-2.8l0.2-7.7
		c-2.3-1.6-3.9-3.6-5-6c-1.1-4.2-6-6.3-6-6.3c-1.9-1.1-2.8-1.9-4.1-2l-0.2-0.2c-0.9-0.1-2.7-0.1-5,0.1c-1,0.2-1.8,0.9-2.4,2.1
		l-0.7,1.9c-0.2,1-0.5,1.2-1.4,2c-1,0.4-2,1.1-2.7,2.1l-0.3,0.5v0.4c-1.5,4.6-13.9,23.9-34.4,31.8c-15.9-5.9-31-23.4-33.7-31.6v-0.3
		c-0.3-0.2-0.5-0.5-0.6-0.8c-0.8-1.1-1.6-1.8-2.7-2.2c-0.9-0.8-1.1-1.1-1.4-2l-0.7-2c-0.6-1.2-1.4-1.8-2.4-2c-2.3-0.1-4.1-0.2-5-0.1
		l-0.1,0.2c-1.3,0.1-2.2,1-4.2,2c0,0-4.9,2.1-6,6.3c-1.1,2.4-2.7,4.4-4.9,5.9l0.2,7.7l10.6,2.8c0.6,0.2,1.1,0.7,1.4,1.6l0.9,4.9
		c-0.2,0.2-0.4,0.2-0.8,0c-2-2-5.2-3.7-9.1-5.1c-3.3-1.1-6-1-7.7-0.1c-1.8,0.8-3.3,2-4.4,3.6c-0.6,0.9-1.4,1.3-2.5,1.4
		c-0.6,0.1-1.3-0.4-1.4-1.3c-0.1-1.2,0.4-1.2,1-1.5c1-0.8,1.7-1.7,2.1-2.8c0.3-0.7,1-1.2,2-1.5l2-0.8c1.1-0.6,1.8-1.4,2-2.4
		c0.1-2.9,0.1-4.7-0.1-5.6c-0.1-0.6-0.4-0.6-1.5-0.4c-0.2,0.1-4,0.6-5.3-0.2c-0.6-0.4-0.9-0.2-1.1,0.3l-3.7,10l-14.5,4.4l2.7-20.6
		c-2.3,0.8-6,1.8-9.6,1.3c2-3.1,3.8-6.7,5.2-10.5c3.7-6.7,5.9-31.2,7.9-40.7c3-10.1,7.2-19,13.5-26.8l0.3-0.4
		c0.1-0.2-0.1-0.5-0.2-0.7c-2.5-3.4-2.8-8.1-0.6-12.1c0.3-0.3,0.5-0.1,0.8,0.5c-0.4,2.7,1.1,5,4.5,6.9c0.8,0.5,0.9,0.9,0.1,0.9
		c-1.3,0.1-1.8,0.4-3.8-0.5c-0.4-0.2-0.6-0.1-0.5,0.3c0.2,1.3,1.1,2.2,2.6,2.7c0.7,0.3,3,0.6,6.8,0.6c1.4,0,2.5-0.6,3.2-1.7
		c0.4-0.4,1-0.2,0.7,0.4c-0.2,2-1.1,3-2.6,3.2c-2.8,0.5-5.6,0.4-8.1-0.3v0.6l4.4,1.6c0.3,0.1,0.4,0.3,0.3,0.6
		c-1,1.1-2.7,1.7-5.2,1.6c-1.7-0.9-2.4-1.1-3.5-0.6c-1.1,0.8-1.4,1.6-1.1,2.4c4.9-0.3,9.4,2.9,12.6,7.5c2.7,2.2,3.9,8.7,3,14
		c-0.6,11.8-9.7,25.5-27.4,41.2l-3.4,24.4l2.3-0.9l2.4-17.4l2.1-0.8L13.7,156l5.9-1.8l8.3-21.6l1.8-2.3l2.2-1.2c1-0.3,1.4,0.4,1,1.1
		c-1.5,1.4-2.5,2.8-2.9,3.9l-2.5,6.4c-0.6,1.5-0.5,2.7,0.3,3.6c0.6,1.1,4.2,1,7.5-0.2c4-2.7,4.4-4.5,5.4-7.1c1-2.4,2.4-4.1,4.4-4.9
		c3.6-3,3-5.9,3-6.5l0.4-8.4c0.1-1.3,1.3-5,5.9-13.6C59,90.6,60.3,80.4,58,72.6c-0.6-5.6-3.2-8.7-7.8-9.1l-6.3,0.4
		c-1.2-0.6-2-1.3-2.5-2.3c-0.5-1-0.4-1.3,0.6-1.1c0.6,0.9,1.4,1.4,2.5,1.4l4.2-0.3c1.3-0.1,2.3-0.6,2.9-1.7c1.4-2,0.7-4.9,0.9-8
		c0.2-1.6,1.6-1.9,2.2-0.5c0.4,0.9,0.3,1.6-0.3,2.2c-0.1,3.3-0.2,5.5-1,6.9c-0.8,0.9-0.6,1.5,0.6,1.6c2.3,1.5,4.2,3.5,5.6,6.3
		c5,13.1,2.5,26.5-7.1,45.5c-1.1,3.1-1.6,6.8-1.4,11.1l0,2.6h7.4l3-10.6c0.3-0.7,0.8-1.1,1.6-1.3l2.2-0.4V76.1h22.9
		c-0.3-0.2,0.8-2.7,1.4-3c0.6-0.4,6.9-1.5,6.9-1.5v-3.7c0-0.5-1.5-1.4-2.1-2.1c-0.6-0.6-1.3-2-2-3.1c-0.7-1.1-1.5-2.7-1.8-3.1
		c-0.3-0.4-2-3.5-2.5-4.3c-0.5-0.9-0.6-2.5-0.9-3.7c-0.3-1.1-2.1-4.2-3-5.6c-1.3,1.1-1.8,1.3-3.7,2.1c-1.8,0.5-3.5,0.8-5.2,0.7
		c-3.2-0.3-5.3-1.6-6.4-3.7c-0.7-2-0.4-4.1,0.7-6.3c0.2-0.3,0.3-0.3,0.5,0l4.1,5.6c1.8,1.8,3.6,2.5,5.8,2.3c2.1-0.5,2.5-0.9,3.7-1.7
		l-0.6-1.6c-0.6,0.9-1.3,1.5-2.2,1.8c-0.8,0.4-1.6,0.4-2.4,0.2c-1-0.3-1.8-0.7-2.1-1.1c0.4-2.7,4.1-4.7,4.6-4.9c0,0,0.3-0.2,0.6-0.3
		l-0.3-1.2c-3.7-0.1-17,0.2-23.4-11.3c-3-5.4-5.6-11.8-9.1-14.1c-2.6-1.4-4.6-1.3-7.1,0.2c1.4-1.6,2.6-2.6,4.1-3c1.3-0.2,3,0,4.4,0
		c3.9,0.9,9,6.1,8.8,5.9c0.6,0.9,1.3,4.2,1.8,7.6c0.4,1.5,2.3,3.2,3,4.4c-0.4-1.6-0.5-3.2-0.2-4.5c1.4,1.2,2.3,1.3,4.4,2.2
		c2.6,1.9,4,5,6,7.8c1.5,1.7,4.4,2.8,6.8,3.1l-0.1-0.3l-0.1-0.6c-1.3-0.1-3.1-0.4-4.5-1.6c-2.9-3.7-4.9-7.5-7.2-9.5l-1.3-0.5
		c-1.8-0.9-3.4-1.8-4.7-2.9c0,0-0.4,2.9-0.8,2.9c-0.3-3.1-0.9-5.8-1.6-8.2c-0.3-0.6-0.9-0.9-1.5-1.6c2.8,0.2,4.2-0.2,4.5-1.2
		c0.3-1.9,0.9-3,2.1-3.7c1.2,0.8,3.3,2.8,4.1,4.8c0.4,1.2,0.5,2.5,0.4,4c0.1-0.3,0.4-0.3,0.5-0.4c0.6-1.2,1.1-1.6,1.9-2.7
		c0.1-0.4,0.1-0.8,0.5-1.3c0.4,0.7,0.6,1.1,1,1.4c2.5,2.5,2.1,6.7,2,6.7c0.3,3.7,1,6.5,2,8.5c1.1,1.6,1.5,1.8,2.5,2.2
		c0.3-4.9,3.2-8.8,4.5-9.2c0.3-0.1,0.6-0.4,0-0.5c-1-0.4-1.8-1.2-2-2.8c-0.1-1.1-0.5-7-0.3-7.6c0.2-0.6,1.2-0.1,1.3,0.2
		c0.1,0.3,0.3,4.5,0.5,6.2c0.3,1.7,1.8,2.8,2.4,3.1c0.6,0.2,3.6,0.1,4.5,0.1c0.8,0,0.2-0.2,0.6-0.4c0.5-0.2,0.8-0.2,1.1,0
		c0.3,0.1,0.1,0.9-0.1,1.3c-0.3,0.5-1.5,1-2.4,1.2c-0.9,0.2-1.8-0.2-2.5-0.2c-1.6,0.1-2.3,0.9-2.9,1.5c-1.3,1.4-2,3.1-2.7,6.1
		c-0.6,3,0.2,6,0.8,7.5c0.6,1.5,1.7,5.1,2.7,7.1c1,2,2.4,3.7,3,4.9c0.7,1.3,0.8,1.4,1.1,3.4c0.4,2.1,3.8,8.3,5.4,10.5
		c1.6,2.3,3.2,2.5,5.2,2.8c2,0.3,2.9-0.6,3.2-0.7c0.3-0.2-2.7-5.6-3.3-6.3c-0.5-0.7-0.9-0.8-0.9-0.8s-0.2-0.6,0-0.8
		c0.2-0.2,2,0.2,2.9,0.7c0.9,0.4,5.2,10.9,5.4,11.2c0.2,0.4,3.6,1.2,3.8,1.2c0.3-0.1-2.9-8.3-2.8-8.6c0.1-0.4,1.4,0,1.6,0
		c0.2,0,2.9,8.8,2.9,8.8l1.3,0.4c-0.5-1.8-1.9-11.4-2-11.5c-9.4-6.3-12.8-11-15-14.1c-2.4-3.3-2.8-6.7-2.9-10.2
		c-0.1-3.5,1.1-4.7,1.7-5.4l0.3-0.3c1.6-1.7,4-3,6.6-3.2c0-0.3,0.8-0.3,1.3-0.3c0.6,0,0.8-0.1,0.9-0.6c0.1-0.4-0.4-0.8-1.1-1.1
		c-0.6-0.4-1.2,0-2.3,0.2c-1.1,0.3-2.7-0.4-3.1-0.6c-0.4-0.2-0.3-0.4,0.2-0.5c1.4-0.3,2.4-0.4,3-1.5c-2.5,0.4-6.5,0.4-7,0.1
		c-0.4-0.2-1.2-1.1-1.4-1.6c-0.3-0.4,0.1-0.6,0.4-0.6c0.3,0,0.7,0.8,1.4,1c0.7,0.2,5.6-0.1,6.6-0.2c1-0.1,1.6-1.1,1.9-1.4
		c0.3-0.3,0-0.6-0.4-0.6c-0.4-0.1-1.8,0.3-2.4,0.3c-0.5,0-0.6,0-0.6-0.4c0-0.4,2-1.2,2.8-1.8c0.7-0.6,1-1.9,1-1.9s0.2-0.5,0.5-0.4
		c0.3,0.1,0.5,0.9,0.9,2c0.4,1.1-0.6,3.5-1.5,4.7c-0.2,0.1-0.5,0.3-0.9,0.4c0.4,0.4,3.4,4.1,4.9,6.4c0.6,0.9,1.3,2.1,2,3.5l0.6,0.6
		c0.9,1.5,2.6,2.6,5.1,2.5c3.5,0.3,6.2-1.1,7.8-2.9c2-2.7,3.4-5.9,6-7.8c2.1-0.8,3-1,4.4-2.1c0.2,1.3,0.1,2.9-0.2,4.5
		c0.8-1.2,2.6-2.9,3-4.3c0.6-3.4,1.2-6.7,1.8-7.6c-0.2,0.2,4.9-5.1,8.8-5.9c1.5,0,3.2-0.1,4.4,0.1c1.5,0.4,2.7,1.3,4.1,2.9
		c-2.5-1.4-4.6-1.6-7.1-0.1c-3.5,2.3-6.1,8.7-9.1,14.1c-6.5,11.7-20.2,11.4-24.4,11.3l-2.8-0.1l0.2,0.6c0.3-0.1,1.3-0.3,3.5,0.6
		c0.8,0.4,4.1,2.2,4.6,4.9c-0.4,0.5-1.1,0.9-2.1,1.2c-0.8,0.2-2,0.1-2.8-0.3c-0.8-0.2-1.6-0.7-2.2-1.6l0.3,1.8
		c1.1,0.9,1.5,1.4,3.7,1.8c2.2,0.3,3.9-0.4,5.8-2.3l4.1-5.6c0.2-0.2,0.4-0.2,0.5,0c1.2,2.3,1.4,4.4,0.7,6.3
		c-1.1,2.1-3.2,3.4-6.4,3.8c-1.8,0-3.4-0.3-5.3-0.8c-1.4-0.6-2.3-1-2.8-1.6c0.4,2.8,1,5.8,1.5,8c1.1,5.2,5.1,9.9,5.3,11.1
		c0.3,1.2-5.7-0.7-6.1-0.6c-0.4,0.2,1.4,9.2,1.1,9.2c-0.4,0.1-9-2-9.9-2.7c-0.9-0.6-1.5-3.3-1.9-3.6c-0.4-0.2-0.7,0.3-1.2,0.6
		c-0.5,0.4,0.1,2.9,0.6,3.3c0.5,0.5,2.5,0.9,3,1.2c0.5,0.4,0.8,1.3,1.2,1.5l1.5,1.2l-0.8,0.1h24.5v39.2l1.8,0.3
		c0.8,0.3,1.3,0.7,1.6,1.3l3,10.7l7.4-0.1l0.1-2.5c0.2-4.3-0.3-8-1.4-11.2c-9.6-19-12.1-32.3-7.1-45.5c1.4-2.8,3.2-4.9,5.6-6.3
		c1.1-0.2,1.3-0.8,0.5-1.7c-0.8-1.3-0.9-3.6-1-6.8c-0.6-0.6-0.6-1.4-0.2-2.3c0.6-1.4,2-1.1,2.3,0.5c0.1,3.2-0.6,6,0.8,8
		c0.6,1,1.6,1.5,2.9,1.7l4.1,0.2c1.1-0.1,1.9-0.5,2.5-1.4c0.9-0.3,1.1,0.1,0.6,1.1c-0.4,0.9-1.2,1.8-2.5,2.3l-6.3-0.4
		c-4.5,0.6-7.2,3.6-7.8,9.2c-2.3,7.8-1,18.1,3.7,30.8c4.6,8.6,5.8,12.2,5.9,13.6l0.4,8.3c0.1,0.6-0.5,3.5,3,6.6
		c1.9,0.8,3.4,2.5,4.3,4.9c1.1,2.7,1.4,4.6,5.4,7.2c3.2,1.3,6.9,1.3,7.4,0.2c0.8-0.8,0.9-2,0.3-3.6l-2.5-6.4c-0.5-1.2-1.5-2.5-3-4
		c-0.3-0.7,0-1.4,1-1.1l2.2,1.2l1.8,2.3l8.3,21.6l5.9,1.8l-2.5-17.7l2.1,0.8l2.4,17.4l2.2,0.9l-3.4-24.4
		c-17.6-15.7-26.7-29.4-27.4-41.2C156.7,86.6,157.8,80.2,160.4,77.9z M106.9,54c5,4.6,9.8,7.6,9,6.8c-0.1-0.2-1.3-3.1-1.5-3.6
		c-0.1-0.3-4.2-3.5-6.6-5.5L106.9,54z M108.5,49.5c2.3,1.5,5.6,3.8,6,3.8c0.2-0.1,0-0.3-0.1-0.6c-0.1-0.3-3.3-2.9-5.4-4.5
		L108.5,49.5z M109.5,46.1c1.7,1.1,4.2,3,4.4,3.1c0.3,0.1-0.1-0.6-0.1-0.9c0-0.3-2.5-2.5-3.9-3.9L109.5,46.1z M110.2,41.9l3.1,2.7
		c0,0,0-0.5-0.3-1.1c-0.2-0.5-1.8-2.5-2.7-3.5L110.2,41.9z M110.1,36.6c0.1-0.4,2,2,2,2s0.1,0.1-0.3-0.8c-0.5-1.1-1.3-2.4-2.3-3.6
		C109.7,35,109.9,35.8,110.1,36.6z M101,68.8c-1.3,0.4-2.7-0.2-2.7-0.2c0,0-0.1,2.5-0.1,2.9c0,0.4,1.6,0.7,1.8,0.9
		c0.3,0.2,1-0.4,1-0.4S101.1,70,101,68.8z M92.9,76.1h13.7c-0.4-0.2-2-1.7-2.8-1.5c-0.3,0.1,1.4,1.5,1.4,1.5s-2.3,0-2.6-0.1
		c-0.3-0.1-2.8-1.6-3.3-1.8C98.9,74,94.1,75.8,92.9,76.1z M89.4,76.1h3.2c-0.2-0.2-0.6-1-0.6-1.2C92,74.8,90,75.8,89.4,76.1z
		 M133.1,119.8v16.3c1-1,1.8-2.2,2.4-3.5c0.9-1.8,0.9-4.5-0.2-7.8C134.6,122.9,133.9,121.3,133.1,119.8z M65.1,136.3v-17
		c-0.9,1.6-1.8,3.4-2.5,5.4c-1.1,3.3-1.1,6.1-0.2,7.8C63,134.1,63.9,135.3,65.1,136.3z M96.6,107.6c-3.4-0.8-5.8,0.5-7.5,3.6
		c-4.8,0.2-7.3,2.5-7.6,7c-2.2,0.6-3.3,2-3.5,4.4c-2.3,0.2-3.6,1.9-4.1,5.1c-3.7,0-4,5.6,0.3,6.2c0.9,0.9,2,2.9,2.8,5.2
		c1,2.1,2.2,4,3.5,4.8c-0.1,2.6,0.2,4.5,0.7,5.9l0.4,5.8c0.6,1.4,1.6,3,3.2,3.1c2.5-0.2,3-2,2.1-5.4l0.3-6.8
		c0.4,0.4,0.8,1.1,0.9,2.1c0.4,2.7,0.4,6.8,0.7,12.1c1,2.5,1.6,2.1,3,2.5c1.6-0.1,2.5-1,2.9-3c0-1.6-0.2-3-0.7-4.2
		c-0.4-2.7-0.6-5.9-0.3-9.3c0.1-2.5,0.2-4.1,0.8-5c1.1-1.2,1.3-2.1,1.6-4.8c0.3-0.6,2-0.5,2.7-1.8c0.4-2,0.3-4.7-0.1-8.5
		c-0.7-1.8-0.9-3.4-0.6-5c0.1-1.2,0.8-1.8,2-1.7c1.1-0.1,1.8,0.6,2.1,2.1c0,1.5,0,2.7-0.3,4c-0.3,1.5-0.1,4,1,6.2
		c0.1,0.5-0.1,1.2,0.1,1.7c-0.3,1.1-1,1.6-1.1,3.9c0,1.3,0.7,3.4,0.7,3.4c0.8,1.6,1.1,5.7,1.1,12.2c-0.4,0.7-0.6,1.7,0.1,2.7
		c1.6,0.9,2.4,0.8,4-0.2c0.7-0.8,1.2-1.7,1.6-2.7c0.2-4.2,0.2-7.5-0.1-9.7c0.1-0.5,0.3-0.8,0.6-0.8c0.8,1.2,1.2,2.5,1.5,3.8
		c0,6.8-0.8,10.7-0.6,12.2c0.3,0.9,1.2,1.5,3.1,1.3c1.4-0.6,3.8-4.4,3.8-4.4c0.5-2.8,0.6-6.1,0.1-9.8c-0.1-0.8-0.1-1.2,0.1-2.1
		c0.2-0.6,0.2-0.8,0.7-0.8c1.8,0.4,3.1-0.5,3.8-2.8c0.1-1.1,0.1-2.8-0.1-4.8c-0.1-1.2-0.4-2.2-1.1-3c1.8-3,1.3-5.8-1.3-8.6
		c1-3.6-0.5-6.3-4.3-8.1c0.1-3.5-1.9-5.3-6.1-5.2c-0.7-2.2-2.6-3.3-5.7-3.2c0.3-3.2-0.3-5.5-3.6-5.9C99.6,101.4,95,101.7,96.6,107.6
		z M84,99.3l-2.4-7.6l6.4-4.7H80l-2.5-7.6l-2.4,7.6h-7.9l6.4,4.7l-2.5,7.6l6.4-4.7L84,99.3z M105.3,99.3l-2.5-7.6l6.4-4.7h-7.8
		l-2.5-7.6l-2.5,7.6h-7.8l6.4,4.7l-2.5,7.6l6.4-4.7L105.3,99.3z M126.8,99.3l-2.5-7.6l6.4-4.7h-7.9l-2.4-7.6l-2.5,7.6h-7.9l6.4,4.7
		l-2.4,7.6l6.4-4.7L126.8,99.3z M23.1,112.7c-6.3,7.3-10.7,11.8-13.5,13.4c-0.4,2.7-1.1,5.4-2.6,8.3c7.4-6,13.4-11.8,18.1-17.4
		L23.1,112.7z M20.7,107.5c-2.6,3.2-6.4,7-11.3,11.4c-0.1,0.3,0,0.9-0.1,1.3c5.8-3.7,9.9-7.2,12.6-10L20.7,107.5z M18.5,101.6
		c-1.8,2.3-4,5-7.7,8.3l-0.1,1.6c3-2.3,5.9-4.7,8.7-7.4L18.5,101.6z M16.9,94c-1.8,2.4-3,4.2-4.4,6l-0.1,2.5l5-5.2
		C17.2,96.2,17,95.1,16.9,94z M16.7,84.9c-0.6,1.1-1.2,2.2-1.7,3.2C14,89.8,14,91.4,14,91.9l2.6-3.9C16.6,86.9,16.7,85.9,16.7,84.9z
		 M96.4,14.7c0,0.8,0.6,1.3,1.3,1.3c0.7,0,1.3-0.6,1.3-1.3c0-0.8-0.6-1.3-1.3-1.3C97,13.4,96.4,14,96.4,14.7z M84.7,8.4
		c-0.1,0.4,0.1,0.7,0.4,0.9c0.3,0.3,0.9,0.5,1.7,0.8l2.3,1c0.7,0.3,1.3,0.1,1.9,0.8c0.6,0.6,0.8,1.3,1,1.9c0.2,0.6,0.2,1.2,0.5,2
		c0.3,0.8,0.1,1.1,0.5,1.3c0.4,0.2,0.7,0.1,0.9-0.2c0.3-0.3,0.4-1,0.5-1.6c0-0.5,0.3-1.3,0.9-2c0.6-0.8,2-1.6,3.3-1.9
		c1.3-0.2,1.8-0.1,2.8-0.3c1.2-0.3,1.7-0.4,1.9-1c0.1-0.6,0.2-1.3-0.6-1.5c-0.8-0.2-5.2-1.6-9.1-1.5C89.8,7.3,86.1,8,85.7,8
		C85,8,84.7,8.4,84.7,8.4z M87.7,14.2c0,0.7,0.6,1.3,1.3,1.3c0.8,0,1.3-0.6,1.3-1.3c0-0.8-0.6-1.4-1.3-1.4
		C88.4,12.8,87.7,13.4,87.7,14.2z M78.7,6c0,0,11.6-1.5,14.1-1.5c2.6-0.1,7.5,0.9,9.5,1.3c2.1,0.4,6.1,0.1,6.3,0.3
		c0.3,0.3,0.7,0.8,0.1,1.3c-0.6,0.5-3.2,2-3.2,2.6c0,0.6,0.1,1.1-0.3,1.4c-0.4,0.2-0.8,0-2.1,0.6c-1.3,0.6-2.1,1.2-2.4,1.7
		c-0.2,0.5-0.4,0.3-0.3,0.9c0.1,0.6,0.6,1,0.3,1.3c-0.2,0.3-0.4,0-0.7,0.3c-0.3,0.2-1.1,1.1-2.1,1.1c-1,0-1-0.2-1.8,0.1
		c-2,0.7-2.6,2.1-2.8,2.6c-0.2,0.6-0.3,0.8-0.6,0.5c-0.2-0.2-0.1-0.4-0.6-1.2c-0.4-0.7-1.1-2.3-2-2.4c-0.9-0.2-2.6-0.3-3.3-0.7
		c-0.6-0.5-1.3-0.5-1.2-1c0.1-0.5,0.7-0.5,0.7-1.3c0-0.9-0.3-1.8-1.7-2.6c-1.3-0.8-2.7-1.1-2.9-1.4c-0.1-0.4,0-0.4,0.1-0.8
		c0.2-0.4,0.6-0.2-0.1-0.5c-0.7-0.2-2.7-0.6-3.1-1.1c-0.4-0.4-0.7-1.3-0.5-1.3C78.5,5.9,78.7,6,78.7,6z"/>
</g>
</svg>
