<?xml version="1.0" encoding="utf-8"?>
<!-- Generator: Adobe Illustrator 16.0.3, SVG Export Plug-In . SVG Version: 6.00 Build 0)  -->
<!DOCTYPE svg PUBLIC "-//W3C//DTD SVG 1.1//EN" "http://www.w3.org/Graphics/SVG/1.1/DTD/svg11.dtd">
<svg version="1.1" id="Layer_1" xmlns="http://www.w3.org/2000/svg" xmlns:xlink="http://www.w3.org/1999/xlink" x="0px" y="0px"
	 width="100px" height="99.95px" viewBox="0 0 100 99.95" enable-background="new 0 0 100 99.95" xml:space="preserve">
<g>
	<ellipse fill="#007299" cx="49.997" cy="60.738" rx="49.36" ry="38.595"/>
	<path fill="#FFFFFF" d="M98.714,60.738c-0.058,11.093-6.265,20.816-14.944,27.351C73.707,95.667,60.855,98.944,48.384,98.67
		c-12.348-0.271-24.906-4.31-34.391-12.368c-8.225-6.99-13.452-17.142-12.61-28.078c0.852-11.056,8.096-20.423,17.073-26.408
		c10.602-7.069,23.741-9.763,36.341-8.852C75.085,24.432,98.598,38.008,98.714,60.738c0.004,0.829,1.29,0.829,1.286,0
		c-0.055-10.651-5.563-20.178-13.602-26.905c-9.239-7.734-21.27-11.619-33.188-12.255C31.417,20.415,4.198,31.943,0.375,55.891
		C-1.283,66.28,2.688,76.463,9.75,84.036c8.028,8.604,19.489,13.557,30.989,15.268c22.053,3.279,50.157-5.83,57.737-28.912
		c1.021-3.107,1.506-6.387,1.522-9.652C100.004,59.909,98.718,59.909,98.714,60.738z"/>
	<path fill="#FFFFFF" d="M22.336,44.799h8.017c3.12,0,5.438,0.463,6.953,1.389c1.513,0.93,2.271,2.372,2.271,4.333
		c0,1.286-0.33,2.388-0.988,3.3c-0.662,0.912-1.531,1.497-2.61,1.76v0.157c1.426,0.378,2.457,1.007,3.098,1.888
		c0.637,0.877,0.957,2.021,0.957,3.424c0,2.088-0.783,3.728-2.35,4.929c-1.567,1.199-3.701,1.798-6.404,1.798h-8.942V44.799H22.336z
		 M28.544,53.614h1.87c0.891,0,1.581-0.184,2.068-0.549c0.487-0.368,0.73-0.912,0.73-1.636c0-1.287-0.976-1.931-2.926-1.931h-1.743
		L28.544,53.614L28.544,53.614z M28.544,58.156v4.826h2.186c1.936,0,2.905-0.815,2.905-2.452c0-0.765-0.257-1.353-0.775-1.76
		c-0.521-0.409-1.272-0.614-2.257-0.614H28.544z"/>
	<path fill="#FFFFFF" d="M59.049,60.797c0,1.427-0.359,2.691-1.084,3.798c-0.724,1.106-1.765,1.964-3.128,2.575
		c-1.36,0.613-2.959,0.92-4.792,0.92c-1.531,0-2.813-0.107-3.853-0.322c-1.036-0.215-2.115-0.59-3.238-1.123v-5.531
		c1.186,0.605,2.417,1.081,3.695,1.42c1.276,0.342,2.452,0.512,3.519,0.512c0.925,0,1.602-0.159,2.027-0.478
		c0.43-0.319,0.645-0.729,0.645-1.235c0-0.314-0.085-0.59-0.257-0.826c-0.175-0.232-0.452-0.473-0.833-0.713
		c-0.383-0.241-1.402-0.732-3.057-1.479c-1.501-0.681-2.622-1.339-3.372-1.979c-0.75-0.64-1.304-1.373-1.667-2.201
		c-0.36-0.825-0.542-1.805-0.542-2.937c0-2.119,0.771-3.769,2.312-4.953c1.54-1.181,3.655-1.773,6.35-1.773
		c2.379,0,4.806,0.548,7.275,1.649l-1.9,4.792c-2.148-0.983-4.002-1.476-5.563-1.476c-0.809,0-1.395,0.141-1.76,0.422
		c-0.368,0.285-0.553,0.636-0.553,1.054c0,0.451,0.234,0.854,0.7,1.211c0.466,0.355,1.73,1.004,3.796,1.947
		c1.979,0.891,3.354,1.85,4.123,2.868C58.665,57.961,59.049,59.249,59.049,60.797z"/>
	<polygon fill="#FFFFFF" points="62.604,67.774 62.604,44.799 68.809,44.799 68.809,62.763 77.657,62.763 77.657,67.774 	"/>
	<path fill="#FFFFFF" d="M22.336,71.648h1.133c0.529,0,0.915,0.082,1.153,0.242c0.239,0.159,0.356,0.407,0.356,0.752
		c0,0.235-0.064,0.437-0.199,0.59c-0.132,0.151-0.326,0.252-0.579,0.299v0.029c0.607,0.103,0.912,0.424,0.912,0.959
		c0,0.358-0.12,0.637-0.362,0.842c-0.242,0.197-0.581,0.3-1.018,0.3h-1.396V71.648z M22.804,73.365h0.765
		c0.33,0,0.566-0.051,0.712-0.153c0.144-0.103,0.217-0.277,0.217-0.521c0-0.229-0.082-0.389-0.241-0.485
		c-0.163-0.103-0.418-0.15-0.771-0.15h-0.682V73.365z M22.804,73.758v1.5h0.834c0.324,0,0.567-0.059,0.732-0.186
		c0.162-0.127,0.245-0.322,0.245-0.586c0-0.254-0.084-0.434-0.253-0.551c-0.166-0.119-0.421-0.178-0.763-0.178H22.804L22.804,73.758
		z"/>
	<path fill="#FFFFFF" d="M27.275,72.603c0.135,0,0.255,0.004,0.359,0.028l-0.063,0.423c-0.123-0.027-0.233-0.041-0.329-0.041
		c-0.243,0-0.451,0.098-0.625,0.293c-0.169,0.2-0.256,0.444-0.256,0.739v1.613h-0.455v-3.002h0.374l0.053,0.551h0.022
		c0.109-0.192,0.245-0.342,0.401-0.451C26.914,72.656,27.088,72.603,27.275,72.603z"/>
	<path fill="#FFFFFF" d="M28.156,71.838c0-0.102,0.027-0.18,0.08-0.229c0.051-0.049,0.113-0.072,0.189-0.072
		c0.075,0,0.137,0.027,0.191,0.074c0.052,0.049,0.079,0.127,0.079,0.227c0,0.104-0.027,0.179-0.079,0.229
		c-0.055,0.052-0.116,0.076-0.191,0.076c-0.076,0-0.139-0.024-0.189-0.076C28.184,72.017,28.156,71.943,28.156,71.838z
		 M28.652,75.661h-0.455v-3.002h0.455V75.661z"/>
	<path fill="#FFFFFF" d="M30.588,75.336c0.081,0,0.156-0.004,0.232-0.02c0.073-0.008,0.134-0.023,0.178-0.035v0.352
		c-0.05,0.021-0.121,0.041-0.217,0.054c-0.098,0.019-0.183,0.024-0.26,0.024c-0.581,0-0.872-0.303-0.872-0.918v-1.789h-0.43v-0.219
		l0.43-0.184l0.19-0.643h0.264v0.696h0.872v0.349h-0.872v1.768c0,0.184,0.046,0.322,0.13,0.422
		C30.318,75.29,30.437,75.336,30.588,75.336z"/>
	<path fill="#FFFFFF" d="M31.562,71.838c0-0.102,0.024-0.18,0.076-0.229c0.052-0.049,0.114-0.072,0.19-0.072
		c0.075,0,0.138,0.027,0.191,0.074c0.051,0.049,0.078,0.127,0.078,0.227c0,0.104-0.027,0.179-0.078,0.229
		c-0.054,0.052-0.116,0.076-0.191,0.076c-0.076,0-0.139-0.024-0.19-0.076C31.587,72.017,31.562,71.943,31.562,71.838z
		 M32.054,75.661H31.6v-3.002h0.454V75.661z"/>
	<path fill="#FFFFFF" d="M34.956,74.836c0,0.281-0.103,0.498-0.313,0.648c-0.208,0.15-0.501,0.227-0.876,0.227
		c-0.396,0-0.71-0.063-0.933-0.188V75.1c0.146,0.074,0.299,0.131,0.464,0.174c0.167,0.039,0.325,0.063,0.478,0.063
		c0.24,0,0.422-0.032,0.549-0.112c0.129-0.08,0.193-0.188,0.193-0.347c0-0.112-0.052-0.219-0.15-0.301
		c-0.105-0.082-0.3-0.182-0.595-0.297c-0.279-0.105-0.48-0.195-0.598-0.27c-0.118-0.08-0.207-0.166-0.265-0.268
		c-0.054-0.099-0.082-0.218-0.082-0.354c0-0.242,0.098-0.437,0.299-0.58c0.196-0.144,0.47-0.207,0.817-0.207
		c0.321,0,0.641,0.062,0.947,0.192l-0.16,0.371c-0.302-0.125-0.575-0.184-0.82-0.184c-0.218,0-0.379,0.031-0.488,0.098
		c-0.107,0.066-0.163,0.16-0.163,0.281c0,0.078,0.021,0.148,0.061,0.203c0.041,0.057,0.108,0.115,0.2,0.162
		c0.092,0.053,0.265,0.125,0.524,0.227c0.356,0.125,0.598,0.258,0.723,0.387C34.894,74.474,34.956,74.64,34.956,74.836z"/>
	<path fill="#FFFFFF" d="M37.752,75.661v-1.945c0-0.242-0.057-0.426-0.166-0.547c-0.11-0.123-0.287-0.183-0.524-0.183
		c-0.314,0-0.547,0.089-0.693,0.257c-0.145,0.174-0.216,0.452-0.216,0.844v1.574h-0.456v-4.267h0.456v1.291
		c0,0.153-0.007,0.283-0.023,0.387h0.027c0.09-0.143,0.217-0.26,0.383-0.344c0.165-0.08,0.355-0.121,0.567-0.121
		c0.368,0,0.641,0.086,0.826,0.261c0.183,0.174,0.273,0.45,0.273,0.829v1.964H37.752z"/>
	<path fill="#FFFFFF" d="M42.932,74.593c0,0.352-0.129,0.627-0.383,0.823c-0.258,0.197-0.606,0.295-1.044,0.295
		c-0.475,0-0.841-0.063-1.097-0.186v-0.449c0.166,0.072,0.345,0.123,0.537,0.166c0.195,0.041,0.387,0.064,0.576,0.064
		c0.312,0,0.548-0.059,0.703-0.18c0.156-0.117,0.236-0.281,0.236-0.49c0-0.143-0.028-0.252-0.085-0.346
		c-0.056-0.086-0.148-0.172-0.279-0.242c-0.132-0.074-0.328-0.16-0.595-0.254c-0.376-0.137-0.643-0.293-0.802-0.478
		c-0.158-0.18-0.239-0.42-0.239-0.713c0-0.313,0.116-0.556,0.349-0.737c0.231-0.183,0.539-0.277,0.92-0.277
		c0.4,0,0.767,0.076,1.1,0.221l-0.145,0.404c-0.331-0.137-0.653-0.207-0.966-0.207c-0.245,0-0.439,0.057-0.577,0.164
		c-0.14,0.104-0.208,0.248-0.208,0.434c0,0.143,0.026,0.258,0.075,0.346c0.052,0.088,0.139,0.168,0.26,0.246
		c0.122,0.068,0.308,0.152,0.559,0.242c0.421,0.148,0.708,0.309,0.865,0.482C42.853,74.095,42.932,74.318,42.932,74.593z"/>
	<path fill="#FFFFFF" d="M43.644,71.838c0-0.102,0.025-0.18,0.075-0.229c0.052-0.049,0.116-0.072,0.193-0.072
		c0.073,0,0.135,0.027,0.188,0.074c0.054,0.049,0.081,0.127,0.081,0.227c0,0.104-0.027,0.179-0.081,0.229
		c-0.054,0.052-0.115,0.076-0.188,0.076c-0.077,0-0.142-0.024-0.193-0.076C43.669,72.017,43.644,71.943,43.644,71.838z
		 M44.137,75.661h-0.455v-3.002h0.455V75.661z"/>
	<path fill="#FFFFFF" d="M47.561,72.659v0.282l-0.555,0.063c0.049,0.068,0.096,0.146,0.136,0.252c0.038,0.105,0.06,0.22,0.06,0.351
		c0,0.297-0.1,0.529-0.301,0.707c-0.203,0.174-0.479,0.265-0.827,0.265c-0.088,0-0.173-0.011-0.253-0.025
		c-0.192,0.107-0.29,0.23-0.29,0.387c0,0.084,0.034,0.148,0.102,0.186c0.066,0.037,0.184,0.06,0.35,0.06h0.529
		c0.326,0,0.575,0.067,0.749,0.203c0.176,0.139,0.265,0.338,0.265,0.598c0,0.334-0.136,0.586-0.404,0.765
		c-0.264,0.178-0.652,0.258-1.164,0.258c-0.394,0-0.697-0.072-0.909-0.219c-0.215-0.146-0.32-0.351-0.32-0.613
		c0-0.189,0.06-0.346,0.177-0.48c0.116-0.133,0.279-0.225,0.491-0.271c-0.075-0.032-0.141-0.086-0.191-0.161
		c-0.054-0.072-0.08-0.158-0.08-0.255c0-0.108,0.029-0.204,0.089-0.288c0.059-0.078,0.151-0.162,0.276-0.236
		c-0.154-0.063-0.281-0.172-0.378-0.323c-0.1-0.158-0.148-0.33-0.148-0.525c0-0.332,0.1-0.586,0.297-0.764
		c0.196-0.179,0.476-0.265,0.836-0.265c0.161,0,0.3,0.013,0.429,0.056h1.034V72.659z M45.166,76.167
		c0,0.164,0.067,0.283,0.203,0.369c0.139,0.079,0.334,0.123,0.591,0.123c0.383,0,0.665-0.054,0.849-0.169
		c0.183-0.114,0.275-0.268,0.275-0.467c0-0.164-0.048-0.278-0.152-0.34c-0.099-0.063-0.287-0.097-0.567-0.097H45.82
		c-0.208,0-0.368,0.052-0.483,0.152C45.223,75.833,45.166,75.978,45.166,76.167z M45.413,73.62c0,0.209,0.06,0.366,0.178,0.477
		c0.12,0.105,0.284,0.16,0.496,0.16c0.443,0,0.665-0.215,0.665-0.648c0-0.453-0.225-0.676-0.674-0.676
		c-0.213,0-0.379,0.057-0.495,0.172C45.472,73.215,45.413,73.388,45.413,73.62z"/>
	<path fill="#FFFFFF" d="M50.234,75.661v-1.945c0-0.242-0.058-0.426-0.17-0.547c-0.107-0.123-0.283-0.183-0.521-0.183
		c-0.317,0-0.545,0.086-0.692,0.257c-0.146,0.172-0.219,0.446-0.219,0.84v1.578h-0.454v-3.002h0.37l0.072,0.405h0.022
		c0.094-0.146,0.224-0.26,0.394-0.344c0.167-0.08,0.354-0.117,0.562-0.117c0.361,0,0.634,0.084,0.816,0.26
		c0.184,0.175,0.273,0.451,0.273,0.834v1.964H50.234z"/>
	<polygon fill="#FFFFFF" points="53.15,75.661 53.15,71.648 53.615,71.648 53.615,75.238 55.385,75.238 55.385,75.661 	"/>
	<path fill="#FFFFFF" d="M57.846,75.661l-0.092-0.431h-0.021c-0.15,0.188-0.299,0.315-0.449,0.385
		c-0.148,0.068-0.333,0.099-0.557,0.099c-0.297,0-0.531-0.076-0.701-0.23c-0.168-0.152-0.254-0.373-0.254-0.656
		c0-0.6,0.484-0.922,1.455-0.953l0.51-0.016v-0.184c0-0.238-0.053-0.414-0.151-0.525c-0.101-0.109-0.265-0.164-0.485-0.164
		c-0.25,0-0.535,0.072-0.849,0.225l-0.142-0.344c0.146-0.084,0.309-0.146,0.486-0.193c0.176-0.045,0.354-0.063,0.53-0.063
		c0.358,0,0.624,0.078,0.796,0.236c0.172,0.157,0.26,0.413,0.26,0.764v2.054h-0.336V75.661z M56.816,75.336
		c0.281,0,0.504-0.08,0.668-0.233c0.16-0.153,0.242-0.371,0.242-0.653v-0.271L57.271,74.2c-0.362,0.016-0.623,0.069-0.782,0.172
		c-0.161,0.098-0.239,0.252-0.239,0.461c0,0.166,0.047,0.293,0.148,0.377C56.497,75.293,56.637,75.336,56.816,75.336z"/>
	<path fill="#FFFFFF" d="M61.173,75.661v-1.945c0-0.242-0.054-0.426-0.166-0.547c-0.112-0.123-0.286-0.183-0.524-0.183
		c-0.313,0-0.545,0.086-0.691,0.257c-0.143,0.172-0.217,0.446-0.217,0.84v1.578h-0.455v-3.002h0.37l0.073,0.405h0.022
		c0.095-0.146,0.224-0.26,0.394-0.344c0.166-0.08,0.353-0.117,0.561-0.117c0.359,0,0.633,0.084,0.816,0.26
		c0.183,0.175,0.271,0.451,0.271,0.834v1.964H61.173z"/>
	<path fill="#FFFFFF" d="M65.021,72.659v0.282l-0.556,0.063c0.05,0.068,0.099,0.146,0.136,0.252c0.043,0.105,0.062,0.22,0.062,0.351
		c0,0.297-0.099,0.529-0.302,0.707c-0.198,0.174-0.478,0.265-0.826,0.265c-0.09,0-0.176-0.011-0.254-0.025
		c-0.193,0.107-0.289,0.23-0.289,0.387c0,0.084,0.033,0.148,0.101,0.186s0.183,0.06,0.349,0.06h0.531
		c0.325,0,0.573,0.067,0.75,0.203c0.174,0.139,0.262,0.338,0.262,0.598c0,0.334-0.131,0.586-0.398,0.765
		c-0.268,0.178-0.656,0.258-1.168,0.258c-0.393,0-0.695-0.072-0.908-0.219c-0.212-0.146-0.32-0.351-0.32-0.613
		c0-0.189,0.059-0.346,0.177-0.48c0.116-0.133,0.28-0.225,0.491-0.271c-0.073-0.032-0.139-0.086-0.191-0.161
		c-0.053-0.072-0.079-0.158-0.079-0.255c0-0.108,0.029-0.204,0.089-0.288c0.059-0.078,0.149-0.162,0.274-0.236
		c-0.154-0.063-0.279-0.172-0.377-0.323c-0.101-0.158-0.146-0.33-0.146-0.525c0-0.332,0.097-0.586,0.296-0.764
		c0.196-0.179,0.478-0.265,0.84-0.265c0.156,0,0.299,0.013,0.424,0.056h1.035V72.659z M62.627,76.167
		c0,0.164,0.068,0.283,0.205,0.369c0.139,0.079,0.335,0.123,0.59,0.123c0.383,0,0.664-0.054,0.85-0.169
		c0.184-0.114,0.272-0.268,0.272-0.467c0-0.164-0.048-0.278-0.149-0.34c-0.1-0.063-0.287-0.097-0.564-0.097h-0.548
		c-0.205,0-0.366,0.052-0.482,0.152C62.686,75.833,62.627,75.978,62.627,76.167z M62.874,73.62c0,0.209,0.06,0.366,0.181,0.477
		c0.116,0.105,0.28,0.16,0.492,0.16c0.445,0,0.667-0.215,0.667-0.648c0-0.453-0.225-0.676-0.673-0.676
		c-0.215,0-0.38,0.057-0.493,0.172C62.932,73.215,62.874,73.388,62.874,73.62z"/>
	<path fill="#FFFFFF" d="M66.066,72.659v1.944c0,0.246,0.058,0.433,0.17,0.547c0.109,0.123,0.283,0.185,0.522,0.185
		c0.312,0,0.542-0.084,0.688-0.261c0.146-0.172,0.217-0.452,0.217-0.844v-1.571h0.455v3.002h-0.374l-0.069-0.406h-0.021
		c-0.092,0.149-0.223,0.268-0.387,0.34c-0.168,0.082-0.354,0.119-0.566,0.119c-0.366,0-0.641-0.08-0.82-0.258
		c-0.182-0.177-0.273-0.453-0.273-0.836v-1.961H66.066z"/>
	<path fill="#FFFFFF" d="M70.936,75.661l-0.093-0.431H70.82c-0.148,0.188-0.299,0.315-0.447,0.385
		c-0.15,0.068-0.335,0.099-0.561,0.099c-0.299,0-0.528-0.076-0.699-0.23c-0.168-0.152-0.252-0.373-0.252-0.656
		c0-0.6,0.484-0.922,1.455-0.953l0.51-0.016v-0.184c0-0.238-0.051-0.414-0.152-0.525c-0.101-0.109-0.265-0.164-0.486-0.164
		c-0.252,0-0.533,0.072-0.849,0.225l-0.141-0.344c0.147-0.084,0.31-0.146,0.485-0.193c0.178-0.045,0.354-0.063,0.532-0.063
		c0.356,0,0.62,0.078,0.794,0.236c0.174,0.157,0.26,0.413,0.26,0.764v2.054h-0.334V75.661z M69.904,75.336
		c0.283,0,0.506-0.08,0.669-0.233c0.159-0.153,0.241-0.371,0.241-0.653v-0.271L70.359,74.2c-0.359,0.016-0.623,0.069-0.781,0.172
		c-0.161,0.098-0.239,0.252-0.239,0.461c0,0.166,0.048,0.293,0.147,0.377C69.588,75.293,69.729,75.336,69.904,75.336z"/>
	<path fill="#FFFFFF" d="M74.668,72.659v0.282l-0.559,0.063c0.052,0.068,0.097,0.146,0.139,0.252c0.04,0.105,0.061,0.22,0.061,0.351
		c0,0.297-0.103,0.529-0.302,0.707c-0.2,0.174-0.478,0.265-0.829,0.265c-0.09,0-0.175-0.011-0.251-0.025
		c-0.196,0.107-0.291,0.23-0.291,0.387c0,0.084,0.033,0.148,0.103,0.186c0.068,0.037,0.184,0.06,0.347,0.06h0.534
		c0.326,0,0.572,0.067,0.75,0.203c0.171,0.139,0.259,0.338,0.259,0.598c0,0.334-0.132,0.586-0.399,0.765
		c-0.267,0.178-0.655,0.258-1.168,0.258c-0.393,0-0.694-0.072-0.908-0.219c-0.211-0.146-0.316-0.351-0.316-0.613
		c0-0.189,0.057-0.346,0.173-0.48c0.117-0.133,0.283-0.225,0.495-0.271c-0.077-0.032-0.143-0.086-0.195-0.161
		c-0.05-0.072-0.074-0.158-0.074-0.255c0-0.108,0.029-0.204,0.088-0.288c0.059-0.078,0.148-0.162,0.275-0.236
		c-0.156-0.063-0.283-0.172-0.381-0.323c-0.098-0.158-0.146-0.33-0.146-0.525c0-0.332,0.1-0.586,0.297-0.764
		c0.197-0.179,0.477-0.265,0.839-0.265c0.155,0,0.299,0.013,0.424,0.056h1.038V72.659z M72.271,76.167
		c0,0.164,0.067,0.283,0.207,0.369c0.136,0.079,0.332,0.123,0.586,0.123c0.385,0,0.664-0.054,0.853-0.169
		c0.183-0.114,0.272-0.268,0.272-0.467c0-0.164-0.051-0.278-0.148-0.34c-0.104-0.063-0.29-0.097-0.568-0.097h-0.545
		c-0.207,0-0.365,0.052-0.482,0.152C72.328,75.833,72.271,75.978,72.271,76.167z M72.518,73.62c0,0.209,0.06,0.366,0.18,0.477
		c0.117,0.105,0.283,0.16,0.496,0.16c0.441,0,0.666-0.215,0.666-0.648c0-0.453-0.227-0.676-0.676-0.676
		c-0.213,0-0.377,0.057-0.492,0.172C72.574,73.215,72.518,73.388,72.518,73.62z"/>
	<path fill="#FFFFFF" d="M76.552,75.711c-0.442,0-0.794-0.135-1.051-0.401c-0.257-0.272-0.384-0.649-0.384-1.131
		c0-0.484,0.119-0.867,0.355-1.152c0.237-0.282,0.56-0.424,0.959-0.424c0.379,0,0.678,0.119,0.896,0.367
		c0.219,0.245,0.329,0.573,0.329,0.983v0.281h-2.069c0.008,0.355,0.1,0.623,0.268,0.805c0.17,0.185,0.408,0.273,0.713,0.273
		c0.326,0,0.644-0.063,0.963-0.203v0.412c-0.163,0.063-0.316,0.113-0.456,0.146C76.93,75.7,76.755,75.711,76.552,75.711z
		 M76.43,72.984c-0.242,0-0.432,0.074-0.576,0.229c-0.146,0.158-0.23,0.375-0.254,0.654h1.57c0-0.289-0.064-0.506-0.193-0.662
		C76.85,73.056,76.667,72.984,76.43,72.984z"/>
	<path fill="#007299" d="M49.313,2.985c1.636,0.18,2.818,1.657,2.636,3.297l-0.827,7.46c0.565-0.24,1.136-0.441,1.708-0.61
		l11.953-11.66c1.182-1.149,3.072-1.127,4.223,0.055c1.151,1.178,1.125,3.067-0.052,4.219l-7.61,7.417
		c0.361,0.122,0.717,0.262,1.061,0.416L74.789,4.67c1.337-0.962,3.201-0.655,4.164,0.682c0.962,1.337,0.658,3.203-0.678,4.166
		l-11.16,8.03c0.228,0.334,0.429,0.671,0.609,1.005l10.89-4.763c1.508-0.661,3.271,0.029,3.931,1.536
		c0.656,1.511-0.027,3.27-1.541,3.931l-12.533,5.484c-0.111,0.38-0.259,0.753-0.428,1.129l7.143-1.524
		c1.612-0.345,3.197,0.683,3.543,2.293c0.345,1.612-0.687,3.202-2.295,3.542l-16.18,3.453c-6.05,3.56-12.444,3.139-16.106-1.949
		c-3.201-4.449-3.127-7.395-1.094-13.354L46.017,5.62C46.198,3.987,47.672,2.804,49.313,2.985z"/>
	<path fill="#FFFFFF" d="M49.142,3.605c2.779,0.47,2.11,3.161,1.889,5.158c-0.186,1.66-0.368,3.32-0.553,4.98
		c-0.043,0.389,0.449,0.769,0.814,0.62c0.646-0.263,1.575-0.368,2.082-0.863c0.254-0.248,0.508-0.496,0.762-0.743
		c1.107-1.08,2.214-2.159,3.32-3.239c2.373-2.315,4.746-4.629,7.119-6.944c1.133-1.105,2.536-1.91,3.975-0.591
		c1.793,1.644-0.143,3.398-1.312,4.536c-2.116,2.063-4.233,4.126-6.352,6.189c-0.367,0.358-0.158,0.918,0.284,1.075
		c0.599,0.213,1.147,0.645,1.718,0.235c0.385-0.277,0.77-0.553,1.153-0.83c1.452-1.044,2.903-2.089,4.356-3.133
		c2.32-1.67,4.592-3.481,7.006-5.016c1.824-1.159,3.779,0.852,3.379,2.686c-0.153,0.7-0.68,1.125-1.219,1.514
		c-1.222,0.879-2.442,1.758-3.664,2.637c-2.371,1.706-4.742,3.412-7.113,5.118c-0.271,0.196-0.436,0.566-0.23,0.88
		c0.217,0.33,0.418,0.662,0.61,1.005c0.187,0.332,0.563,0.37,0.88,0.231c2.354-1.029,4.704-2.058,7.057-3.086
		c1.176-0.514,2.353-1.029,3.528-1.543c2.688-1.176,4.923,2.366,2.356,4.064c-0.67,0.443-1.543,0.696-2.271,1.015
		c-1.593,0.697-3.185,1.394-4.777,2.091c-1.446,0.633-2.894,1.266-4.34,1.899c-0.418,0.183-0.838,0.367-1.257,0.55
		c-0.585,0.256-0.62,0.893-0.858,1.448c-0.221,0.517,0.134,1.071,0.728,0.945c1.479-0.315,2.957-0.631,4.437-0.946
		c1.813-0.387,4.416-1.417,5.363,0.93c0.883,2.185-1.322,2.995-2.928,3.338c-1.686,0.359-3.369,0.719-5.053,1.078
		c-3.258,0.695-6.516,1.391-9.773,2.086c-0.775,0.166-1.508,0.752-2.229,1.085c-1.657,0.764-3.479,1.19-5.297,1.257
		c-3.394,0.124-6.337-1.561-8.267-4.289c-1.012-1.431-1.794-2.986-2.108-4.72c-0.321-1.766,0.081-3.612,0.535-5.314
		c0.506-1.896,1.066-3.729,1.513-5.643c0.547-2.347,1.094-4.694,1.642-7.042c0.452-1.939,0.618-4.824,3.265-4.685
		c0.829,0.044,0.825-1.243,0-1.287c-4.062-0.214-4.294,4.723-4.973,7.631c-0.771,3.312-1.46,6.642-2.459,9.891
		c-0.8,2.604-1.253,5.315-0.484,7.978c0.761,2.633,2.592,5.128,4.752,6.775c2.278,1.737,5.27,2.219,8.053,1.871
		c1.409-0.177,2.794-0.584,4.097-1.148c0.805-0.349,1.586-0.967,2.438-1.149c5.273-1.125,10.548-2.251,15.822-3.377
		c1.808-0.386,2.933-2.026,2.864-3.828c-0.086-2.289-2.34-3.578-4.409-3.258c-2.394,0.37-4.771,1.019-7.143,1.524
		c0.242,0.315,0.484,0.63,0.727,0.945c0.084-0.193,0.489-1.027,0.248-0.921c0.129-0.057,0.26-0.113,0.389-0.17
		c0.565-0.248,1.132-0.495,1.697-0.743c1.767-0.773,3.532-1.545,5.299-2.318c1.483-0.649,2.969-1.299,4.453-1.948
		c1.356-0.594,2.558-1.507,2.717-3.116c0.232-2.329-1.861-4.606-4.299-4.011c-1.091,0.266-2.143,0.849-3.164,1.295
		c-2.846,1.245-5.691,2.49-8.537,3.734c0.293,0.077,0.586,0.154,0.881,0.231c-0.193-0.344-0.396-0.676-0.61-1.005
		c-0.077,0.293-0.153,0.587-0.231,0.88c2.504-1.801,5.006-3.602,7.508-5.402c2.438-1.754,6.521-3.718,4.748-7.38
		c-0.942-1.949-3.646-2.346-5.303-1.154c-1.006,0.723-2.011,1.446-3.016,2.168c-2.954,2.125-5.908,4.25-8.861,6.375
		c-0.146,0.104-0.289,0.208-0.435,0.312c0.216,0,0.433,0,0.649,0c-0.402-0.172-0.804-0.334-1.215-0.48
		c0.094,0.358,0.188,0.716,0.282,1.075c2.289-2.23,4.577-4.46,6.866-6.69c1.251-1.219,2.115-2.454,1.691-4.324
		c-0.559-2.458-3.908-3.422-5.765-1.814c-2.182,1.89-4.175,4.043-6.239,6.058c-1.394,1.358-2.785,2.716-4.178,4.075
		c-0.436,0.424-0.869,0.849-1.306,1.273c-0.444,0.434-0.468,0.391-1.066,0.594c-0.286,0.102-0.571,0.213-0.852,0.332
		c0.271,0.207,0.543,0.414,0.813,0.621c0.219-1.964,0.437-3.928,0.653-5.892c0.085-0.771,0.286-1.655,0.147-2.43
		c-0.287-1.613-1.467-2.784-3.083-3.057C48.672,2.228,48.325,3.467,49.142,3.605z"/>
	<path fill="#007299" d="M24.896,4.28c1.635,0.18,2.817,1.658,2.637,3.297l-0.827,7.46c0.564-0.239,1.134-0.441,1.708-0.61
		L40.365,2.769c1.183-1.149,3.074-1.128,4.224,0.055c1.151,1.178,1.126,3.068-0.053,4.219l-7.608,7.416
		c0.36,0.122,0.715,0.262,1.061,0.416l12.384-8.908c1.335-0.962,3.201-0.654,4.164,0.682c0.962,1.337,0.658,3.204-0.678,4.165
		l-11.161,8.031c0.228,0.334,0.43,0.67,0.61,1.005l10.889-4.762c1.508-0.661,3.271,0.028,3.932,1.536
		c0.655,1.511-0.027,3.27-1.54,3.929l-12.536,5.486c-0.111,0.378-0.258,0.752-0.426,1.129l7.143-1.525
		c1.611-0.345,3.196,0.684,3.543,2.294c0.344,1.612-0.687,3.202-2.297,3.542l-16.178,3.454c-6.05,3.559-12.446,3.138-16.106-1.95
		c-3.201-4.447-3.128-7.394-1.095-13.353L21.6,6.919C21.783,5.283,23.257,4.099,24.896,4.28z"/>
	<path fill="#FFFFFF" d="M24.726,4.9c2.779,0.47,2.11,3.161,1.89,5.158c-0.185,1.66-0.368,3.32-0.553,4.98
		c-0.043,0.389,0.449,0.769,0.814,0.62c0.646-0.263,1.575-0.368,2.082-0.863c0.254-0.248,0.508-0.496,0.762-0.743
		c1.106-1.08,2.213-2.159,3.32-3.239c2.372-2.314,4.744-4.629,7.117-6.944c1.133-1.105,2.537-1.91,3.976-0.59
		c1.793,1.643-0.144,3.397-1.312,4.536c-2.116,2.063-4.233,4.126-6.35,6.189c-0.367,0.358-0.157,0.918,0.284,1.075
		c0.599,0.214,1.148,0.645,1.718,0.235c0.384-0.276,0.769-0.553,1.153-0.83c1.452-1.044,2.904-2.089,4.355-3.134
		c2.322-1.67,4.593-3.48,7.007-5.016c1.823-1.16,3.78,0.852,3.378,2.685c-0.153,0.7-0.678,1.125-1.217,1.513
		c-1.223,0.879-2.443,1.758-3.666,2.637c-2.372,1.707-4.743,3.413-7.114,5.119c-0.272,0.196-0.437,0.566-0.23,0.88
		c0.216,0.329,0.418,0.661,0.61,1.004c0.187,0.332,0.563,0.369,0.88,0.231c2.353-1.028,4.704-2.057,7.057-3.086
		c1.177-0.514,2.353-1.028,3.528-1.543c2.688-1.175,4.925,2.365,2.357,4.063c-0.669,0.443-1.541,0.696-2.271,1.015
		c-1.593,0.697-3.187,1.394-4.779,2.091c-1.446,0.633-2.894,1.266-4.341,1.899c-0.419,0.183-0.838,0.366-1.257,0.55
		c-0.584,0.256-0.621,0.892-0.857,1.448c-0.22,0.517,0.133,1.072,0.727,0.945c1.479-0.315,2.957-0.631,4.436-0.947
		c1.815-0.388,4.417-1.417,5.366,0.931c0.883,2.185-1.324,2.995-2.93,3.337c-1.685,0.359-3.368,0.719-5.053,1.078
		c-3.257,0.695-6.515,1.391-9.772,2.086c-0.776,0.166-1.508,0.752-2.229,1.085c-1.657,0.764-3.478,1.19-5.297,1.256
		c-3.394,0.124-6.336-1.561-8.266-4.288c-1.012-1.431-1.794-2.986-2.109-4.719c-0.321-1.766,0.081-3.612,0.535-5.314
		c0.507-1.896,1.067-3.729,1.513-5.643c0.548-2.347,1.095-4.694,1.642-7.042c0.452-1.939,0.619-4.823,3.265-4.685
		c0.829,0.043,0.825-1.243,0-1.287c-4.062-0.212-4.294,4.724-4.972,7.632c-0.772,3.312-1.46,6.642-2.459,9.891
		c-0.801,2.603-1.254,5.314-0.484,7.978c0.761,2.632,2.592,5.127,4.752,6.774c2.277,1.737,5.27,2.219,8.053,1.871
		c1.41-0.177,2.794-0.583,4.097-1.148c0.805-0.349,1.586-0.967,2.438-1.149c5.273-1.125,10.547-2.251,15.82-3.376
		c1.808-0.386,2.933-2.025,2.865-3.827c-0.085-2.29-2.342-3.578-4.41-3.259c-2.394,0.369-4.771,1.02-7.142,1.525
		c0.242,0.315,0.484,0.63,0.727,0.945c0.082-0.194,0.489-1.027,0.246-0.921c0.13-0.057,0.26-0.113,0.389-0.17
		c0.566-0.248,1.132-0.496,1.698-0.743c1.767-0.773,3.532-1.546,5.298-2.319c1.484-0.649,2.97-1.299,4.453-1.948
		c1.357-0.594,2.559-1.506,2.719-3.115c0.23-2.329-1.863-4.607-4.301-4.011c-1.09,0.267-2.143,0.849-3.164,1.296
		c-2.847,1.244-5.691,2.489-8.538,3.733c0.294,0.077,0.587,0.154,0.881,0.231c-0.193-0.344-0.395-0.675-0.61-1.005
		c-0.077,0.293-0.154,0.587-0.231,0.88c2.503-1.801,5.006-3.602,7.509-5.403c2.438-1.754,6.52-3.717,4.748-7.379
		c-0.943-1.95-3.647-2.346-5.304-1.154c-1.005,0.723-2.01,1.446-3.015,2.168c-2.954,2.125-5.908,4.25-8.862,6.375
		c-0.145,0.104-0.289,0.208-0.434,0.313c0.216,0,0.433,0,0.649,0c-0.402-0.172-0.804-0.334-1.215-0.481
		c0.095,0.358,0.189,0.717,0.283,1.075c2.288-2.23,4.576-4.46,6.864-6.69c1.251-1.219,2.116-2.453,1.692-4.323
		c-0.558-2.459-3.908-3.421-5.765-1.814C37.991,3.975,36,6.129,33.935,8.144c-1.392,1.358-2.784,2.716-4.176,4.074
		c-0.436,0.425-0.87,0.849-1.306,1.273c-0.444,0.434-0.467,0.391-1.067,0.595c-0.287,0.102-0.57,0.212-0.851,0.331
		c0.271,0.207,0.543,0.414,0.814,0.621c0.218-1.964,0.436-3.928,0.653-5.892c0.085-0.771,0.286-1.655,0.147-2.429
		c-0.289-1.613-1.468-2.784-3.083-3.058C24.256,3.522,23.908,4.762,24.726,4.9z"/>
</g>
</svg>
