<?xml version="1.0" encoding="utf-8"?>
<!-- Generator: Adobe Illustrator 16.0.3, SVG Export Plug-In . SVG Version: 6.00 Build 0)  -->
<!DOCTYPE svg PUBLIC "-//W3C//DTD SVG 1.1//EN" "http://www.w3.org/Graphics/SVG/1.1/DTD/svg11.dtd">
<svg version="1.1" id="Layer_1" xmlns="http://www.w3.org/2000/svg" xmlns:xlink="http://www.w3.org/1999/xlink" x="0px" y="0px"
	 width="89.587px" height="8.587px" viewBox="0 0 89.587 8.587" style="enable-background:new 0 0 89.587 8.587;"
	 xml:space="preserve">
<style type="text/css">
<![CDATA[
	.st0{fill:#FFFFFF;}
]]>
</style>
<g>
	<path class="st0" d="M5.697,6.704v1.787H0V0.096h2.135v6.608H5.697z"/>
	<path class="st0" d="M8.855,1.775v1.667h4.005v1.679H8.855v1.691h4.569v1.679H6.72V0.096h6.573v1.679H8.855z"/>
	<path class="st0" d="M16.943,1.775v1.667h4.005v1.679h-4.005v1.691h4.569v1.679h-6.705V0.096h6.573v1.679H16.943z"/>
	<path class="st0" d="M26.506,0.096c2.638,0,4.461,1.703,4.461,4.198c0,2.483-1.847,4.198-4.545,4.198h-3.526V0.096H26.506z
		 M25.031,6.788h1.523c1.307,0,2.243-1.007,2.243-2.482c0-1.487-0.983-2.507-2.339-2.507h-1.427V6.788z"/>
	<path class="st0" d="M38.636,0.936l-0.804,1.667c-0.887-0.516-2.003-0.875-2.687-0.875c-0.552,0-0.923,0.204-0.923,0.611
		c0,1.452,4.438,0.624,4.438,3.658c0,1.679-1.487,2.566-3.358,2.566c-1.403,0-2.843-0.527-3.838-1.343l0.827-1.643
		c0.864,0.756,2.159,1.259,3.035,1.259c0.671,0,1.091-0.251,1.091-0.731c0-1.487-4.438-0.6-4.438-3.574
		c0-1.547,1.331-2.53,3.346-2.53C36.538,0,37.772,0.372,38.636,0.936z"/>
	<path class="st0" d="M41.447,7.58c0,0.6-0.419,1.007-1.007,1.007c-0.587,0-0.996-0.408-0.996-1.007
		c0-0.587,0.408-0.995,0.996-0.995C41.027,6.584,41.447,6.992,41.447,7.58z"/>
	<path class="st0" d="M50.168,4.222v3.274c-0.9,0.636-2.315,1.091-3.49,1.091c-2.555,0-4.486-1.847-4.486-4.293
		c0-2.435,1.979-4.27,4.63-4.27c1.247,0,2.566,0.479,3.43,1.247l-1.199,1.451c-0.611-0.563-1.463-0.911-2.243-0.911
		c-1.379,0-2.435,1.079-2.435,2.482c0,1.427,1.067,2.507,2.458,2.507c0.432,0,0.983-0.156,1.487-0.408V4.222H50.168z"/>
	<path class="st0" d="M60.187,4.282c0,2.446-1.943,4.305-4.545,4.305c-2.59,0-4.534-1.847-4.534-4.305
		c0-2.447,1.943-4.258,4.534-4.258C58.244,0.024,60.187,1.847,60.187,4.282z M53.291,4.293c0,1.416,1.091,2.507,2.375,2.507
		c1.295,0,2.327-1.091,2.327-2.507c0-1.415-1.031-2.482-2.327-2.482C54.371,1.811,53.291,2.878,53.291,4.293z"/>
	<path class="st0" d="M63.61,8.491l-3.262-8.396h2.279l2.147,6.177l2.147-6.177h2.195l-3.298,8.396H63.61z"/>
	<path class="st0" d="M71.171,7.58c0,0.6-0.419,1.007-1.007,1.007s-0.996-0.408-0.996-1.007c0-0.587,0.408-0.995,0.996-0.995
		S71.171,6.992,71.171,7.58z"/>
	<path class="st0" d="M80.024,4.965c0,2.219-1.475,3.622-3.826,3.622c-2.362,0-3.874-1.403-3.874-3.622v-4.87h2.135v4.87
		c0,1.139,0.731,1.835,1.751,1.835c1.007,0,1.691-0.696,1.691-1.835v-4.87h2.123V4.965z"/>
	<path class="st0" d="M84.814,5.193l-1.115,1.235v2.063h-2.135V0.096h2.135V3.73l3.214-3.634h2.471l-3.118,3.478l3.322,4.917h-2.555
		L84.814,5.193z"/>
</g>
</svg>
