<?xml version="1.0" encoding="utf-8"?>
<!-- Generator: Adobe Illustrator 19.0.0, SVG Export Plug-In . SVG Version: 6.00 Build 0)  -->
<svg version="1.1" id="Layer_1" xmlns="http://www.w3.org/2000/svg" xmlns:xlink="http://www.w3.org/1999/xlink" x="0px" y="0px"
	 viewBox="834.8 181.8 1119.1 429" style="enable-background:new 834.8 181.8 1119.1 429;" xml:space="preserve">
<style type="text/css">
	.st0{fill:#FFFFFF;}
</style>
<g>
	<polygon class="st0" points="1260.5,246.3 1299,304 1319,304 1357.9,245.9 1357.9,355.9 1384.8,355.9 1384.8,202.4 1356.1,202.4 
		1309.4,275 1262.7,202.4 1234,202.4 1234,355.9 1260.5,355.9 	"/>
	<path class="st0" d="M1505.1,202.4h-60.5v153.5h27v-49.3h30.5c33.8,0,61.4-18,61.4-52.4v-0.4
		C1563.4,222.8,1540.8,202.4,1505.1,202.4z M1536,254.8c0,16-12.7,27.4-33.1,27.4h-31.4V227h31.4c20.2,0,33.1,9.4,33.1,27.4V254.8z"
		/>
	<polygon class="st0" points="1716.3,331.4 1635.6,331.4 1635.6,202.4 1608.6,202.4 1608.6,355.9 1716.3,355.9 	"/>
	<polygon class="st0" points="896.3,227.4 947.6,227.4 947.6,355.9 974.8,355.9 974.8,227.4 1026.2,227.4 1026.2,202.4 896.3,202.4 
			"/>
	<polygon class="st0" points="956.6,541 874.4,434.9 849.4,434.9 849.4,588.4 875.9,588.4 875.9,479.2 960.5,588.4 983.1,588.4 
		983.1,434.9 956.6,434.9 	"/>
	<polygon class="st0" points="1349.2,548.7 1318.8,458.8 1290.7,458.8 1260.3,548.7 1223.7,434.9 1195.4,434.9 1248.9,589.5 
		1272.1,589.5 1304.8,496.4 1337.4,589.5 1360.6,589.5 1414.1,434.9 1385.8,434.9 	"/>
	<path class="st0" d="M1506.3,499.4c-29.4-7-36.4-12.3-36.4-24.1v-0.4c0-10.1,9.2-18.2,25-18.2c14,0,27.8,5.5,41.7,15.8L1551,452
		c-15.6-12.5-33.3-19.3-55.7-19.3c-30.5,0-52.4,18.2-52.4,44.5v0.4c0,28.3,18.4,37.9,51.1,45.8c28.5,6.6,34.7,12.5,34.7,23.5v0.4
		c0,11.6-10.5,19.3-27.2,19.3c-19.1,0-33.8-7.2-48.5-20l-16.2,19.3c18.4,16.5,40.6,24.6,64,24.6c32.2,0,54.8-17.1,54.8-45.8v-0.4
		C1555.6,518.9,1538.8,507.3,1506.3,499.4z"/>
	<path class="st0" d="M1650.2,433.8l-67.5,154.6h27.6l15.8-37.1h72.6l15.6,37.1h28.5l-67.5-154.6L1650.2,433.8L1650.2,433.8z
		 M1636,527.5l26.3-61.4l26.5,61.4H1636z"/>
	<polygon class="st0" points="1908.3,434.9 1861.6,507.5 1814.8,434.9 1786.1,434.9 1786.1,588.4 1812.7,588.4 1812.7,478.8 
		1851.2,536.4 1871.1,536.4 1910,478.3 1910,588.4 1937,588.4 1937,434.9 	"/>
	<polygon class="st0" points="1875.7,331.8 1787.8,331.8 1787.8,290.6 1851.5,290.6 1851.5,266.5 1787.8,266.5 1787.8,226.5 
		1874.6,226.5 1874.6,202.4 1760.8,202.4 1760.8,266.2 1773,278.4 1760.8,290.6 1760.8,355.9 1875.7,355.9 	"/>
	<polygon class="st0" points="1094,290.6 1157.8,290.6 1157.8,266.5 1094,266.5 1094,226.5 1180.8,226.5 1180.8,202.4 1067,202.4 
		1067,266.2 1079.2,278.4 1067,290.6 1067,355.9 1181.9,355.9 1181.9,331.8 1094,331.8 	"/>
	<polygon class="st0" points="1067.6,523.1 1131.4,523.1 1131.4,499 1067.6,499 1067.6,459 1154.4,459 1154.4,434.9 1040.6,434.9 
		1040.6,498.7 1052.8,510.9 1040.6,523.1 1040.6,588.4 1155.5,588.4 1155.5,564.3 1067.6,564.3 	"/>
</g>
</svg>
