<svg id="Layer_1" data-name="Layer 1" xmlns="http://www.w3.org/2000/svg" viewBox="0 0 202 68"><defs><style>.cls-1{fill:#fff;}</style></defs><title>templeNewsam-logo-w</title><path class="cls-1" d="M12.64,18v13.7H10.23V18H5.86V15.87H17V18Z"/><path class="cls-1" d="M19.65,26.74c0,1.94,1,3.16,2.87,3.16a3.37,3.37,0,0,0,2.74-1.16l1.45,1.36a5.3,5.3,0,0,1-4.23,1.76c-2.83,0-5.08-1.49-5.08-5.79,0-3.65,1.89-5.77,4.79-5.77S27,22.53,27,25.74v1Zm4.77-3.12a2.33,2.33,0,0,0-2.23-1.43,2.36,2.36,0,0,0-2.25,1.43,3.55,3.55,0,0,0-.29,1.54h5.08A3.58,3.58,0,0,0,24.42,23.62Z"/><path class="cls-1" d="M43.73,31.73V24.85c0-1.76-1-2.52-2.27-2.52a2.24,2.24,0,0,0-2.34,2.41v7H36.85V24.85c0-1.76-1-2.52-2.27-2.52a2.25,2.25,0,0,0-2.34,2.52v6.88H30V20.44h2.23v1.14a4.09,4.09,0,0,1,3-1.27A3.61,3.61,0,0,1,38.41,22,4.29,4.29,0,0,1,42,20.31a4.09,4.09,0,0,1,2.85,1A4.2,4.2,0,0,1,46,24.52v7.22Z"/><path class="cls-1" d="M57.46,30.87a3.85,3.85,0,0,1-2.74,1,3.51,3.51,0,0,1-3-1.29V36.3H49.48V20.44h2.23v1.2a3.47,3.47,0,0,1,3-1.34,3.91,3.91,0,0,1,2.76,1c1.14,1.14,1.27,3.05,1.27,4.77S58.59,29.73,57.46,30.87Zm-3.34-8.53c-2.05,0-2.36,1.74-2.36,3.74s.31,3.76,2.36,3.76,2.34-1.76,2.34-3.76S56.16,22.33,54.11,22.33Z"/><path class="cls-1" d="M64.81,31.73a2.88,2.88,0,0,1-3.1-3.12V15.87H64V28.48c0,.87.31,1.31,1.23,1.31h1v1.94Z"/><path class="cls-1" d="M69.8,26.74c0,1.94,1,3.16,2.87,3.16a3.38,3.38,0,0,0,2.74-1.16l1.45,1.36a5.3,5.3,0,0,1-4.23,1.76c-2.83,0-5.08-1.49-5.08-5.79,0-3.65,1.89-5.77,4.79-5.77s4.79,2.23,4.79,5.44v1Zm4.77-3.12a2.33,2.33,0,0,0-2.23-1.43,2.36,2.36,0,0,0-2.25,1.43,3.55,3.55,0,0,0-.29,1.54h5.08A3.58,3.58,0,0,0,74.56,23.62Z"/><path class="cls-1" d="M17,51.65,9.67,40.49V51.65H7.27V35.79H9.47L16.8,46.93V35.79h2.41V51.65Z"/><path class="cls-1" d="M24.73,46.66c0,1.94,1,3.16,2.87,3.16a3.37,3.37,0,0,0,2.74-1.16L31.79,50a5.3,5.3,0,0,1-4.23,1.76c-2.83,0-5.08-1.49-5.08-5.79,0-3.65,1.89-5.77,4.79-5.77s4.79,2.23,4.79,5.44v1Zm4.77-3.12a2.33,2.33,0,0,0-2.23-1.43A2.36,2.36,0,0,0,25,43.54a3.57,3.57,0,0,0-.29,1.54h5.08A3.58,3.58,0,0,0,29.5,43.54Z"/><path class="cls-1" d="M45.92,51.65H44l-2.65-7.89L38.7,51.65h-2l-3.5-11.29h2.41l2.18,8,2.63-8h1.76l2.61,8,2.18-8h2.43Z"/><path class="cls-1" d="M55,51.79a6.22,6.22,0,0,1-4.75-1.63l1.49-1.49A4.39,4.39,0,0,0,55,49.85c1.38,0,2.47-.49,2.47-1.56,0-.76-.42-1.25-1.51-1.34l-1.8-.16c-2.12-.18-3.34-1.14-3.34-3.12,0-2.21,1.89-3.45,4.26-3.45a6.19,6.19,0,0,1,4.19,1.27l-1.43,1.45a4.26,4.26,0,0,0-2.78-.82c-1.36,0-2.05.6-2.05,1.45,0,.67.36,1.18,1.56,1.29l1.78.16c2.12.18,3.36,1.18,3.36,3.19C59.75,50.56,57.74,51.79,55,51.79Z"/><path class="cls-1" d="M68.57,51.65v-1a3.71,3.71,0,0,1-3,1.16,4,4,0,0,1-3-1,3.47,3.47,0,0,1-.89-2.43c0-1.89,1.32-3.25,3.9-3.25h3v-.8c0-1.43-.71-2.12-2.47-2.12a2.65,2.65,0,0,0-2.47,1.09l-1.49-1.4a4.63,4.63,0,0,1,4.05-1.63c3.1,0,4.66,1.31,4.66,3.88v7.55Zm0-5H65.87c-1.34,0-2,.6-2,1.63s.65,1.6,2.07,1.6A2.7,2.7,0,0,0,68,49.25a2.27,2.27,0,0,0,.49-1.67Z"/><path class="cls-1" d="M88,51.65V44.77a2.19,2.19,0,0,0-2.27-2.52,2.24,2.24,0,0,0-2.34,2.41v7H81.16V44.77a2.19,2.19,0,0,0-2.27-2.52,2.25,2.25,0,0,0-2.34,2.52v6.88H74.27V40.36H76.5v1.14a4.09,4.09,0,0,1,3-1.27,3.61,3.61,0,0,1,3.21,1.65,4.29,4.29,0,0,1,3.54-1.65,4.09,4.09,0,0,1,2.85,1,4.19,4.19,0,0,1,1.2,3.19v7.22Z"/></svg>