<?xml version="1.0" encoding="utf-8"?>
<!-- Generator: Adobe Illustrator 19.0.1, SVG Export Plug-In . SVG Version: 6.00 Build 0)  -->
<svg version="1.1" id="Layer_1" xmlns="http://www.w3.org/2000/svg" xmlns:xlink="http://www.w3.org/1999/xlink" x="0px" y="0px"
	 viewBox="162.6 0.6 331.4 141.3" style="enable-background:new 162.6 0.6 331.4 141.3;" xml:space="preserve">
<style type="text/css">
	.st0{clip-path:url(#SVGID_2_);fill:none;stroke:#F78E1E;stroke-width:10.3613;stroke-linejoin:round;}
	.st1{clip-path:url(#SVGID_4_);fill:#FFFFFF;}
	.st2{fill:#F78E1E;}
	.st3{clip-path:url(#SVGID_6_);fill:#FFFFFF;}
</style>
<g>
	<g>
		<defs>
			<rect id="SVGID_1_" x="162.6" y="0.6" width="331.4" height="141.3"/>
		</defs>
		<clipPath id="SVGID_2_">
			<use xlink:href="#SVGID_1_"  style="overflow:visible;"/>
		</clipPath>
		<line class="st0" x1="189.7" y1="95" x2="189.7" y2="141.9"/>
	</g>
	<g>
		<defs>
			<rect id="SVGID_3_" x="162.6" y="0.6" width="331.4" height="141.3"/>
		</defs>
		<clipPath id="SVGID_4_">
			<use xlink:href="#SVGID_3_"  style="overflow:visible;"/>
		</clipPath>
		<path class="st1" d="M474,127.7c12.6,0,19.9-5.6,19.9-13.4c0-16.6-25.5-9.7-25.5-16.9c0-2.2,2.4-3.9,7.9-3.9c3.9,0,8,0.8,12.2,3.1
			l4.1-8.7c-4-2.3-10.4-3.7-16.3-3.7c-12.3,0-19.5,5.7-19.5,13.7c0,16.9,25.5,9.8,25.5,16.7c0,2.4-2.1,3.9-7.8,3.9
			c-5.2,0-10.9-1.6-14.7-4.1l-4.1,8.8C459.7,125.7,466.9,127.7,474,127.7 M418.7,117.6c-6.1,0-10.8-4.4-10.8-11.7
			c0-7.3,4.7-11.7,10.8-11.7c6,0,10.8,4.4,10.8,11.7C429.5,113.2,424.8,117.6,418.7,117.6 M429.2,68.8v20.5
			c-3.1-3.4-7.5-5.1-12.6-5.1c-11.9,0-21.1,8.5-21.1,21.7s9.2,21.7,21.1,21.7c5.6,0,10.1-1.8,13.2-5.5v4.9h11.7V68.8H429.2z
			 M361.3,93.4c5.5,0,9.5,3.4,10.4,8.8h-20.8C351.8,96.8,355.8,93.4,361.3,93.4 M383.2,106.1c0-13.6-9.6-21.9-22-21.9
			c-12.9,0-22.5,9.1-22.5,21.7c0,12.6,9.5,21.7,24.1,21.7c7.6,0,13.5-2.4,17.4-6.8l-6.5-7.1c-2.9,2.8-6.1,4.1-10.6,4.1
			c-6.4,0-10.9-3.2-12.1-8.5h32C383.1,108.4,383.2,107,383.2,106.1 M304.7,93.4c5.5,0,9.5,3.4,10.4,8.8h-20.8
			C295.2,96.8,299.2,93.4,304.7,93.4 M326.6,106.1c0-13.6-9.6-21.9-22-21.9c-12.9,0-22.5,9.1-22.5,21.7c0,12.6,9.5,21.7,24.1,21.7
			c7.6,0,13.5-2.4,17.4-6.8l-6.5-7.1c-2.9,2.8-6.1,4.1-10.6,4.1c-6.4,0-10.9-3.2-12.1-8.5h32C326.5,108.4,326.6,107,326.6,106.1
			 M232,127h40.3v-10.4h-27.5V72.1H232L232,127L232,127z"/>
	</g>
</g>
<polygon class="st2" points="162.6,72.1 162.6,127 208.6,127 208.6,116.7 175.3,116.7 175.3,72.1 "/>
<g>
	<g>
		<defs>
			<rect id="SVGID_5_" x="162.6" y="0.6" width="331.4" height="141.3"/>
		</defs>
		<clipPath id="SVGID_6_">
			<use xlink:href="#SVGID_5_"  style="overflow:visible;"/>
		</clipPath>
		<path class="st3" d="M441.1,18.9v-5.6h-11.7v42.2h12.2V35.6c0-8.1,4.5-11.8,11.2-11.8c0.9,0,1.7,0.1,2.8,0.2V12.7
			C449.1,12.7,444.1,14.8,441.1,18.9 M390.7,22c5.5,0,9.5,3.5,10.4,8.8h-20.8C381.1,25.3,385.1,22,390.7,22 M412.6,34.6
			c0-13.6-9.6-21.9-22-21.9c-12.9,0-22.5,9.1-22.5,21.7c0,12.6,9.5,21.7,24.1,21.7c7.6,0,13.5-2.3,17.4-6.8l-6.5-7.1
			c-2.9,2.8-6.1,4.1-10.6,4.1c-6.4,0-10.9-3.2-12.1-8.5h32C412.4,36.9,412.6,35.5,412.6,34.6 M353.7,44.9c-1.3,1-3.1,1.6-5,1.6
			c-3.3,0-5.3-2-5.3-5.6V23.7H354v-9.4h-10.5V4h-12.3v10.3h-6.5v9.4h6.5V41c0,10.1,5.8,15.2,15.8,15.2c3.8,0,7.5-0.9,10-2.7
			L353.7,44.9z M293.7,56.2c12.6,0,19.9-5.6,19.9-13.4c0-16.6-25.5-9.7-25.5-16.9c0-2.2,2.4-3.9,7.9-3.9c3.9,0,8,0.8,12.2,3.1
			l4.1-8.7c-4-2.4-10.4-3.7-16.3-3.7c-12.3,0-19.6,5.7-19.6,13.7c0,16.9,25.5,9.8,25.5,16.7c0,2.4-2.1,3.8-7.8,3.8
			c-5.2,0-10.9-1.7-14.7-4.1l-4.1,8.8C279.3,54.2,286.5,56.2,293.7,56.2 M239.5,46.1c-6.1,0-10.8-4.4-10.8-11.7s4.7-11.7,10.8-11.7
			c6.1,0,10.8,4.4,10.8,11.7C250.3,41.7,245.6,46.1,239.5,46.1 M239.5,56.2c13.4,0,23.2-9,23.2-21.7c0-12.7-9.7-21.7-23.2-21.7
			c-13.4,0-23.2,9-23.2,21.7S226.1,56.2,239.5,56.2 M204.1,10.8V0.6h-41.5v54.9h12.7v-20h25.4V25.3h-25.4V10.8H204.1z"/>
	</g>
</g>
</svg>
