<?xml version="1.0" encoding="utf-8"?>
<!-- Generator: Adobe Illustrator 16.0.3, SVG Export Plug-In . SVG Version: 6.00 Build 0)  -->
<!DOCTYPE svg PUBLIC "-//W3C//DTD SVG 1.1//EN" "http://www.w3.org/Graphics/SVG/1.1/DTD/svg11.dtd">
<svg version="1.1" id="Layer_1" xmlns="http://www.w3.org/2000/svg" xmlns:xlink="http://www.w3.org/1999/xlink" x="0px" y="0px"
	 width="267.561px" height="80.271px" viewBox="0 0 267.561 80.271" enable-background="new 0 0 267.561 80.271"
	 xml:space="preserve">
<g>
	<path opacity="0.8" fill="#052736" d="M267.561,76.281c0,0.189,0,0.428-0.078,0.75c-0.053,0.324-0.11,0.564-0.188,0.67
		c-0.584-0.057-2.378-0.084-5.377-0.084h-0.779l-0.072-0.238l0.053-2.031c0.047-0.697,0.076-1.609,0.076-2.707
		c0-1.123-0.029-2.033-0.076-2.723l-0.053-2.068l0.072-0.213h1.662l0.083,0.213c-0.083,1.613-0.136,3.213-0.136,4.791
		c0,1.207,0.026,2.629,0.136,4.229c1.649,0.053,2.882,0.031,3.659-0.105C266.996,76.685,267.319,76.523,267.561,76.281z
		 M159.302,32.965l-0.241,1.637l-25.31,11.822c0.376,0.854,1.155,2.246,2.326,4.145c2.138,3.516,5.461,5.248,9.902,5.248
		c5.186,0,9.554-2.303,13.081-6.9c0.538,1.012,0.512,2.563-0.079,4.621c-4.917,4.285-9.709,6.426-14.389,6.426
		c-5.678,0-10.277-1.797-13.81-5.326c-3.561-3.559-5.322-8.025-5.322-13.457c0-5.295,1.657-9.685,4.998-13.164
		c3.535-3.662,7.917-5.513,13.164-5.513c4.735,0,8.591,1.525,11.589,4.541C155.909,27.802,157.271,29.788,159.302,32.965z
		 M152.402,35.505c-0.434-2.168-1.228-4.174-2.403-6.018c-1.771-2.811-4.496-4.227-8.215-4.227c-3.318,0-5.728,1.492-7.217,4.467
		c-1.291,2.652-1.96,6.156-2.015,10.486c0,1.471,0.127,2.756,0.396,3.909L152.402,35.505z M195.506,32.965l-0.267,1.637
		l-25.287,11.822c0.378,0.854,1.148,2.246,2.332,4.145c2.13,3.516,5.428,5.248,9.87,5.248c5.187,0,9.573-2.303,13.11-6.9
		c0.528,1.012,0.508,2.563-0.082,4.621c-4.95,4.285-9.736,6.426-14.398,6.426c-5.67,0-10.295-1.797-13.832-5.326
		c-3.533-3.559-5.294-8.025-5.294-13.457c0-5.295,1.659-9.685,4.974-13.164c3.531-3.662,7.949-5.513,13.195-5.513
		c4.709,0,8.559,1.525,11.582,4.541C192.108,27.802,193.476,29.788,195.506,32.965z M188.575,35.505
		c-0.428-2.168-1.232-4.174-2.403-6.018c-1.767-2.811-4.499-4.227-8.188-4.227c-3.318,0-5.748,1.492-7.248,4.467
		c-1.291,2.652-1.955,6.156-2.013,10.486c0,1.471,0.14,2.756,0.405,3.909L188.575,35.505z M81.848,71.867l-1.849,2.838l2.545,2.816
		H63.008v-3.963h-3.072v-1.689h21.912V71.867z M21.75,74.679h40.247v5.592H21.75V74.679z M1.788,71.867h21.896v1.662h-3.055v3.988
		H1.077l2.535-2.842L1.788,71.867z M21.677,11.693c0-0.432,0.476-0.75,1.088-0.75c0.592,0,1.076,0.318,1.076,0.75
		c0,0.431-0.481,0.782-1.072,0.782l-0.267-0.029c-0.826,0.932-0.909,2.11-0.909,2.11v1.68H11.429c0,0,0.027-1.196,0-1.627
		c-0.057-0.504-0.7-1.659-1.102-2.134h-0.131c-0.619,0-1.102-0.352-1.102-0.782c0-0.432,0.483-0.75,1.102-0.75
		c0.59,0,1.066,0.318,1.066,0.75l-0.021,0.134c2.509,2.65,4.495,2.974,4.756-0.104h0.998c0.053,2.947,1.578,2.915,4.729,0.188
		C21.704,11.858,21.677,11.779,21.677,11.693z M15.5,10.656c0-0.432,0.475-0.776,1.057-0.776c0.62,0,1.1,0.345,1.1,0.776
		c0,0.423-0.48,0.741-1.1,0.741C15.979,11.397,15.5,11.079,15.5,10.656z M11.456,17.554c0,0.084-0.084,0.941,0.563,1.208
		c1.466,0.584,4.199-0.14,5.028,3.721c0.051,0.13,0.24,0.183,0.349-0.031c-0.109-2.247,1.198-3.341,3.288-3.876
		c0.588-0.186,1.149-0.327,1.283-0.672c0.108-0.369-0.183-1.687,1.043-1.687c0.163,0,0.564,0.109,0.59,0.512
		c0.084,0.695-0.48,0.878-0.298,1.121c0.219,0.269,0.057,0.535,0.031,0.563c-0.188,0.239-0.292,0.134-1.021,0.453
		c-0.8,0.351-1.2,0.828-1.31,1.13c-0.083,0.263-0.057,0.209,0,0.564c0.027,0.391,0.805,0.579,0.615,0.629
		c-0.211,0.039-0.641,0.087-0.748,0.217c-0.106,0.168-0.506,0.67-1.073,0.727c-0.557,0.078-0.557-0.031-0.957,0.178
		c-1.094,0.518-1.312,1.314-1.396,1.663c-0.047,0.352-0.11,0.432-0.261,0.328c-0.135-0.11-0.031-0.297-0.298-0.674
		c-0.298-0.376-0.543-1.065-1.364-1.098c-0.538-0.026-1.609,0.107-1.873-0.267c-0.483-0.689-0.912-0.586-0.938-0.773
		c0-0.11,0.486-0.163,0.435-0.617c-0.058-0.485-0.272-0.775-1.078-1.154c-0.804-0.372-1.499-0.372-1.629-0.56
		c-0.11-0.188-0.11-0.24-0.055-0.457c0.081-0.371,0.029-0.209-0.269-0.478c-0.29-0.293-0.157-1.472,0.585-1.425
		C11.241,16.833,11.456,17.316,11.456,17.554z M13.75,21.33c0.057,0.426,0.434,0.724,0.836,0.666
		c0.397-0.058,0.698-0.423,0.637-0.857c-0.049-0.401-0.392-0.692-0.828-0.642C13.993,20.56,13.697,20.926,13.75,21.33z
		 M18.567,21.058c0.058,0.432,0.435,0.724,0.836,0.666c0.4-0.047,0.69-0.429,0.64-0.822c-0.051-0.431-0.402-0.729-0.828-0.672
		C18.813,20.279,18.516,20.663,18.567,21.058z M23.016,38.124l-0.429,1.667c-0.188-0.424-0.694-0.272-1.051-0.059l0.645-1.922
		C22.555,37.382,22.906,37.491,23.016,38.124z M21.029,44.232c-0.583,1.68-2.353,3.586-3.931,4.758
		c-1.523,0.99-0.267-0.135-0.24-0.211c2.059-2.195,2.673-3.156,3.504-5.109C20.71,43.324,21.355,43.669,21.029,44.232z
		 M23.412,32.297v1.739c-0.292-0.323-0.585-0.323-0.883,0v-1.739C22.769,31.761,23.151,31.714,23.412,32.297z M21.863,27.321
		c0.776,0.672,0.88,1.228,0.99,1.868c-0.057-0.073-0.692-0.719-0.99-0.049c-0.159-0.594-0.374-1.077-0.808-1.448
		C20.898,27.666,20.814,26.679,21.863,27.321z M20.094,32.272l0.081,1.736c-0.29-0.291-0.594-0.291-0.855,0.054l-0.078-1.714
		C19.451,31.79,19.804,31.714,20.094,32.272z M17.982,27.535c0.804,0.617,1.129,0.985,1.363,1.626
		c-0.055-0.073-1.202-0.988-1.306,0.089c-0.188-0.591-0.402-0.972-0.835-1.286C17.016,27.933,16.911,26.972,17.982,27.535z
		 M59.965,11.693c0-0.432,0.483-0.776,1.089-0.776c0.596,0,1.077,0.345,1.077,0.776c0,0.086,0,0.134-0.023,0.218
		c3.123,2.698,4.654,2.753,4.732-0.188H67.8c0.267,3.049,2.248,2.728,4.766,0.104l-0.031-0.134c0-0.432,0.507-0.776,1.098-0.776
		c0.586,0,1.066,0.345,1.066,0.776c0,0.431-0.48,0.782-1.066,0.782l-0.159-0.029c-0.402,0.477-1.048,1.624-1.068,2.163
		c-0.055,0.431,0,1.627,0,1.627h-10.17v-1.675c0,0-0.078-1.178-0.935-2.113l-0.247,0.027C60.442,12.476,59.965,12.124,59.965,11.693
		z M66.17,10.625c0-0.4,0.48-0.745,1.063-0.745c0.59,0,1.104,0.345,1.104,0.745c0,0.428-0.513,0.772-1.104,0.772
		C66.651,11.397,66.17,11.053,66.17,10.625z M72.378,17.534c-0.028-0.218,0.209-0.701,0.717-0.756
		c0.755-0.024,0.912,1.154,0.616,1.421c-0.298,0.293-0.379,0.109-0.298,0.479c0.061,0.214,0.061,0.271-0.053,0.483
		c-0.108,0.185-0.825,0.185-1.625,0.562c-0.804,0.345-1.018,0.666-1.071,1.121c-0.057,0.488,0.455,0.514,0.423,0.646
		c0,0.156-0.455,0.084-0.935,0.749c-0.267,0.374-1.339,0.271-1.876,0.291c-0.823,0.032-1.066,0.7-1.337,1.098
		c-0.288,0.377-0.157,0.563-0.319,0.674c-0.131,0.076-0.188,0.023-0.272-0.326c-0.073-0.348-0.287-1.147-1.363-1.686
		c-0.392-0.186-0.429-0.11-0.988-0.157c-0.559-0.084-0.941-0.561-1.071-0.727c-0.107-0.159-0.509-0.178-0.725-0.24
		c-0.211-0.026,0.568-0.215,0.617-0.637c0.023-0.355,0.081-0.272-0.023-0.565c-0.11-0.292-0.486-0.747-1.291-1.098
		c-0.743-0.319-0.827-0.214-1.041-0.453c-0.021-0.057-0.188-0.294,0.026-0.592c0.215-0.245-0.35-0.396-0.292-1.092
		c0.053-0.434,0.432-0.512,0.617-0.512c1.199-0.021,0.904,1.317,1.042,1.687c0.103,0.345,0.667,0.455,1.258,0.672
		c2.084,0.535,3.402,1.6,3.318,3.876c0.109,0.186,0.272,0.139,0.324,0c0.854-3.849,3.585-3.125,5.056-3.721
		C72.457,18.492,72.35,17.638,72.378,17.534z M64.963,21.058c0.053-0.395-0.235-0.778-0.643-0.828
		c-0.396-0.057-0.772,0.241-0.825,0.643c-0.055,0.419,0.243,0.805,0.643,0.831C64.535,21.756,64.906,21.466,64.963,21.058z
		 M69.786,21.33c0.051-0.427-0.243-0.802-0.645-0.837c-0.408-0.049-0.781,0.244-0.831,0.646c-0.055,0.403,0.243,0.779,0.641,0.829
		C69.353,22.025,69.724,21.724,69.786,21.33z M60.793,38.102c0.107-0.642,0.476-0.72,0.821-0.318l0.671,1.927
		c-0.345-0.188-0.854-0.376-1.066,0.052L60.793,38.102z M62.771,44.199c-0.296-0.559,0.347-0.875,0.698-0.559
		c0.8,1.982,1.416,2.918,3.47,5.113c0.034,0.078,1.291,1.227-0.235,0.213C65.122,47.818,63.363,45.912,62.771,44.199z
		 M60.417,32.272c0.245-0.559,0.614-0.509,0.852,0.026v1.712c-0.262-0.319-0.554-0.319-0.852,0V32.272z M61.94,27.321
		c1.045-0.643,0.99,0.318,0.805,0.377c-0.403,0.35-0.615,0.825-0.779,1.444c-0.318-0.672-0.936-0.026-0.99,0.022
		C61.085,28.549,61.19,27.964,61.94,27.321z M63.708,32.272c0.293-0.559,0.67-0.482,0.889,0.049l-0.109,1.721
		c-0.272-0.324-0.539-0.351-0.855-0.031L63.708,32.272z M65.852,27.535c1.061-0.593,0.935,0.377,0.774,0.397
		c-0.429,0.346-0.643,0.727-0.837,1.317c-0.127-1.077-1.253-0.168-1.3-0.109C64.696,28.521,65.052,28.152,65.852,27.535z
		 M54.772,0.06c2.968,0.502,3.256,1.044,3.423,1.279c0.184,0.595,0.107,1.234,0,2.439c0,0.396-0.726,1.043-0.726,0.988
		c-0.133-1.79-0.347-1.255-0.994-1.819C55.599,2.033,54.935,0.834,54.772,0.06z M77.354,3.642c0.888,0.401,0.512,1.715,0.376,1.872
		c-0.695,1.363-2.009,2.247-4.421,2.331c0.729-0.351,1.798-0.561,2.2-2.357C75.778,4.043,76.282,3.319,77.354,3.642z M28.764,0
		c-0.162,0.776-0.831,1.98-1.68,2.896c-0.672,0.56-0.888,0.021-1.021,1.793c0,0.078-0.727-0.564-0.727-0.968
		c-0.104-1.199-0.151-1.844,0-2.429C25.5,1.046,25.79,0.515,28.764,0z M6.203,3.588C7.28,3.267,7.756,3.993,8.033,5.43
		c0.42,1.798,1.496,2.007,2.192,2.359c-2.386-0.106-3.719-0.964-4.39-2.328C5.701,5.271,5.299,3.993,6.203,3.588z M55.952,3.241
		c0.477,0.239,0.712,0.726,0.885,1.525c0.1,0.396,0.669,0.609,1.866,0.502c-0.235,0.298-0.502,0.486-0.612,0.7
		c-0.324,1.016-0.539,2.165-0.694,3.479c-0.165,0.021-0.348-1.232-0.348-1.232c-0.536,0.449-1.228,0.858-1.983,1.232L54.507,9.66
		c-0.968,0.886-1.819,2.488-3.105,4.014c-0.726,0.594-1.583,0.611-2.409,0.594c-0.183,0.052-1.389-0.272-1.389-0.272
		c0.025,0.031,1.601-0.64,1.601-0.64c0.403-0.244,1.017-0.563,1.472-1.26c0.457-0.834,0.752-2.007,0.857-3.582
		c0,0-0.165-1.798,0.883-2.812c0.109-0.188,0.241-0.351,0.376-0.644c0.161,0.267,0.161,0.371,0.241,0.56
		c0.351,0.431,0.564,0.617,0.804,1.124c0.027,0.079,0.131,0.11,0.215,0.188c-0.053-0.641-0.021-1.176,0.159-1.662
		C54.532,4.422,55.465,3.563,55.952,3.241z M72.833,3.993c1.043-0.191,1.839,0.07,2.3,0.773c-0.026,0.48,0.055,2.969-3.025,2.592
		c-0.502-0.533-1.176-0.938-1.579-0.8c-0.241,0.294,0,0.611,0.455,1.014c0.298,0.382,0.271,0.669,0.271,0.941
		c-2.137,0.319-3.908-1.072-4.363-3.429c-0.288-0.742-1.176-1.307-2.06-1.865c1.845-0.139,3.881,0.209,4.249-0.139
		c0.67-0.671,0.994-0.803,1.637-0.965c0.267,0,1.337,0.109,1.849,0.329c0.505,0,1.041-0.139,1.498-0.349
		C73.96,2.759,73.552,3.402,72.833,3.993z M10.703,3.936C9.981,3.345,9.605,2.677,9.472,2.033c0.455,0.214,0.99,0.324,1.508,0.324
		c0.502-0.185,1.573-0.324,1.839-0.293c0.643,0.136,0.988,0.293,1.633,0.941c0.378,0.367,2.407,0,4.283,0.157
		c-0.91,0.561-1.767,1.096-2.064,1.875c-0.479,2.356-2.247,3.742-4.358,3.42c-0.031-0.266-0.053-0.562,0.237-0.935
		c0.463-0.4,0.698-0.729,0.463-1.017c-0.408-0.137-1.047,0.26-1.557,0.799c-3.083,0.377-3.029-2.113-3.05-2.594
		C8.858,4.014,9.66,3.752,10.703,3.936z M37.375,18.949c-0.106-0.327,0.214-0.485,0.455-0.298c0.564,1.066,0.972,1.581,2.357,2.754
		c0.027,0.058,0.055,0.234-0.157,0.141C38.959,20.903,37.785,19.885,37.375,18.949z M36.101,15.628
		c0.073-0.348,0.318-0.373,0.559-0.16l0.449,1.047c-0.235-0.11-0.585-0.22-0.722,0.025L36.101,15.628z M35.887,12.446
		c0.183-0.298,0.423-0.275,0.584,0.029v0.93c-0.192-0.184-0.371-0.184-0.584,0V12.446z M41.604,44.175
		c0-0.455,0.352-0.801,0.781-0.801c0.457,0,0.802,0.346,0.802,0.801c0,0.428-0.345,0.807-0.802,0.807
		C41.959,44.98,41.604,44.603,41.604,44.175z M41.337,49.402c-0.4,0.395-0.67,0.822-0.78,1.305l-0.02,1.605l0.267,0.988l0.11,2.545
		c-0.084,0.584-0.912,0.564-1.043,0.746c-0.214,0.377-0.112,1.176-0.243,1.633c-0.188,0.609-0.643,0.938-0.692,1.066
		c-0.104,0.186,0,0.834,0,0.834c0.107,0.344,0.049,4.896,0.233,5.189c0.167,0.533,0.271,1.045,0.328,1.521
		c-0.026,0.535-0.214,0.801-0.562,0.801c-0.272,0.055-0.434-0.133-0.488-0.504c0.031-0.99-0.021-2.332-0.157-4.092
		c-0.027-0.535-0.084-1.045-0.217-1.5l-0.99-1.715c-0.104-0.182-0.345-0.428-0.664-0.697l0.27-0.723
		c0.081-0.346,0.106-0.723,0.081-1.127c0.695-0.023,1.257-0.316,1.678-0.803c0.967-0.773,0.431-3.502-0.692-4.193
		c-0.509-0.359-1.126-0.289-1.899-0.164c-0.91,0.24-1.553,0.561-1.657,1.363c-0.079,0.668,0.075,0.91,0.559,0.885
		c0.48-0.137,0.371-0.502,0.772-0.859c0.486-0.318,1.182-0.291,1.629-0.104c0.755,0.48,0.833,1.871,0.587,2.328
		c-0.42,0.48-0.904,0.563-1.546,0.379c-0.209-0.086-0.591-0.455-0.376-0.836c0.298-0.266,0.455-0.215,0.642-0.074
		c0.267,0.217,0.564,0.217,0.748-0.063c0.185-0.285,0.026-0.605-0.319-0.846c-0.272-0.168-0.669-0.191-1.228-0.059
		c-0.669,0.322-0.941,0.967-0.884,1.553c0.104,0.727,0.429,1.365,1.014,1.422c0.084,0.268,0.084,0.504,0.027,0.744
		c-0.22,0.594-0.46,1.021-0.722,1.314c-0.298,0.162-0.668,0.162-1.127,0.023c-0.482-0.271-0.859-0.984-1.1-2.111
		c-0.183-0.752-0.502-1.262-0.988-1.523c-0.43-0.109-0.668-0.35-0.726-0.721c0-0.518,0.507-0.615,1.286-0.541
		c0.698-0.27,0.857-0.479,1.181-1.199c0.053-0.059,0.292-0.432,0.327-0.48c0.075-0.217,0.02-0.461,0-0.674l0.02-0.352
		c0.188-1.201,0.802-1.033,1.31-1.309c0.053-0.029,0.136-0.102,0.136-0.211c-0.057-1.871,0.884-2.648,2.989-2.783
		c0.753-1.283,1.557-1.717,2.921-1.26v3.275H41.337z M34.893,60.423c0.429-0.084,0.8-0.273,1.098-0.537
		c0.053,0.186,0.136,0.316,0.246,0.426c-0.11,1.369-0.136,2.781-0.089,4.311l0.194,0.283c0.049,0.543,0.049,0.643-0.084,0.863
		c-0.157,0.105-0.371,0.021-0.48-0.059c-0.298-0.32-0.376-0.533-0.455-0.885c-0.11-0.586-0.137-1.336-0.137-2.219
		c-0.078-0.076-0.188-0.291-0.22-0.561L34.893,60.423z M43.479,46.208c0.348-0.297,0.8-0.371,1.313-0.213
		c0.43,0.318,0.7,0.727,0.883,1.256c1.149-0.131,1.902,0.082,2.278,0.645c0.133,0.35,0.133,0.721,0,1.123
		c0.936,0.564,1.523,1.016,1.761,1.416c0.351,0.508,0.351,0.965-0.031,1.313c-0.073,0.246-0.073,0.398,0,0.506l0.892,1.129
		c0.483,0.582,0.402,1.119-0.188,1.572c-0.139,0.322-0.139,0.564,0.029,0.727c0.561,1.178,0.775,2.17,0.671,2.967
		c-0.214,0.512-0.567,0.541-1.103,0.135l-0.023-2.73c-0.272-0.611-0.988-0.373-0.962,0.273v3.127
		c0.016,0.432,0.157,0.91,0.237,1.258c0.102,0.24,0.055,3.316,0.055,3.316c-0.055,0.566-0.161,0.994-0.318,1.287l-0.727,0.91
		c-0.11,0.021-0.188,0-0.214-0.137c0.292-1.977,0.313-3.719,0.078-5.215l-1.286-2.893c-0.13-1.152-0.188-2.109-0.083-2.918
		c0.271-0.561,0.538-0.938,0.781-1.146c0.217-0.619,0-0.863-0.614-0.75c-0.805,0.615-1.149,1.627-1.069,3.047
		c0.238,1.068,0.322,1.797,0.238,2.119c-0.154,0.131-0.261,0.316-0.292,0.561c-0.159,0.855-0.11,1.662-0.026,2.486l-0.157,2.707
		c-0.191,0.396-0.435,0.664-0.698,0.826c0.028-3.207-0.081-5.158-0.298-6.125c-0.238-0.936-0.453-1.686,0.029-2.301
		c0.188-0.67,0.081-1.232,0.081-1.232L44.42,54.13c-0.133-0.746-0.079-1.553,0.186-2.461c0.055-1.041-0.319-1.768-1.122-2.217
		v-3.244H43.479z M76.737,35.425c0.052,0.43,0.078,0.833,0.078,1.235l1.098,1.63c-0.025-0.188,0-0.855-0.451-1.552
		C77.244,36.31,77.009,35.854,76.737,35.425z M76.685,39.227c-0.053,0.454-0.131,0.909-0.241,1.337l2.167,2.247l-0.081-1.041
		C77.938,40.99,77.411,40.245,76.685,39.227z M75.964,42.408l-0.371,1.102c1.144,1.125,2.373,2.16,3.685,3.156l-0.084-0.725
		C77.704,44.552,76.706,43.375,75.964,42.408z M75.023,44.896l-0.48,1.1c1.098,1.23,2.89,2.674,5.349,4.283
		c-0.026-0.141,0-0.402-0.053-0.539C77.756,47.867,76.146,46.265,75.023,44.896z M74.007,47.121l-0.886,1.795
		c1.986,2.408,4.557,4.865,7.713,7.383c-0.647-1.207-0.969-2.354-1.118-3.482C78.556,52.123,76.685,50.199,74.007,47.121z
		 M67.934,32.407c1.362-2.01,3.321-3.481,5.485-3.351c0.086-0.319-0.084-0.612-0.502-0.909c-0.486-0.215-0.778-0.132-1.474,0.214
		c-1.071,0.028-1.792-0.188-2.198-0.669c-0.055-0.106,0-0.188,0.133-0.214l1.819-0.694v-0.271c-1.098,0.292-2.249,0.321-3.455,0.136
		c-0.616-0.107-0.984-0.562-1.092-1.389c-0.135-0.296,0.108-0.323,0.288-0.166c0.294,0.46,0.751,0.701,1.363,0.701
		c1.636-0.027,2.603-0.109,2.896-0.269c0.643-0.216,1.016-0.594,1.098-1.154c0.055-0.161-0.021-0.188-0.215-0.132
		c-0.83,0.347-1.071,0.237-1.606,0.216c-0.321,0-0.296-0.19,0.075-0.382c1.448-0.799,2.091-1.792,1.929-2.941
		c0.084-0.215,0.188-0.298,0.295-0.215c0.936,1.709,0.797,3.695-0.264,5.135c-0.079,0.09-0.104,0.17-0.104,0.277l0.161,0.214
		c2.67,3.267,4.468,7.065,5.697,11.344c0.851,3.986,1.792,14.365,3.37,17.203c0.585,1.662,1.312,3.133,2.163,4.496
		c-1.468,0.186-3.072-0.242-4.045-0.586l1.124,8.746l-6.125-1.869l-1.557-4.26c-0.079-0.209-0.214-0.316-0.471-0.131
		c-0.538,0.318-2.143,0.105-2.251,0.105c-0.429-0.084-0.564-0.053-0.619,0.166c-0.051,0.371-0.074,1.174-0.024,2.377
		c0.057,0.43,0.345,0.775,0.83,1.047l0.832,0.318c0.402,0.107,0.695,0.324,0.856,0.619c0.131,0.426,0.427,0.826,0.878,1.174
		c0.272,0.078,0.457,0.107,0.402,0.59c-0.057,0.371-0.341,0.588-0.61,0.559c-0.455-0.051-0.803-0.24-1.066-0.586
		c-0.486-0.67-1.103-1.178-1.85-1.523c-0.747-0.404-1.894-0.424-3.292,0c-1.631,0.584-2.994,1.338-3.849,2.168
		c-0.157,0.102-0.269,0.078-0.353-0.029l0.402-2.061c0.11-0.316,0.296-0.561,0.564-0.639l4.494-1.201l0.079-3.24
		c-0.967-0.668-1.657-1.525-2.112-2.545c-0.457-1.762-2.542-2.645-2.542-2.645c-0.802-0.48-1.208-0.83-1.741-0.857l-0.081-0.078
		c-0.402-0.025-1.119-0.025-2.133,0.029c-0.434,0.076-0.757,0.367-1.018,0.879l-0.298,0.832c-0.11,0.402-0.22,0.504-0.586,0.855
		c-0.431,0.164-0.833,0.482-1.152,0.91l-0.112,0.211v0.16c-0.608,1.955-5.878,10.117-14.548,13.488
		c-6.748-2.49-13.138-9.924-14.261-13.373v-0.137c-0.105-0.076-0.188-0.219-0.235-0.318c-0.33-0.465-0.701-0.762-1.161-0.922
		c-0.376-0.346-0.478-0.457-0.59-0.854l-0.29-0.857c-0.239-0.514-0.588-0.773-1.018-0.863c-0.988-0.047-1.714-0.078-2.137-0.047
		l-0.052,0.076c-0.544,0.061-0.938,0.402-1.772,0.854c0,0-2.08,0.887-2.535,2.682c-0.458,1.014-1.155,1.84-2.088,2.51l0.076,3.266
		l4.471,1.178c0.262,0.107,0.473,0.322,0.583,0.67l0.372,2.061c-0.074,0.1-0.178,0.1-0.343,0c-0.828-0.834-2.218-1.557-3.854-2.143
		c-1.387-0.455-2.54-0.402-3.267-0.031c-0.773,0.35-1.39,0.857-1.871,1.523c-0.24,0.375-0.611,0.563-1.066,0.59
		c-0.265,0.055-0.561-0.158-0.616-0.531c-0.049-0.51,0.163-0.51,0.424-0.615c0.433-0.324,0.726-0.721,0.888-1.172
		c0.131-0.275,0.428-0.514,0.831-0.619l0.831-0.32c0.475-0.242,0.773-0.59,0.852-1.014c0.033-1.232,0.033-2.012-0.049-2.389
		c-0.029-0.24-0.165-0.271-0.617-0.182c-0.075,0.025-1.714,0.236-2.247-0.084c-0.243-0.184-0.4-0.076-0.483,0.139l-1.552,4.227
		l-6.131,1.869l1.129-8.725C3.076,59.345,1.5,59.773,0,59.585c0.863-1.334,1.607-2.834,2.2-4.467
		c1.578-2.834,2.511-13.221,3.339-17.23c1.265-4.281,3.055-8.054,5.729-11.344l0.13-0.188c0.035-0.106-0.026-0.214-0.104-0.295
		c-1.068-1.442-1.172-3.423-0.272-5.105c0.11-0.113,0.22-0.029,0.325,0.21c-0.188,1.153,0.455,2.115,1.928,2.915
		c0.345,0.192,0.374,0.381,0.053,0.381c-0.533,0.049-0.776,0.157-1.609-0.194c-0.178-0.078-0.261-0.025-0.212,0.136
		c0.107,0.533,0.457,0.937,1.1,1.15c0.298,0.132,1.249,0.241,2.896,0.272c0.606,0,1.057-0.246,1.358-0.727
		c0.188-0.163,0.428-0.11,0.292,0.188c-0.104,0.831-0.486,1.28-1.092,1.363c-1.208,0.215-2.362,0.16-3.454-0.134v0.271l1.845,0.692
		c0.136,0.055,0.159,0.134,0.136,0.239c-0.432,0.459-1.155,0.704-2.194,0.673c-0.722-0.377-1.02-0.46-1.5-0.24
		c-0.455,0.318-0.586,0.669-0.455,1.013c2.084-0.132,3.984,1.234,5.346,3.184c1.155,0.914,1.661,3.694,1.291,5.941
		c-0.272,5.006-4.121,10.811-11.586,17.45L4.039,66.062l0.968-0.371l1.019-7.359l0.878-0.352l-1.098,7.49l2.49-0.742l3.53-9.156
		l0.753-0.992l0.93-0.496c0.431-0.139,0.59,0.154,0.431,0.475c-0.64,0.611-1.037,1.182-1.225,1.66l-1.045,2.699
		c-0.272,0.646-0.214,1.154,0.108,1.525c0.242,0.457,1.784,0.43,3.179-0.104c1.688-1.125,1.845-1.898,2.274-3.023
		c0.402-1.018,1.019-1.719,1.85-2.088c1.497-1.281,1.283-2.512,1.283-2.756l0.163-3.557c0.051-0.533,0.551-2.115,2.49-5.748
		c1.975-5.379,2.51-9.721,1.549-13.008C24.3,27.78,23.2,26.49,21.249,26.282l-2.65,0.156c-0.506-0.24-0.851-0.563-1.045-0.987
		c-0.24-0.403-0.157-0.565,0.241-0.486c0.245,0.376,0.59,0.59,1.045,0.616l1.761-0.13c0.542-0.059,0.97-0.272,1.213-0.701
		c0.61-0.852,0.289-2.054,0.375-3.393c0.082-0.674,0.665-0.804,0.937-0.192c0.162,0.381,0.136,0.694-0.109,0.938
		c-0.032,1.392-0.079,2.328-0.429,2.913c-0.321,0.402-0.246,0.648,0.241,0.701c0.987,0.611,1.792,1.494,2.357,2.672
		c2.139,5.537,1.063,11.213-3.003,19.266c-0.48,1.311-0.668,2.889-0.587,4.707l0.023,1.098h3.112l1.257-4.494
		c0.108-0.297,0.326-0.486,0.667-0.568l0.91-0.156V31.65h9.684c-0.105-0.075,0.328-1.152,0.584-1.28
		c0.272-0.161,2.921-0.643,2.921-0.643v-1.555c0-0.209-0.64-0.611-0.91-0.875c-0.261-0.274-0.559-0.859-0.83-1.317
		c-0.29-0.482-0.617-1.121-0.748-1.31c-0.13-0.188-0.861-1.498-1.077-1.842c-0.208-0.378-0.261-1.048-0.369-1.554
		c-0.106-0.482-0.912-1.767-1.282-2.357c-0.539,0.486-0.774,0.564-1.578,0.91c-0.75,0.192-1.471,0.323-2.226,0.298
		c-1.333-0.131-2.249-0.668-2.703-1.58c-0.292-0.833-0.187-1.713,0.298-2.675c0.079-0.109,0.137-0.109,0.215,0l1.737,2.377
		c0.778,0.777,1.523,1.078,2.464,0.968c0.878-0.215,1.065-0.376,1.551-0.724l-0.271-0.672c-0.235,0.379-0.533,0.616-0.904,0.751
		c-0.356,0.159-0.698,0.19-1.025,0.08c-0.425-0.137-0.752-0.296-0.88-0.481c0.188-1.151,1.743-1.975,1.953-2.085
		c0,0,0.135-0.084,0.245-0.109l-0.139-0.508c-1.575-0.051-7.19,0.108-9.921-4.786c-1.286-2.304-2.357-5.003-3.859-5.991
		c-1.096-0.594-1.947-0.535-3.023,0.076c0.59-0.67,1.097-1.096,1.745-1.255c0.53-0.083,1.253,0,1.86,0
		c1.667,0.377,3.835,2.593,3.726,2.509c0.241,0.399,0.533,1.769,0.774,3.213c0.162,0.619,0.967,1.339,1.288,1.846
		c-0.165-0.701-0.215-1.364-0.102-1.929c0.608,0.486,0.982,0.564,1.865,0.912c1.124,0.802,1.684,2.108,2.543,3.29
		c0.643,0.718,1.874,1.201,2.892,1.312l-0.026-0.139l-0.057-0.242c-0.557-0.053-1.309-0.157-1.899-0.661
		c-1.206-1.555-2.083-3.16-3.05-4.015L28.47,9.394c-0.755-0.379-1.426-0.773-1.986-1.23c0,0-0.179,1.23-0.347,1.23
		c-0.133-1.31-0.373-2.459-0.671-3.478c-0.131-0.24-0.367-0.402-0.633-0.694c1.199,0.078,1.761-0.105,1.899-0.51
		c0.139-0.804,0.376-1.283,0.876-1.549c0.491,0.349,1.398,1.2,1.745,2.029c0.157,0.51,0.216,1.048,0.157,1.685
		c0.06-0.11,0.162-0.13,0.22-0.188c0.24-0.5,0.455-0.692,0.8-1.117c0.057-0.188,0.057-0.318,0.218-0.56
		c0.16,0.288,0.267,0.449,0.403,0.611c1.04,1.048,0.88,2.835,0.849,2.835c0.133,1.558,0.402,2.763,0.854,3.588
		c0.457,0.669,0.643,0.779,1.073,0.938c0.133-2.061,1.362-3.743,1.927-3.874c0.11-0.026,0.24-0.165,0-0.218
		c-0.429-0.158-0.78-0.51-0.837-1.204c-0.021-0.481-0.211-2.942-0.131-3.209c0.078-0.272,0.513-0.053,0.539,0.084
		c0.053,0.134,0.136,1.897,0.214,2.644c0.105,0.722,0.779,1.205,1.02,1.313c0.241,0.106,1.544,0.026,1.892,0.026
		c0.319,0,0.078-0.084,0.272-0.163c0.214-0.107,0.345-0.107,0.457-0.025c0.13,0.055,0.049,0.4-0.055,0.559
		c-0.133,0.188-0.617,0.432-1.021,0.51c-0.396,0.082-0.774-0.078-1.066-0.078c-0.667,0.055-0.969,0.373-1.204,0.614
		c-0.56,0.59-0.858,1.307-1.15,2.568c-0.271,1.257,0.104,2.565,0.345,3.186c0.241,0.634,0.727,2.166,1.15,3.02
		c0.434,0.831,1.014,1.548,1.288,2.086c0.285,0.563,0.318,0.585,0.454,1.447c0.157,0.884,1.605,3.507,2.271,4.466
		c0.671,0.965,1.337,1.068,2.194,1.179c0.857,0.136,1.231-0.246,1.338-0.298c0.105-0.073-1.149-2.379-1.39-2.674
		c-0.208-0.295-0.4-0.32-0.4-0.32s-0.106-0.267,0-0.352c0.082-0.104,0.839,0.085,1.225,0.293c0.382,0.188,2.204,4.626,2.311,4.764
		c0.104,0.162,1.52,0.533,1.604,0.506c0.104-0.025-1.231-3.509-1.204-3.637c0.028-0.163,0.587,0,0.665,0
		c0.084,0,1.231,3.724,1.231,3.724l0.541,0.154c-0.22-0.741-0.804-4.841-0.863-4.894c-3.988-2.676-5.403-4.65-6.364-5.963
		c-1.014-1.393-1.2-2.838-1.226-4.309c-0.035-1.502,0.477-2.004,0.718-2.302l0.136-0.13c0.67-0.722,1.684-1.261,2.804-1.339
		c0-0.134,0.321-0.109,0.562-0.109c0.272,0,0.351-0.051,0.376-0.267c0.026-0.188-0.188-0.319-0.453-0.486
		c-0.271-0.183-0.488,0-0.969,0.104c-0.476,0.147-1.118-0.156-1.306-0.239c-0.162-0.076-0.136-0.157,0.079-0.212
		c0.584-0.133,1.016-0.16,1.285-0.635c-1.071,0.156-2.759,0.177-2.973,0.049c-0.155-0.107-0.502-0.48-0.612-0.671
		c-0.136-0.156,0.047-0.235,0.183-0.235c0.131,0,0.292,0.346,0.612,0.426c0.298,0.076,2.382-0.055,2.786-0.106
		c0.422-0.053,0.666-0.454,0.804-0.591c0.133-0.136,0-0.24-0.167-0.267c-0.18-0.031-0.774,0.131-1.009,0.131
		c-0.22,0-0.24,0-0.24-0.162c0-0.183,0.855-0.507,1.173-0.744c0.296-0.249,0.426-0.808,0.426-0.808s0.084-0.214,0.215-0.183
		c0.136,0.025,0.214,0.376,0.379,0.831c0.161,0.479-0.243,1.496-0.643,1.975c-0.081,0.058-0.217,0.144-0.402,0.188
		c0.167,0.187,1.418,1.739,2.064,2.733c0.267,0.394,0.556,0.903,0.852,1.468l0.269,0.271c0.397,0.633,1.098,1.096,2.137,1.04
		c1.474,0.134,2.65-0.482,3.319-1.232c0.862-1.149,1.447-2.488,2.545-3.288c0.884-0.321,1.262-0.429,1.871-0.884
		c0.105,0.537,0.052,1.229-0.075,1.903c0.318-0.508,1.097-1.208,1.257-1.818c0.24-1.448,0.527-2.838,0.778-3.243
		c-0.107,0.081,2.084-2.14,3.715-2.512c0.612,0,1.341-0.052,1.871,0.027c0.643,0.161,1.155,0.564,1.746,1.23
		c-1.077-0.615-1.934-0.666-3.022-0.055c-1.476,0.961-2.569,3.668-3.852,5.966c-2.762,4.948-8.573,4.844-10.329,4.763l-1.208-0.027
		l0.084,0.241c0.128-0.055,0.538-0.138,1.465,0.267c0.342,0.165,1.741,0.936,1.958,2.064c-0.168,0.204-0.486,0.372-0.886,0.506
		c-0.319,0.105-0.833,0.053-1.202-0.109c-0.348-0.106-0.667-0.32-0.939-0.694l0.137,0.747c0.455,0.371,0.637,0.59,1.547,0.774
		c0.912,0.107,1.657-0.185,2.435-0.957l1.74-2.388c0.082-0.105,0.162-0.105,0.215,0c0.491,0.963,0.595,1.85,0.298,2.68
		c-0.455,0.906-1.365,1.439-2.703,1.605c-0.751,0-1.452-0.109-2.231-0.319c-0.606-0.274-0.982-0.431-1.165-0.669
		c0.182,1.196,0.429,2.461,0.641,3.396c0.477,2.193,2.142,4.196,2.247,4.709c0.109,0.502-2.407-0.315-2.566-0.24
		c-0.165,0.072,0.608,3.877,0.478,3.903c-0.159,0.026-3.825-0.854-4.199-1.126c-0.402-0.238-0.645-1.388-0.808-1.523
		c-0.157-0.104-0.29,0.115-0.504,0.27c-0.217,0.188,0.023,1.207,0.233,1.396c0.224,0.211,1.079,0.373,1.292,0.504
		c0.215,0.162,0.349,0.539,0.484,0.617l0.637,0.504l-0.345,0.025h10.379v16.591l0.781,0.131c0.347,0.107,0.557,0.291,0.666,0.568
		l1.26,4.52l3.13-0.031l0.021-1.07c0.083-1.814-0.133-3.396-0.614-4.729c-4.069-8.059-5.109-13.704-2.992-19.269
		c0.584-1.177,1.363-2.06,2.377-2.644c0.458-0.079,0.568-0.325,0.211-0.728c-0.316-0.559-0.394-1.523-0.42-2.887
		c-0.241-0.27-0.269-0.591-0.105-0.965c0.256-0.61,0.852-0.448,0.962,0.219c0.049,1.339-0.277,2.541,0.345,3.397
		c0.269,0.398,0.669,0.638,1.231,0.696l1.739,0.109c0.453-0.031,0.802-0.218,1.043-0.592c0.404-0.109,0.486,0.053,0.24,0.482
		c-0.157,0.398-0.506,0.747-1.045,0.963l-2.651-0.163c-1.927,0.234-3.05,1.525-3.317,3.88c-0.967,3.315-0.434,7.652,1.553,13.037
		c1.944,3.629,2.464,5.184,2.488,5.748l0.159,3.533c0.029,0.266-0.217,1.496,1.289,2.775c0.825,0.348,1.442,1.043,1.839,2.061
		c0.455,1.156,0.594,1.93,2.305,3.055c1.369,0.533,2.919,0.533,3.157,0.084c0.35-0.352,0.376-0.859,0.135-1.508l-1.045-2.703
		c-0.209-0.504-0.617-1.068-1.265-1.68c-0.131-0.299,0-0.592,0.434-0.455l0.936,0.502l0.778,0.992l3.507,9.15l2.488,0.748
		l-1.072-7.492l0.888,0.348l1.012,7.361l0.935,0.371l-1.445-10.324c-7.468-6.637-11.316-12.441-11.585-17.444
		C66.355,36.096,66.839,33.394,67.934,32.407z M45.272,22.289c2.143,1.954,4.17,3.24,3.802,2.861
		c-0.061-0.076-0.536-1.311-0.641-1.523c-0.047-0.132-1.766-1.47-2.782-2.332L45.272,22.289z M45.967,20.363
		c0.994,0.614,2.378,1.604,2.545,1.604c0.078-0.029,0-0.134-0.057-0.265c-0.026-0.11-1.416-1.21-2.3-1.902L45.967,20.363z
		 M46.372,18.949c0.718,0.478,1.794,1.28,1.873,1.307c0.137,0.053-0.031-0.24-0.057-0.371c0-0.106-1.04-1.076-1.662-1.661
		L46.372,18.949z M46.667,17.151l1.307,1.124c0,0,0-0.215-0.105-0.481c-0.083-0.219-0.747-1.042-1.149-1.499L46.667,17.151z
		 M46.61,14.903c0.057-0.163,0.831,0.853,0.831,0.853s0.057,0.029-0.11-0.342c-0.214-0.483-0.559-1.021-0.959-1.522
		C46.479,14.23,46.557,14.586,46.61,14.903z M42.763,28.549c-0.538,0.165-1.155-0.078-1.155-0.099c0,0-0.052,1.061-0.028,1.226
		c0,0.164,0.669,0.295,0.779,0.373c0.13,0.082,0.431-0.185,0.431-0.185S42.842,29.057,42.763,28.549z M39.361,31.654h5.806
		c-0.188-0.105-0.854-0.722-1.173-0.644c-0.11,0.034,0.583,0.644,0.583,0.644s-0.99,0-1.124-0.053
		c-0.131-0.026-1.202-0.69-1.39-0.776C41.902,30.744,39.871,31.523,39.361,31.654z M37.859,31.654h1.366
		c-0.073-0.105-0.241-0.433-0.241-0.502C38.98,31.094,38.103,31.523,37.859,31.654z M56.372,50.138v6.908
		c0.434-0.43,0.753-0.936,1.025-1.5c0.371-0.748,0.371-1.924-0.084-3.316C57.017,51.455,56.722,50.765,56.372,50.138z
		 M27.562,57.152v-7.197c-0.403,0.674-0.753,1.447-1.043,2.275c-0.486,1.42-0.457,2.568-0.082,3.318
		C26.699,56.195,27.083,56.695,27.562,57.152z M40.914,45.003c-1.417-0.318-2.467,0.191-3.188,1.531
		c-2.033,0.076-3.104,1.068-3.209,2.965c-0.909,0.24-1.392,0.83-1.473,1.846c-0.96,0.08-1.527,0.801-1.715,2.162
		c-1.551,0-1.683,2.385,0.137,2.65c0.396,0.381,0.854,1.234,1.175,2.199c0.435,0.879,0.935,1.711,1.495,2.029
		c-0.047,1.123,0.083,1.898,0.298,2.492l0.188,2.436c0.266,0.611,0.694,1.283,1.369,1.307c1.066-0.078,1.249-0.832,0.91-2.271
		l0.11-2.893c0.177,0.162,0.318,0.48,0.392,0.912c0.167,1.146,0.167,2.861,0.318,5.111c0.414,1.039,0.672,0.908,1.26,1.068
		c0.694-0.053,1.079-0.402,1.228-1.26c0-0.695-0.102-1.285-0.292-1.795c-0.184-1.148-0.241-2.484-0.105-3.932
		c0.029-1.047,0.078-1.736,0.325-2.115c0.449-0.508,0.559-0.906,0.689-2.033c0.11-0.268,0.858-0.213,1.131-0.746
		c0.16-0.834,0.133-1.984-0.054-3.594c-0.298-0.738-0.372-1.436-0.241-2.105c0.052-0.512,0.323-0.752,0.857-0.727
		c0.46-0.025,0.772,0.277,0.91,0.883c0.02,0.617,0,1.158-0.108,1.688c-0.11,0.617-0.029,1.684,0.426,2.625
		c0.053,0.213-0.052,0.504,0.031,0.721c-0.135,0.453-0.404,0.695-0.486,1.656c0,0.541,0.294,1.447,0.294,1.447
		c0.318,0.699,0.48,2.41,0.48,5.186c-0.188,0.297-0.272,0.699,0.034,1.129c0.693,0.375,1.012,0.322,1.684-0.082
		c0.289-0.348,0.504-0.719,0.666-1.148c0.105-1.793,0.105-3.16-0.055-4.096c0.023-0.213,0.107-0.318,0.27-0.318
		c0.318,0.502,0.506,1.045,0.637,1.604c-0.021,2.891-0.319,4.553-0.235,5.188c0.131,0.404,0.507,0.619,1.317,0.566
		c0.584-0.266,1.602-1.873,1.602-1.873c0.214-1.205,0.238-2.596,0.049-4.146c-0.023-0.324-0.023-0.506,0.057-0.889
		c0.079-0.262,0.107-0.316,0.296-0.344c0.778,0.184,1.312-0.211,1.627-1.205c0.055-0.477,0.055-1.174-0.053-2.031
		c-0.049-0.506-0.183-0.936-0.485-1.26c0.751-1.254,0.563-2.467-0.557-3.662c0.402-1.502-0.215-2.65-1.821-3.43
		c0.051-1.494-0.8-2.219-2.596-2.188c-0.29-0.939-1.1-1.395-2.438-1.371c0.136-1.363-0.135-2.324-1.515-2.514
		C42.173,42.353,40.242,42.466,40.914,45.003z M35.562,41.472l-1.019-3.208l2.702-1.978h-3.343l-1.047-3.213l-1.011,3.213h-3.347
		l2.699,1.978l-1.042,3.208l2.702-1.977L35.562,41.472z M44.577,41.472l-1.045-3.208l2.702-1.978h-3.316l-1.042-3.213l-1.051,3.213
		h-3.318l2.708,1.978l-1.045,3.208l2.706-1.977L44.577,41.472z M53.701,41.472l-1.045-3.208l2.704-1.978h-3.347l-1.011-3.213
		l-1.042,3.213h-3.35l2.702,1.978l-1.008,3.208l2.699-1.977L53.701,41.472z M9.793,47.148c-2.67,3.074-4.547,5.002-5.696,5.668
		c-0.163,1.152-0.486,2.275-1.096,3.516c3.128-2.547,5.699-4.98,7.675-7.391L9.793,47.148z M8.749,44.927
		c-1.098,1.365-2.7,2.969-4.784,4.813c-0.035,0.137,0,0.398-0.035,0.539c2.441-1.582,4.205-3.053,5.329-4.254L8.749,44.927z
		 M7.839,42.437c-0.747,0.965-1.704,2.115-3.235,3.529l-0.052,0.699c1.283-0.959,2.516-2.01,3.663-3.133L7.839,42.437z
		 M7.149,39.227c-0.753,1.019-1.259,1.763-1.876,2.542L5.221,42.81l2.137-2.215C7.28,40.136,7.199,39.681,7.149,39.227z
		 M7.092,35.375c-0.265,0.454-0.508,0.912-0.722,1.363c-0.455,0.696-0.455,1.39-0.455,1.581l1.098-1.656
		C7.044,36.23,7.068,35.803,7.092,35.375z M40.83,5.649c0,0.319,0.241,0.56,0.565,0.56c0.292,0,0.564-0.24,0.564-0.56
		c0-0.32-0.272-0.564-0.564-0.564C41.071,5.085,40.83,5.325,40.83,5.649z M35.855,2.977c-0.031,0.159,0.031,0.29,0.161,0.396
		c0.11,0.139,0.374,0.215,0.721,0.348l0.967,0.43c0.288,0.13,0.539,0.054,0.8,0.35c0.243,0.267,0.351,0.559,0.434,0.8
		c0.079,0.271,0.079,0.509,0.215,0.856c0.104,0.324,0.052,0.457,0.214,0.532c0.185,0.078,0.295,0.059,0.4-0.075
		c0.106-0.106,0.161-0.429,0.216-0.669c0.021-0.217,0.131-0.566,0.376-0.859c0.235-0.318,0.831-0.694,1.396-0.805
		c0.559-0.076,0.742-0.027,1.196-0.13c0.484-0.137,0.724-0.184,0.8-0.43c0.057-0.24,0.079-0.532-0.267-0.64
		c-0.347-0.075-2.221-0.696-3.849-0.636c-1.607,0.053-3.18,0.366-3.347,0.341C35.991,2.784,35.855,2.977,35.855,2.977z
		 M37.164,5.407c0,0.295,0.272,0.562,0.563,0.562c0.324,0,0.561-0.267,0.561-0.562c0-0.322-0.243-0.589-0.561-0.589
		C37.43,4.818,37.164,5.085,37.164,5.407z M33.313,1.928c0,0,4.892-0.613,5.994-0.636c1.094-0.031,3.18,0.369,4.037,0.532
		c0.886,0.16,2.572,0.053,2.676,0.133c0.109,0.107,0.287,0.321,0.029,0.536c-0.274,0.209-1.34,0.852-1.34,1.095
		c0,0.27,0.055,0.455-0.11,0.587c-0.188,0.105-0.345,0-0.888,0.272c-0.528,0.243-0.899,0.508-1.009,0.722
		c-0.11,0.188-0.157,0.135-0.13,0.402c0.021,0.24,0.267,0.425,0.13,0.533c-0.11,0.104-0.183,0-0.292,0.104
		c-0.104,0.11-0.453,0.46-0.883,0.46c-0.429,0-0.429-0.079-0.753,0.02c-0.856,0.298-1.098,0.89-1.17,1.129
		c-0.084,0.272-0.136,0.319-0.243,0.215c-0.105-0.078-0.052-0.184-0.243-0.509c-0.163-0.29-0.453-0.96-0.855-1.012
		c-0.402-0.083-1.124-0.107-1.392-0.3c-0.241-0.21-0.533-0.21-0.507-0.426c0.052-0.215,0.298-0.215,0.298-0.563
		c0-0.374-0.136-0.751-0.726-1.096c-0.564-0.345-1.15-0.455-1.236-0.589c-0.049-0.166,0-0.184,0.061-0.349
		c0.073-0.164,0.235-0.106-0.061-0.214c-0.29-0.081-1.122-0.271-1.302-0.455c-0.169-0.186-0.3-0.533-0.222-0.562
		C33.232,1.902,33.313,1.928,33.313,1.928z M100.444,32.463c0,7.247,0.188,15.246,0.562,23.966c4.975,0.219,8.29,0.324,9.903,0.324
		c4.378,0,7.676-0.422,9.866-1.234c1.553-0.584,2.786-1.65,3.716-3.156l0.972,0.32c0.053,0.699-0.194,1.896-0.727,3.615
		c-0.532,1.711-1.045,2.969-1.473,3.773c-3.047-0.318-12.067-0.486-27.07-0.486h-2.812l-0.48-1.229l0.532-11.131
		c0.165-3.824,0.267-8.745,0.267-14.763c0-4.013-0.402-10.629-0.402-10.629l-0.267-4.363l0.48-1.234h7.254l0.48,1.234l-0.214,4.253
		C101.032,21.724,100.444,28.905,100.444,32.463z M235.054,58.603l-0.459,1.119h-6.335l-0.569-1.119v-3.57
		c-2.68,3.352-6.175,5.008-10.533,5.008c-5.174,0-9.554-1.816-13.223-5.461c-3.639-3.633-5.46-8.045-5.46-13.238
		c0-5.136,1.821-9.52,5.489-13.194c3.661-3.636,8.082-5.451,13.24-5.451c4.52,0,8.215,1.439,11.059,4.385
		c0-6.504-0.189-5.676-0.57-15.358l0.57-1.127h6.34l0.453,1.127c-0.486,8.162-0.724,9.228-0.724,21.028
		C234.329,40.517,234.569,49.15,235.054,58.603z M228.26,36.394c-1.503-7.306-5.81-10.942-12.875-10.942
		c-2.784,0-5.084,1.228-6.872,3.714c-1.823,2.489-2.732,5.674-2.732,9.579c0,0.91,0.072,1.851,0.245,2.839
		c0.533,4.627,1.923,8.49,4.191,11.529c2.278,3.082,4.979,4.605,8.085,4.605c2.142,0,4.123-0.672,5.943-2.01
		c1.819-1.307,3.076-3.131,3.766-5.455C228.12,46.796,228.204,42.169,228.26,36.394z M267.43,48.591c0,3.613-1.447,6.527-4.366,8.67
		c-2.642,2.059-5.829,3.102-9.539,3.102c-3.732,0-6.964-0.777-9.689-2.354l-5.033-1.951c0-3.318,0.268-5.729,0.826-7.227
		c2.094,3.344,3.909,5.488,5.404,6.416c2.869,1.721,5.681,2.604,8.43,2.604c1.949,0,3.801-0.666,5.592-1.955
		c1.977-1.416,2.994-3.02,2.994-4.871c0-2.168-0.883-3.928-2.643-5.293c-1.262-1.014-3.508-1.891-6.77-2.68
		c-3.909-0.957-6.512-1.758-7.781-2.347c-2.736-1.239-4.558-3.104-5.412-5.597c-0.42-1.254-0.641-2.488-0.641-3.742
		c0-1.686,0.675-3.397,2.012-5.113c1.198-1.578,2.859-2.73,4.996-3.421c1.615-0.486,3.937-0.722,6.982-0.722
		c1.448,0,3.94,0.377,7.488,1.125c1.986,0.455,3.967,0.852,5.943,1.229c0.166,3.907,0.035,6.907-0.393,9.013
		c-2.197-3.313-4.092-5.478-5.707-6.501c-2.272-1.521-4.865-2.274-7.81-2.274c-2.03,0-3.524,0.267-4.497,0.8
		c-2.305,1.313-3.449,2.922-3.449,4.792c0,1.58,0.855,2.894,2.568,3.909c1.555,0.988,4.066,1.949,7.518,2.886
		c3.455,0.945,5.773,1.716,6.961,2.328C265.421,41.582,267.43,44.634,267.43,48.591z M101.785,70.236l-0.643,0.025
		c-0.48-1.254-1.447-1.896-2.947-1.896c-0.994,0-1.813,0.379-2.488,1.156c-0.695,0.768-1.045,1.715-1.045,2.801
		c0,1.236,0.402,2.305,1.176,3.213c0.747,0.885,1.577,1.34,2.486,1.34c1.417,0,2.41-0.375,2.969-1.098l0.382,0.566
		c-0.429,0.504-0.837,0.877-1.233,1.068c-0.539,0.266-1.286,0.402-2.221,0.402c-1.367,0-2.571-0.512-3.613-1.533
		C93.539,75.275,93,73.984,93,72.513c0-1.313,0.507-2.492,1.578-3.531c1.045-1.02,2.25-1.547,3.59-1.547
		c0.745,0,1.625,0.209,2.619,0.586c0.294,0.107,0.59,0.131,0.856,0.08l0.136,0.076v2.059H101.785z M112.294,67.962
		c-0.104,1.605-0.131,3.162-0.131,4.678c0,1.266,0.027,2.816,0.131,4.635l-0.131,0.342h-1.575l-0.139-0.342l0.081-2.061
		c0.058-0.67,0.058-1.523,0.058-2.574c0-1.014-0.027-2.566-0.139-4.678l0.139-0.322h1.575L112.294,67.962z M130.198,68.501
		l-2.545-0.059l-1.629,0.029c-0.086,1.314-0.106,2.705-0.106,4.174c0,1.313,0.021,2.889,0.106,4.734l-0.086,0.24h-1.656l-0.11-0.24
		l0.11-2.029c0-0.699,0.031-1.611,0.031-2.711c0-1.098-0.031-1.975-0.063-2.643l-0.074-1.555h-1.579l-2.513,0.059
		c0.052-0.434,0.109-0.703,0.188-0.861h0.107h2.641h1.077h1.041h1.178h1.175h2.407h0.131
		C130.114,67.8,130.146,68.068,130.198,68.501z M146.142,67.771l-1.123,1.613c-0.563,0.826-1.369,2.008-2.461,3.582v0.297
		l0.161,4.117l-0.106,0.24h-1.691l-0.066-0.24c0.066-2.166,0.127-3.527,0.127-4.117v-0.455c-0.831-1.18-1.658-2.354-2.547-3.506
		l-1.035-1.531l0.078-0.131h1.604l0.218,0.131l0.821,1.424c0.696,1.26,1.37,2.348,1.981,3.314c0.428-0.584,1.05-1.662,1.902-3.207
		l0.834-1.531l0.213-0.131h1.018L146.142,67.771z M175.173,70.236l-0.641,0.025c-0.457-1.254-1.445-1.896-2.951-1.896
		c-0.986,0-1.818,0.379-2.484,1.156c-0.697,0.768-1.047,1.715-1.047,2.801c0,1.236,0.406,2.305,1.18,3.213
		c0.748,0.885,1.581,1.34,2.488,1.34c1.416,0,2.43-0.375,2.969-1.098l0.371,0.566c-0.43,0.504-0.824,0.877-1.224,1.068
		c-0.533,0.266-1.259,0.402-2.194,0.402c-1.394,0-2.598-0.512-3.643-1.533c-1.063-1.006-1.604-2.297-1.604-3.768
		c0-1.313,0.513-2.492,1.573-3.531c1.051-1.02,2.254-1.547,3.59-1.547c0.778,0,1.641,0.209,2.621,0.586
		c0.3,0.107,0.592,0.131,0.859,0.08l0.137,0.076V70.236L175.173,70.236z M193.63,72.619c0,1.391-0.559,2.625-1.714,3.688
		c-1.119,1.072-2.378,1.611-3.742,1.611c-1.441,0-2.728-0.537-3.819-1.576c-1.076-1.066-1.641-2.309-1.641-3.723
		c0-1.42,0.564-2.648,1.713-3.75c1.129-1.098,2.384-1.652,3.747-1.652c1.417,0,2.676,0.555,3.797,1.631
		C193.071,69.937,193.63,71.199,193.63,72.619z M191.971,72.619c-0.055-1.232-0.478-2.299-1.31-3.182
		c-0.799-0.912-1.682-1.369-2.646-1.369c-1.068,0-1.929,0.457-2.646,1.336c-0.727,0.916-1.039,1.953-0.963,3.215
		c0.023,1.234,0.455,2.271,1.286,3.184c0.8,0.906,1.679,1.363,2.647,1.363c1.037,0,1.899-0.457,2.615-1.342
		C191.681,74.917,191.999,73.853,191.971,72.619z M209.313,67.857c-0.11,0.645-0.163,2.217-0.163,4.783v1.795
		c-0.058,0.615-0.318,1.262-0.8,1.932c-0.621,0.908-1.473,1.391-2.545,1.416c-1.018,0.053-1.771-0.029-2.299-0.242
		c-0.703-0.266-1.207-0.592-1.505-0.994c-0.288-0.42-0.502-1.121-0.586-2.166l-0.026-1.74c0-2.592-0.057-4.17-0.166-4.783
		l0.078-0.217h1.609l0.109,0.217l-0.109,2.061c-0.027,0.695-0.053,1.604-0.053,2.723c0,0.701,0.025,1.213,0.053,1.479
		c0.057,0.533,0.141,0.934,0.238,1.232c0.357,1.041,1.209,1.574,2.581,1.574c0.415,0,0.875-0.162,1.361-0.506
		c0.392-0.293,0.695-0.67,0.909-1.125c0.136-0.32,0.241-0.777,0.287-1.363l0.027-1.285c0-1.125-0.027-2.033-0.053-2.725
		l-0.079-2.064l0.079-0.213h0.97L209.313,67.857z M225.769,77.38l-0.109,0.24h-1.898l-0.271-0.24
		c-0.183-0.318-0.401-0.637-0.644-0.961l-0.693-0.91c-0.536-0.83-1.385-2.029-2.51-3.666l-0.883-1.176
		c-0.084,0.672-0.135,1.34-0.135,1.979c0,1.313,0.051,2.889,0.135,4.734l-0.084,0.24h-0.932l-0.109-0.24l0.109-2.029
		c0.023-0.699,0.023-1.611,0.023-2.711l-0.053-2.105l-0.08-2.01v-0.668l0.109-0.217h1.097c0.429,0.752,0.958,1.584,1.555,2.434
		c0.586,0.914,1.435,2.219,2.615,3.936l1.687,2.332l0.025-0.73c0.027-0.771,0.053-1.758,0.053-2.965
		c0-1.125-0.025-2.033-0.053-2.725l-0.109-2.064l0.109-0.213h0.936l0.109,0.213c-0.109,1.611-0.161,3.211-0.161,4.789
		C225.607,73.957,225.659,75.535,225.769,77.38z M242.278,70.236l-0.643,0.025c-0.48-1.254-1.449-1.896-2.943-1.896
		c-0.992,0-1.818,0.379-2.49,1.156c-0.691,0.768-1.043,1.715-1.043,2.801c0,1.236,0.393,2.305,1.174,3.213
		c0.75,0.885,1.581,1.34,2.49,1.34c1.416,0,2.436-0.375,2.973-1.098l0.375,0.566c-0.438,0.504-0.829,0.877-1.233,1.068
		c-0.536,0.266-1.263,0.402-2.188,0.402c-1.399,0-2.604-0.512-3.646-1.533c-1.066-1.006-1.604-2.297-1.604-3.768
		c0-1.313,0.5-2.492,1.58-3.531c1.047-1.02,2.247-1.547,3.588-1.547c0.775,0,1.619,0.209,2.615,0.586
		c0.295,0.107,0.59,0.131,0.865,0.08l0.127,0.076v2.059H242.278z M252.792,67.962c-0.109,1.605-0.134,3.162-0.134,4.678
		c0,1.266,0.024,2.816,0.134,4.635l-0.134,0.342h-1.552l-0.158-0.342l0.082-2.061c0.053-0.67,0.073-1.523,0.073-2.574
		c0-1.014-0.052-2.566-0.155-4.678l0.155-0.322h1.553L252.792,67.962z"/>
</g>
</svg>
