<?xml version="1.0" encoding="utf-8"?>
<!-- Generator: Adobe Illustrator 15.1.0, SVG Export Plug-In . SVG Version: 6.00 Build 0)  -->
<!DOCTYPE svg PUBLIC "-//W3C//DTD SVG 1.1//EN" "http://www.w3.org/Graphics/SVG/1.1/DTD/svg11.dtd">
<svg version="1.1" id="Layer_1" xmlns="http://www.w3.org/2000/svg" xmlns:xlink="http://www.w3.org/1999/xlink" x="0px" y="0px"
	 width="100.086px" height="30.027px" viewBox="0 0 100.086 30.027" enable-background="new 0 0 100.086 30.027"
	 xml:space="preserve">
<linearGradient id="SVGID_1_" gradientUnits="userSpaceOnUse" x1="50.0425" y1="0" x2="50.0425" y2="30.0273">
	<stop  offset="0" style="stop-color:#384048"/>
	<stop  offset="1" style="stop-color:#33444E"/>
</linearGradient>
<path fill="url(#SVGID_1_)" d="M100.086,28.533c0,0.072,0,0.162-0.028,0.281c-0.021,0.121-0.043,0.211-0.07,0.252
	c-0.22-0.021-0.891-0.032-2.013-0.032h-0.291l-0.027-0.089l0.02-0.76c0.019-0.262,0.029-0.602,0.029-1.014
	c0-0.42-0.012-0.76-0.029-1.02l-0.02-0.771l0.027-0.08h0.621l0.031,0.08c-0.031,0.604-0.051,1.201-0.051,1.791
	c0,0.453,0.01,0.982,0.051,1.582c0.617,0.021,1.078,0.012,1.369-0.039C99.875,28.685,99.996,28.625,100.086,28.533z M59.59,12.331
	l-0.09,0.611l-9.468,4.423c0.142,0.319,0.433,0.839,0.87,1.55c0.801,1.314,2.044,1.963,3.704,1.963c1.94,0,3.573-0.861,4.894-2.582
	c0.201,0.381,0.191,0.959-0.028,1.73c-1.841,1.602-3.634,2.402-5.384,2.402c-2.125,0-3.844-0.672-5.166-1.992
	c-1.332-1.33-1.991-3.002-1.991-5.033c0-1.981,0.62-3.623,1.87-4.925c1.322-1.371,2.964-2.063,4.924-2.063
	c1.771,0,3.214,0.57,4.335,1.7C58.32,10.4,58.83,11.143,59.59,12.331z M57.008,13.282c-0.159-0.812-0.459-1.562-0.898-2.251
	c-0.661-1.052-1.682-1.582-3.072-1.582c-1.242,0-2.143,0.56-2.701,1.671c-0.481,0.993-0.731,2.304-0.752,3.924
	c0,0.55,0.049,1.03,0.148,1.462L57.008,13.282z M73.133,12.331l-0.1,0.611l-9.459,4.423c0.141,0.319,0.43,0.839,0.872,1.55
	c0.798,1.314,2.031,1.963,3.691,1.963c1.94,0,3.583-0.861,4.905-2.582c0.197,0.381,0.188,0.959-0.03,1.73
	c-1.853,1.602-3.644,2.402-5.386,2.402c-2.121,0-3.853-0.672-5.176-1.992c-1.32-1.33-1.98-3.002-1.98-5.033
	c0-1.981,0.621-3.623,1.861-4.925c1.321-1.371,2.974-2.063,4.935-2.063c1.763,0,3.203,0.57,4.333,1.7
	C71.862,10.4,72.373,11.143,73.133,12.331z M70.541,13.282c-0.16-0.812-0.461-1.562-0.899-2.251
	c-0.661-1.052-1.683-1.582-3.063-1.582c-1.24,0-2.15,0.56-2.711,1.671c-0.481,0.993-0.73,2.304-0.752,3.924
	c0,0.55,0.051,1.03,0.15,1.462L70.541,13.282z M30.617,26.882l-0.691,1.063l0.951,1.053H23.57v-1.482h-1.15v-0.631h8.197V26.882z
	 M8.137,27.935H23.19v2.092H8.137V27.935z M0.67,26.882h8.188v0.621H7.717v1.492H0.402l0.949-1.063L0.67,26.882z M8.108,4.374
	c0-0.161,0.179-0.281,0.408-0.281c0.221,0,0.401,0.12,0.401,0.281s-0.18,0.291-0.4,0.291l-0.1-0.01c-0.309,0.35-0.34,0.79-0.34,0.79
	v0.628H4.275c0,0,0.01-0.448,0-0.609c-0.021-0.188-0.261-0.621-0.412-0.8H3.814c-0.232,0-0.411-0.13-0.411-0.291
	s0.179-0.281,0.411-0.281c0.221,0,0.398,0.12,0.398,0.281l-0.008,0.05c0.939,0.992,1.682,1.111,1.78-0.04h0.371
	c0.021,1.103,0.591,1.092,1.771,0.07C8.119,4.436,8.108,4.405,8.108,4.374z M5.797,3.985c0-0.161,0.179-0.29,0.397-0.29
	c0.231,0,0.411,0.129,0.411,0.29c0,0.159-0.18,0.277-0.411,0.277C5.977,4.263,5.797,4.145,5.797,3.985z M4.285,6.566
	c0,0.03-0.031,0.352,0.211,0.452c0.549,0.219,1.569-0.053,1.881,1.39c0.02,0.05,0.09,0.07,0.131-0.01
	c-0.041-0.841,0.447-1.25,1.229-1.451c0.22-0.069,0.431-0.122,0.479-0.251c0.039-0.139-0.068-0.63,0.391-0.63
	c0.061,0,0.21,0.04,0.221,0.191c0.03,0.26-0.181,0.329-0.111,0.419c0.082,0.101,0.021,0.2,0.012,0.209
	c-0.07,0.092-0.109,0.052-0.382,0.171c-0.3,0.132-0.448,0.31-0.489,0.422c-0.031,0.1-0.021,0.079,0,0.211
	c0.01,0.147,0.301,0.218,0.229,0.236c-0.08,0.014-0.239,0.031-0.279,0.082c-0.04,0.063-0.189,0.25-0.4,0.271
	c-0.21,0.028-0.21-0.012-0.359,0.067c-0.409,0.191-0.49,0.491-0.521,0.621c-0.018,0.132-0.04,0.162-0.098,0.122
	c-0.051-0.041-0.012-0.11-0.112-0.251c-0.11-0.141-0.201-0.399-0.51-0.411c-0.201-0.009-0.601,0.04-0.7-0.099
	C4.924,8.07,4.765,8.109,4.754,8.037c0-0.04,0.182-0.06,0.162-0.229c-0.021-0.182-0.102-0.29-0.402-0.432
	c-0.301-0.14-0.561-0.14-0.609-0.21c-0.041-0.07-0.041-0.09-0.021-0.171c0.031-0.139,0.013-0.078-0.1-0.179
	C3.674,6.707,3.725,6.266,4.002,6.284C4.205,6.297,4.285,6.478,4.285,6.566z M5.145,7.979c0.021,0.158,0.161,0.271,0.313,0.25
	c0.147-0.021,0.26-0.159,0.237-0.321c-0.019-0.15-0.147-0.259-0.31-0.241C5.235,7.689,5.125,7.827,5.145,7.979z M6.946,7.877
	c0.021,0.16,0.161,0.271,0.312,0.25c0.15-0.019,0.26-0.161,0.24-0.309c-0.02-0.162-0.15-0.272-0.31-0.251
	C7.037,7.586,6.926,7.729,6.946,7.877z M8.608,14.262l-0.159,0.622c-0.07-0.158-0.261-0.101-0.393-0.021l0.24-0.721
	C8.438,13.983,8.567,14.023,8.608,14.262z M7.867,16.544c-0.219,0.629-0.881,1.342-1.471,1.78c-0.57,0.372-0.1-0.05-0.09-0.079
	c0.77-0.82,1-1.18,1.311-1.911C7.748,16.205,7.988,16.335,7.867,16.544z M8.758,12.081v0.65c-0.109-0.12-0.219-0.12-0.33,0v-0.65
	C8.518,11.88,8.66,11.862,8.758,12.081z M8.178,10.22c0.291,0.251,0.33,0.459,0.371,0.699c-0.021-0.027-0.26-0.27-0.371-0.019
	c-0.059-0.222-0.139-0.402-0.301-0.541C7.818,10.35,7.787,9.979,8.178,10.22z M7.518,12.072l0.029,0.648
	c-0.108-0.108-0.221-0.108-0.318,0.021l-0.031-0.641C7.277,11.892,7.408,11.862,7.518,12.072z M6.728,10.301
	c0.3,0.229,0.42,0.367,0.51,0.608c-0.021-0.029-0.45-0.371-0.489,0.032c-0.069-0.221-0.15-0.362-0.312-0.479
	C6.365,10.448,6.326,10.089,6.728,10.301z M22.431,4.374c0-0.161,0.181-0.291,0.409-0.291c0.222,0,0.402,0.13,0.402,0.291
	c0,0.031,0,0.05-0.011,0.08c1.17,1.011,1.742,1.031,1.771-0.07h0.36c0.101,1.142,0.841,1.021,1.782,0.04l-0.012-0.05
	c0-0.161,0.19-0.291,0.412-0.291c0.219,0,0.397,0.13,0.397,0.291s-0.179,0.291-0.397,0.291l-0.062-0.01
	c-0.149,0.18-0.392,0.608-0.399,0.81c-0.021,0.161,0,0.609,0,0.609H23.28V5.446c0,0-0.028-0.44-0.35-0.79l-0.091,0.01
	C22.61,4.665,22.431,4.535,22.431,4.374z M24.752,3.975c0-0.15,0.181-0.279,0.399-0.279c0.22,0,0.411,0.129,0.411,0.279
	c0,0.158-0.191,0.288-0.411,0.288C24.933,4.263,24.752,4.133,24.752,3.975z M27.074,6.558c-0.011-0.08,0.079-0.261,0.27-0.281
	c0.281-0.01,0.34,0.432,0.229,0.531c-0.11,0.109-0.141,0.041-0.11,0.18c0.021,0.08,0.021,0.101-0.02,0.18
	c-0.04,0.07-0.311,0.07-0.609,0.21c-0.301,0.131-0.381,0.25-0.4,0.42c-0.021,0.183,0.17,0.192,0.158,0.241
	c0,0.059-0.17,0.032-0.35,0.282c-0.099,0.139-0.5,0.099-0.701,0.107c-0.31,0.012-0.399,0.263-0.5,0.411
	c-0.109,0.141-0.061,0.21-0.121,0.251c-0.049,0.029-0.069,0.01-0.101-0.121c-0.028-0.13-0.108-0.43-0.51-0.631
	c-0.147-0.069-0.161-0.04-0.371-0.059c-0.21-0.03-0.351-0.21-0.399-0.271c-0.041-0.06-0.191-0.068-0.271-0.09
	c-0.081-0.01,0.21-0.08,0.229-0.239c0.01-0.132,0.03-0.101-0.009-0.211c-0.041-0.108-0.181-0.278-0.481-0.41
	c-0.28-0.119-0.31-0.079-0.391-0.171c-0.009-0.02-0.07-0.108,0.01-0.22c0.08-0.091-0.131-0.148-0.108-0.409
	c0.019-0.162,0.16-0.191,0.229-0.191c0.45-0.01,0.34,0.491,0.391,0.63c0.039,0.129,0.249,0.17,0.47,0.251
	c0.781,0.201,1.272,0.6,1.241,1.451c0.041,0.068,0.102,0.05,0.121,0c0.32-1.44,1.342-1.17,1.892-1.391
	C27.104,6.917,27.063,6.597,27.074,6.558z M24.301,7.877c0.02-0.147-0.088-0.291-0.24-0.31c-0.148-0.021-0.291,0.089-0.309,0.239
	c-0.021,0.158,0.09,0.302,0.24,0.312C24.142,8.137,24.28,8.029,24.301,7.877z M26.104,7.979c0.019-0.159-0.091-0.3-0.241-0.313
	c-0.152-0.019-0.291,0.09-0.311,0.241s0.091,0.292,0.24,0.31C25.943,8.238,26.082,8.127,26.104,7.979z M22.74,14.253
	c0.04-0.241,0.18-0.271,0.309-0.119l0.25,0.72c-0.129-0.07-0.319-0.141-0.399,0.02L22.74,14.253z M23.48,16.534
	c-0.109-0.21,0.13-0.329,0.262-0.21c0.299,0.742,0.528,1.092,1.299,1.912c0.012,0.029,0.48,0.461-0.09,0.08
	C24.36,17.886,23.703,17.173,23.48,16.534z M22.601,12.072c0.091-0.21,0.229-0.191,0.319,0.01v0.64
	c-0.099-0.119-0.209-0.119-0.319,0V12.072z M23.17,10.22c0.391-0.24,0.371,0.119,0.301,0.141c-0.15,0.13-0.229,0.309-0.291,0.541
	c-0.119-0.251-0.35-0.01-0.37,0.009C22.851,10.679,22.891,10.461,23.17,10.22z M23.832,12.072c0.108-0.21,0.25-0.181,0.332,0.019
	l-0.041,0.643c-0.102-0.12-0.201-0.131-0.32-0.012L23.832,12.072z M24.633,10.301c0.397-0.223,0.349,0.14,0.289,0.147
	c-0.159,0.13-0.24,0.271-0.312,0.492c-0.049-0.402-0.47-0.062-0.487-0.04C24.201,10.668,24.334,10.53,24.633,10.301z M20.488,0.022
	c1.111,0.188,1.219,0.39,1.281,0.479c0.068,0.223,0.04,0.461,0,0.912c0,0.148-0.271,0.39-0.271,0.37
	c-0.051-0.671-0.131-0.47-0.371-0.681C20.799,0.76,20.549,0.313,20.488,0.022z M28.937,1.362c0.331,0.149,0.19,0.642,0.14,0.7
	c-0.261,0.51-0.752,0.841-1.652,0.872c0.271-0.131,0.672-0.21,0.822-0.881C28.346,1.512,28.535,1.242,28.937,1.362z M10.76,0
	c-0.061,0.29-0.312,0.741-0.629,1.082c-0.25,0.21-0.332,0.009-0.381,0.671c0,0.029-0.271-0.211-0.271-0.361
	c-0.04-0.449-0.059-0.689,0-0.908C9.539,0.392,9.648,0.192,10.76,0z M2.321,1.342c0.402-0.121,0.581,0.151,0.683,0.69
	c0.158,0.671,0.561,0.75,0.82,0.881c-0.89-0.04-1.391-0.36-1.642-0.87C2.133,1.972,1.981,1.493,2.321,1.342z M20.93,1.212
	c0.179,0.089,0.269,0.271,0.331,0.57c0.038,0.15,0.25,0.229,0.698,0.189c-0.088,0.111-0.188,0.181-0.229,0.261
	c-0.121,0.381-0.201,0.812-0.26,1.302c-0.063,0.009-0.131-0.461-0.131-0.461c-0.2,0.169-0.459,0.322-0.741,0.461l-0.21,0.08
	c-0.36,0.332-0.68,0.931-1.161,1.501c-0.271,0.222-0.591,0.229-0.901,0.222c-0.068,0.02-0.52-0.101-0.52-0.101
	c0.009,0.011,0.6-0.24,0.6-0.24c0.15-0.091,0.381-0.21,0.551-0.471c0.17-0.313,0.28-0.75,0.319-1.341c0,0-0.062-0.672,0.331-1.051
	c0.041-0.071,0.091-0.13,0.141-0.241c0.06,0.1,0.06,0.14,0.09,0.21c0.131,0.16,0.211,0.229,0.301,0.421
	c0.009,0.029,0.049,0.04,0.081,0.07c-0.021-0.24-0.009-0.441,0.059-0.622C20.397,1.653,20.748,1.332,20.93,1.212z M27.246,1.493
	c0.389-0.071,0.688,0.027,0.858,0.289c-0.009,0.181,0.021,1.112-1.132,0.971c-0.188-0.2-0.439-0.352-0.59-0.3
	c-0.09,0.109,0,0.229,0.17,0.38c0.111,0.142,0.102,0.25,0.102,0.352c-0.8,0.119-1.462-0.401-1.632-1.282
	c-0.108-0.278-0.44-0.489-0.771-0.699c0.689-0.051,1.451,0.079,1.59-0.051c0.25-0.251,0.371-0.3,0.611-0.36
	c0.1,0,0.5,0.04,0.691,0.121c0.189,0,0.391-0.05,0.561-0.13C27.666,1.032,27.514,1.272,27.246,1.493z M4.004,1.472
	c-0.27-0.22-0.41-0.471-0.461-0.712c0.17,0.081,0.371,0.121,0.563,0.121C4.295,0.813,4.695,0.76,4.795,0.772
	c0.242,0.051,0.371,0.108,0.611,0.351c0.141,0.139,0.901,0,1.602,0.06c-0.34,0.21-0.66,0.41-0.771,0.701
	c-0.18,0.882-0.841,1.4-1.631,1.279c-0.011-0.099-0.02-0.209,0.089-0.35c0.173-0.149,0.261-0.271,0.173-0.38
	c-0.152-0.051-0.392,0.098-0.582,0.3c-1.152,0.14-1.132-0.791-1.141-0.972C3.314,1.502,3.614,1.402,4.004,1.472z M13.982,7.087
	c-0.041-0.121,0.08-0.181,0.17-0.109c0.21,0.398,0.362,0.591,0.881,1.03c0.01,0.021,0.021,0.088-0.06,0.051
	C14.573,7.82,14.135,7.438,13.982,7.087z M13.504,5.846c0.027-0.13,0.119-0.14,0.209-0.061l0.17,0.392
	c-0.09-0.041-0.221-0.081-0.271,0.01L13.504,5.846z M13.424,4.655c0.068-0.111,0.158-0.102,0.219,0.01v0.349
	c-0.071-0.068-0.139-0.068-0.219,0V4.655z M15.563,16.525c0-0.17,0.131-0.299,0.291-0.299c0.17,0,0.301,0.129,0.301,0.299
	c0,0.16-0.131,0.301-0.301,0.301C15.695,16.825,15.563,16.685,15.563,16.525z M15.463,18.478c-0.149,0.148-0.25,0.309-0.291,0.488
	l-0.008,0.602l0.101,0.369l0.04,0.951c-0.031,0.221-0.342,0.211-0.391,0.279c-0.08,0.143-0.041,0.441-0.09,0.611
	c-0.07,0.229-0.24,0.352-0.26,0.399c-0.04,0.069,0,0.313,0,0.313c0.04,0.128,0.02,1.831,0.089,1.94
	c0.062,0.199,0.101,0.391,0.121,0.57c-0.011,0.199-0.08,0.299-0.21,0.299c-0.102,0.021-0.161-0.049-0.182-0.189
	c0.012-0.369-0.01-0.87-0.06-1.529c-0.009-0.201-0.03-0.391-0.081-0.563l-0.371-0.641c-0.039-0.068-0.129-0.16-0.248-0.26
	l0.101-0.271c0.03-0.129,0.04-0.27,0.03-0.422c0.261-0.008,0.471-0.117,0.629-0.299c0.361-0.291,0.16-1.311-0.26-1.57
	c-0.189-0.133-0.422-0.109-0.711-0.061c-0.34,0.09-0.58,0.209-0.619,0.51c-0.031,0.25,0.028,0.34,0.209,0.33
	c0.18-0.051,0.14-0.188,0.289-0.32c0.182-0.119,0.44-0.109,0.61-0.039c0.281,0.18,0.312,0.699,0.22,0.871
	c-0.158,0.18-0.34,0.211-0.58,0.141c-0.078-0.031-0.221-0.17-0.141-0.313c0.111-0.1,0.17-0.08,0.241-0.027
	c0.099,0.08,0.21,0.08,0.28-0.021c0.068-0.109,0.01-0.229-0.121-0.318c-0.102-0.063-0.25-0.07-0.459-0.021
	c-0.25,0.121-0.352,0.361-0.331,0.582c0.04,0.27,0.161,0.51,0.38,0.529c0.031,0.102,0.031,0.189,0.009,0.28
	c-0.08,0.222-0.17,0.382-0.269,0.491c-0.111,0.061-0.25,0.061-0.422,0.009c-0.181-0.101-0.32-0.368-0.41-0.79
	c-0.069-0.281-0.188-0.471-0.371-0.568c-0.159-0.043-0.249-0.133-0.27-0.271c0-0.191,0.19-0.23,0.479-0.201
	c0.261-0.102,0.321-0.18,0.442-0.449c0.019-0.021,0.108-0.16,0.121-0.18c0.028-0.082,0.008-0.172,0-0.252l0.008-0.131
	c0.07-0.449,0.301-0.389,0.49-0.49c0.021-0.01,0.051-0.039,0.051-0.078c-0.021-0.701,0.33-0.992,1.119-1.041
	c0.281-0.48,0.582-0.643,1.092-0.473v1.225H15.463z M13.053,22.601c0.16-0.029,0.3-0.102,0.41-0.199
	c0.02,0.068,0.05,0.119,0.091,0.16c-0.041,0.51-0.05,1.039-0.031,1.609l0.071,0.107c0.019,0.203,0.019,0.242-0.031,0.322
	c-0.059,0.041-0.139,0.01-0.18-0.021c-0.111-0.119-0.141-0.199-0.17-0.33c-0.041-0.221-0.051-0.5-0.051-0.83
	c-0.029-0.029-0.07-0.109-0.082-0.211L13.053,22.601z M16.265,17.285c0.13-0.111,0.3-0.141,0.491-0.08
	c0.16,0.12,0.261,0.271,0.33,0.471c0.431-0.051,0.711,0.031,0.852,0.24c0.05,0.131,0.05,0.27,0,0.422
	c0.35,0.209,0.57,0.379,0.66,0.528c0.13,0.19,0.13,0.36-0.012,0.491c-0.028,0.092-0.028,0.148,0,0.189l0.332,0.422
	c0.181,0.219,0.151,0.418-0.069,0.59c-0.052,0.119-0.052,0.209,0.011,0.27c0.21,0.441,0.289,0.813,0.249,1.109
	c-0.079,0.191-0.21,0.203-0.41,0.053l-0.009-1.021c-0.102-0.23-0.371-0.141-0.361,0.102v1.17c0.008,0.16,0.06,0.34,0.09,0.469
	c0.039,0.09,0.021,1.241,0.021,1.241c-0.021,0.212-0.062,0.372-0.121,0.481l-0.271,0.34c-0.041,0.01-0.069,0-0.08-0.051
	c0.109-0.738,0.117-1.391,0.029-1.951l-0.479-1.082c-0.05-0.43-0.071-0.787-0.031-1.09c0.101-0.211,0.201-0.352,0.291-0.43
	c0.081-0.23,0-0.322-0.229-0.279c-0.301,0.229-0.43,0.607-0.4,1.139c0.09,0.4,0.121,0.672,0.09,0.793
	c-0.059,0.049-0.099,0.117-0.109,0.209c-0.061,0.32-0.041,0.621-0.01,0.932l-0.06,1.012c-0.071,0.148-0.161,0.248-0.261,0.309
	c0.01-1.199-0.03-1.93-0.11-2.29c-0.09-0.351-0.17-0.632,0.011-0.862c0.07-0.25,0.029-0.461,0.029-0.461l-0.109-0.42
	c-0.051-0.277-0.029-0.58,0.069-0.92c0.021-0.391-0.121-0.66-0.42-0.83v-1.213H16.265z M28.705,13.251
	c0.021,0.161,0.029,0.312,0.029,0.462l0.411,0.609c-0.011-0.069,0-0.32-0.17-0.581C28.896,13.582,28.807,13.412,28.705,13.251z
	 M28.686,14.673c-0.02,0.17-0.049,0.341-0.09,0.5l0.81,0.841l-0.03-0.39C29.155,15.333,28.957,15.054,28.686,14.673z M28.416,15.863
	l-0.142,0.41c0.431,0.421,0.89,0.81,1.382,1.181l-0.031-0.27C29.065,16.664,28.694,16.226,28.416,15.863z M28.063,16.794
	l-0.179,0.41c0.41,0.461,1.08,1,2,1.604c-0.01-0.053,0-0.151-0.02-0.201C29.086,17.906,28.484,17.306,28.063,16.794z M27.685,17.625
	l-0.331,0.672c0.742,0.9,1.704,1.82,2.884,2.764c-0.241-0.451-0.362-0.882-0.42-1.303C29.386,19.498,28.686,18.777,27.685,17.625z
	 M25.412,12.121c0.51-0.751,1.242-1.301,2.053-1.252c0.031-0.12-0.031-0.229-0.19-0.34c-0.181-0.081-0.291-0.05-0.55,0.08
	c-0.4,0.01-0.671-0.071-0.821-0.25c-0.021-0.041,0-0.071,0.05-0.081l0.68-0.26V9.918c-0.41,0.109-0.842,0.12-1.291,0.051
	c-0.23-0.04-0.37-0.21-0.41-0.521c-0.051-0.109,0.04-0.12,0.109-0.061c0.109,0.171,0.28,0.261,0.51,0.261
	c0.611-0.011,0.973-0.041,1.082-0.101c0.24-0.08,0.38-0.221,0.41-0.431c0.021-0.06-0.008-0.07-0.08-0.049
	c-0.31,0.13-0.4,0.089-0.601,0.08c-0.12,0-0.11-0.07,0.029-0.142c0.541-0.3,0.78-0.671,0.72-1.101
	c0.031-0.081,0.07-0.111,0.11-0.081c0.351,0.64,0.3,1.382-0.099,1.921c-0.029,0.033-0.039,0.063-0.039,0.104l0.061,0.08
	c1,1.222,1.671,2.643,2.131,4.242c0.32,1.492,0.671,5.375,1.262,6.437c0.219,0.621,0.489,1.17,0.81,1.682
	c-0.55,0.068-1.15-0.091-1.513-0.221l0.42,3.271l-2.291-0.699l-0.582-1.592c-0.03-0.08-0.08-0.119-0.178-0.051
	c-0.201,0.121-0.801,0.041-0.842,0.041c-0.16-0.031-0.21-0.021-0.232,0.061c-0.019,0.141-0.027,0.439-0.008,0.89
	c0.021,0.161,0.129,0.29,0.311,0.392l0.311,0.119c0.15,0.041,0.26,0.121,0.32,0.232c0.049,0.158,0.159,0.309,0.33,0.438
	c0.102,0.031,0.17,0.041,0.15,0.223c-0.021,0.138-0.129,0.219-0.229,0.209c-0.17-0.02-0.301-0.092-0.399-0.221
	c-0.182-0.25-0.412-0.439-0.691-0.57c-0.28-0.15-0.709-0.158-1.232,0c-0.609,0.22-1.119,0.502-1.439,0.813
	c-0.059,0.037-0.1,0.029-0.131-0.012l0.15-0.771c0.04-0.117,0.11-0.209,0.21-0.238l1.683-0.449l0.029-1.213
	c-0.361-0.25-0.621-0.57-0.791-0.95C24.53,21.332,23.75,21,23.75,21c-0.299-0.178-0.451-0.311-0.649-0.32l-0.03-0.027
	c-0.15-0.012-0.42-0.012-0.8,0.01c-0.161,0.029-0.282,0.139-0.38,0.33L21.779,21.3c-0.04,0.152-0.081,0.19-0.22,0.322
	c-0.161,0.061-0.312,0.18-0.431,0.34l-0.041,0.078v0.063c-0.229,0.73-2.2,3.783-5.443,5.045c-2.523-0.934-4.914-3.715-5.334-5.004
	v-0.051c-0.04-0.029-0.071-0.082-0.089-0.119c-0.121-0.176-0.261-0.285-0.433-0.346c-0.141-0.129-0.181-0.17-0.221-0.318
	l-0.109-0.32c-0.09-0.193-0.221-0.291-0.381-0.322c-0.369-0.02-0.641-0.029-0.8-0.02l-0.021,0.029c-0.201,0.021-0.35,0.15-0.66,0.32
	c0,0-0.78,0.33-0.95,1.002c-0.17,0.379-0.431,0.689-0.78,0.939l0.028,1.221l1.672,0.441c0.099,0.039,0.179,0.119,0.22,0.25
	l0.139,0.77c-0.027,0.038-0.067,0.038-0.129,0c-0.31-0.311-0.83-0.58-1.441-0.801c-0.52-0.17-0.95-0.15-1.221-0.01
	c-0.291,0.129-0.521,0.318-0.7,0.568c-0.091,0.141-0.229,0.211-0.399,0.221c-0.1,0.021-0.211-0.059-0.23-0.199
	c-0.02-0.189,0.06-0.189,0.158-0.23c0.162-0.121,0.272-0.27,0.332-0.438c0.049-0.104,0.16-0.191,0.311-0.232l0.311-0.119
	c0.18-0.09,0.291-0.221,0.32-0.379c0.012-0.461,0.012-0.752-0.02-0.893c-0.01-0.09-0.061-0.102-0.23-0.07
	c-0.029,0.01-0.642,0.09-0.841-0.031c-0.091-0.068-0.149-0.027-0.181,0.053l-0.58,1.582l-2.293,0.699l0.421-3.264
	C1.151,22.199,0.562,22.359,0,22.289c0.322-0.498,0.603-1.061,0.823-1.67c0.591-1.061,0.939-4.946,1.249-6.447
	c0.473-1.601,1.143-3.012,2.143-4.242l0.049-0.07c0.013-0.04-0.01-0.08-0.039-0.11c-0.4-0.539-0.439-1.281-0.102-1.911
	c0.041-0.041,0.082-0.01,0.121,0.08c-0.07,0.431,0.17,0.791,0.721,1.091c0.13,0.07,0.141,0.142,0.021,0.142
	c-0.2,0.019-0.291,0.059-0.603-0.072c-0.067-0.03-0.098-0.01-0.079,0.051c0.04,0.199,0.171,0.35,0.411,0.431
	c0.111,0.049,0.47,0.09,1.082,0.101c0.229,0,0.397-0.092,0.51-0.271c0.07-0.061,0.16-0.04,0.109,0.07
	C6.377,9.77,6.235,9.938,6.006,9.97c-0.45,0.08-0.881,0.06-1.291-0.051v0.101l0.69,0.26c0.052,0.021,0.06,0.05,0.052,0.09
	c-0.162,0.17-0.432,0.263-0.822,0.251c-0.27-0.14-0.381-0.171-0.561-0.09c-0.17,0.12-0.219,0.25-0.17,0.38
	c0.78-0.05,1.49,0.461,2,1.19c0.432,0.342,0.622,1.382,0.482,2.223c-0.102,1.872-1.542,4.043-4.334,6.526L1.512,24.71l0.361-0.139
	l0.381-2.752l0.328-0.133l-0.41,2.804l0.932-0.278l1.32-3.424l0.281-0.371l0.35-0.188c0.16-0.052,0.221,0.059,0.16,0.179
	c-0.24,0.229-0.389,0.44-0.459,0.62l-0.391,1.01c-0.102,0.24-0.08,0.432,0.04,0.57c0.091,0.172,0.669,0.162,1.19-0.037
	c0.631-0.422,0.689-0.711,0.85-1.133c0.151-0.379,0.381-0.643,0.691-0.78c0.561-0.479,0.48-0.938,0.48-1.03l0.061-1.332
	c0.02-0.199,0.208-0.791,0.931-2.15c0.74-2.012,0.94-3.635,0.58-4.865c-0.099-0.89-0.51-1.373-1.24-1.451L6.957,9.889
	C6.769,9.8,6.639,9.679,6.566,9.52c-0.09-0.15-0.059-0.211,0.09-0.181c0.092,0.14,0.221,0.221,0.391,0.229l0.66-0.049
	C7.908,9.498,8.069,9.419,8.16,9.259c0.229-0.319,0.107-0.771,0.139-1.271c0.031-0.251,0.25-0.3,0.351-0.071
	c0.062,0.142,0.052,0.26-0.04,0.351c-0.012,0.521-0.029,0.87-0.16,1.091C8.328,9.509,8.357,9.6,8.539,9.619
	c0.369,0.229,0.67,0.559,0.881,1c0.801,2.072,0.397,4.194-1.123,7.207c-0.18,0.49-0.25,1.081-0.219,1.762l0.008,0.41H9.25
	l0.471-1.682c0.04-0.111,0.121-0.18,0.25-0.211l0.34-0.061v-6.206h3.623c-0.04-0.028,0.121-0.43,0.22-0.479
	c0.101-0.061,1.091-0.241,1.091-0.241v-0.581c0-0.077-0.24-0.229-0.34-0.327c-0.1-0.103-0.21-0.322-0.311-0.492
	c-0.11-0.181-0.23-0.42-0.28-0.49c-0.049-0.07-0.321-0.561-0.401-0.689c-0.08-0.141-0.1-0.391-0.14-0.581
	c-0.04-0.18-0.34-0.66-0.479-0.881c-0.201,0.181-0.289,0.21-0.59,0.34c-0.281,0.071-0.551,0.12-0.832,0.111
	c-0.5-0.05-0.841-0.25-1.011-0.591c-0.11-0.312-0.071-0.641,0.11-1.001c0.029-0.041,0.051-0.041,0.08,0l0.65,0.889
	c0.291,0.291,0.569,0.403,0.922,0.363c0.328-0.081,0.398-0.142,0.58-0.271l-0.102-0.251c-0.089,0.142-0.199,0.23-0.34,0.28
	c-0.131,0.061-0.26,0.071-0.381,0.03c-0.16-0.051-0.28-0.111-0.33-0.181c0.07-0.43,0.652-0.739,0.73-0.779
	c0,0,0.051-0.031,0.092-0.04l-0.052-0.19c-0.59-0.02-2.69,0.04-3.713-1.791C8.629,3.134,8.228,2.124,7.666,1.754
	c-0.41-0.222-0.729-0.201-1.131,0.029c0.221-0.251,0.411-0.41,0.652-0.47c0.199-0.032,0.471,0,0.698,0
	c0.622,0.141,1.432,0.968,1.393,0.939c0.089,0.148,0.199,0.66,0.289,1.2c0.062,0.231,0.361,0.5,0.481,0.69
	C9.987,3.882,9.97,3.633,10.01,3.423c0.229,0.182,0.369,0.21,0.699,0.34c0.42,0.302,0.629,0.791,0.951,1.231
	c0.241,0.27,0.7,0.451,1.082,0.49l-0.01-0.051l-0.021-0.091C12.502,5.324,12.221,5.284,12,5.095
	c-0.451-0.581-0.779-1.182-1.141-1.501l-0.21-0.081c-0.282-0.141-0.532-0.288-0.741-0.459c0,0-0.068,0.459-0.131,0.459
	c-0.049-0.488-0.139-0.919-0.25-1.3c-0.049-0.09-0.139-0.15-0.238-0.261C9.738,1.981,9.948,1.913,10,1.762
	c0.051-0.3,0.141-0.48,0.328-0.58c0.184,0.132,0.522,0.451,0.652,0.761c0.059,0.19,0.081,0.391,0.059,0.63
	c0.022-0.041,0.062-0.049,0.082-0.069c0.09-0.188,0.17-0.26,0.299-0.419c0.021-0.071,0.021-0.12,0.082-0.21
	c0.06,0.108,0.1,0.17,0.15,0.229c0.391,0.392,0.329,1.061,0.318,1.061c0.051,0.581,0.15,1.032,0.32,1.342
	c0.17,0.25,0.24,0.291,0.4,0.352c0.051-0.771,0.51-1.401,0.721-1.451c0.041-0.009,0.09-0.062,0-0.081
	c-0.16-0.06-0.291-0.19-0.312-0.45c-0.009-0.181-0.08-1.102-0.05-1.201c0.029-0.101,0.191-0.02,0.201,0.031
	c0.02,0.05,0.051,0.709,0.08,0.989c0.039,0.271,0.291,0.451,0.381,0.491s0.578,0.01,0.709,0.01c0.119,0,0.029-0.031,0.102-0.062
	c0.08-0.04,0.129-0.04,0.17-0.009c0.049,0.021,0.02,0.149-0.02,0.208c-0.051,0.071-0.23,0.161-0.383,0.191
	c-0.147,0.029-0.289-0.03-0.398-0.03c-0.25,0.021-0.362,0.141-0.451,0.231c-0.21,0.22-0.32,0.487-0.43,0.96
	c-0.102,0.47,0.039,0.96,0.129,1.191c0.09,0.238,0.271,0.811,0.43,1.13c0.161,0.312,0.381,0.579,0.482,0.78
	c0.107,0.21,0.119,0.22,0.17,0.541c0.059,0.331,0.6,1.312,0.851,1.671c0.25,0.36,0.5,0.4,0.819,0.44
	c0.322,0.05,0.461-0.091,0.501-0.111c0.04-0.027-0.431-0.891-0.521-1c-0.078-0.11-0.149-0.12-0.149-0.12s-0.039-0.101,0-0.131
	c0.03-0.039,0.313,0.03,0.46,0.109c0.143,0.07,0.822,1.73,0.863,1.782c0.039,0.061,0.568,0.198,0.6,0.189
	c0.04-0.009-0.46-1.312-0.451-1.36c0.012-0.063,0.221,0,0.25,0c0.031,0,0.46,1.392,0.46,1.392l0.201,0.059
	c-0.08-0.278-0.3-1.812-0.321-1.83c-1.49-1.001-2.021-1.741-2.38-2.23c-0.38-0.521-0.45-1.062-0.46-1.613
	c-0.011-0.562,0.18-0.75,0.27-0.861l0.051-0.049c0.249-0.271,0.629-0.471,1.049-0.501c0-0.049,0.121-0.04,0.21-0.04
	c0.103,0,0.131-0.019,0.142-0.1c0.01-0.071-0.07-0.12-0.17-0.182c-0.102-0.068-0.183,0-0.361,0.039
	c-0.18,0.054-0.42-0.059-0.49-0.09c-0.061-0.029-0.051-0.059,0.029-0.08c0.219-0.05,0.38-0.06,0.481-0.237
	c-0.401,0.058-1.032,0.066-1.112,0.019c-0.06-0.04-0.188-0.18-0.229-0.251c-0.051-0.059,0.019-0.089,0.069-0.089
	c0.049,0,0.109,0.129,0.229,0.16c0.11,0.028,0.89-0.021,1.042-0.04c0.158-0.021,0.249-0.17,0.301-0.221c0.049-0.05,0-0.09-0.063-0.1
	c-0.068-0.011-0.291,0.05-0.38,0.05c-0.08,0-0.089,0-0.089-0.061c0-0.069,0.32-0.189,0.439-0.279
	c0.11-0.092,0.159-0.302,0.159-0.302s0.031-0.08,0.081-0.067c0.051,0.009,0.08,0.14,0.141,0.31c0.061,0.18-0.09,0.56-0.24,0.739
	c-0.03,0.021-0.08,0.053-0.15,0.07c0.063,0.07,0.532,0.651,0.771,1.021c0.101,0.148,0.209,0.34,0.319,0.55l0.101,0.101
	c0.149,0.239,0.41,0.411,0.801,0.391c0.55,0.05,0.99-0.181,1.24-0.462c0.322-0.43,0.541-0.931,0.951-1.23
	c0.332-0.12,0.473-0.16,0.7-0.33c0.04,0.2,0.021,0.46-0.028,0.711c0.119-0.189,0.41-0.451,0.471-0.681
	c0.09-0.541,0.197-1.061,0.291-1.212c-0.04,0.031,0.779-0.801,1.39-0.939c0.229,0,0.501-0.02,0.7,0.01
	c0.24,0.061,0.432,0.21,0.652,0.46c-0.402-0.23-0.723-0.25-1.131-0.02c-0.551,0.359-0.961,1.371-1.44,2.23
	c-1.033,1.852-3.205,1.812-3.864,1.782l-0.451-0.011l0.03,0.092c0.049-0.021,0.201-0.052,0.55,0.1
	c0.129,0.061,0.65,0.349,0.731,0.771c-0.062,0.078-0.181,0.139-0.331,0.189c-0.119,0.04-0.311,0.021-0.45-0.04
	c-0.13-0.04-0.25-0.12-0.351-0.261l0.051,0.28c0.17,0.139,0.238,0.22,0.58,0.289c0.34,0.04,0.619-0.069,0.91-0.358l0.651-0.893
	c0.029-0.038,0.06-0.038,0.079,0c0.184,0.36,0.223,0.691,0.111,1.002c-0.17,0.34-0.51,0.539-1.012,0.601
	c-0.279,0-0.541-0.04-0.832-0.119c-0.229-0.103-0.369-0.16-0.438-0.25c0.069,0.448,0.161,0.921,0.24,1.271
	c0.181,0.82,0.801,1.57,0.841,1.762c0.041,0.188-0.9-0.119-0.96-0.09c-0.062,0.028,0.229,1.45,0.181,1.46
	c-0.062,0.01-1.433-0.319-1.572-0.421c-0.15-0.09-0.24-0.52-0.301-0.569c-0.06-0.039-0.109,0.042-0.189,0.1
	c-0.081,0.07,0.009,0.452,0.089,0.522c0.081,0.079,0.401,0.14,0.481,0.188c0.08,0.061,0.131,0.201,0.181,0.23l0.239,0.188
	l-0.129,0.01h3.883v6.206l0.291,0.051c0.131,0.041,0.209,0.109,0.25,0.211l0.471,1.691l1.17-0.012l0.009-0.4
	c0.031-0.68-0.05-1.27-0.229-1.77c-1.521-3.014-1.911-5.125-1.119-7.207c0.22-0.44,0.51-0.771,0.891-0.99
	c0.17-0.03,0.211-0.121,0.079-0.271c-0.118-0.211-0.149-0.57-0.159-1.081c-0.09-0.101-0.101-0.221-0.039-0.36
	c0.098-0.229,0.319-0.169,0.359,0.082c0.02,0.5-0.102,0.95,0.13,1.271c0.101,0.149,0.25,0.239,0.461,0.261l0.65,0.04
	c0.17-0.011,0.3-0.081,0.39-0.221c0.151-0.04,0.182,0.02,0.09,0.181c-0.059,0.148-0.188,0.28-0.39,0.36L23.4,9.82
	c-0.72,0.088-1.141,0.571-1.24,1.451c-0.361,1.24-0.162,2.863,0.58,4.875c0.729,1.36,0.922,1.94,0.932,2.151l0.059,1.322
	c0.012,0.1-0.079,0.56,0.482,1.039c0.309,0.131,0.539,0.391,0.688,0.771c0.17,0.433,0.222,0.722,0.863,1.144
	c0.51,0.199,1.09,0.199,1.179,0.029c0.131-0.131,0.141-0.322,0.051-0.563l-0.391-1.012c-0.079-0.189-0.23-0.4-0.473-0.629
	c-0.049-0.111,0-0.221,0.162-0.17l0.351,0.188l0.291,0.371l1.312,3.424l0.93,0.28l-0.4-2.804l0.331,0.131l0.38,2.754l0.35,0.139
	l-0.541-3.861c-2.793-2.483-4.232-4.654-4.334-6.527C24.821,13.502,25.002,12.492,25.412,12.121z M16.936,8.337
	c0.801,0.731,1.561,1.212,1.422,1.071c-0.021-0.029-0.201-0.49-0.24-0.57c-0.019-0.049-0.66-0.55-1.041-0.872L16.936,8.337z
	 M17.194,7.617c0.371,0.23,0.89,0.6,0.952,0.6c0.029-0.01,0-0.05-0.021-0.099c-0.01-0.041-0.528-0.452-0.859-0.712L17.194,7.617z
	 M17.347,7.087c0.269,0.18,0.671,0.48,0.7,0.49c0.051,0.02-0.012-0.09-0.021-0.14c0-0.04-0.39-0.401-0.622-0.621L17.347,7.087z
	 M17.457,6.416l0.489,0.42c0,0,0-0.08-0.04-0.181c-0.031-0.081-0.279-0.39-0.43-0.561L17.457,6.416z M17.437,5.575
	c0.021-0.061,0.31,0.32,0.31,0.32s0.021,0.01-0.041-0.129c-0.08-0.181-0.209-0.382-0.358-0.57
	C17.387,5.324,17.416,5.456,17.437,5.575z M15.996,10.679c-0.201,0.062-0.432-0.028-0.432-0.037c0,0-0.02,0.397-0.011,0.459
	c0,0.061,0.25,0.11,0.291,0.14c0.049,0.03,0.161-0.071,0.161-0.071S16.024,10.869,15.996,10.679z M14.724,11.84h2.172
	c-0.069-0.039-0.319-0.269-0.438-0.24c-0.041,0.013,0.219,0.24,0.219,0.24s-0.371,0-0.42-0.019c-0.049-0.011-0.451-0.26-0.521-0.291
	C15.674,11.5,14.914,11.79,14.724,11.84z M14.162,11.84h0.512c-0.028-0.039-0.09-0.161-0.09-0.188
	C14.582,11.631,14.254,11.79,14.162,11.84z M21.088,18.755v2.582c0.162-0.159,0.281-0.348,0.383-0.561
	c0.139-0.279,0.139-0.719-0.031-1.24C21.328,19.248,21.22,18.988,21.088,18.755z M10.311,21.378v-2.691
	c-0.15,0.25-0.281,0.541-0.391,0.852c-0.182,0.529-0.17,0.959-0.03,1.24C9.988,21.019,10.131,21.208,10.311,21.378z M15.305,16.833
	c-0.53-0.119-0.922,0.072-1.192,0.572c-0.76,0.029-1.161,0.4-1.2,1.109c-0.341,0.09-0.521,0.311-0.551,0.691
	c-0.359,0.029-0.57,0.299-0.642,0.811c-0.58,0-0.63,0.891,0.051,0.99c0.149,0.141,0.319,0.461,0.44,0.822
	c0.16,0.328,0.349,0.639,0.56,0.758c-0.019,0.42,0.03,0.711,0.11,0.932l0.07,0.912c0.1,0.229,0.26,0.48,0.512,0.488
	c0.398-0.027,0.47-0.311,0.34-0.85l0.041-1.08c0.068,0.059,0.121,0.18,0.148,0.34c0.062,0.43,0.062,1.07,0.119,1.912
	c0.152,0.389,0.25,0.34,0.471,0.4c0.26-0.021,0.401-0.151,0.459-0.473c0-0.26-0.039-0.48-0.109-0.67
	c-0.069-0.43-0.09-0.932-0.04-1.473c0.011-0.391,0.03-0.648,0.121-0.789c0.17-0.191,0.21-0.34,0.26-0.762
	c0.04-0.1,0.319-0.08,0.422-0.279c0.06-0.311,0.05-0.742-0.021-1.344c-0.11-0.277-0.139-0.539-0.09-0.787
	c0.02-0.191,0.121-0.282,0.321-0.271c0.171-0.011,0.289,0.102,0.341,0.33c0.008,0.23,0,0.432-0.041,0.631
	c-0.041,0.23-0.011,0.631,0.159,0.98c0.021,0.082-0.02,0.189,0.011,0.27c-0.049,0.17-0.15,0.262-0.181,0.621
	c0,0.201,0.109,0.541,0.109,0.541c0.12,0.261,0.181,0.902,0.181,1.939c-0.07,0.111-0.102,0.262,0.012,0.422
	c0.26,0.141,0.379,0.121,0.629-0.029c0.109-0.131,0.189-0.27,0.25-0.43c0.039-0.672,0.039-1.182-0.021-1.533
	c0.009-0.08,0.04-0.119,0.101-0.119c0.119,0.189,0.19,0.391,0.239,0.602c-0.009,1.08-0.12,1.701-0.089,1.939
	c0.049,0.15,0.189,0.23,0.492,0.211c0.219-0.1,0.6-0.699,0.6-0.699c0.08-0.451,0.09-0.971,0.02-1.553
	c-0.01-0.121-0.01-0.188,0.021-0.33c0.029-0.1,0.04-0.119,0.11-0.131c0.291,0.07,0.49-0.078,0.609-0.449
	c0.021-0.18,0.021-0.439-0.02-0.76c-0.02-0.189-0.068-0.35-0.182-0.473c0.281-0.469,0.211-0.922-0.209-1.369
	c0.15-0.563-0.08-0.992-0.68-1.281c0.02-0.561-0.301-0.832-0.972-0.82c-0.108-0.352-0.411-0.521-0.91-0.512
	c0.05-0.511-0.051-0.871-0.569-0.941C15.774,15.843,15.054,15.885,15.305,16.833z M13.303,15.513l-0.381-1.199l1.012-0.74h-1.252
	l-0.391-1.201l-0.379,1.201H10.66l1.01,0.74l-0.39,1.199l1.011-0.739L13.303,15.513z M16.676,15.513l-0.391-1.199l1.01-0.74h-1.241
	l-0.39-1.201l-0.392,1.201h-1.241l1.012,0.74l-0.391,1.199l1.012-0.739L16.676,15.513z M20.088,15.513l-0.39-1.199l1.011-0.74
	h-1.252l-0.379-1.201l-0.39,1.201h-1.252l1.011,0.74l-0.38,1.199l1.011-0.739L20.088,15.513z M3.664,17.636
	c-1,1.15-1.701,1.871-2.131,2.121c-0.062,0.43-0.182,0.852-0.41,1.313c1.17-0.951,2.131-1.861,2.871-2.762L3.664,17.636z
	 M3.273,16.804c-0.411,0.512-1.011,1.111-1.792,1.803c-0.011,0.05,0,0.148-0.011,0.201c0.912-0.592,1.572-1.143,1.992-1.592
	L3.273,16.804z M2.935,15.874c-0.281,0.36-0.64,0.79-1.212,1.321l-0.02,0.26c0.479-0.359,0.94-0.75,1.37-1.171L2.935,15.874z
	 M2.674,14.673c-0.28,0.381-0.471,0.66-0.701,0.951l-0.02,0.39l0.799-0.829C2.724,15.014,2.692,14.843,2.674,14.673z M2.652,13.232
	c-0.099,0.17-0.189,0.341-0.27,0.511c-0.17,0.26-0.17,0.52-0.17,0.591l0.41-0.62C2.635,13.553,2.644,13.393,2.652,13.232z
	 M15.273,2.112c0,0.12,0.091,0.21,0.212,0.21c0.108,0,0.21-0.09,0.21-0.21c0-0.119-0.102-0.21-0.21-0.21
	C15.364,1.902,15.273,1.992,15.273,2.112z M13.412,1.112c-0.011,0.06,0.012,0.108,0.062,0.148c0.04,0.053,0.139,0.081,0.269,0.131
	l0.362,0.16c0.108,0.05,0.201,0.021,0.3,0.131c0.09,0.101,0.131,0.21,0.161,0.3c0.029,0.102,0.029,0.19,0.081,0.321
	c0.04,0.121,0.02,0.17,0.079,0.199c0.069,0.029,0.11,0.021,0.149-0.028c0.041-0.04,0.061-0.16,0.082-0.25
	c0.008-0.081,0.049-0.212,0.141-0.321c0.089-0.119,0.311-0.26,0.521-0.301c0.209-0.029,0.277-0.01,0.447-0.05
	c0.182-0.05,0.271-0.068,0.301-0.16c0.021-0.091,0.029-0.199-0.101-0.239c-0.13-0.029-0.83-0.26-1.44-0.239
	c-0.6,0.021-1.189,0.139-1.252,0.129C13.463,1.041,13.412,1.112,13.412,1.112z M13.902,2.022c0,0.11,0.102,0.21,0.21,0.21
	c0.121,0,0.21-0.1,0.21-0.21c0-0.12-0.09-0.221-0.21-0.221C14.002,1.802,13.902,1.902,13.902,2.022z M12.461,0.722
	c0,0,1.83-0.23,2.242-0.238c0.41-0.013,1.189,0.139,1.512,0.199c0.33,0.059,0.961,0.02,1,0.049c0.041,0.041,0.108,0.121,0.01,0.201
	c-0.102,0.078-0.501,0.319-0.501,0.409c0,0.101,0.021,0.17-0.04,0.22c-0.069,0.04-0.13,0-0.331,0.103
	c-0.198,0.09-0.34,0.188-0.38,0.27c-0.04,0.07-0.059,0.05-0.049,0.15c0.009,0.09,0.1,0.159,0.049,0.198
	c-0.04,0.041-0.068,0-0.108,0.041c-0.04,0.04-0.17,0.172-0.331,0.172c-0.16,0-0.16-0.029-0.281,0.009
	c-0.319,0.11-0.41,0.331-0.438,0.421c-0.03,0.102-0.051,0.12-0.091,0.08c-0.039-0.028-0.02-0.068-0.09-0.189
	c-0.061-0.109-0.17-0.359-0.32-0.38c-0.15-0.031-0.42-0.04-0.521-0.111c-0.09-0.079-0.199-0.079-0.189-0.159
	c0.02-0.079,0.111-0.079,0.111-0.21c0-0.141-0.051-0.28-0.272-0.41c-0.21-0.13-0.43-0.17-0.461-0.221
	c-0.019-0.062,0-0.069,0.022-0.13c0.028-0.061,0.088-0.04-0.022-0.08c-0.108-0.029-0.42-0.102-0.487-0.17
	c-0.063-0.07-0.111-0.2-0.082-0.211C12.431,0.711,12.461,0.722,12.461,0.722z M37.573,12.143c0,2.711,0.07,5.703,0.21,8.966
	c1.861,0.08,3.103,0.121,3.704,0.121c1.64,0,2.872-0.16,3.691-0.461c0.581-0.221,1.042-0.619,1.391-1.182l0.362,0.119
	c0.02,0.262-0.071,0.711-0.271,1.354c-0.199,0.639-0.391,1.109-0.552,1.41c-1.139-0.119-4.514-0.182-10.127-0.182h-1.051
	l-0.179-0.459l0.199-4.164c0.061-1.431,0.1-3.271,0.1-5.523c0-1.501-0.149-3.976-0.149-3.976l-0.101-1.632l0.179-0.461h2.714
	l0.18,0.461l-0.08,1.592C37.793,8.127,37.573,10.812,37.573,12.143z M87.926,21.919l-0.17,0.42h-2.37l-0.214-0.42v-1.332
	c-1.002,1.252-2.31,1.871-3.94,1.871c-1.935,0-3.573-0.68-4.944-2.041c-1.363-1.359-2.043-3.012-2.043-4.953
	c0-1.923,0.68-3.563,2.053-4.936c1.369-1.36,3.021-2.041,4.953-2.041c1.69,0,3.072,0.54,4.137,1.642c0-2.433-0.07-2.123-0.213-5.746
	l0.213-0.421h2.371l0.17,0.421c-0.182,3.055-0.271,3.453-0.271,7.867C87.655,15.155,87.746,18.386,87.926,21.919z M85.386,13.613
	c-0.563-2.732-2.173-4.094-4.816-4.094c-1.042,0-1.901,0.46-2.571,1.391c-0.682,0.931-1.021,2.122-1.021,3.583
	c0,0.34,0.027,0.691,0.09,1.062c0.201,1.732,0.721,3.175,1.57,4.314c0.851,1.15,1.861,1.721,3.023,1.721
	c0.801,0,1.543-0.25,2.223-0.75c0.681-0.49,1.149-1.172,1.41-2.043C85.334,17.505,85.364,15.774,85.386,13.613z M100.037,18.175
	c0,1.352-0.541,2.443-1.633,3.244c-0.988,0.77-2.18,1.16-3.57,1.16c-1.395,0-2.604-0.291-3.623-0.881l-1.883-0.73
	c0-1.24,0.1-2.143,0.31-2.701c0.782,1.25,1.462,2.053,2.021,2.4c1.073,0.643,2.125,0.973,3.153,0.973
	c0.729,0,1.422-0.25,2.093-0.731c0.739-0.53,1.119-1.13,1.119-1.821c0-0.813-0.33-1.471-0.988-1.98
	c-0.471-0.379-1.312-0.709-2.531-1.002c-1.463-0.358-2.435-0.658-2.912-0.879c-1.023-0.462-1.704-1.161-2.022-2.093
	c-0.159-0.47-0.241-0.931-0.241-1.399c0-0.632,0.252-1.271,0.752-1.913c0.448-0.591,1.069-1.021,1.871-1.28
	c0.603-0.181,1.471-0.271,2.611-0.271c0.541,0,1.473,0.142,2.801,0.422c0.742,0.17,1.483,0.318,2.223,0.46
	c0.063,1.461,0.014,2.583-0.147,3.371c-0.821-1.239-1.53-2.049-2.133-2.432c-0.851-0.569-1.821-0.85-2.923-0.85
	c-0.76,0-1.318,0.1-1.682,0.299c-0.861,0.49-1.291,1.093-1.291,1.792c0,0.59,0.32,1.082,0.961,1.462
	c0.582,0.369,1.521,0.729,2.813,1.08c1.292,0.353,2.161,0.642,2.604,0.87C99.285,15.554,100.037,16.697,100.037,18.175z
	 M38.074,26.273l-0.24,0.009c-0.18-0.468-0.541-0.708-1.102-0.708c-0.371,0-0.68,0.141-0.932,0.43
	c-0.26,0.289-0.391,0.643-0.391,1.051c0,0.461,0.15,0.861,0.44,1.201c0.28,0.33,0.59,0.5,0.93,0.5c0.53,0,0.901-0.14,1.11-0.41
	l0.143,0.211c-0.16,0.189-0.313,0.33-0.461,0.4c-0.201,0.1-0.48,0.15-0.832,0.15c-0.51,0-0.961-0.191-1.351-0.573
	c-0.4-0.378-0.601-0.858-0.601-1.409c0-0.492,0.188-0.932,0.59-1.32c0.391-0.381,0.842-0.58,1.343-0.58
	c0.278,0,0.608,0.079,0.979,0.221c0.11,0.039,0.221,0.049,0.32,0.029l0.051,0.029v0.77H38.074z M42.006,25.421
	c-0.039,0.602-0.049,1.182-0.049,1.752c0,0.473,0.01,1.053,0.049,1.732l-0.049,0.128h-0.59l-0.051-0.128l0.029-0.771
	c0.021-0.25,0.021-0.568,0.021-0.961c0-0.381-0.011-0.961-0.051-1.752l0.051-0.119h0.59L42.006,25.421z M48.703,25.623l-0.953-0.02
	l-0.608,0.01c-0.031,0.49-0.04,1.012-0.04,1.561c0,0.492,0.009,1.082,0.04,1.771l-0.031,0.09h-0.62l-0.041-0.09l0.041-0.76
	c0-0.26,0.012-0.602,0.012-1.012c0-0.412-0.012-0.74-0.022-0.99l-0.028-0.58H45.86l-0.94,0.02c0.02-0.16,0.041-0.262,0.07-0.32h0.04
	h0.989h0.402h0.39h0.44h0.439h0.9h0.049C48.672,25.363,48.685,25.462,48.703,25.623z M54.668,25.351l-0.42,0.602
	c-0.211,0.311-0.513,0.752-0.922,1.342v0.109l0.061,1.541l-0.04,0.09h-0.632l-0.026-0.09c0.026-0.811,0.048-1.318,0.048-1.541v-0.17
	c-0.311-0.439-0.619-0.881-0.951-1.311l-0.389-0.572l0.029-0.049h0.601l0.081,0.049l0.309,0.531c0.26,0.471,0.512,0.879,0.74,1.242
	c0.159-0.221,0.393-0.623,0.711-1.201l0.313-0.572l0.08-0.049h0.38L54.668,25.351z M65.527,26.273l-0.24,0.009
	c-0.17-0.468-0.541-0.708-1.103-0.708c-0.37,0-0.681,0.141-0.931,0.43c-0.26,0.289-0.391,0.643-0.391,1.051
	c0,0.461,0.15,0.861,0.44,1.201c0.28,0.33,0.591,0.5,0.931,0.5c0.53,0,0.91-0.14,1.111-0.41l0.139,0.211
	c-0.16,0.189-0.309,0.33-0.459,0.4c-0.199,0.1-0.471,0.15-0.82,0.15c-0.521,0-0.971-0.191-1.361-0.573
	c-0.399-0.378-0.602-0.858-0.602-1.409c0-0.492,0.191-0.932,0.59-1.32c0.393-0.381,0.842-0.58,1.342-0.58
	c0.291,0,0.613,0.079,0.98,0.221c0.111,0.039,0.223,0.049,0.321,0.029l0.051,0.029L65.527,26.273L65.527,26.273z M72.433,27.164
	c0,0.521-0.211,0.982-0.642,1.381c-0.42,0.4-0.89,0.602-1.4,0.602c-0.54,0-1.021-0.201-1.43-0.592
	c-0.402-0.398-0.612-0.861-0.612-1.391c0-0.531,0.21-0.99,0.64-1.402c0.422-0.41,0.893-0.617,1.402-0.617
	c0.529,0,1,0.207,1.42,0.609C72.222,26.162,72.433,26.632,72.433,27.164z M71.811,27.164c-0.02-0.461-0.18-0.86-0.489-1.189
	c-0.301-0.342-0.63-0.512-0.991-0.512c-0.397,0-0.721,0.17-0.99,0.5c-0.271,0.341-0.389,0.73-0.359,1.201
	c0.009,0.461,0.17,0.85,0.48,1.191c0.301,0.34,0.629,0.51,0.99,0.51c0.389,0,0.711-0.17,0.979-0.502
	C71.703,28.025,71.821,27.625,71.811,27.164z M78.297,25.382c-0.041,0.24-0.06,0.83-0.06,1.791v0.67
	c-0.022,0.23-0.12,0.473-0.3,0.723c-0.232,0.341-0.551,0.52-0.952,0.529c-0.381,0.021-0.662-0.01-0.86-0.09
	c-0.263-0.1-0.451-0.222-0.563-0.371c-0.107-0.158-0.188-0.42-0.219-0.811l-0.01-0.65c0-0.971-0.021-1.561-0.063-1.791l0.029-0.08
	h0.602l0.04,0.08l-0.04,0.771c-0.01,0.26-0.02,0.6-0.02,1.02c0,0.26,0.01,0.451,0.02,0.553c0.021,0.199,0.053,0.349,0.089,0.459
	c0.134,0.391,0.452,0.59,0.966,0.59c0.157,0,0.328-0.061,0.51-0.189c0.147-0.109,0.26-0.25,0.341-0.42
	c0.049-0.121,0.089-0.291,0.106-0.51l0.01-0.482c0-0.42-0.01-0.76-0.019-1.02l-0.03-0.771l0.03-0.079h0.361L78.297,25.382z
	 M84.453,28.945l-0.041,0.09h-0.711l-0.099-0.09c-0.071-0.119-0.151-0.238-0.241-0.359l-0.26-0.34
	c-0.201-0.311-0.52-0.76-0.939-1.371l-0.33-0.439c-0.031,0.25-0.051,0.5-0.051,0.738c0,0.492,0.02,1.082,0.051,1.771l-0.031,0.09
	h-0.35l-0.041-0.09l0.041-0.76c0.01-0.26,0.01-0.602,0.01-1.012l-0.02-0.789l-0.031-0.752v-0.25l0.041-0.08h0.411
	c0.16,0.281,0.358,0.592,0.581,0.91c0.219,0.342,0.537,0.83,0.979,1.473l0.632,0.869l0.009-0.271c0.01-0.288,0.02-0.657,0.02-1.11
	c0-0.42-0.01-0.76-0.02-1.02l-0.04-0.771l0.04-0.079h0.35l0.041,0.079c-0.041,0.604-0.06,1.201-0.06,1.791
	C84.394,27.666,84.412,28.253,84.453,28.945z M90.629,26.273l-0.241,0.009c-0.179-0.468-0.541-0.708-1.101-0.708
	c-0.371,0-0.681,0.141-0.932,0.43c-0.259,0.289-0.389,0.643-0.389,1.051c0,0.461,0.147,0.861,0.438,1.201
	c0.281,0.33,0.592,0.5,0.932,0.5c0.531,0,0.912-0.14,1.112-0.41l0.14,0.211c-0.162,0.189-0.31,0.33-0.461,0.4
	c-0.2,0.1-0.471,0.15-0.818,0.15c-0.523,0-0.975-0.191-1.364-0.573c-0.397-0.378-0.6-0.858-0.6-1.409
	c0-0.492,0.188-0.932,0.591-1.32c0.391-0.381,0.841-0.58,1.342-0.58c0.29,0,0.608,0.079,0.979,0.221
	c0.111,0.039,0.221,0.049,0.322,0.029l0.049,0.029v0.77H90.629z M94.562,25.421c-0.04,0.602-0.05,1.182-0.05,1.752
	c0,0.473,0.01,1.053,0.05,1.732l-0.05,0.128h-0.581l-0.06-0.128l0.031-0.771c0.02-0.25,0.027-0.568,0.027-0.961
	c0-0.381-0.02-0.961-0.059-1.752l0.059-0.119h0.581L94.562,25.421z"/>
</svg>
