<?xml version="1.0" encoding="utf-8"?>
<!-- Generator: Adobe Illustrator 16.0.3, SVG Export Plug-In . SVG Version: 6.00 Build 0)  -->
<!DOCTYPE svg PUBLIC "-//W3C//DTD SVG 1.1//EN" "http://www.w3.org/Graphics/SVG/1.1/DTD/svg11.dtd">
<svg version="1.1" id="Layer_1" xmlns="http://www.w3.org/2000/svg" xmlns:xlink="http://www.w3.org/1999/xlink" x="0px" y="0px"
	 width="23.373px" height="19.77px" viewBox="0 0 23.373 19.77" enable-background="new 0 0 23.373 19.77" xml:space="preserve">
<g>
	<path fill-rule="evenodd" clip-rule="evenodd" fill="#009DBF" d="M19.138,0.508c0-0.28,0.226-0.508,0.505-0.508
		c0.282,0,0.508,0.228,0.508,0.508v0.449c0,0.28-0.226,0.507-0.508,0.507c-0.279,0-0.505-0.227-0.505-0.507V0.508L19.138,0.508z"/>
	<path fill-rule="evenodd" clip-rule="evenodd" fill="#009DBF" d="M22.611,1.943c-0.086-0.268-0.372-0.413-0.638-0.325l-2.328,0.76
		l-2.328-0.76c-0.266-0.087-0.552,0.057-0.639,0.325c-0.087,0.266,0.059,0.553,0.325,0.638l1.822,0.595l-1.121,1.543
		c-0.166,0.227-0.114,0.543,0.112,0.708c0.228,0.165,0.544,0.114,0.708-0.112l1.124-1.545l1.124,1.545
		c0.166,0.226,0.482,0.277,0.709,0.112c0.227-0.165,0.276-0.48,0.111-0.708l-1.12-1.545l1.815-0.593
		C22.552,2.496,22.698,2.208,22.611,1.943L22.611,1.943z"/>
	<path fill-rule="evenodd" clip-rule="evenodd" fill="#009DBF" d="M14.162,1.704c0-0.213,0.172-0.387,0.385-0.387
		c0.215,0,0.387,0.173,0.387,0.387v0.342c0,0.214-0.172,0.386-0.387,0.386c-0.212,0-0.385-0.172-0.385-0.386V1.704L14.162,1.704z"/>
	<path fill-rule="evenodd" clip-rule="evenodd" fill="#009DBF" d="M16.807,2.796c-0.066-0.204-0.284-0.314-0.486-0.248l-1.773,0.579
		l-1.772-0.579c-0.203-0.066-0.42,0.043-0.486,0.248c-0.066,0.202,0.044,0.421,0.247,0.486l1.387,0.453l-0.854,1.175
		c-0.125,0.173-0.086,0.414,0.085,0.539c0.173,0.125,0.415,0.087,0.539-0.085l0.855-1.177l0.856,1.177
		c0.126,0.172,0.367,0.21,0.54,0.085c0.173-0.125,0.21-0.366,0.085-0.539l-0.853-1.177l1.383-0.452
		C16.762,3.217,16.874,2.999,16.807,2.796L16.807,2.796z"/>
	<path fill-rule="evenodd" clip-rule="evenodd" fill="#009DBF" d="M10.455,2.674c0-0.159,0.128-0.289,0.287-0.289
		c0.16,0,0.289,0.129,0.289,0.289v0.255c0,0.159-0.128,0.288-0.289,0.288c-0.158,0-0.287-0.128-0.287-0.288V2.674L10.455,2.674z"/>
	<path fill-rule="evenodd" clip-rule="evenodd" fill="#009DBF" d="M12.428,3.489c-0.049-0.152-0.211-0.234-0.363-0.185l-1.322,0.431
		L9.421,3.305C9.27,3.255,9.107,3.337,9.058,3.489C9.009,3.64,9.091,3.803,9.242,3.852l1.035,0.338L9.64,5.066
		C9.547,5.195,9.576,5.375,9.704,5.468c0.129,0.093,0.309,0.064,0.402-0.063l0.639-0.878l0.638,0.878
		c0.094,0.128,0.274,0.157,0.402,0.063c0.129-0.093,0.157-0.273,0.063-0.402l-0.636-0.878l1.032-0.337
		C12.395,3.803,12.478,3.64,12.428,3.489L12.428,3.489z"/>
	<path fill-rule="evenodd" clip-rule="evenodd" fill="#0E2958" d="M2.721,5.991c-1.104,0-1.674,0.847-1.674,2.511
		c0,0.818,0.162,1.57,0.438,1.96c0.248,0.361,0.694,0.561,1.227,0.561c1.104,0,1.636-0.809,1.636-2.511
		C4.347,6.819,3.824,5.991,2.721,5.991L2.721,5.991L2.721,5.991z M2.692,11.775C0.941,11.775,0,10.624,0,8.502
		C0,6.4,0.98,5.23,2.711,5.23c1.722,0,2.683,1.179,2.683,3.282C5.394,10.624,4.442,11.775,2.692,11.775L2.692,11.775z"/>
	<path fill-rule="evenodd" clip-rule="evenodd" fill="#0E2958" d="M8.856,5.525c-0.085-0.019-0.39-0.057-0.78-0.057
		c-0.485,0-0.609,0.19-0.609,0.827v0.866h1.256v0.638H7.467v3.862H6.545V7.799h-0.79V7.256l0.79-0.104V6.41
		c0-0.666,0.047-0.904,0.219-1.151C6.982,4.935,7.325,4.773,7.8,4.773c0.476,0,1.009,0.133,1.151,0.171L8.856,5.525L8.856,5.525z"/>
	<path fill-rule="evenodd" clip-rule="evenodd" fill="#0E2958" d="M10.321,11.756c-0.457,0-0.856-0.066-1.427-0.209l0.152-0.628
		c0.457,0.105,0.799,0.143,1.113,0.143c0.628,0,0.951-0.228,0.951-0.647c0-0.352-0.133-0.495-0.751-0.666
		C9.532,9.521,8.933,9.245,8.933,8.436c0-0.866,0.599-1.37,1.588-1.37c0.371,0,0.809,0.076,1.303,0.238l-0.133,0.589
		c-0.314-0.066-0.723-0.143-1.056-0.143c-0.485,0-0.771,0.2-0.771,0.581c0,0.951,2.197,0.333,2.197,1.941
		C12.062,11.214,11.425,11.756,10.321,11.756L10.321,11.756z"/>
	<path fill-rule="evenodd" clip-rule="evenodd" fill="#0E2958" d="M13.927,11.766c-0.438,0-0.761-0.181-0.923-0.495
		c-0.104-0.2-0.133-0.428-0.133-1.037V7.799h-0.761V7.285l0.761-0.096V5.944h0.933v1.217h1.236v0.638h-1.236v2.169
		c0,0.761,0.009,0.78,0.076,0.894c0.066,0.114,0.2,0.171,0.399,0.171c0.219,0,0.428-0.039,0.79-0.133l0.143,0.571
		C14.668,11.68,14.297,11.766,13.927,11.766L13.927,11.766z"/>
	<path fill-rule="evenodd" clip-rule="evenodd" fill="#0E2958" d="M17.313,7.713c-0.608,0-0.97,0.438-1.046,1.275l1.902-0.076
		C18.15,8.094,17.884,7.713,17.313,7.713L17.313,7.713L17.313,7.713z M16.238,9.53v0.152c0,0.903,0.38,1.312,1.084,1.312
		c0.409,0,0.78-0.076,1.513-0.313l0.171,0.551c-0.932,0.409-1.389,0.533-1.931,0.533c-1.104,0-1.826-0.818-1.826-2.207
		c0-1.513,0.742-2.502,1.988-2.502c1.208,0,1.817,0.732,1.817,2.264V9.53H16.238L16.238,9.53z"/>
	<path fill-rule="evenodd" clip-rule="evenodd" fill="#0E2958" d="M22.441,8.113c-0.571-0.2-0.752-0.248-1.028-0.248
		c-0.627,0-0.97,0.514-0.97,1.522c0,1.084,0.314,1.579,0.932,1.579c0.257,0,0.514-0.057,1.065-0.266L22.441,8.113L22.441,8.113z
		 M22.488,11.661v-0.409c-0.533,0.304-1.046,0.514-1.494,0.514c-0.97,0-1.541-0.885-1.541-2.34c0-1.437,0.656-2.369,1.646-2.369
		c0.485,0,0.941,0.257,1.341,0.495l0-2.645h0.932v6.754H22.488L22.488,11.661z"/>
	<path fill-rule="evenodd" clip-rule="evenodd" fill="#0E2958" d="M1.057,14.173c-0.145,0-0.266,0.024-0.422,0.097v1.313H0.379
		v-1.628h0.249v0.142c0.163-0.118,0.28-0.163,0.429-0.163c0.028,0,0.045,0,0.083,0.007v0.235
		C1.095,14.173,1.078,14.173,1.057,14.173L1.057,14.173z"/>
	<path fill-rule="evenodd" clip-rule="evenodd" fill="#0E2958" d="M2.176,14.771C1.651,14.809,1.53,14.885,1.53,15.12
		c0,0.184,0.086,0.277,0.221,0.277c0.149,0,0.425-0.121,0.425-0.121V14.771L2.176,14.771z M2.183,15.583v-0.142
		c-0.207,0.117-0.353,0.18-0.501,0.18c-0.211,0-0.418-0.163-0.418-0.508c0-0.263,0.114-0.418,0.308-0.467
		c0.125-0.031,0.287-0.041,0.605-0.041v-0.066c0-0.269,0.014-0.39-0.304-0.39c-0.124,0-0.283,0.017-0.484,0.055L1.36,14.028
		c0.256-0.076,0.45-0.11,0.623-0.11s0.294,0.045,0.363,0.134c0.069,0.087,0.086,0.187,0.086,0.484v1.047H2.183L2.183,15.583z"/>
	<path fill-rule="evenodd" clip-rule="evenodd" fill="#0E2958" d="M2.909,13.955h0.256v1.628H2.909V13.955L2.909,13.955z
		 M3.041,13.603c-0.093,0-0.169-0.077-0.169-0.169c0-0.09,0.076-0.166,0.166-0.166c0.09,0,0.166,0.072,0.166,0.166
		C3.203,13.523,3.13,13.603,3.041,13.603L3.041,13.603z"/>
	<path fill-rule="evenodd" clip-rule="evenodd" fill="#0E2958" d="M4.008,15.614c-0.169,0-0.293-0.021-0.491-0.076l0.048-0.183
		c0.159,0.034,0.273,0.048,0.38,0.048c0.238,0,0.373-0.097,0.373-0.27c0-0.138-0.055-0.197-0.273-0.266
		c-0.284-0.09-0.519-0.183-0.519-0.474c0-0.297,0.208-0.477,0.536-0.477c0.121,0,0.27,0.027,0.436,0.086L4.455,14.18
		c-0.152-0.035-0.277-0.052-0.367-0.052c-0.187,0-0.297,0.083-0.297,0.238c0,0.373,0.798,0.163,0.798,0.733
		C4.589,15.421,4.368,15.614,4.008,15.614L4.008,15.614z"/>
	<path fill-rule="evenodd" clip-rule="evenodd" fill="#0E2958" d="M4.941,13.955h0.256v1.628H4.941V13.955L4.941,13.955z
		 M5.073,13.603c-0.094,0-0.17-0.077-0.17-0.169c0-0.09,0.076-0.166,0.166-0.166c0.09,0,0.166,0.072,0.166,0.166
		C5.235,13.523,5.163,13.603,5.073,13.603L5.073,13.603z"/>
	<path fill-rule="evenodd" clip-rule="evenodd" fill="#0E2958" d="M6.701,15.583v-0.999c0-0.242,0.014-0.432-0.273-0.432
		c-0.139,0-0.308,0.031-0.477,0.093v1.338H5.695v-1.628h0.249v0.131c0.235-0.11,0.418-0.169,0.563-0.169
		c0.166,0,0.291,0.055,0.367,0.159c0.069,0.094,0.083,0.169,0.083,0.425v1.082H6.701L6.701,15.583z"/>
	<path fill-rule="evenodd" clip-rule="evenodd" fill="#0E2958" d="M8.419,14.263c-0.239-0.09-0.311-0.11-0.429-0.11
		c-0.245,0-0.384,0.211-0.384,0.587c0,0.422,0.121,0.619,0.367,0.619c0.107,0,0.207-0.024,0.446-0.118V14.263L8.419,14.263z
		 M8.481,16.178c-0.11,0.09-0.273,0.135-0.463,0.135c-0.142,0-0.291-0.021-0.56-0.076l0.024-0.166
		c0.197,0.024,0.311,0.031,0.428,0.031c0.235,0,0.387-0.056,0.45-0.169c0.048-0.083,0.059-0.169,0.059-0.432v-0.093
		c-0.197,0.114-0.384,0.183-0.532,0.183c-0.353,0-0.557-0.321-0.557-0.83c0-0.498,0.242-0.843,0.595-0.843
		c0.176,0,0.346,0.097,0.501,0.18v-0.142h0.249v1.521C8.675,15.922,8.64,16.05,8.481,16.178L8.481,16.178z"/>
	<path fill-rule="evenodd" clip-rule="evenodd" fill="#0E2958" d="M10.382,15.614c-0.169,0-0.294-0.021-0.491-0.076l0.048-0.183
		c0.159,0.034,0.273,0.048,0.38,0.048c0.238,0,0.373-0.097,0.373-0.27c0-0.138-0.055-0.197-0.273-0.266
		c-0.284-0.09-0.519-0.183-0.519-0.474c0-0.297,0.208-0.477,0.536-0.477c0.121,0,0.27,0.027,0.436,0.086l-0.045,0.176
		c-0.152-0.035-0.276-0.052-0.366-0.052c-0.187,0-0.297,0.083-0.297,0.238c0,0.373,0.798,0.163,0.798,0.733
		C10.963,15.421,10.742,15.614,10.382,15.614L10.382,15.614z"/>
	<path fill-rule="evenodd" clip-rule="evenodd" fill="#0E2958" d="M11.689,15.618c-0.135,0-0.235-0.056-0.287-0.159
		c-0.031-0.063-0.038-0.131-0.038-0.322v-0.996h-0.277V14l0.277-0.031v-0.446h0.256v0.432h0.456v0.187H11.62v0.878
		c0,0.284,0,0.287,0.024,0.329c0.024,0.038,0.065,0.055,0.128,0.055c0.086,0,0.173-0.018,0.311-0.059l0.048,0.159
		C11.941,15.587,11.82,15.618,11.689,15.618L11.689,15.618z"/>
	<path fill-rule="evenodd" clip-rule="evenodd" fill="#0E2958" d="M13.251,14.771c-0.525,0.038-0.647,0.114-0.647,0.349
		c0,0.184,0.087,0.277,0.222,0.277c0.149,0,0.425-0.121,0.425-0.121V14.771L13.251,14.771z M13.258,15.583v-0.142
		c-0.208,0.117-0.353,0.18-0.501,0.18c-0.211,0-0.418-0.163-0.418-0.508c0-0.263,0.114-0.418,0.307-0.467
		c0.125-0.031,0.287-0.041,0.605-0.041v-0.066c0-0.269,0.014-0.39-0.304-0.39c-0.125,0-0.284,0.017-0.484,0.055l-0.028-0.176
		c0.256-0.076,0.449-0.11,0.622-0.11s0.294,0.045,0.363,0.134c0.069,0.087,0.086,0.187,0.086,0.484v1.047H13.258L13.258,15.583z"/>
	<path fill-rule="evenodd" clip-rule="evenodd" fill="#0E2958" d="M14.99,15.583v-0.999c0-0.242,0.014-0.432-0.273-0.432
		c-0.138,0-0.308,0.031-0.477,0.093v1.338h-0.256v-1.628h0.249v0.131c0.235-0.11,0.418-0.169,0.563-0.169
		c0.166,0,0.291,0.055,0.366,0.159c0.069,0.094,0.083,0.169,0.083,0.425v1.082H14.99L14.99,15.583z"/>
	<path fill-rule="evenodd" clip-rule="evenodd" fill="#0E2958" d="M16.718,14.263c-0.246-0.09-0.321-0.11-0.439-0.11
		c-0.245,0-0.384,0.211-0.384,0.602c0,0.438,0.121,0.636,0.367,0.636c0.11,0,0.221-0.024,0.456-0.117V14.263L16.718,14.263z
		 M16.725,15.583v-0.146c-0.208,0.118-0.401,0.184-0.549,0.184c-0.353,0-0.557-0.318-0.557-0.847c0-0.512,0.242-0.857,0.595-0.857
		c0.176,0,0.349,0.093,0.504,0.18v-0.968h0.256v2.455H16.725L16.725,15.583z"/>
	<path fill-rule="evenodd" clip-rule="evenodd" fill="#0E2958" d="M18.281,14.771c-0.525,0.038-0.646,0.114-0.646,0.349
		c0,0.184,0.086,0.277,0.221,0.277c0.148,0,0.425-0.121,0.425-0.121V14.771L18.281,14.771z M18.288,15.583v-0.142
		c-0.208,0.117-0.353,0.18-0.501,0.18c-0.21,0-0.418-0.163-0.418-0.508c0-0.263,0.114-0.418,0.308-0.467
		c0.125-0.031,0.287-0.041,0.605-0.041v-0.066c0-0.269,0.014-0.39-0.304-0.39c-0.125,0-0.284,0.017-0.484,0.055l-0.028-0.176
		c0.256-0.076,0.45-0.11,0.623-0.11c0.172,0,0.293,0.045,0.363,0.134c0.069,0.087,0.086,0.187,0.086,0.484v1.047H18.288
		L18.288,15.583z"/>
	<path fill-rule="evenodd" clip-rule="evenodd" fill="#0E2958" d="M19.691,14.173c-0.145,0-0.266,0.024-0.422,0.097v1.313h-0.255
		v-1.628h0.249v0.142c0.163-0.118,0.28-0.163,0.429-0.163c0.028,0,0.045,0,0.083,0.007v0.235
		C19.729,14.173,19.712,14.173,19.691,14.173L19.691,14.173z"/>
	<path fill-rule="evenodd" clip-rule="evenodd" fill="#0E2958" d="M20.997,14.263c-0.246-0.09-0.322-0.11-0.439-0.11
		c-0.245,0-0.384,0.211-0.384,0.602c0,0.438,0.122,0.636,0.367,0.636c0.111,0,0.221-0.024,0.456-0.117L20.997,14.263L20.997,14.263z
		 M21.003,15.583v-0.146c-0.207,0.118-0.4,0.184-0.549,0.184c-0.353,0-0.557-0.318-0.557-0.847c0-0.512,0.242-0.857,0.595-0.857
		c0.176,0,0.349,0.093,0.504,0.18l0-0.968h0.255v2.455H21.003L21.003,15.583z"/>
	<path fill-rule="evenodd" clip-rule="evenodd" fill="#0E2958" d="M22.096,15.614c-0.169,0-0.294-0.021-0.491-0.076l0.049-0.183
		c0.159,0.034,0.273,0.048,0.38,0.048c0.239,0,0.374-0.097,0.374-0.27c0-0.138-0.055-0.197-0.273-0.266
		c-0.284-0.09-0.519-0.183-0.519-0.474c0-0.297,0.207-0.477,0.536-0.477c0.121,0,0.27,0.027,0.436,0.086l-0.045,0.176
		c-0.152-0.035-0.276-0.052-0.366-0.052c-0.187,0-0.298,0.083-0.298,0.238c0,0.373,0.799,0.163,0.799,0.733
		C22.677,15.421,22.456,15.614,22.096,15.614L22.096,15.614z"/>
	<path fill-rule="evenodd" clip-rule="evenodd" fill="#0E2958" d="M0.379,17.412h0.256v1.628H0.379V17.412L0.379,17.412z
		 M0.511,17.059c-0.094,0-0.17-0.076-0.17-0.169c0-0.09,0.076-0.166,0.167-0.166c0.089,0,0.166,0.073,0.166,0.166
		C0.673,16.979,0.601,17.06,0.511,17.059L0.511,17.059z"/>
	<path fill-rule="evenodd" clip-rule="evenodd" fill="#0E2958" d="M2.903,19.04v-0.999c0-0.249,0.018-0.442-0.228-0.442
		c-0.114,0-0.183,0.021-0.415,0.111c0.021,0.079,0.014,0.166,0.014,0.249v1.082H2.018v-0.999c0-0.249,0.017-0.442-0.228-0.442
		c-0.093,0-0.166,0.018-0.401,0.104v1.337H1.133v-1.628h0.249v0.131c0.239-0.114,0.387-0.169,0.512-0.169
		c0.159,0,0.277,0.063,0.332,0.187c0.135-0.065,0.394-0.187,0.553-0.187c0.37,0,0.38,0.28,0.38,0.584v1.082H2.903L2.903,19.04z"/>
	<path fill-rule="evenodd" clip-rule="evenodd" fill="#0E2958" d="M4.348,17.605c-0.11,0-0.221,0.028-0.456,0.114v1.009
		c0.242,0.09,0.321,0.114,0.439,0.114c0.246,0,0.383-0.211,0.383-0.602C4.714,17.803,4.593,17.605,4.348,17.605L4.348,17.605
		L4.348,17.605z M4.396,19.078c-0.176,0-0.353-0.097-0.504-0.183v0.836H3.636v-2.319h0.249v0.142c0.208-0.114,0.401-0.18,0.549-0.18
		c0.353,0,0.557,0.318,0.557,0.847C4.991,18.732,4.749,19.078,4.396,19.078L4.396,19.078z"/>
	<path fill-rule="evenodd" clip-rule="evenodd" fill="#0E2958" d="M6.062,17.63c-0.145,0-0.266,0.024-0.421,0.097v1.313H5.385
		v-1.628h0.249v0.142c0.163-0.117,0.28-0.163,0.428-0.163c0.028,0,0.045,0,0.083,0.007v0.235C6.1,17.63,6.083,17.63,6.062,17.63
		L6.062,17.63z"/>
	<path fill-rule="evenodd" clip-rule="evenodd" fill="#0E2958" d="M6.992,17.588c-0.304,0-0.446,0.197-0.446,0.636
		c0,0.45,0.142,0.633,0.446,0.633c0.311,0,0.446-0.183,0.446-0.629C7.438,17.785,7.31,17.588,6.992,17.588L6.992,17.588
		L6.992,17.588z M6.992,19.071c-0.46,0-0.723-0.311-0.723-0.847c0-0.525,0.27-0.85,0.723-0.85c0.466,0,0.722,0.301,0.722,0.85
		C7.714,18.767,7.458,19.071,6.992,19.071L6.992,19.071z"/>
	<polygon fill-rule="evenodd" clip-rule="evenodd" fill="#0E2958" points="8.758,19.04 8.464,19.04 7.88,17.412 8.167,17.412 
		8.623,18.819 9.093,17.412 9.338,17.412 8.758,19.04 	"/>
	<path fill-rule="evenodd" clip-rule="evenodd" fill="#0E2958" d="M9.608,17.412h0.256v1.628H9.608V17.412L9.608,17.412z
		 M9.739,17.059c-0.093,0-0.169-0.076-0.169-0.169c0-0.09,0.076-0.166,0.166-0.166s0.166,0.073,0.166,0.166
		C9.902,16.979,9.829,17.06,9.739,17.059L9.739,17.059z"/>
	<path fill-rule="evenodd" clip-rule="evenodd" fill="#0E2958" d="M11.368,19.04v-0.999c0-0.242,0.014-0.432-0.273-0.432
		c-0.138,0-0.308,0.031-0.477,0.093v1.337h-0.255v-1.628h0.249v0.131c0.235-0.111,0.418-0.169,0.563-0.169
		c0.166,0,0.291,0.056,0.367,0.159c0.069,0.093,0.083,0.169,0.083,0.425v1.082H11.368L11.368,19.04z"/>
	<path fill-rule="evenodd" clip-rule="evenodd" fill="#0E2958" d="M13.085,17.72c-0.239-0.09-0.311-0.11-0.429-0.11
		c-0.245,0-0.384,0.21-0.384,0.587c0,0.421,0.121,0.619,0.367,0.619c0.107,0,0.207-0.024,0.446-0.118V17.72L13.085,17.72z
		 M13.147,19.635c-0.11,0.09-0.273,0.135-0.463,0.135c-0.142,0-0.291-0.021-0.56-0.076l0.024-0.166
		c0.197,0.024,0.311,0.031,0.429,0.031c0.235,0,0.387-0.055,0.449-0.169c0.049-0.083,0.059-0.169,0.059-0.432v-0.093
		c-0.197,0.114-0.384,0.183-0.532,0.183c-0.353,0-0.557-0.321-0.557-0.83c0-0.498,0.242-0.843,0.595-0.843
		c0.176,0,0.346,0.097,0.501,0.18v-0.142h0.249v1.521C13.341,19.379,13.307,19.507,13.147,19.635L13.147,19.635z"/>
	<polygon fill-rule="evenodd" clip-rule="evenodd" fill="#0E2958" points="14.704,16.586 14.959,16.586 14.959,19.04 14.704,19.04 
		14.704,16.586 	"/>
	<path fill-rule="evenodd" clip-rule="evenodd" fill="#0E2958" d="M15.457,17.412h0.256v1.628h-0.256V17.412L15.457,17.412z
		 M15.588,17.059c-0.094,0-0.169-0.076-0.169-0.169c0-0.09,0.076-0.166,0.166-0.166c0.09,0,0.166,0.073,0.166,0.166
		C15.75,16.979,15.678,17.06,15.588,17.059L15.588,17.059z"/>
	<polygon fill-rule="evenodd" clip-rule="evenodd" fill="#0E2958" points="16.86,19.04 16.566,19.04 15.982,17.412 16.269,17.412 
		16.726,18.819 17.196,17.412 17.441,17.412 16.86,19.04 	"/>
	<path fill-rule="evenodd" clip-rule="evenodd" fill="#0E2958" d="M18.33,17.578c-0.246,0-0.405,0.173-0.433,0.501l0.768-0.027
		C18.665,17.723,18.554,17.578,18.33,17.578L18.33,17.578L18.33,17.578z M17.883,18.249v0.059c0,0.36,0.152,0.536,0.425,0.536
		c0.155,0,0.291-0.031,0.56-0.121l0.048,0.159c-0.339,0.155-0.48,0.197-0.674,0.197c-0.387,0-0.636-0.301-0.636-0.788
		c0-0.567,0.263-0.916,0.695-0.916c0.411,0,0.625,0.263,0.625,0.788v0.086H17.883L17.883,18.249z"/>
	<path fill-rule="evenodd" clip-rule="evenodd" fill="#0E2958" d="M19.646,19.071c-0.169,0-0.294-0.021-0.491-0.076l0.048-0.183
		c0.159,0.034,0.273,0.048,0.38,0.048c0.238,0,0.373-0.097,0.373-0.27c0-0.139-0.055-0.197-0.273-0.266
		c-0.283-0.09-0.518-0.184-0.518-0.474c0-0.297,0.207-0.477,0.536-0.477c0.121,0,0.27,0.028,0.436,0.086l-0.045,0.176
		c-0.152-0.035-0.277-0.052-0.367-0.052c-0.187,0-0.297,0.083-0.297,0.238c0,0.374,0.798,0.163,0.798,0.733
		C20.227,18.877,20.006,19.071,19.646,19.071L19.646,19.071z"/>
</g>
</svg>
