<svg id="Layer_1" data-name="Layer 1" xmlns="http://www.w3.org/2000/svg" viewBox="0 0 202 68"><defs><style>.cls-1{fill:#fff;}</style></defs><title>abbeyHouse-logo-w</title><path class="cls-1" d="M18.29,29.5,17.09,26h-6.9L9,29.5H6.15L12.56,12H14.7L21.12,29.5ZM13.7,16,11,23.73h5.38Z"/><path class="cls-1" d="M32.07,28.54a4.31,4.31,0,0,1-3,1.1,3.83,3.83,0,0,1-3.29-1.47V29.5H23.28V12h2.51V18.3a3.85,3.85,0,0,1,3.27-1.4,4.24,4.24,0,0,1,3,1.11c1.25,1.25,1.4,3.37,1.4,5.26S33.33,27.29,32.07,28.54Zm-3.68-9.41c-2.26,0-2.6,1.92-2.6,4.13s.34,4.15,2.6,4.15S31,25.47,31,23.26,30.65,19.13,28.39,19.13Z"/><path class="cls-1" d="M45.64,28.54a4.31,4.31,0,0,1-3,1.1,3.84,3.84,0,0,1-3.29-1.47V29.5H36.84V12h2.51V18.3a3.85,3.85,0,0,1,3.27-1.4,4.25,4.25,0,0,1,3,1.11c1.25,1.25,1.4,3.37,1.4,5.26S46.89,27.29,45.64,28.54ZM42,19.13c-2.26,0-2.6,1.92-2.6,4.13s.34,4.15,2.6,4.15,2.58-1.94,2.58-4.15S44.21,19.13,42,19.13Z"/><path class="cls-1" d="M52.24,24c0,2.14,1.13,3.49,3.17,3.49a3.72,3.72,0,0,0,3-1.28l1.6,1.5a5.85,5.85,0,0,1-4.67,1.94c-3.12,0-5.6-1.65-5.6-6.39,0-4,2.09-6.36,5.28-6.36s5.28,2.46,5.28,6V24Zm5.26-3.44A2.57,2.57,0,0,0,55,19a2.6,2.6,0,0,0-2.48,1.57,4,4,0,0,0-.32,1.7h5.6A3.94,3.94,0,0,0,57.5,20.56Z"/><path class="cls-1" d="M67.28,32a4,4,0,0,1-.91,1.55,3.46,3.46,0,0,1-2.55.91h-1V32.18h.64c1.06,0,1.42-.32,1.79-1.33l.69-1.94L61.58,17h2.65l3,8.77L70.11,17h2.68Z"/><path class="cls-1" d="M90.77,29.5V21.86h-7.1V29.5H81V12h2.65v7.47h7.1V12h2.65V29.5Z"/><path class="cls-1" d="M106,28.18a5,5,0,0,1-3.74,1.47,5,5,0,0,1-3.71-1.47c-1.18-1.23-1.47-2.8-1.47-4.91s.3-3.66,1.47-4.89a5,5,0,0,1,3.71-1.47A5,5,0,0,1,106,18.37c1.18,1.23,1.48,2.8,1.48,4.89S107.18,26.95,106,28.18Zm-1.89-8.33a2.54,2.54,0,0,0-1.84-.71,2.48,2.48,0,0,0-1.82.71c-.76.76-.86,2.06-.86,3.41s.1,2.65.86,3.42a2.5,2.5,0,0,0,1.82.74,2.56,2.56,0,0,0,1.84-.74c.76-.76.86-2.06.86-3.42S104.87,20.61,104.11,19.85Z"/><path class="cls-1" d="M118.36,29.5V28.25a4.45,4.45,0,0,1-3.32,1.4A4.32,4.32,0,0,1,112,28.52,4.58,4.58,0,0,1,110.72,25V17h2.51v7.59c0,1.94,1.11,2.78,2.51,2.78a2.48,2.48,0,0,0,2.58-2.78V17h2.5V29.5Z"/><path class="cls-1" d="M128.8,29.65a6.85,6.85,0,0,1-5.23-1.79l1.65-1.65a4.83,4.83,0,0,0,3.59,1.3c1.52,0,2.73-.54,2.73-1.72,0-.83-.47-1.38-1.67-1.47l-2-.17c-2.34-.2-3.68-1.25-3.68-3.44,0-2.43,2.09-3.81,4.69-3.81a6.83,6.83,0,0,1,4.62,1.4l-1.57,1.6a4.71,4.71,0,0,0-3.07-.91c-1.5,0-2.26.66-2.26,1.6,0,.74.39,1.3,1.72,1.43l2,.17c2.33.2,3.71,1.3,3.71,3.51C134,28.3,131.78,29.65,128.8,29.65Z"/><path class="cls-1" d="M138.85,24c0,2.14,1.13,3.49,3.17,3.49a3.72,3.72,0,0,0,3-1.28l1.6,1.5A5.85,5.85,0,0,1,142,29.65c-3.12,0-5.6-1.65-5.6-6.39,0-4,2.09-6.36,5.28-6.36s5.28,2.46,5.28,6V24Zm5.26-3.44A2.57,2.57,0,0,0,141.65,19a2.6,2.6,0,0,0-2.48,1.57,3.93,3.93,0,0,0-.32,1.7h5.6A3.94,3.94,0,0,0,144.11,20.56Z"/><path class="cls-1" d="M21,51.47V39.78L17,48.3H15L10.9,39.78v11.7H8.24V34H10.9L16,44.86,21,34h2.65V51.47Z"/><path class="cls-1" d="M35.41,51.47V50.22a4.46,4.46,0,0,1-3.32,1.4A4.33,4.33,0,0,1,29,50.49,4.58,4.58,0,0,1,27.77,47V39h2.51v7.59c0,1.94,1.11,2.78,2.51,2.78a2.48,2.48,0,0,0,2.58-2.78V39h2.51V51.47Z"/><path class="cls-1" d="M45.86,51.62a6.85,6.85,0,0,1-5.23-1.79l1.65-1.65a4.83,4.83,0,0,0,3.59,1.3c1.52,0,2.73-.54,2.73-1.72,0-.84-.47-1.38-1.67-1.47l-2-.17c-2.33-.2-3.68-1.25-3.68-3.44,0-2.43,2.09-3.81,4.69-3.81a6.83,6.83,0,0,1,4.62,1.4L49,41.86A4.71,4.71,0,0,0,45.91,41c-1.5,0-2.26.66-2.26,1.6,0,.74.39,1.3,1.72,1.43l2,.17c2.33.2,3.71,1.3,3.71,3.51C51,50.27,48.83,51.62,45.86,51.62Z"/><path class="cls-1" d="M55.91,46c0,2.14,1.13,3.49,3.17,3.49a3.72,3.72,0,0,0,3-1.28l1.6,1.5A5.85,5.85,0,0,1,59,51.62c-3.12,0-5.6-1.65-5.6-6.39,0-4,2.09-6.36,5.28-6.36s5.28,2.46,5.28,6V46Zm5.26-3.44A2.56,2.56,0,0,0,58.71,41a2.6,2.6,0,0,0-2.48,1.57,4,4,0,0,0-.32,1.7h5.6A3.92,3.92,0,0,0,61.16,42.53Z"/><path class="cls-1" d="M74.8,51.47V50.22a4.45,4.45,0,0,1-3.32,1.4,4.32,4.32,0,0,1-3.07-1.13A4.57,4.57,0,0,1,67.16,47V39h2.51v7.59c0,1.94,1.1,2.78,2.51,2.78a2.48,2.48,0,0,0,2.58-2.78V39h2.51V51.47Z"/><path class="cls-1" d="M96.4,51.47V43.88c0-1.94-1.11-2.78-2.51-2.78a2.47,2.47,0,0,0-2.58,2.65v7.71H88.8V43.88c0-1.94-1.11-2.78-2.51-2.78a2.48,2.48,0,0,0-2.58,2.78v7.59H81.21V39h2.46v1.25A4.51,4.51,0,0,1,87,38.87a4,4,0,0,1,3.54,1.82,4.73,4.73,0,0,1,3.91-1.82A4.52,4.52,0,0,1,97.58,40a4.63,4.63,0,0,1,1.33,3.51v8Z"/></svg>