<svg id="Layer_1" data-name="Layer 1" xmlns="http://www.w3.org/2000/svg" viewBox="0 0 202 68"><defs><style>.cls-1{fill:#16145f;}</style></defs><title>discoveryCentre-logo</title><path class="cls-1" d="M8.47,31.17V13.32h2.71V28.74h8.6v2.43Z"/><path class="cls-1" d="M24.41,25.55c0,2.18,1.15,3.56,3.23,3.56a3.8,3.8,0,0,0,3.08-1.3l1.63,1.53a6,6,0,0,1-4.76,2c-3.18,0-5.72-1.68-5.72-6.52,0-4.11,2.13-6.49,5.39-6.49,3.41,0,5.39,2.51,5.39,6.12v1.13ZM29.77,22a2.62,2.62,0,0,0-2.51-1.6A2.65,2.65,0,0,0,24.74,22a4,4,0,0,0-.33,1.73h5.71A4,4,0,0,0,29.77,22Z"/><path class="cls-1" d="M37.89,25.55c0,2.18,1.15,3.56,3.23,3.56a3.8,3.8,0,0,0,3.08-1.3l1.63,1.53a6,6,0,0,1-4.76,2c-3.18,0-5.71-1.68-5.71-6.52,0-4.11,2.13-6.49,5.39-6.49,3.41,0,5.39,2.51,5.39,6.12v1.13ZM43.26,22a2.62,2.62,0,0,0-2.51-1.6A2.65,2.65,0,0,0,38.22,22a4,4,0,0,0-.32,1.73h5.71A4,4,0,0,0,43.26,22Z"/><path class="cls-1" d="M56.79,31.17V29.81a3.91,3.91,0,0,1-3.36,1.5,4.4,4.4,0,0,1-3.11-1.13C49,28.91,48.9,26.73,48.9,24.8s.15-4.09,1.43-5.36a4.33,4.33,0,0,1,3.08-1.13,3.93,3.93,0,0,1,3.33,1.43V13.32H59.3V31.17ZM54.11,20.59c-2.31,0-2.66,2-2.66,4.21S51.8,29,54.11,29s2.63-2,2.63-4.24S56.42,20.59,54.11,20.59Z"/><path class="cls-1" d="M67.44,31.32a7,7,0,0,1-5.34-1.83l1.68-1.68a4.93,4.93,0,0,0,3.66,1.33c1.55,0,2.78-.55,2.78-1.75,0-.85-.48-1.4-1.7-1.5l-2-.18c-2.38-.2-3.76-1.28-3.76-3.51,0-2.48,2.13-3.88,4.79-3.88a7,7,0,0,1,4.71,1.43l-1.6,1.63a4.8,4.8,0,0,0-3.13-.93c-1.53,0-2.31.68-2.31,1.63,0,.75.4,1.33,1.76,1.45l2,.18c2.38.2,3.78,1.33,3.78,3.58C72.73,29.94,70.48,31.32,67.44,31.32Z"/><path class="cls-1" d="M19.34,51.9a6.37,6.37,0,0,1-4.61,1.68H8.47V35.74h6.26a6.37,6.37,0,0,1,4.61,1.68c1.93,1.93,1.8,4.54,1.8,7.12S21.28,50,19.34,51.9ZM17.49,39.37a3.86,3.86,0,0,0-3-1.2H11.17v13h3.28a3.86,3.86,0,0,0,3-1.2c.93-1,1-3,1-5.41S18.42,40.4,17.49,39.37Z"/><path class="cls-1" d="M24.76,38.37V35.66h2.71v2.71Zm.08,15.21V40.87h2.56V53.58Z"/><path class="cls-1" d="M35.54,53.73A7,7,0,0,1,30.2,51.9l1.68-1.68a4.93,4.93,0,0,0,3.66,1.33c1.55,0,2.78-.55,2.78-1.76,0-.85-.48-1.4-1.7-1.5l-2-.18c-2.38-.2-3.76-1.28-3.76-3.51,0-2.48,2.13-3.88,4.79-3.88a7,7,0,0,1,4.71,1.43l-1.6,1.63a4.81,4.81,0,0,0-3.13-.93c-1.53,0-2.31.68-2.31,1.63,0,.75.4,1.33,1.76,1.45l2,.18c2.38.2,3.79,1.33,3.79,3.58C40.83,52.35,38.57,53.73,35.54,53.73Z"/><path class="cls-1" d="M48.92,53.73c-2.86,0-5.67-1.75-5.67-6.52s2.81-6.49,5.67-6.49a5.21,5.21,0,0,1,4.18,1.78l-1.75,1.7A3,3,0,0,0,48.92,43a2.87,2.87,0,0,0-2.36,1.13,4.7,4.7,0,0,0-.75,3.08,4.78,4.78,0,0,0,.75,3.11,2.87,2.87,0,0,0,2.36,1.13,3,3,0,0,0,2.43-1.2l1.75,1.68A5.24,5.24,0,0,1,48.92,53.73Z"/><path class="cls-1" d="M64.54,52.23a5.14,5.14,0,0,1-3.81,1.5,5.08,5.08,0,0,1-3.79-1.5c-1.2-1.25-1.5-2.86-1.5-5s.3-3.73,1.5-5a5.09,5.09,0,0,1,3.79-1.5,5.14,5.14,0,0,1,3.81,1.5c1.2,1.25,1.5,2.86,1.5,5S65.74,51,64.54,52.23Zm-1.93-8.5A2.6,2.6,0,0,0,60.73,43a2.53,2.53,0,0,0-1.86.73c-.78.78-.88,2.11-.88,3.48s.1,2.71.88,3.48a2.55,2.55,0,0,0,1.86.75,2.62,2.62,0,0,0,1.88-.75c.78-.78.88-2.11.88-3.48S63.38,44.51,62.61,43.73Z"/><path class="cls-1" d="M74.39,53.58H72.31L67.64,40.87h2.71l3,8.95,3-8.95H79Z"/><path class="cls-1" d="M83.13,48c0,2.18,1.15,3.56,3.23,3.56a3.8,3.8,0,0,0,3.08-1.3l1.63,1.53a6,6,0,0,1-4.76,2c-3.18,0-5.71-1.68-5.71-6.52,0-4.11,2.13-6.49,5.39-6.49,3.41,0,5.39,2.51,5.39,6.12V48Zm5.36-3.51A2.62,2.62,0,0,0,86,42.85a2.65,2.65,0,0,0-2.53,1.6,4,4,0,0,0-.33,1.73h5.72A4,4,0,0,0,88.5,44.46Z"/><path class="cls-1" d="M101.73,43.86a2.36,2.36,0,0,0-1.9-.85,2.62,2.62,0,0,0-2.53,2.86v7.72H94.74V40.87h2.51v1.38a4.22,4.22,0,0,1,3.38-1.53,3.93,3.93,0,0,1,3,1.2Z"/><path class="cls-1" d="M109.7,56.11a4.12,4.12,0,0,1-.93,1.58,3.53,3.53,0,0,1-2.61.93h-1V56.31h.65c1.08,0,1.46-.33,1.83-1.35l.7-2-4.44-12.11h2.71l3,8.95,3-8.95h2.73Z"/><path class="cls-1" d="M129.48,53.73a6.47,6.47,0,0,1-4.69-1.9c-1.75-1.75-1.73-3.73-1.73-7.17s0-5.41,1.73-7.17a6.47,6.47,0,0,1,4.69-1.9,6.14,6.14,0,0,1,6.37,5.49h-2.76a3.69,3.69,0,0,0-6.24-2c-.88,1-1.08,2-1.08,5.56s.2,4.61,1.08,5.56a3.56,3.56,0,0,0,2.63,1.08,3.61,3.61,0,0,0,3.63-3.06h2.73A6.16,6.16,0,0,1,129.48,53.73Z"/><path class="cls-1" d="M141,48c0,2.18,1.15,3.56,3.23,3.56a3.8,3.8,0,0,0,3.08-1.3L149,51.75a6,6,0,0,1-4.76,2c-3.18,0-5.71-1.68-5.71-6.52,0-4.11,2.13-6.49,5.39-6.49s5.39,2.51,5.39,6.12V48Zm5.36-3.51a2.62,2.62,0,0,0-2.51-1.6,2.66,2.66,0,0,0-2.53,1.6,4,4,0,0,0-.33,1.73h5.72A4,4,0,0,0,146.37,44.46Z"/><path class="cls-1" d="M160.36,53.58V45.84c0-2-1.13-2.83-2.56-2.83a2.53,2.53,0,0,0-2.63,2.83v7.74h-2.56V40.87h2.51v1.28a4.54,4.54,0,0,1,3.38-1.43,4.41,4.41,0,0,1,3.13,1.15,4.67,4.67,0,0,1,1.28,3.58v8.12Z"/><path class="cls-1" d="M170.61,53.58A3.31,3.31,0,0,1,167.13,50v-7h-1.45v-2h1.45V37.24h2.56V41.1h2.46v2h-2.46v6.87a1.29,1.29,0,0,0,1.4,1.48h1.05v2.18Z"/><path class="cls-1" d="M182.37,43.86a2.36,2.36,0,0,0-1.9-.85,2.62,2.62,0,0,0-2.53,2.86v7.72h-2.56V40.87h2.51v1.38a4.22,4.22,0,0,1,3.38-1.53,3.93,3.93,0,0,1,3,1.2Z"/><path class="cls-1" d="M188.23,48c0,2.18,1.15,3.56,3.23,3.56a3.8,3.8,0,0,0,3.08-1.3l1.63,1.53a6,6,0,0,1-4.76,2c-3.18,0-5.71-1.68-5.71-6.52,0-4.11,2.13-6.49,5.39-6.49,3.41,0,5.39,2.51,5.39,6.12V48Zm5.36-3.51a2.62,2.62,0,0,0-2.51-1.6,2.65,2.65,0,0,0-2.53,1.6,4,4,0,0,0-.33,1.73h5.72A4,4,0,0,0,193.59,44.46Z"/></svg>