<svg id="Layer_1" data-name="Layer 1" xmlns="http://www.w3.org/2000/svg" viewBox="0 0 202 68"><defs><style>.cls-1{fill:#fff;}</style></defs><title>discoveryCentre-logo-w</title><path class="cls-1" d="M7.12,28.17V10.32H9.82V25.74h8.6v2.43Z"/><path class="cls-1" d="M23.06,22.55c0,2.18,1.15,3.56,3.23,3.56a3.8,3.8,0,0,0,3.08-1.3L31,26.34a6,6,0,0,1-4.76,2c-3.18,0-5.72-1.68-5.72-6.52,0-4.11,2.13-6.49,5.39-6.49,3.41,0,5.39,2.51,5.39,6.12v1.13ZM28.42,19a2.62,2.62,0,0,0-2.51-1.6A2.65,2.65,0,0,0,23.38,19a4,4,0,0,0-.33,1.73h5.71A4,4,0,0,0,28.42,19Z"/><path class="cls-1" d="M36.54,22.55c0,2.18,1.15,3.56,3.23,3.56a3.8,3.8,0,0,0,3.08-1.3l1.63,1.53a6,6,0,0,1-4.76,2c-3.18,0-5.71-1.68-5.71-6.52,0-4.11,2.13-6.49,5.39-6.49,3.41,0,5.39,2.51,5.39,6.12v1.13ZM41.91,19a2.62,2.62,0,0,0-2.51-1.6A2.65,2.65,0,0,0,36.87,19a4,4,0,0,0-.32,1.73h5.71A4,4,0,0,0,41.91,19Z"/><path class="cls-1" d="M55.44,28.17V26.81a3.91,3.91,0,0,1-3.36,1.5A4.4,4.4,0,0,1,49,27.19c-1.28-1.28-1.43-3.46-1.43-5.39s.15-4.09,1.43-5.36a4.33,4.33,0,0,1,3.08-1.13,3.93,3.93,0,0,1,3.33,1.43V10.32h2.56V28.17ZM52.76,17.59c-2.31,0-2.66,2-2.66,4.21S50.45,26,52.76,26s2.63-2,2.63-4.24S55.06,17.59,52.76,17.59Z"/><path class="cls-1" d="M66.09,28.32a7,7,0,0,1-5.34-1.83l1.68-1.68a4.93,4.93,0,0,0,3.66,1.33c1.55,0,2.78-.55,2.78-1.75,0-.85-.48-1.4-1.7-1.5l-2-.18c-2.38-.2-3.76-1.28-3.76-3.51,0-2.48,2.13-3.88,4.79-3.88a7,7,0,0,1,4.71,1.43l-1.6,1.63a4.8,4.8,0,0,0-3.13-.93c-1.53,0-2.31.68-2.31,1.63,0,.75.4,1.33,1.76,1.45l2,.18c2.38.2,3.78,1.33,3.78,3.58C71.38,26.94,69.13,28.32,66.09,28.32Z"/><path class="cls-1" d="M18,48.9a6.37,6.37,0,0,1-4.61,1.68H7.12V32.74h6.26A6.37,6.37,0,0,1,18,34.41c1.93,1.93,1.8,4.54,1.8,7.12S19.92,47,18,48.9ZM16.14,36.37a3.86,3.86,0,0,0-3-1.2H9.82v13h3.28a3.86,3.86,0,0,0,3-1.2c.93-1,1-3,1-5.41S17.07,37.4,16.14,36.37Z"/><path class="cls-1" d="M23.41,35.37V32.66h2.71v2.71Zm.08,15.21V37.87H26V50.58Z"/><path class="cls-1" d="M34.18,50.73a7,7,0,0,1-5.34-1.83l1.68-1.68a4.93,4.93,0,0,0,3.66,1.33C35.74,48.55,37,48,37,46.8c0-.85-.48-1.4-1.7-1.5l-2-.18c-2.38-.2-3.76-1.28-3.76-3.51,0-2.48,2.13-3.88,4.79-3.88A7,7,0,0,1,39,39.15l-1.6,1.63a4.81,4.81,0,0,0-3.13-.93c-1.53,0-2.31.68-2.31,1.63,0,.75.4,1.33,1.76,1.45l2,.18c2.38.2,3.79,1.33,3.79,3.58C39.47,49.35,37.22,50.73,34.18,50.73Z"/><path class="cls-1" d="M47.57,50.73c-2.86,0-5.67-1.75-5.67-6.52s2.81-6.49,5.67-6.49a5.21,5.21,0,0,1,4.18,1.78L50,41.21A3,3,0,0,0,47.57,40a2.87,2.87,0,0,0-2.36,1.13,4.7,4.7,0,0,0-.75,3.08,4.78,4.78,0,0,0,.75,3.11,2.87,2.87,0,0,0,2.36,1.13A3,3,0,0,0,50,47.25l1.75,1.68A5.24,5.24,0,0,1,47.57,50.73Z"/><path class="cls-1" d="M63.18,49.23a5.14,5.14,0,0,1-3.81,1.5,5.08,5.08,0,0,1-3.79-1.5c-1.2-1.25-1.5-2.86-1.5-5s.3-3.73,1.5-5a5.09,5.09,0,0,1,3.79-1.5,5.14,5.14,0,0,1,3.81,1.5c1.2,1.25,1.5,2.86,1.5,5S64.39,48,63.18,49.23Zm-1.93-8.5A2.6,2.6,0,0,0,59.38,40a2.53,2.53,0,0,0-1.86.73c-.78.78-.88,2.11-.88,3.48s.1,2.71.88,3.48a2.55,2.55,0,0,0,1.86.75,2.62,2.62,0,0,0,1.88-.75c.78-.78.88-2.11.88-3.48S62,41.51,61.26,40.73Z"/><path class="cls-1" d="M73,50.58H71L66.29,37.87H69l3,8.95,3-8.95H77.7Z"/><path class="cls-1" d="M81.78,45c0,2.18,1.15,3.56,3.23,3.56a3.8,3.8,0,0,0,3.08-1.3l1.63,1.53a6,6,0,0,1-4.76,2c-3.18,0-5.71-1.68-5.71-6.52,0-4.11,2.13-6.49,5.39-6.49C88,37.72,90,40.23,90,43.84V45Zm5.36-3.51a2.62,2.62,0,0,0-2.51-1.6,2.65,2.65,0,0,0-2.53,1.6,4,4,0,0,0-.33,1.73H87.5A4,4,0,0,0,87.15,41.46Z"/><path class="cls-1" d="M100.38,40.86a2.36,2.36,0,0,0-1.9-.85,2.62,2.62,0,0,0-2.53,2.86v7.72H93.39V37.87h2.51v1.38a4.22,4.22,0,0,1,3.38-1.53,3.93,3.93,0,0,1,3,1.2Z"/><path class="cls-1" d="M108.35,53.11a4.12,4.12,0,0,1-.93,1.58,3.53,3.53,0,0,1-2.61.93h-1V53.31h.65c1.08,0,1.46-.33,1.83-1.35l.7-2-4.44-12.11h2.71l3,8.95,3-8.95H114Z"/><path class="cls-1" d="M128.13,50.73a6.47,6.47,0,0,1-4.69-1.9c-1.75-1.75-1.73-3.73-1.73-7.17s0-5.41,1.73-7.17a6.47,6.47,0,0,1,4.69-1.9,6.14,6.14,0,0,1,6.37,5.49h-2.76a3.69,3.69,0,0,0-6.24-2c-.88,1-1.08,2-1.08,5.56s.2,4.61,1.08,5.56a3.56,3.56,0,0,0,2.63,1.08,3.61,3.61,0,0,0,3.63-3.06h2.73A6.16,6.16,0,0,1,128.13,50.73Z"/><path class="cls-1" d="M139.66,45c0,2.18,1.15,3.56,3.23,3.56a3.8,3.8,0,0,0,3.08-1.3l1.63,1.53a6,6,0,0,1-4.76,2c-3.18,0-5.71-1.68-5.71-6.52,0-4.11,2.13-6.49,5.39-6.49s5.39,2.51,5.39,6.12V45ZM145,41.46a2.62,2.62,0,0,0-2.51-1.6,2.66,2.66,0,0,0-2.53,1.6,4,4,0,0,0-.33,1.73h5.72A4,4,0,0,0,145,41.46Z"/><path class="cls-1" d="M159,50.58V42.84c0-2-1.13-2.83-2.56-2.83a2.53,2.53,0,0,0-2.63,2.83v7.74h-2.56V37.87h2.51v1.28a4.54,4.54,0,0,1,3.38-1.43,4.41,4.41,0,0,1,3.13,1.15,4.67,4.67,0,0,1,1.28,3.58v8.12Z"/><path class="cls-1" d="M169.26,50.58A3.31,3.31,0,0,1,165.78,47v-7h-1.45v-2h1.45V34.24h2.56V38.1h2.46v2h-2.46v6.87a1.29,1.29,0,0,0,1.4,1.48h1.05v2.18Z"/><path class="cls-1" d="M181,40.86a2.36,2.36,0,0,0-1.9-.85,2.62,2.62,0,0,0-2.53,2.86v7.72H174V37.87h2.51v1.38a4.22,4.22,0,0,1,3.38-1.53,3.93,3.93,0,0,1,3,1.2Z"/><path class="cls-1" d="M186.88,45c0,2.18,1.15,3.56,3.23,3.56a3.8,3.8,0,0,0,3.08-1.3l1.63,1.53a6,6,0,0,1-4.76,2c-3.18,0-5.71-1.68-5.71-6.52,0-4.11,2.13-6.49,5.39-6.49,3.41,0,5.39,2.51,5.39,6.12V45Zm5.36-3.51a2.62,2.62,0,0,0-2.51-1.6,2.65,2.65,0,0,0-2.53,1.6,4,4,0,0,0-.33,1.73h5.72A4,4,0,0,0,192.24,41.46Z"/></svg>