<?xml version="1.0" encoding="utf-8"?>
<!-- Generator: Adobe Illustrator 15.1.0, SVG Export Plug-In . SVG Version: 6.00 Build 0)  -->
<!DOCTYPE svg PUBLIC "-//W3C//DTD SVG 1.1//EN" "http://www.w3.org/Graphics/SVG/1.1/DTD/svg11.dtd">
<svg version="1.1" id="Layer_1" xmlns="http://www.w3.org/2000/svg" xmlns:xlink="http://www.w3.org/1999/xlink" x="0px" y="0px"
	 width="116px" height="115.979px" viewBox="0 0 116 115.979" enable-background="new 0 0 116 115.979" xml:space="preserve">
<g>
	<text transform="matrix(1 0 0 1 656.0552 34.04)" fill="#33485E" font-family="'MyriadPro-Regular'" font-size="18">keep on top of your account details and edit them when ever you want!</text>
</g>
<path fill-rule="evenodd" clip-rule="evenodd" fill="#E67E22" d="M511.055,45.169c0-32.03,25.97-57.99,58-57.99s58,25.96,58,57.99
	c0,32.03-25.97,57.99-58,57.99S511.055,77.2,511.055,45.169z"/>
<path fill-rule="evenodd" clip-rule="evenodd" fill="#FFFFFF" d="M601.055,69.16v0.01c0,1.65-1.34,3-3,3h-58c-1.66,0-3-1.35-3-3
	v-0.01c0,0,0-10.93,7.99-14.9c5.05-2.52,3.11-0.479,9.31-3.05c6.21-2.57,7.68-3.47,7.68-3.47l0.05-5.92c0,0-2.32-1.78-3.04-7.351
	c-1.46,0.42-1.94-1.71-2.021-3.06c-0.08-1.31-0.84-5.4,0.93-5.03c-0.36-2.729-0.62-5.19-0.5-6.49c0.45-4.58,4.86-9.36,11.65-9.71
	c7.98,0.35,11.15,5.13,11.59,9.71c0.13,1.3-0.149,3.76-0.52,6.49c1.78-0.37,1.01,3.71,0.92,5.021c-0.08,1.35-0.57,3.47-2.02,3.06
	c-0.72,5.57-3.05,7.33-3.05,7.33l0.061,5.89c0,0,1.46,0.84,7.67,3.41c6.21,2.58,4.26,0.65,9.31,3.17
	C601.055,58.229,601.055,69.16,601.055,69.16L601.055,69.16z"/>
<g>
	<text transform="matrix(1 0 0 1 655.0552 -10.96)" fill="#3199DE" font-family="'MyriadPro-Regular'" font-size="25">My Account</text>
	<text transform="matrix(1 0 0 1 779.5791 -10.96)" fill="#3199DE" font-family="'MyriadPro-Regular'" font-size="40"> </text>
</g>
<path fill-rule="evenodd" clip-rule="evenodd" fill="#FFFFFF" d="M1275.056-151.8l-132,119.98h487V-151.8H1275.056z M2791.056-31.82
	h84V-151.8h-84V-31.82z"/>
<g>
	<text transform="matrix(1 0 0 1 475.0552 -121.96)" fill="#3199DE" font-family="'MyriadPro-Regular'" font-size="40">Members Area </text>
</g>
<rect x="1282.056" y="-126.8" fill-rule="evenodd" clip-rule="evenodd" fill="#FFFFFF" stroke="#CCCCCC" stroke-linecap="round" stroke-linejoin="round" stroke-miterlimit="10" width="90" height="60.99"/>
<g>
	<text transform="matrix(1 0 0 1 1305.0557 -105.96)" fill="#2C3E50" font-family="'MyriadPro-Regular'" font-size="16">Save</text>
</g>
<g>
	<text transform="matrix(1 0 0 1 661.0552 220.04)" fill="#33485E" font-family="'MyriadPro-Regular'" font-size="18">Edit your Organisation details </text>
</g>
<path fill-rule="evenodd" clip-rule="evenodd" fill="#3498DB" d="M512.055,227.14c0-32.03,25.97-57.99,58-57.99s58,25.96,58,57.99
	c0,32.029-25.97,57.99-58,57.99S512.055,259.169,512.055,227.14z"/>
<g>
	<text transform="matrix(1 0 0 1 659.0552 185.04)" fill="#3199DE" font-family="'MyriadPro-Regular'" font-size="25">My Organisation</text>
</g>
<rect x="479.055" y="138.16" fill-rule="evenodd" clip-rule="evenodd" fill="#E2E2E2" width="1152" height="0.99"/>
<g>
	<text transform="matrix(1 0 0 1 659.0552 405.04)" fill="#33485E" font-family="'MyriadPro-Regular'" font-size="18">keep on top of your account details and edit them when ever you want!</text>
</g>
<path fill-rule="evenodd" clip-rule="evenodd" fill="#E74C3C" d="M512.055,404.11c0-32.031,25.97-57.99,58-57.99s58,25.959,58,57.99
	c0,32.029-25.97,57.99-58,57.99S512.055,436.14,512.055,404.11z"/>
<path fill-rule="evenodd" clip-rule="evenodd" fill="#FFFFFF" d="M554.055,382.11c-1.66,0-3-1.34-3-3v-7.99c0-1.66,1.34-3,3-3
	s3,1.34,3,3v7.99C557.055,380.771,555.715,382.11,554.055,382.11z M586.055,382.11c-1.66,0-3-1.34-3-3v-7.99c0-1.66,1.34-3,3-3
	s3,1.34,3,3v7.99C589.055,380.771,587.715,382.11,586.055,382.11z M575.165,414.249c0.54,0.5,1.22,0.75,2.06,0.75
	c0.48,0,0.92-0.109,1.31-0.299c0.39-0.201,0.72-0.461,0.99-0.781c0.271-0.318,0.47-0.699,0.62-1.119c0.15-0.43,0.22-0.859,0.22-1.32
	c0-0.459-0.07-0.9-0.21-1.32s-0.34-0.779-0.62-1.09c-0.28-0.309-0.61-0.559-0.99-0.73c-0.38-0.17-0.82-0.26-1.32-0.26
	c-0.66,0-1.2,0.121-1.62,0.352c-0.41,0.238-0.8,0.6-1.17,1.109h-3.32l1.79-10.061h10.17v3.041h-7.52l-0.73,4.129l0.06,0.051
	c0.5-0.5,1.04-0.861,1.61-1.08c0.57-0.211,1.22-0.32,1.95-0.32c0.9,0,1.7,0.16,2.391,0.49c0.689,0.33,1.28,0.77,1.76,1.33
	c0.47,0.549,0.84,1.209,1.09,1.959s0.37,1.561,0.37,2.4c0,0.939-0.18,1.811-0.54,2.621c-0.37,0.799-0.86,1.5-1.47,2.09
	c-0.62,0.59-1.33,1.039-2.15,1.369c-0.81,0.32-1.68,0.471-2.6,0.451c-0.88,0-1.73-0.121-2.53-0.352c-0.81-0.229-1.52-0.59-2.15-1.08
	c-0.62-0.479-1.12-1.09-1.49-1.809c-0.37-0.721-0.57-1.551-0.59-2.5h3.7C574.315,413.101,574.625,413.761,575.165,414.249z
	 M557.855,412.819c0.521-0.609,1.13-1.18,1.83-1.699s1.44-1.051,2.22-1.58c0.4-0.279,0.82-0.561,1.28-0.85
	c0.45-0.281,0.86-0.602,1.23-0.951c0.37-0.35,0.68-0.729,0.94-1.17c0.25-0.43,0.37-0.92,0.37-1.48c0-0.879-0.25-1.568-0.76-2.068
	c-0.51-0.49-1.17-0.74-1.97-0.74c-0.53,0-0.99,0.129-1.36,0.379s-0.67,0.58-0.9,0.99c-0.22,0.4-0.38,0.861-0.479,1.35
	c-0.09,0.49-0.14,0.98-0.14,1.471h-3.54c-0.03-1.039,0.09-2.01,0.37-2.9c0.271-0.889,0.69-1.67,1.24-2.34
	c0.56-0.67,1.26-1.189,2.1-1.561c0.84-0.369,1.8-0.559,2.9-0.559c0.83,0,1.62,0.129,2.37,0.389c0.76,0.262,1.42,0.631,1.99,1.121
	c0.58,0.48,1.03,1.08,1.37,1.789c0.34,0.711,0.51,1.51,0.51,2.391c0,0.92-0.15,1.711-0.45,2.369c-0.29,0.66-0.68,1.24-1.17,1.75
	c-0.48,0.521-1.03,0.98-1.65,1.4c-0.61,0.41-1.23,0.82-1.86,1.23c-0.62,0.41-1.23,0.85-1.82,1.311c-0.59,0.469-1.11,1.02-1.56,1.639
	h8.61v3.17h-13.36c0-1.049,0.15-1.969,0.45-2.75C556.915,414.14,557.335,413.44,557.855,412.819z M596.055,392.11h-52v34h52V392.11z
	 M599.055,432.11h-58c-1.66,0-3-1.35-3-3v-50c0-1.65,1.34-2.99,3-2.99h6v2.99c0,3.869,3.13,7,7,7s7-3.131,7-7v-2.99h18v2.99
	c0,3.869,3.13,7,7,7s7-3.131,7-7v-2.99h6c1.66,0,3,1.34,3,2.99v50C602.055,430.761,600.715,432.11,599.055,432.11z"/>
<g>
	<text transform="matrix(1 0 0 1 657.0552 371.04)" fill="#3199DE" font-family="'MyriadPro-Regular'" font-size="25">My Events</text>
</g>
<rect x="479.055" y="315.13" fill-rule="evenodd" clip-rule="evenodd" fill="#E2E2E2" width="1152" height="1"/>
<g>
	<text transform="matrix(1 0 0 1 659.0552 595.04)" fill="#33485E" font-family="'MyriadPro-Regular'" font-size="18">keep on top of your account details and edit them when ever you want!</text>
</g>
<path fill-rule="evenodd" clip-rule="evenodd" fill="#16A085" d="M512.055,594.11c0-32.031,25.97-57.99,58-57.99s58,25.959,58,57.99
	c0,32.029-25.97,57.99-58,57.99S512.055,626.14,512.055,594.11z"/>
<path fill-rule="evenodd" clip-rule="evenodd" fill="#FFFFFF" d="M554.055,572.11c-1.66,0-3-1.34-3-3v-7.99c0-1.66,1.34-3,3-3
	s3,1.34,3,3v7.99C557.055,570.771,555.715,572.11,554.055,572.11z M586.055,572.11c-1.66,0-3-1.34-3-3v-7.99c0-1.66,1.34-3,3-3
	s3,1.34,3,3v7.99C589.055,570.771,587.715,572.11,586.055,572.11z M575.165,604.249c0.54,0.5,1.22,0.75,2.06,0.75
	c0.48,0,0.92-0.109,1.31-0.299c0.39-0.201,0.72-0.461,0.99-0.781c0.271-0.318,0.47-0.699,0.62-1.119c0.15-0.43,0.22-0.859,0.22-1.32
	c0-0.459-0.07-0.9-0.21-1.32s-0.34-0.779-0.62-1.09c-0.28-0.309-0.61-0.559-0.99-0.73c-0.38-0.17-0.82-0.26-1.32-0.26
	c-0.66,0-1.2,0.121-1.62,0.352c-0.41,0.238-0.8,0.6-1.17,1.109h-3.32l1.79-10.061h10.17v3.041h-7.52l-0.73,4.129l0.06,0.051
	c0.5-0.5,1.04-0.861,1.61-1.08c0.57-0.211,1.22-0.32,1.95-0.32c0.9,0,1.7,0.16,2.391,0.49c0.689,0.33,1.28,0.77,1.76,1.33
	c0.47,0.549,0.84,1.209,1.09,1.959s0.37,1.561,0.37,2.4c0,0.939-0.18,1.811-0.54,2.621c-0.37,0.799-0.86,1.5-1.47,2.09
	c-0.62,0.59-1.33,1.039-2.15,1.369c-0.81,0.32-1.68,0.471-2.6,0.451c-0.88,0-1.73-0.121-2.53-0.352c-0.81-0.229-1.52-0.59-2.15-1.08
	c-0.62-0.479-1.12-1.09-1.49-1.809c-0.37-0.721-0.57-1.551-0.59-2.5h3.7C574.315,603.101,574.625,603.761,575.165,604.249z
	 M557.855,602.819c0.521-0.609,1.13-1.18,1.83-1.699s1.44-1.051,2.22-1.58c0.4-0.279,0.82-0.561,1.28-0.85
	c0.45-0.281,0.86-0.602,1.23-0.951c0.37-0.35,0.68-0.729,0.94-1.17c0.25-0.43,0.37-0.92,0.37-1.48c0-0.879-0.25-1.568-0.76-2.068
	c-0.51-0.49-1.17-0.74-1.97-0.74c-0.53,0-0.99,0.129-1.36,0.379s-0.67,0.58-0.9,0.99c-0.22,0.4-0.38,0.861-0.479,1.35
	c-0.09,0.49-0.14,0.98-0.14,1.471h-3.54c-0.03-1.039,0.09-2.01,0.37-2.9c0.271-0.889,0.69-1.67,1.24-2.34
	c0.56-0.67,1.26-1.189,2.1-1.561c0.84-0.369,1.8-0.559,2.9-0.559c0.83,0,1.62,0.129,2.37,0.389c0.76,0.262,1.42,0.631,1.99,1.121
	c0.58,0.48,1.03,1.08,1.37,1.789c0.34,0.711,0.51,1.51,0.51,2.391c0,0.92-0.15,1.711-0.45,2.369c-0.29,0.66-0.68,1.24-1.17,1.75
	c-0.48,0.521-1.03,0.98-1.65,1.4c-0.61,0.41-1.23,0.82-1.86,1.23c-0.62,0.41-1.23,0.85-1.82,1.311c-0.59,0.469-1.11,1.02-1.56,1.639
	h8.61v3.17h-13.36c0-1.049,0.15-1.969,0.45-2.75C556.915,604.14,557.335,603.44,557.855,602.819z M596.055,582.11h-52v34h52V582.11z
	 M599.055,622.11h-58c-1.66,0-3-1.35-3-3v-50c0-1.65,1.34-2.99,3-2.99h6v2.99c0,3.869,3.13,7,7,7s7-3.131,7-7v-2.99h18v2.99
	c0,3.869,3.13,7,7,7s7-3.131,7-7v-2.99h6c1.66,0,3,1.34,3,2.99v50C602.055,620.761,600.715,622.11,599.055,622.11z"/>
<g>
	<text transform="matrix(1 0 0 1 657.0552 561.04)" fill="#3199DE" font-family="'MyriadPro-Regular'" font-size="25">Create an event</text>
</g>
<rect x="479.055" y="505.13" fill-rule="evenodd" clip-rule="evenodd" fill="#E2E2E2" width="1152" height="1"/>
<g>
	<text transform="matrix(1 0 0 1 659.0552 777.04)" fill="#33485E" font-family="'MyriadPro-Regular'" font-size="18">keep on top of your account details and edit them when ever you want!</text>
</g>
<path fill-rule="evenodd" clip-rule="evenodd" fill="#F1C40F" d="M512.055,776.11c0-32.031,25.97-57.99,58-57.99s58,25.959,58,57.99
	c0,32.029-25.97,57.99-58,57.99S512.055,808.14,512.055,776.11z"/>
<path fill-rule="evenodd" clip-rule="evenodd" fill="#FFFFFF" d="M554.055,754.11c-1.66,0-3-1.34-3-3v-7.99c0-1.66,1.34-3,3-3
	s3,1.34,3,3v7.99C557.055,752.771,555.715,754.11,554.055,754.11z M586.055,754.11c-1.66,0-3-1.34-3-3v-7.99c0-1.66,1.34-3,3-3
	s3,1.34,3,3v7.99C589.055,752.771,587.715,754.11,586.055,754.11z M575.165,786.249c0.54,0.5,1.22,0.75,2.06,0.75
	c0.48,0,0.92-0.109,1.31-0.299c0.39-0.201,0.72-0.461,0.99-0.781c0.271-0.318,0.47-0.699,0.62-1.119c0.15-0.43,0.22-0.859,0.22-1.32
	c0-0.459-0.07-0.9-0.21-1.32s-0.34-0.779-0.62-1.09c-0.28-0.309-0.61-0.559-0.99-0.73c-0.38-0.17-0.82-0.26-1.32-0.26
	c-0.66,0-1.2,0.121-1.62,0.352c-0.41,0.238-0.8,0.6-1.17,1.109h-3.32l1.79-10.061h10.17v3.041h-7.52l-0.73,4.129l0.06,0.051
	c0.5-0.5,1.04-0.861,1.61-1.08c0.57-0.211,1.22-0.32,1.95-0.32c0.9,0,1.7,0.16,2.391,0.49c0.689,0.33,1.28,0.77,1.76,1.33
	c0.47,0.549,0.84,1.209,1.09,1.959s0.37,1.561,0.37,2.4c0,0.939-0.18,1.811-0.54,2.621c-0.37,0.799-0.86,1.5-1.47,2.09
	c-0.62,0.59-1.33,1.039-2.15,1.369c-0.81,0.32-1.68,0.471-2.6,0.451c-0.88,0-1.73-0.121-2.53-0.352c-0.81-0.229-1.52-0.59-2.15-1.08
	c-0.62-0.479-1.12-1.09-1.49-1.809c-0.37-0.721-0.57-1.551-0.59-2.5h3.7C574.315,785.101,574.625,785.761,575.165,786.249z
	 M557.855,784.819c0.521-0.609,1.13-1.18,1.83-1.699s1.44-1.051,2.22-1.58c0.4-0.279,0.82-0.561,1.28-0.85
	c0.45-0.291,0.86-0.602,1.23-0.951c0.37-0.35,0.68-0.729,0.94-1.17c0.25-0.43,0.37-0.92,0.37-1.48c0-0.879-0.25-1.568-0.76-2.068
	c-0.51-0.49-1.17-0.74-1.97-0.74c-0.53,0-0.99,0.129-1.36,0.379s-0.67,0.58-0.9,0.99c-0.22,0.4-0.38,0.861-0.479,1.35
	c-0.09,0.49-0.14,0.98-0.14,1.471h-3.54c-0.03-1.039,0.09-2.01,0.37-2.9c0.271-0.889,0.69-1.67,1.24-2.34
	c0.56-0.67,1.26-1.189,2.1-1.561c0.84-0.369,1.8-0.559,2.9-0.559c0.83,0,1.62,0.129,2.37,0.389c0.76,0.262,1.42,0.631,1.99,1.121
	c0.58,0.48,1.03,1.08,1.37,1.789c0.34,0.711,0.51,1.51,0.51,2.391c0,0.92-0.15,1.711-0.45,2.369c-0.29,0.66-0.68,1.24-1.17,1.762
	c-0.48,0.51-1.03,0.969-1.65,1.389c-0.61,0.41-1.23,0.82-1.86,1.23c-0.62,0.41-1.23,0.85-1.82,1.311
	c-0.59,0.469-1.11,1.02-1.56,1.639h8.61v3.17h-13.36c0-1.049,0.15-1.969,0.45-2.75C556.915,786.14,557.335,785.44,557.855,784.819z
	 M596.055,764.11h-52v34h52V764.11z M599.055,804.11h-58c-1.66,0-3-1.35-3-3v-50c0-1.65,1.34-2.99,3-2.99h6v2.99c0,3.869,3.13,7,7,7
	s7-3.131,7-7v-2.99h18v2.99c0,3.869,3.13,7,7,7s7-3.131,7-7v-2.99h6c1.66,0,3,1.34,3,2.99v50
	C602.055,802.761,600.715,804.11,599.055,804.11z"/>
<g>
	<text transform="matrix(1 0 0 1 657.0552 743.04)" fill="#3199DE" font-family="'MyriadPro-Regular'" font-size="25">Organisation Directory</text>
</g>
<rect x="479.055" y="687.13" fill-rule="evenodd" clip-rule="evenodd" fill="#E2E2E2" width="1152" height="1"/>
<g>
	<text transform="matrix(1 0 0 1 669.0552 542.04)" fill="#FFFFFF" font-family="'MyriadPro-Regular'" font-size="15">Your profile is complete!</text>
</g>
<g>
	<text transform="matrix(1 0 0 1 701.0552 265.04)" fill="#C0392B" font-family="'MyriadPro-Regular'" font-size="15">Your profile is Incomplete!</text>
</g>
<g>
	<text transform="matrix(1 0 0 1 699.0552 90.04)" fill="#26AD5F" font-family="'MyriadPro-Regular'" font-size="15">Your profile is complete!</text>
</g>
<path fill="#FFFFFF" d="M554.385,232.54h-13.12c-0.67,0-1.21,0.539-1.21,1.209v13.08c0,0.67,0.54,1.211,1.21,1.211h13.12
	c0.67,0,1.21-0.541,1.21-1.211v-13.08C555.595,233.079,555.055,232.54,554.385,232.54z"/>
<path fill="#FFFFFF" d="M575.405,232.54h-13.12c-0.67,0-1.21,0.539-1.21,1.209v13.08c0,0.67,0.54,1.211,1.21,1.211h13.12
	c0.67,0,1.21-0.541,1.21-1.211v-13.08C576.615,233.079,576.075,232.54,575.405,232.54z"/>
<path fill="#FFFFFF" d="M596.845,232.54h-13.12c-0.67,0-1.22,0.539-1.22,1.209v13.08c0,0.67,0.55,1.211,1.22,1.211h13.12
	c0.67,0,1.21-0.541,1.21-1.211v-13.08C598.055,233.079,597.515,232.54,596.845,232.54z"/>
<path fill="#FFFFFF" d="M562.495,210.54h13.12c0.67,0,1.21-0.541,1.21-1.211v-13.08c0-0.67-0.54-1.209-1.21-1.209h-13.12
	c-0.67,0-1.21,0.539-1.21,1.209v13.08C561.285,209.999,561.825,210.54,562.495,210.54z"/>
<path fill="#FFFFFF" d="M545.815,228.359h2.48c0.67,0,1.21-0.54,1.21-1.21v-5.09h17.1v5.109c0,0.66,0.54,1.201,1.21,1.201h2.48
	c0.67,0,1.21-0.541,1.21-1.201v-5.109h17.1v5.1c0,0.66,0.54,1.2,1.21,1.2h2.48c0.67,0,1.21-0.54,1.21-1.2v-8.789
	c0-0.66-0.54-1.211-1.21-1.211h-20.79v-1.67c0-0.67-0.54-1.209-1.21-1.209h-2.48c-0.67,0-1.21,0.539-1.21,1.209v1.67h-20.79
	c-0.67,0-1.21,0.551-1.21,1.211v8.779C544.605,227.819,545.145,228.359,545.815,228.359z"/>
<path fill-rule="evenodd" clip-rule="evenodd" fill="#3498DB" d="M290.055,224.14c0-32.03,25.97-57.99,58-57.99s58,25.96,58,57.99
	c0,32.029-25.97,57.99-58,57.99S290.055,256.169,290.055,224.14z"/>
<path fill-rule="evenodd" clip-rule="evenodd" fill="#C0392B" d="M669.495,267.88c0-0.771,0.63-1.4,1.4-1.4c0.39,0,0.74,0.16,1,0.41
	l4.16,4.16l4.16-4.16c0.26-0.25,0.61-0.41,1-0.41c0.77,0,1.4,0.63,1.4,1.4c0,0.39-0.15,0.74-0.41,1l-4.16,4.16l4.16,4.16
	c0.26,0.26,0.41,0.609,0.41,1c0,0.77-0.63,1.399-1.4,1.399c-0.39,0-0.74-0.149-1-0.41l-4.16-4.159l-4.16,4.159
	c-0.26,0.261-0.61,0.41-1,0.41c-0.77,0-1.4-0.63-1.4-1.399c0-0.391,0.15-0.74,0.41-1l4.16-4.16l-4.16-4.16
	C669.645,268.62,669.495,268.27,669.495,267.88z M688.245,260.85h-24.38v24.38h24.38V260.85z M689.645,288.04h-27.18
	c-0.78,0-1.41-0.631-1.41-1.41v-27.18c0-0.781,0.63-1.41,1.41-1.41h27.18c0.78,0,1.41,0.629,1.41,1.41v27.18
	C691.055,287.409,690.425,288.04,689.645,288.04z"/>
<path fill-rule="evenodd" clip-rule="evenodd" fill="#27AE60" d="M666.965,97.16c0.38,0,0.74,0.16,0.99,0.42l3.23,3.22l6.5-6.5
	c0.26-0.26,0.61-0.42,1-0.42c0.77,0,1.4,0.63,1.4,1.41c0,0.39-0.16,0.74-0.41,0.99l-7.5,7.5c-0.26,0.26-0.61,0.42-0.99,0.42
	c-0.39,0-0.74-0.16-1-0.42l-4.22-4.21c-0.25-0.26-0.41-0.61-0.41-1C665.555,97.79,666.185,97.16,666.965,97.16z M685.245,86.85
	h-24.38v24.38h24.38V86.85z M686.645,114.04h-27.18c-0.78,0-1.41-0.63-1.41-1.41V85.45c0-0.78,0.63-1.41,1.41-1.41h27.18
	c0.78,0,1.41,0.63,1.41,1.41v27.18C688.055,113.41,687.425,114.04,686.645,114.04z"/>
<path fill-rule="evenodd" clip-rule="evenodd" fill="#FFFFFF" d="M348.055,232.22l7.63-7.16l21.49,18.23
	c-0.51,0.459-1.18,0.75-1.93,0.75h-54.38c-0.75,0-1.42-0.291-1.93-0.75l21.49-18.23L348.055,232.22z M318.815,243.159
	c-0.47-0.479-0.76-1.129-0.76-1.85v-34.54c0-0.76,0.32-1.45,0.84-1.94l18.26,17.16L318.815,243.159z M318.995,204.749
	c0.49-0.439,1.15-0.709,1.87-0.709h54.38c0.72,0,1.38,0.27,1.87,0.709l-29.06,22.021L318.995,204.749z M358.955,221.989l18.26-17.16
	c0.52,0.49,0.84,1.181,0.84,1.94v34.54c0,0.721-0.29,1.37-0.76,1.85L358.955,221.989z"/>
<path fill-rule="evenodd" clip-rule="evenodd" fill="#3498DB" d="M0,57.99C0,25.96,25.97,0,58,0c32.03,0,58,25.96,58,57.99
	c0,32.031-25.971,57.99-58,57.99C25.97,115.979,0,90.021,0,57.99z"/>
<path fill-rule="evenodd" clip-rule="evenodd" fill="#FFFFFF" d="M90,81.979v0.01c0,1.65-1.34,3-3,3H29c-1.66,0-3-1.35-3-3v-0.01
	c0,0,0-10.93,7.99-14.9c5.05-2.52,3.11-0.479,9.31-3.049c6.21-2.57,7.68-3.471,7.68-3.471l0.05-5.919c0,0-2.32-1.78-3.04-7.351
	c-1.46,0.42-1.94-1.71-2.021-3.06c-0.08-1.31-0.84-5.4,0.93-5.03c-0.36-2.729-0.62-5.19-0.5-6.49c0.45-4.58,4.86-9.36,11.65-9.71
	c7.98,0.35,11.15,5.13,11.589,9.71c0.131,1.3-0.148,3.76-0.52,6.49c1.78-0.37,1.01,3.71,0.92,5.021c-0.08,1.35-0.57,3.47-2.02,3.06
	c-0.721,5.57-3.051,7.33-3.051,7.33l0.061,5.89c0,0,1.461,0.84,7.67,3.409c6.211,2.58,4.26,0.65,9.311,3.17
	C90,71.05,90,81.979,90,81.979L90,81.979z"/>
</svg>
