<svg id="Layer_1" data-name="Layer 1" xmlns="http://www.w3.org/2000/svg" viewBox="0 0 202 68"><defs><style>.cls-1{fill:#fff;}</style></defs><title>kirkstallAbbey-logo-w</title><path class="cls-1" d="M17,30.39l-5-8.7-3,3.57v5.13H6.42V12.74H9.1v8.87l7.21-8.87h3.27l-5.73,6.92,6.32,10.73Z"/><path class="cls-1" d="M22.34,15.35V12.67H25v2.68Zm.07,15V17.83h2.53V30.39Z"/><path class="cls-1" d="M35.84,20.78A2.33,2.33,0,0,0,34,19.93a2.59,2.59,0,0,0-2.5,2.83v7.63H28.93V17.83h2.48v1.36a4.17,4.17,0,0,1,3.35-1.51,3.89,3.89,0,0,1,3,1.19Z"/><path class="cls-1" d="M47.69,30.39l-3.52-5.8L42.32,26.7v3.69H39.79V12.74h2.53V23.63l4.88-5.8h3.07l-4.36,4.93,4.91,7.63Z"/><path class="cls-1" d="M57.41,30.54a6.91,6.91,0,0,1-5.28-1.81l1.66-1.66a4.87,4.87,0,0,0,3.62,1.31c1.54,0,2.75-.55,2.75-1.74,0-.84-.47-1.39-1.68-1.49l-2-.17c-2.36-.2-3.72-1.26-3.72-3.47,0-2.45,2.11-3.84,4.74-3.84a6.89,6.89,0,0,1,4.66,1.41L60.56,20.7a4.75,4.75,0,0,0-3.1-.92c-1.51,0-2.28.67-2.28,1.61,0,.74.4,1.31,1.74,1.44l2,.17c2.36.2,3.74,1.31,3.74,3.54C62.64,29.18,60.41,30.54,57.41,30.54Z"/><path class="cls-1" d="M69.43,30.39A3.27,3.27,0,0,1,66,26.9V20H64.55V18H66V14.23h2.53V18h2.43V20H68.52v6.79a1.28,1.28,0,0,0,1.39,1.46h1v2.16Z"/><path class="cls-1" d="M80.91,30.39V29.25a4.13,4.13,0,0,1-3.35,1.29A4.44,4.44,0,0,1,74.2,29.4a3.86,3.86,0,0,1-1-2.7c0-2.11,1.46-3.62,4.34-3.62h3.32v-.89c0-1.59-.79-2.35-2.75-2.35A2.94,2.94,0,0,0,75.36,21L73.7,19.49c1.19-1.39,2.43-1.81,4.51-1.81,3.45,0,5.18,1.46,5.18,4.31v8.4Zm0-5.55H77.91c-1.49,0-2.26.67-2.26,1.81s.72,1.78,2.31,1.78a3,3,0,0,0,2.35-.72,2.52,2.52,0,0,0,.55-1.86Z"/><path class="cls-1" d="M90.63,30.39a3.2,3.2,0,0,1-3.45-3.47V12.74h2.53v14c0,1,.35,1.46,1.36,1.46h1.11v2.16Z"/><path class="cls-1" d="M98.32,30.39a3.2,3.2,0,0,1-3.45-3.47V12.74H97.4v14c0,1,.35,1.46,1.36,1.46h1.12v2.16Z"/><path class="cls-1" d="M16.56,52.56,15.34,49h-7L7.16,52.56H4.31l6.47-17.65h2.16l6.47,17.65ZM11.92,38.9,9.17,46.73H14.6Z"/><path class="cls-1" d="M30.47,51.59a4.35,4.35,0,0,1-3.07,1.12,3.87,3.87,0,0,1-3.32-1.49v1.34H21.59V34.91h2.53v6.35a3.89,3.89,0,0,1,3.3-1.41,4.29,4.29,0,0,1,3,1.12c1.26,1.26,1.41,3.4,1.41,5.3S31.73,50.33,30.47,51.59ZM26.75,42.1c-2.28,0-2.63,1.93-2.63,4.16s.35,4.19,2.63,4.19,2.6-2,2.6-4.19S29,42.1,26.75,42.1Z"/><path class="cls-1" d="M44.15,51.59a4.36,4.36,0,0,1-3.07,1.12,3.87,3.87,0,0,1-3.32-1.49v1.34H35.28V34.91H37.8v6.35a3.89,3.89,0,0,1,3.3-1.41,4.29,4.29,0,0,1,3,1.12c1.26,1.26,1.41,3.4,1.41,5.3S45.41,50.33,44.15,51.59ZM40.43,42.1c-2.28,0-2.63,1.93-2.63,4.16s.35,4.19,2.63,4.19,2.6-2,2.6-4.19S42.71,42.1,40.43,42.1Z"/><path class="cls-1" d="M50.82,47c0,2.16,1.14,3.52,3.2,3.52a3.75,3.75,0,0,0,3-1.29l1.61,1.51a5.89,5.89,0,0,1-4.71,2c-3.15,0-5.65-1.66-5.65-6.45,0-4.07,2.11-6.42,5.33-6.42s5.33,2.48,5.33,6V47Zm5.3-3.47a2.59,2.59,0,0,0-2.48-1.59,2.63,2.63,0,0,0-2.5,1.59,4,4,0,0,0-.32,1.71h5.65A4,4,0,0,0,56.12,43.54Z"/><path class="cls-1" d="M66.24,55.06a4.07,4.07,0,0,1-.92,1.56,3.48,3.48,0,0,1-2.58.92h-1V55.26h.65c1.07,0,1.44-.32,1.81-1.34l.69-2L60.49,40h2.68l3,8.85L69.09,40h2.7Z"/></svg>