<svg id="Layer_1" data-name="Layer 1" xmlns="http://www.w3.org/2000/svg" viewBox="0 0 202 68"><defs><style>.cls-1{fill:#00447c;}</style></defs><title>kirkstallAbbey-logo</title><path class="cls-1" d="M19.18,32.39l-5-8.7-3,3.57v5.13H8.57V14.74h2.68v8.87l7.21-8.87h3.27L16,21.66l6.32,10.73Z"/><path class="cls-1" d="M24.49,17.35V14.67h2.68v2.68Zm.07,15V19.83h2.53V32.39Z"/><path class="cls-1" d="M38,22.78a2.33,2.33,0,0,0-1.88-.84,2.59,2.59,0,0,0-2.5,2.83v7.63H31.08V19.83h2.48v1.36a4.17,4.17,0,0,1,3.35-1.51,3.89,3.89,0,0,1,3,1.19Z"/><path class="cls-1" d="M49.85,32.39l-3.52-5.8L44.47,28.7v3.69H41.94V14.74h2.53V25.63l4.88-5.8h3.07l-4.36,4.93L53,32.39Z"/><path class="cls-1" d="M59.57,32.54a6.91,6.91,0,0,1-5.28-1.81l1.66-1.66a4.87,4.87,0,0,0,3.62,1.31c1.54,0,2.75-.55,2.75-1.74,0-.84-.47-1.39-1.68-1.49l-2-.17c-2.36-.2-3.72-1.26-3.72-3.47,0-2.45,2.11-3.84,4.74-3.84a6.89,6.89,0,0,1,4.66,1.41L62.72,22.7a4.75,4.75,0,0,0-3.1-.92c-1.51,0-2.28.67-2.28,1.61,0,.74.4,1.31,1.74,1.44l2,.17c2.36.2,3.74,1.31,3.74,3.54C64.8,31.18,62.57,32.54,59.57,32.54Z"/><path class="cls-1" d="M71.59,32.39a3.27,3.27,0,0,1-3.44-3.5V22H66.71V20h1.44V16.23h2.53V20H73.1V22H70.67v6.79a1.28,1.28,0,0,0,1.39,1.46h1v2.16Z"/><path class="cls-1" d="M83.07,32.39V31.25a4.13,4.13,0,0,1-3.35,1.29,4.44,4.44,0,0,1-3.37-1.14,3.86,3.86,0,0,1-1-2.7c0-2.11,1.46-3.62,4.34-3.62H83v-.89c0-1.59-.79-2.35-2.75-2.35A2.94,2.94,0,0,0,77.52,23l-1.66-1.56c1.19-1.39,2.43-1.81,4.51-1.81,3.45,0,5.18,1.46,5.18,4.31v8.4Zm0-5.55H80.07c-1.49,0-2.26.67-2.26,1.81s.72,1.78,2.31,1.78a3,3,0,0,0,2.35-.72A2.52,2.52,0,0,0,83,27.86Z"/><path class="cls-1" d="M92.79,32.39a3.2,3.2,0,0,1-3.45-3.47V14.74h2.53v14c0,1,.35,1.46,1.36,1.46h1.11v2.16Z"/><path class="cls-1" d="M100.47,32.39A3.2,3.2,0,0,1,97,28.92V14.74h2.53v14c0,1,.35,1.46,1.36,1.46H102v2.16Z"/><path class="cls-1" d="M18.71,54.56,17.5,51h-7L9.32,54.56H6.47l6.47-17.65h2.16l6.47,17.65ZM14.08,40.9l-2.75,7.83h5.43Z"/><path class="cls-1" d="M32.62,53.59a4.35,4.35,0,0,1-3.07,1.12,3.87,3.87,0,0,1-3.32-1.49v1.34H23.75V36.91h2.53v6.35a3.89,3.89,0,0,1,3.3-1.41,4.29,4.29,0,0,1,3,1.12c1.26,1.26,1.41,3.4,1.41,5.3S33.88,52.33,32.62,53.59ZM28.9,44.1c-2.28,0-2.63,1.93-2.63,4.16s.35,4.19,2.63,4.19,2.6-2,2.6-4.19S31.18,44.1,28.9,44.1Z"/><path class="cls-1" d="M46.31,53.59a4.36,4.36,0,0,1-3.07,1.12,3.87,3.87,0,0,1-3.32-1.49v1.34H37.43V36.91H40v6.35a3.89,3.89,0,0,1,3.3-1.41,4.29,4.29,0,0,1,3,1.12c1.26,1.26,1.41,3.4,1.41,5.3S47.57,52.33,46.31,53.59ZM42.59,44.1C40.31,44.1,40,46,40,48.26s.35,4.19,2.63,4.19,2.6-2,2.6-4.19S44.87,44.1,42.59,44.1Z"/><path class="cls-1" d="M53,49c0,2.16,1.14,3.52,3.2,3.52a3.75,3.75,0,0,0,3-1.29l1.61,1.51a5.89,5.89,0,0,1-4.71,2c-3.15,0-5.65-1.66-5.65-6.45,0-4.07,2.11-6.42,5.33-6.42s5.33,2.48,5.33,6V49Zm5.3-3.47a2.59,2.59,0,0,0-2.48-1.59,2.63,2.63,0,0,0-2.5,1.59A4,4,0,0,0,53,47.25h5.65A4,4,0,0,0,58.28,45.54Z"/><path class="cls-1" d="M68.39,57.06a4.07,4.07,0,0,1-.92,1.56,3.48,3.48,0,0,1-2.58.92h-1V57.26h.65c1.07,0,1.44-.32,1.81-1.34L67,54,62.64,42h2.68l3,8.85L71.24,42h2.7Z"/></svg>