<svg id="Layer_1" data-name="Layer 1" xmlns="http://www.w3.org/2000/svg" viewBox="0 0 202 68"><defs><style>.cls-1{fill:#fff;}</style></defs><title>leedsCity-logo-w</title><path class="cls-1" d="M8.38,31V14.71h2.47V28.76h7.84V31Z"/><path class="cls-1" d="M22.91,25.86c0,2,1.05,3.24,2.95,3.24a3.46,3.46,0,0,0,2.81-1.19l1.48,1.39a5.43,5.43,0,0,1-4.34,1.8c-2.9,0-5.21-1.53-5.21-5.94,0-3.75,1.94-5.92,4.91-5.92s4.91,2.29,4.91,5.57v1Zm4.89-3.2a2.39,2.39,0,0,0-2.29-1.46,2.42,2.42,0,0,0-2.31,1.46,3.65,3.65,0,0,0-.3,1.58h5.21A3.66,3.66,0,0,0,27.8,22.66Z"/><path class="cls-1" d="M35.2,25.86c0,2,1.05,3.24,2.95,3.24A3.46,3.46,0,0,0,41,27.92l1.49,1.39a5.44,5.44,0,0,1-4.34,1.8c-2.9,0-5.21-1.53-5.21-5.94,0-3.75,1.94-5.92,4.91-5.92s4.91,2.29,4.91,5.57v1Zm4.89-3.2a2.39,2.39,0,0,0-2.29-1.46,2.42,2.42,0,0,0-2.31,1.46,3.67,3.67,0,0,0-.3,1.58h5.21A3.69,3.69,0,0,0,40.09,22.66Z"/><path class="cls-1" d="M52.43,31V29.75a3.56,3.56,0,0,1-3.06,1.37,4,4,0,0,1-2.83-1c-1.17-1.17-1.3-3.15-1.3-4.91s.14-3.72,1.3-4.89a4,4,0,0,1,2.81-1,3.58,3.58,0,0,1,3,1.3V14.71h2.33V31ZM50,21.34c-2.1,0-2.42,1.78-2.42,3.84S47.88,29,50,29s2.4-1.8,2.4-3.86S52.09,21.34,50,21.34Z"/><path class="cls-1" d="M62.14,31.12a6.37,6.37,0,0,1-4.87-1.67l1.53-1.53a4.5,4.5,0,0,0,3.34,1.21c1.42,0,2.54-.5,2.54-1.6,0-.78-.43-1.28-1.55-1.37L61.27,26c-2.17-.18-3.43-1.17-3.43-3.2,0-2.26,1.94-3.54,4.36-3.54a6.35,6.35,0,0,1,4.29,1.3L65,22a4.37,4.37,0,0,0-2.85-.85c-1.39,0-2.1.62-2.1,1.49,0,.69.37,1.21,1.6,1.33l1.83.16c2.17.18,3.45,1.21,3.45,3.27C67,29.86,64.9,31.12,62.14,31.12Z"/><path class="cls-1" d="M13.64,51.55a5.89,5.89,0,0,1-4.27-1.74c-1.6-1.6-1.58-3.4-1.58-6.53s0-4.93,1.58-6.53A5.89,5.89,0,0,1,13.64,35a5.6,5.6,0,0,1,5.8,5H16.93a3.36,3.36,0,0,0-5.69-1.8c-.8.87-1,1.8-1,5.07s.18,4.2,1,5.07a3.25,3.25,0,0,0,2.4,1A3.28,3.28,0,0,0,17,46.54h2.49A5.62,5.62,0,0,1,13.64,51.55Z"/><path class="cls-1" d="M22.37,37.54V35.07h2.47v2.47Zm.07,13.87V39.83h2.33V51.41Z"/><path class="cls-1" d="M31.89,51.41a3,3,0,0,1-3.17-3.22V41.81H27.39V40h1.33V36.51H31V40h2.24v1.78H31v6.26a1.18,1.18,0,0,0,1.28,1.35h1v2Z"/><path class="cls-1" d="M39.86,53.72A3.76,3.76,0,0,1,39,55.16a3.22,3.22,0,0,1-2.38.84h-.94V53.9h.59c1,0,1.33-.3,1.67-1.23l.64-1.8-4-11H37L39.8,48l2.7-8.16H45Z"/><path class="cls-1" d="M64.52,51.41V40.53l-3.75,7.93H58.94L55.1,40.53V51.41H52.64V35.14H55.1l4.75,10.12,4.66-10.12H67V51.41Z"/><path class="cls-1" d="M77.9,51.41V50.24a4.14,4.14,0,0,1-3.08,1.3A4,4,0,0,1,72,50.49a4.25,4.25,0,0,1-1.16-3.27v-7.4h2.33v7.06c0,1.81,1,2.58,2.33,2.58a2.31,2.31,0,0,0,2.4-2.58V39.83h2.33V51.41Z"/><path class="cls-1" d="M87.61,51.55a6.37,6.37,0,0,1-4.87-1.67l1.53-1.53a4.49,4.49,0,0,0,3.34,1.21c1.42,0,2.54-.5,2.54-1.6,0-.78-.44-1.28-1.55-1.37l-1.85-.16c-2.17-.18-3.43-1.16-3.43-3.2,0-2.26,1.94-3.54,4.36-3.54A6.35,6.35,0,0,1,92,41l-1.46,1.49a4.37,4.37,0,0,0-2.86-.85c-1.39,0-2.1.62-2.1,1.49,0,.69.37,1.21,1.6,1.33L89,44.6c2.17.18,3.45,1.21,3.45,3.27C92.43,50.29,90.38,51.55,87.61,51.55Z"/><path class="cls-1" d="M97,46.29c0,2,1.05,3.24,2.95,3.24a3.46,3.46,0,0,0,2.81-1.19l1.49,1.39a5.44,5.44,0,0,1-4.34,1.81c-2.9,0-5.21-1.53-5.21-5.94,0-3.75,1.94-5.92,4.91-5.92s4.91,2.28,4.91,5.58v1Zm4.89-3.2a2.39,2.39,0,0,0-2.28-1.46,2.42,2.42,0,0,0-2.31,1.46,3.65,3.65,0,0,0-.3,1.58h5.21A3.64,3.64,0,0,0,101.84,43.09Z"/><path class="cls-1" d="M114.52,51.41V50.24a4.15,4.15,0,0,1-3.08,1.3,4,4,0,0,1-2.86-1.05,4.25,4.25,0,0,1-1.16-3.27v-7.4h2.33v7.06c0,1.81,1,2.58,2.33,2.58a2.31,2.31,0,0,0,2.4-2.58V39.83h2.33V51.41Z"/><path class="cls-1" d="M134.61,51.41V44.35c0-1.81-1-2.58-2.33-2.58a2.29,2.29,0,0,0-2.4,2.47v7.17h-2.33V44.35c0-1.81-1-2.58-2.33-2.58a2.31,2.31,0,0,0-2.4,2.58v7.06h-2.33V39.83h2.28V41a4.19,4.19,0,0,1,3.08-1.3,3.7,3.7,0,0,1,3.29,1.69,4.4,4.4,0,0,1,3.63-1.69,4.19,4.19,0,0,1,2.92,1.05A4.3,4.3,0,0,1,136.94,44v7.4Z"/></svg>