<?xml version="1.0" encoding="utf-8"?>
<!-- Generator: Adobe Illustrator 15.1.0, SVG Export Plug-In . SVG Version: 6.00 Build 0)  -->
<!DOCTYPE svg PUBLIC "-//W3C//DTD SVG 1.1//EN" "http://www.w3.org/Graphics/SVG/1.1/DTD/svg11.dtd">
<svg version="1.1" id="Layer_1" xmlns="http://www.w3.org/2000/svg" xmlns:xlink="http://www.w3.org/1999/xlink" x="0px" y="0px"
	 width="221px" height="213px" viewBox="-2.66 0.819 221 213" enable-background="new -2.66 0.819 221 213" xml:space="preserve">
<g>
	<g>
		<defs>
			<polyline id="SVGID_1_" points="224.018,-186.869 -100.331,-186.869 -100.331,267.13 224.018,267.13 			"/>
		</defs>
		<clipPath id="SVGID_2_">
			<use xlink:href="#SVGID_1_"  overflow="visible"/>
		</clipPath>
	</g>
	<g>
		<defs>
			<polyline id="SVGID_3_" points="224.018,-186.869 -100.331,-186.869 -100.331,267.13 224.018,267.13 			"/>
		</defs>
		<clipPath id="SVGID_4_">
			<use xlink:href="#SVGID_3_"  overflow="visible"/>
		</clipPath>
	</g>
	<g>
		<defs>
			<polyline id="SVGID_5_" points="224.018,-186.869 -100.331,-186.869 -100.331,267.13 224.018,267.13 			"/>
		</defs>
		<clipPath id="SVGID_6_">
			<use xlink:href="#SVGID_5_"  overflow="visible"/>
		</clipPath>
	</g>
	<g>
		<defs>
			<polyline id="SVGID_7_" points="224.018,-186.869 -100.331,-186.869 -100.331,267.13 224.018,267.13 			"/>
		</defs>
		<clipPath id="SVGID_8_">
			<use xlink:href="#SVGID_7_"  overflow="visible"/>
		</clipPath>
	</g>
</g>
<g>
	<path fill="#FFFFFF" d="M188.289,84.104c-0.236-0.404-0.48-0.805-0.734-1.204c-8.842-14.505-28.973-26.487-54.871-34.18
		c-0.756-0.225-12.91-3.405-16.356-4.137c-21.912-4.655-42.509-5.542-57.259-3.198c-18.211,2.903-27.822,10.546-28.57,23.518
		c-0.733,12.939,6.129,28.928,14.848,44.752c9.033,15.762,19.91,31.373,34.602,42.078c14.661,10.705,31.719,14.148,50.294,10.313
		c12.217-2.492,25.104-8.249,36.211-16.565c-16.156,15.651-35.83,31.036-48.644,36.144c-20.779,8.342-38.351,6.601-52.232-5.177
		c-15.449-13.075-24.678-35.253-30.268-50.794c-8.311-24.507-10.995-42.856-8.457-57.735c2.964-17.265,14.3-29.1,34.657-36.181
		c4.682-1.619,9.909-2.981,15.526-4.044l-0.33-1.764c-5.706,1.079-11.019,2.462-15.785,4.115
		c-21.031,7.316-32.754,19.604-35.834,37.572c-2.6,15.184,0.112,33.808,8.524,58.629c5.673,15.753,15.022,38.228,30.81,51.575
		c14.424,12.237,32.613,14.079,54.055,5.475c18.695-7.453,54.539-38.395,65.859-55.098
		C194.853,113.168,196.248,97.578,188.289,84.104z"/>
	<g>
		<path fill-rule="evenodd" clip-rule="evenodd" fill="#231F20" d="M78.77,120.207l-2.611-3.139
			c1.103-1.316,1.557-3.064,1.582-5.222h-1.725c-0.024,1.918-0.264,2.851-0.959,3.905l-4.359-5.245
			c0.408-0.288,1.27-0.862,1.27-0.862c1.079-0.743,1.893-1.676,1.893-3.042c0-2.036-1.581-3.593-3.713-3.593
			c-2.179,0-3.759,1.533-3.759,3.568c0,1.533,1.005,2.708,1.843,3.713c-1.867,1.246-3.688,2.539-3.688,5.102
			c0,2.971,2.083,4.957,5.389,4.957c2.73,0,4.335-1.363,5.029-2.012l1.533,1.869H78.77L78.77,120.207z M73.932,117.094
			c-1.461,1.317-2.754,1.652-4.023,1.652c-2.108,0-3.594-1.365-3.594-3.401c0-1.94,1.462-2.897,2.922-3.903L73.932,117.094
			L73.932,117.094z M72.159,106.602c0,0.982-0.743,1.581-1.532,2.132c0,0-0.624,0.432-0.91,0.623
			c-1.127-1.366-1.533-2.013-1.533-2.804c0-1.149,0.79-1.987,1.963-1.987C71.297,104.566,72.159,105.453,72.159,106.602
			L72.159,106.602z"/>
		<path fill="#231F20" d="M95.37,113.978v-2.705h-6.013v1.604h4.191v1.293c0,1.317-0.263,2.253-0.957,3.089
			c-0.791,0.959-1.989,1.462-3.234,1.462c-1.126,0-2.203-0.431-2.945-1.197c-1.078-1.101-1.198-2.275-1.198-5.845
			c0-3.568,0.12-4.718,1.198-5.82c0.742-0.766,1.819-1.221,2.945-1.221c2.132,0,3.664,1.316,4.143,3.473h1.821
			c-0.503-2.994-2.707-5.102-5.964-5.102c-1.701,0-3.21,0.623-4.359,1.773c-1.604,1.604-1.604,3.279-1.604,6.896
			s0,5.293,1.604,6.898c1.149,1.149,2.683,1.771,4.359,1.771c1.748,0,3.354-0.67,4.551-1.963
			C94.961,117.26,95.37,115.943,95.37,113.978L95.37,113.978z"/>
		<path fill-rule="evenodd" clip-rule="evenodd" fill="#231F20" d="M107.703,120.207v-8c0-2.563-1.557-3.928-4.719-3.928
			c-1.916,0-3.113,0.383-4.167,1.748l1.175,1.078c0.693-0.982,1.46-1.342,2.969-1.342c2.156,0,3.019,0.863,3.019,2.588v1.125h-3.546
			c-2.634,0-4.071,1.342-4.071,3.4c0,0.936,0.312,1.822,0.887,2.396c0.743,0.766,1.7,1.076,3.328,1.076
			c1.581,0,2.443-0.311,3.402-1.268v1.125H107.703L107.703,120.207z M105.98,116.04c0,0.981-0.191,1.652-0.6,2.034
			c-0.742,0.721-1.629,0.791-2.634,0.791c-1.869,0-2.707-0.646-2.707-2.012s0.861-2.084,2.634-2.084h3.307V116.04L105.98,116.04z"/>
		<path fill="#231F20" d="M116.085,120.207v-1.485h-0.935c-1.197,0-1.58-0.575-1.58-1.724v-13.844h-1.725v13.914
			c0,1.797,0.934,3.139,2.994,3.139H116.085L116.085,120.207z"/>
		<path fill="#231F20" d="M123.201,120.207v-1.485h-0.936c-1.197,0-1.58-0.575-1.58-1.724v-13.844h-1.725v13.914
			c0,1.797,0.935,3.139,2.995,3.139H123.201L123.201,120.207z"/>
		<path fill-rule="evenodd" clip-rule="evenodd" fill="#231F20" d="M134.554,114.769v-0.791c0-3.495-1.797-5.699-4.838-5.699
			c-2.994,0-4.838,2.228-4.838,6.035c0,4.168,2.035,6.035,5.15,6.035c2.01,0,3.113-0.622,4.311-1.819l-1.174-1.03
			c-0.934,0.935-1.723,1.342-3.09,1.342c-2.252,0-3.473-1.486-3.473-4.072H134.554L134.554,114.769z M132.832,113.476h-6.229
			c0.049-0.957,0.098-1.317,0.359-1.965c0.455-1.076,1.508-1.771,2.754-1.771s2.301,0.695,2.754,1.771
			C132.734,112.159,132.783,112.519,132.832,113.476L132.832,113.476z"/>
		<path fill-rule="evenodd" clip-rule="evenodd" fill="#231F20" d="M146.076,109.382c-0.838-0.839-1.699-1.103-2.826-1.103
			c-1.367,0-2.658,0.599-3.307,1.58v-1.438h-1.725v11.785h1.725v-7.233c0-1.797,1.104-3.163,2.828-3.163
			c0.908,0,1.389,0.217,2.035,0.864L146.076,109.382L146.076,109.382z"/>
		<path fill-rule="evenodd" clip-rule="evenodd" fill="#231F20" d="M150.027,120.207v-11.785h-1.725v11.785H150.027L150.027,120.207
			z M150.146,105.094v-1.939h-1.941v1.939H150.146L150.146,105.094z"/>
		<path fill-rule="evenodd" clip-rule="evenodd" fill="#231F20" d="M163.39,114.769v-0.791c0-3.495-1.797-5.699-4.838-5.699
			c-2.994,0-4.84,2.228-4.84,6.035c0,4.168,2.037,6.035,5.15,6.035c2.014,0,3.115-0.622,4.311-1.819l-1.172-1.03
			c-0.934,0.935-1.727,1.342-3.092,1.342c-2.25,0-3.471-1.486-3.471-4.072H163.39L163.39,114.769z M161.666,113.476h-6.227
			c0.047-0.957,0.094-1.317,0.359-1.965c0.455-1.076,1.508-1.771,2.754-1.771c1.244,0,2.299,0.695,2.754,1.771
			C161.57,112.159,161.617,112.519,161.666,113.476L161.666,113.476z"/>
		<path fill="#231F20" d="M175.558,116.758c0-2.204-1.414-2.993-3.475-3.186l-1.891-0.168c-1.486-0.119-2.061-0.719-2.061-1.725
			c0-1.196,0.91-1.939,2.635-1.939c1.221,0,2.301,0.287,3.137,0.935l1.127-1.126c-1.055-0.862-2.563-1.27-4.24-1.27
			c-2.514,0-4.336,1.293-4.336,3.449c0,1.939,1.223,2.969,3.521,3.16l1.939,0.168c1.367,0.12,1.965,0.695,1.965,1.725
			c0,1.389-1.197,2.084-3.137,2.084c-1.461,0-2.732-0.383-3.664-1.365l-1.15,1.15c1.293,1.245,2.85,1.699,4.838,1.699
			C173.617,120.349,175.558,119.033,175.558,116.758L175.558,116.758z"/>
		<polygon fill="#231F20" points="79.776,99.018 79.776,81.965 77.955,81.965 72.542,94.06 66.985,81.965 65.166,81.965 
			65.166,99.018 66.985,99.018 66.985,86.061 71.729,96.336 73.285,96.336 77.955,86.061 77.955,99.018 79.776,99.018 		"/>
		<path fill-rule="evenodd" clip-rule="evenodd" fill="#231F20" d="M93.548,99.018V87.234h-1.725v7.257
			c0,2.06-1.173,3.137-2.947,3.137c-1.771,0-2.874-1.054-2.874-3.137v-7.257H84.28v7.521c0,1.366,0.359,2.491,1.197,3.306
			c0.719,0.719,1.772,1.102,3.041,1.102c1.317,0,2.49-0.503,3.33-1.461v1.317H93.548L93.548,99.018z"/>
		<path fill="#231F20" d="M106.365,95.57c0-2.204-1.415-2.995-3.475-3.186l-1.892-0.167c-1.484-0.12-2.061-0.719-2.061-1.725
			c0-1.197,0.91-1.94,2.636-1.94c1.222,0,2.299,0.288,3.138,0.934l1.126-1.126c-1.056-0.862-2.563-1.269-4.241-1.269
			c-2.513,0-4.334,1.293-4.334,3.449c0,1.94,1.222,2.97,3.521,3.161l1.94,0.168c1.365,0.12,1.964,0.694,1.964,1.724
			c0,1.39-1.197,2.085-3.138,2.085c-1.461,0-2.73-0.385-3.664-1.366l-1.15,1.149c1.294,1.246,2.851,1.701,4.839,1.701
			C104.424,99.162,106.365,97.844,106.365,95.57L106.365,95.57z"/>
		<path fill-rule="evenodd" clip-rule="evenodd" fill="#231F20" d="M118.774,93.581v-0.791c0-3.497-1.797-5.7-4.839-5.7
			c-2.994,0-4.839,2.228-4.839,6.036c0,4.166,2.037,6.035,5.15,6.035c2.013,0,3.115-0.623,4.313-1.82l-1.174-1.03
			c-0.935,0.935-1.725,1.342-3.09,1.342c-2.251,0-3.474-1.485-3.474-4.072H118.774L118.774,93.581z M117.05,92.288h-6.229
			c0.048-0.958,0.097-1.317,0.359-1.964c0.455-1.078,1.509-1.772,2.754-1.772s2.299,0.694,2.755,1.772
			C116.953,90.97,117.002,91.33,117.05,92.288L117.05,92.288z"/>
		<path fill-rule="evenodd" clip-rule="evenodd" fill="#231F20" d="M131.588,99.018V87.234h-1.727v7.257
			c0,2.06-1.172,3.137-2.943,3.137c-1.773,0-2.875-1.054-2.875-3.137v-7.257h-1.725v7.521c0,1.366,0.357,2.491,1.197,3.306
			c0.719,0.719,1.773,1.102,3.043,1.102c1.316,0,2.492-0.503,3.328-1.461v1.317H131.588L131.588,99.018z"/>
		<path fill-rule="evenodd" clip-rule="evenodd" fill="#231F20" d="M152.763,99.018v-7.544c0-1.365-0.432-2.467-1.271-3.282
			c-0.717-0.695-1.771-1.102-3.041-1.102c-1.652,0-2.969,0.67-3.881,1.964c-0.719-1.293-1.986-1.964-3.617-1.964
			c-1.314,0-2.49,0.479-3.328,1.437v-1.293H135.9v11.784h1.725v-7.257c0-2.06,1.174-3.138,2.947-3.138s2.896,1.055,2.896,3.138
			v7.257h1.725V91.57c0-1.869,1.221-2.947,2.945-2.947c1.773,0,2.898,1.055,2.898,3.138v7.257H152.763L152.763,99.018z"/>
		<path fill="#231F20" d="M165.457,95.57c0-2.204-1.412-2.995-3.475-3.186l-1.891-0.167c-1.486-0.12-2.061-0.719-2.061-1.725
			c0-1.197,0.91-1.94,2.637-1.94c1.219,0,2.299,0.288,3.137,0.934l1.127-1.126c-1.055-0.862-2.564-1.269-4.24-1.269
			c-2.516,0-4.336,1.293-4.336,3.449c0,1.94,1.221,2.97,3.521,3.161l1.939,0.168c1.363,0.12,1.963,0.694,1.963,1.724
			c0,1.39-1.197,2.085-3.137,2.085c-1.461,0-2.729-0.385-3.664-1.366l-1.15,1.149c1.293,1.246,2.852,1.701,4.84,1.701
			C163.515,99.162,165.457,97.844,165.457,95.57L165.457,95.57z"/>
		<polygon fill="#231F20" points="75.704,77.83 75.704,76.201 66.985,76.201 66.985,60.777 65.166,60.777 65.166,77.83 
			75.704,77.83 		"/>
		<path fill-rule="evenodd" clip-rule="evenodd" fill="#231F20" d="M87.608,72.393v-0.79c0-3.497-1.797-5.701-4.839-5.701
			c-2.993,0-4.838,2.228-4.838,6.036c0,4.167,2.036,6.035,5.149,6.035c2.012,0,3.113-0.623,4.312-1.82l-1.173-1.029
			c-0.935,0.934-1.725,1.34-3.091,1.34c-2.251,0-3.472-1.484-3.472-4.071H87.608L87.608,72.393z M85.883,71.1h-6.227
			c0.047-0.958,0.095-1.317,0.357-1.964c0.456-1.078,1.51-1.772,2.755-1.772c1.246,0,2.3,0.694,2.755,1.772
			C85.787,69.782,85.834,70.141,85.883,71.1L85.883,71.1z"/>
		<path fill-rule="evenodd" clip-rule="evenodd" fill="#231F20" d="M100.302,72.393v-0.79c0-3.497-1.796-5.701-4.839-5.701
			c-2.994,0-4.838,2.228-4.838,6.036c0,4.167,2.036,6.035,5.149,6.035c2.012,0,3.114-0.623,4.312-1.82l-1.174-1.029
			c-0.935,0.934-1.725,1.34-3.09,1.34c-2.251,0-3.473-1.484-3.473-4.071H100.302L100.302,72.393z M98.576,71.1H92.35
			c0.047-0.958,0.096-1.317,0.359-1.964c0.454-1.078,1.508-1.772,2.754-1.772s2.3,0.694,2.756,1.772
			C98.481,69.782,98.528,70.141,98.576,71.1L98.576,71.1z"/>
		<path fill-rule="evenodd" clip-rule="evenodd" fill="#231F20" d="M112.709,77.83V60.777h-1.725v6.635
			c-0.959-1.221-2.036-1.509-3.33-1.509c-1.197,0-2.251,0.407-2.874,1.03c-1.197,1.198-1.437,3.162-1.437,5.006
			c0,1.844,0.239,3.808,1.437,5.005c0.623,0.623,1.677,1.03,2.874,1.03c1.294,0,2.395-0.311,3.353-1.557v1.414H112.709
			L112.709,77.83z M110.985,71.938c0,2.299-0.385,4.503-2.947,4.503s-2.969-2.204-2.969-4.503c0-2.3,0.406-4.503,2.969-4.503
			S110.985,69.638,110.985,71.938L110.985,71.938z"/>
		<path fill="#231F20" d="M125.521,74.381c0-2.204-1.412-2.994-3.473-3.186l-1.893-0.167c-1.483-0.12-2.059-0.719-2.059-1.725
			c0-1.198,0.91-1.94,2.633-1.94c1.223,0,2.301,0.288,3.139,0.935l1.125-1.125c-1.053-0.863-2.563-1.27-4.238-1.27
			c-2.515,0-4.335,1.293-4.335,3.449c0,1.94,1.221,2.97,3.521,3.161l1.939,0.168c1.367,0.12,1.965,0.695,1.965,1.725
			c0,1.389-1.197,2.083-3.139,2.083c-1.46,0-2.73-0.383-3.664-1.365l-1.151,1.149c1.295,1.246,2.853,1.701,4.838,1.701
			C123.582,77.973,125.521,76.656,125.521,74.381L125.521,74.381z"/>
	</g>
</g>
</svg>
