<svg id="Layer_1" data-name="Layer 1" xmlns="http://www.w3.org/2000/svg" viewBox="0 0 555.44 97.88"><defs><style>.cls-1{fill:#d0c7a7;}</style></defs><title>Lotherton_Logo_</title><path class="cls-1" d="M95.89,192.87H144v-9.65H113.12V96.37l-17.23,4.91ZM198.18,162.4c0,15.72-6.76,23.44-16.27,23.44-11.17,0-17.51-12.68-17.51-32,0-15.72,6.76-23.3,16.13-23.3,11.31,0,17.65,12.68,17.65,31.84M215.68,157c0-21.92-15.85-34.88-34.33-34.88-20.54,0-34.46,16.82-34.46,37.08,0,21.92,15.72,35,34.33,35,20.54,0,34.46-16.82,34.46-37.22m33-24.12h19.71v-9.37H248.73V103.4L233,107.88v15.64H219.78v9.37H233v60h15.72Zm71.42,60h15.58V145.44c0-15.72-8.13-23.3-19.58-23.3-9.92,0-17.51,5.1-23.3,13.1V96.37l-15.58,4.44v92.06h15.58V138a29.44,29.44,0,0,1,13.65-3.72c9,0,13.65,5.38,13.65,16.54Zm68.28-43.7h-28c1-13.23,8.41-18.89,15.44-18.89,6.75,0,12.82,4.69,12.54,18.89m16.41-2.07a19.47,19.47,0,0,0,.14-2.76c-.41-13.23-11.72-22.19-26.74-22.19-20.27,0-32.95,17-32.95,37.08,0,20.82,14.48,35,32.54,35,14.33,0,25.64-8.69,26.6-21.23-4.69,4.82-12.13,7.86-20.26,7.86-10.48,0-20.82-6.48-23.3-21.23Zm27.26-7.58h26.05V122.7a14.23,14.23,0,0,0-2.48-.14c-11,0-19,6.62-23.57,14.75V122.56L416.52,127v65.86H432.1ZM494,132.9h19.72v-9.37H494V103.4l-15.72,4.48v15.64H465.07v9.37H478.3v60H494Zm71.81,29.5c0,15.72-6.76,23.44-16.27,23.44-11.17,0-17.51-12.68-17.51-32,0-15.72,6.75-23.3,16.13-23.3,11.3,0,17.65,12.68,17.65,31.84M583.33,157c0-21.92-15.85-34.88-34.33-34.88-20.54,0-34.46,16.82-34.46,37.08,0,21.92,15.72,35,34.33,35,20.54,0,34.46-16.82,34.46-37.22m68,35.84V145.44c0-15.72-8.13-23.3-19.58-23.3-9.92,0-17.51,5.1-23.3,13.1V122.56L592.88,127v65.86h15.58V138a29.45,29.45,0,0,1,13.65-3.72c9,0,13.65,5.38,13.65,16.54v42Z" transform="translate(-95.89 -96.37)"/></svg>