<svg id="Layer_1" data-name="Layer 1" xmlns="http://www.w3.org/2000/svg" viewBox="0 0 202 68"><defs><style>.cls-1,.cls-2{fill:#fff;}.cls-1{fill-rule:evenodd;}</style></defs><title>museums-logo-w</title><path class="cls-1" d="M20.74,63.51l-2.61-3.14a8,8,0,0,0,1.58-5.22H18a6.35,6.35,0,0,1-1,3.91l-4.36-5.25c.41-.29,1.27-.86,1.27-.86a3.67,3.67,0,0,0,1.89-3,3.57,3.57,0,0,0-3.71-3.59,3.56,3.56,0,0,0-3.76,3.57,6,6,0,0,0,1.84,3.71c-1.87,1.25-3.69,2.54-3.69,5.1,0,3,2.08,5,5.39,5a7.11,7.11,0,0,0,5-2l1.53,1.87ZM15.9,60.39a5.65,5.65,0,0,1-4,1.65,3.34,3.34,0,0,1-3.59-3.4c0-1.94,1.46-2.9,2.92-3.9l4.7,5.65ZM14.13,49.9c0,1-.74,1.58-1.53,2.13l-.91.62c-1.13-1.37-1.53-2-1.53-2.8a1.89,1.89,0,0,1,2-2,2,2,0,0,1,2,2Z"/><path class="cls-2" d="M37.34,57.28V54.57h-6v1.6h4.19v1.29a4.47,4.47,0,0,1-1,3.09A4.16,4.16,0,0,1,31.32,62a4.1,4.1,0,0,1-2.95-1.2c-1.08-1.1-1.2-2.28-1.2-5.84s.12-4.72,1.2-5.82a4.19,4.19,0,0,1,7.09,2.25h1.82a5.81,5.81,0,0,0-6-5.1A6,6,0,0,0,27,48.08c-1.6,1.6-1.6,3.28-1.6,6.9s0,5.29,1.6,6.9a6.25,6.25,0,0,0,8.91-.19,5.9,5.9,0,0,0,1.46-4.41Z"/><path class="cls-1" d="M49.67,63.51v-8c0-2.56-1.56-3.93-4.72-3.93-1.92,0-3.11.38-4.17,1.75L42,54.4a3.09,3.09,0,0,1,3-1.34c2.16,0,3,.86,3,2.59v1.13H44.4c-2.63,0-4.07,1.34-4.07,3.4a3.4,3.4,0,0,0,.89,2.4,4.2,4.2,0,0,0,3.33,1.08,4.14,4.14,0,0,0,3.4-1.27v1.13Zm-1.72-4.17a2.71,2.71,0,0,1-.6,2,3.44,3.44,0,0,1-2.63.79c-1.87,0-2.71-.65-2.71-2s.86-2.08,2.63-2.08h3.31v1.27Z"/><path class="cls-2" d="M58.05,63.51V62h-.93c-1.2,0-1.58-.57-1.58-1.72V46.45H53.81V60.37a2.81,2.81,0,0,0,3,3.14Z"/><path class="cls-2" d="M65.17,63.51V62h-.93c-1.2,0-1.58-.57-1.58-1.72V46.45H60.93V60.37a2.81,2.81,0,0,0,3,3.14Z"/><path class="cls-1" d="M76.52,58.07v-.79c0-3.5-1.8-5.7-4.84-5.7s-4.84,2.23-4.84,6c0,4.17,2,6,5.15,6a5.4,5.4,0,0,0,4.31-1.82l-1.17-1A3.87,3.87,0,0,1,72,62.14c-2.25,0-3.47-1.49-3.47-4.07ZM74.8,56.78H68.57a5,5,0,0,1,.36-2,3,3,0,0,1,5.51,0,5,5,0,0,1,.36,2Z"/><path class="cls-1" d="M88,52.68a3.63,3.63,0,0,0-2.83-1.1,4,4,0,0,0-3.31,1.58V51.72H80.18V63.51h1.72V56.27a2.88,2.88,0,0,1,2.83-3.16,2.46,2.46,0,0,1,2,.86L88,52.68Z"/><path class="cls-1" d="M92,63.51V51.72H90.27V63.51Zm.12-15.11V46.45H90.17v1.94Z"/><path class="cls-1" d="M105.36,58.07v-.79c0-3.5-1.8-5.7-4.84-5.7s-4.84,2.23-4.84,6c0,4.17,2,6,5.15,6a5.39,5.39,0,0,0,4.31-1.82l-1.17-1a3.87,3.87,0,0,1-3.09,1.34c-2.25,0-3.47-1.49-3.47-4.07Zm-1.72-1.29H97.4a4.94,4.94,0,0,1,.36-2,3,3,0,0,1,5.51,0,5,5,0,0,1,.36,2Z"/><path class="cls-2" d="M117.52,60.06c0-2.2-1.41-3-3.47-3.19l-1.89-.17c-1.49-.12-2.06-.72-2.06-1.72,0-1.2.91-1.94,2.63-1.94a5,5,0,0,1,3.14.93L117,52.85a6.67,6.67,0,0,0-4.24-1.27c-2.51,0-4.33,1.29-4.33,3.45,0,1.94,1.22,3,3.52,3.16l1.94.17c1.37.12,2,.7,2,1.72,0,1.39-1.2,2.08-3.14,2.08A4.82,4.82,0,0,1,109,60.8l-1.15,1.15a6.5,6.5,0,0,0,4.84,1.7c2.85,0,4.79-1.32,4.79-3.59Z"/><polygon class="cls-2" points="21.74 42.32 21.74 25.26 19.92 25.26 14.51 37.36 8.95 25.26 7.13 25.26 7.13 42.32 8.95 42.32 8.95 29.36 13.69 39.63 15.25 39.63 19.92 29.36 19.92 42.32 21.74 42.32 21.74 42.32"/><path class="cls-1" d="M35.51,42.32V30.53H33.79v7.26c0,2.06-1.17,3.14-2.95,3.14S28,39.87,28,37.79V30.53H26.25v7.52a4.4,4.4,0,0,0,1.2,3.31,4.19,4.19,0,0,0,3,1.1A4.32,4.32,0,0,0,33.81,41v1.32Z"/><path class="cls-2" d="M48.33,38.87c0-2.2-1.41-3-3.47-3.19L43,35.52c-1.48-.12-2.06-.72-2.06-1.73,0-1.2.91-1.94,2.64-1.94a5,5,0,0,1,3.14.93l1.13-1.13a6.67,6.67,0,0,0-4.24-1.27c-2.51,0-4.33,1.29-4.33,3.45,0,1.94,1.22,3,3.52,3.16l1.94.17c1.37.12,2,.69,2,1.72,0,1.39-1.2,2.08-3.14,2.08a4.82,4.82,0,0,1-3.66-1.37L38.7,40.76a6.5,6.5,0,0,0,4.84,1.7c2.85,0,4.79-1.32,4.79-3.59Z"/><path class="cls-1" d="M60.74,36.88v-.79c0-3.5-1.8-5.7-4.84-5.7s-4.84,2.23-4.84,6c0,4.17,2,6,5.15,6a5.4,5.4,0,0,0,4.31-1.82l-1.17-1A3.87,3.87,0,0,1,56.26,41c-2.25,0-3.47-1.48-3.47-4.07ZM59,35.59H52.79a5,5,0,0,1,.36-2,3,3,0,0,1,5.51,0,5,5,0,0,1,.36,2Z"/><path class="cls-1" d="M73.55,42.32V30.53H71.83v7.26c0,2.06-1.17,3.14-2.94,3.14S66,39.87,66,37.79V30.53H64.28v7.52a4.39,4.39,0,0,0,1.2,3.31,4.19,4.19,0,0,0,3,1.1A4.32,4.32,0,0,0,71.85,41v1.32Z"/><path class="cls-1" d="M94.73,42.32V34.77a4.38,4.38,0,0,0-1.27-3.28,4.29,4.29,0,0,0-3-1.1,4.51,4.51,0,0,0-3.88,2,3.88,3.88,0,0,0-3.62-2,4.3,4.3,0,0,0-3.33,1.44V30.53H77.87V42.32h1.72V35.06c0-2.06,1.17-3.14,2.95-3.14s2.9,1.05,2.9,3.14v7.26h1.73V34.87a2.75,2.75,0,0,1,2.95-2.95c1.77,0,2.9,1.05,2.9,3.14v7.26Z"/><path class="cls-2" d="M107.42,38.87c0-2.2-1.41-3-3.47-3.19l-1.89-.17c-1.49-.12-2.06-.72-2.06-1.73,0-1.2.91-1.94,2.64-1.94a5,5,0,0,1,3.14.93l1.13-1.13a6.67,6.67,0,0,0-4.24-1.27c-2.52,0-4.33,1.29-4.33,3.45,0,1.94,1.22,3,3.52,3.16l1.94.17c1.36.12,2,.69,2,1.72,0,1.39-1.2,2.08-3.14,2.08a4.82,4.82,0,0,1-3.66-1.37l-1.15,1.15a6.49,6.49,0,0,0,4.84,1.7c2.85,0,4.79-1.32,4.79-3.59Z"/><polygon class="cls-2" points="17.67 21.13 17.67 19.5 8.95 19.5 8.95 4.08 7.13 4.08 7.13 21.13 17.67 21.13 17.67 21.13"/><path class="cls-1" d="M29.57,15.69V14.9c0-3.5-1.8-5.7-4.84-5.7s-4.84,2.23-4.84,6c0,4.17,2,6,5.15,6a5.4,5.4,0,0,0,4.31-1.82l-1.17-1a3.87,3.87,0,0,1-3.09,1.34c-2.25,0-3.47-1.48-3.47-4.07ZM27.85,14.4H21.62a5,5,0,0,1,.36-2,3,3,0,0,1,5.51,0,5,5,0,0,1,.36,2Z"/><path class="cls-1" d="M42.27,15.69V14.9c0-3.5-1.8-5.7-4.84-5.7s-4.84,2.23-4.84,6c0,4.17,2,6,5.15,6a5.4,5.4,0,0,0,4.31-1.82l-1.17-1a3.87,3.87,0,0,1-3.09,1.34c-2.25,0-3.47-1.48-3.47-4.07ZM40.54,14.4H34.32a4.94,4.94,0,0,1,.36-2,3,3,0,0,1,5.51,0,5,5,0,0,1,.36,2Z"/><path class="cls-1" d="M54.67,21.13V4.08H53v6.63A3.79,3.79,0,0,0,49.62,9.2a4.11,4.11,0,0,0-2.87,1c-1.2,1.2-1.44,3.16-1.44,5s.24,3.81,1.44,5a4.1,4.1,0,0,0,2.87,1A3.81,3.81,0,0,0,53,19.72v1.41ZM53,15.24c0,2.3-.38,4.5-2.95,4.5s-3-2.2-3-4.5.41-4.5,3-4.5S53,12.94,53,15.24Z"/><path class="cls-2" d="M67.49,17.68c0-2.2-1.41-3-3.47-3.19l-1.89-.17c-1.48-.12-2.06-.72-2.06-1.72,0-1.2.91-1.94,2.63-1.94a5,5,0,0,1,3.14.93L67,10.47A6.66,6.66,0,0,0,62.72,9.2c-2.51,0-4.34,1.29-4.34,3.45,0,1.94,1.22,3,3.52,3.16l1.94.17c1.37.12,2,.69,2,1.72,0,1.39-1.2,2.08-3.14,2.08A4.82,4.82,0,0,1,59,18.42l-1.15,1.15a6.5,6.5,0,0,0,4.84,1.7c2.85,0,4.79-1.32,4.79-3.59Z"/></svg>