<svg id="Layer_1" data-name="Layer 1" xmlns="http://www.w3.org/2000/svg" viewBox="0 0 202 68"><defs><style>.cls-1,.cls-2{fill:#c3102f;}.cls-1{fill-rule:evenodd;}</style></defs><title>museum-logo</title><path class="cls-1" d="M16.74,62.51l-2.61-3.14a8,8,0,0,0,1.58-5.22H14a6.35,6.35,0,0,1-1,3.91L8.66,52.81c.41-.29,1.27-.86,1.27-.86a3.67,3.67,0,0,0,1.89-3,3.57,3.57,0,0,0-3.71-3.59,3.56,3.56,0,0,0-3.76,3.57A6,6,0,0,0,6.2,52.59c-1.87,1.25-3.69,2.54-3.69,5.1,0,3,2.08,5,5.39,5a7.11,7.11,0,0,0,5-2l1.53,1.87ZM11.9,59.39a5.65,5.65,0,0,1-4,1.65,3.34,3.34,0,0,1-3.59-3.4c0-1.94,1.46-2.9,2.92-3.9l4.7,5.65ZM10.13,48.9c0,1-.74,1.58-1.53,2.13l-.91.62c-1.13-1.37-1.53-2-1.53-2.8a1.89,1.89,0,0,1,2-2,2,2,0,0,1,2,2Z"/><path class="cls-2" d="M33.34,56.28V53.57h-6v1.6h4.19v1.29a4.47,4.47,0,0,1-1,3.09A4.16,4.16,0,0,1,27.32,61a4.1,4.1,0,0,1-2.95-1.2c-1.08-1.1-1.2-2.28-1.2-5.84s.12-4.72,1.2-5.82a4.19,4.19,0,0,1,7.09,2.25h1.82a5.81,5.81,0,0,0-6-5.1A6,6,0,0,0,23,47.08c-1.6,1.6-1.6,3.28-1.6,6.9s0,5.29,1.6,6.9a6.25,6.25,0,0,0,8.91-.19,5.9,5.9,0,0,0,1.46-4.41Z"/><path class="cls-1" d="M45.67,62.51v-8c0-2.56-1.56-3.93-4.72-3.93-1.92,0-3.11.38-4.17,1.75L38,53.4a3.09,3.09,0,0,1,3-1.34c2.16,0,3,.86,3,2.59v1.13H40.4c-2.63,0-4.07,1.34-4.07,3.4a3.4,3.4,0,0,0,.89,2.4,4.2,4.2,0,0,0,3.33,1.08,4.14,4.14,0,0,0,3.4-1.27v1.13Zm-1.72-4.17a2.71,2.71,0,0,1-.6,2,3.44,3.44,0,0,1-2.63.79c-1.87,0-2.71-.65-2.71-2s.86-2.08,2.63-2.08h3.31v1.27Z"/><path class="cls-2" d="M54.05,62.51V61h-.93c-1.2,0-1.58-.57-1.58-1.72V45.45H49.81V59.37a2.81,2.81,0,0,0,3,3.14Z"/><path class="cls-2" d="M61.17,62.51V61h-.93c-1.2,0-1.58-.57-1.58-1.72V45.45H56.93V59.37a2.81,2.81,0,0,0,3,3.14Z"/><path class="cls-1" d="M72.52,57.07v-.79c0-3.5-1.8-5.7-4.84-5.7s-4.84,2.23-4.84,6c0,4.17,2,6,5.15,6a5.4,5.4,0,0,0,4.31-1.82l-1.17-1A3.87,3.87,0,0,1,68,61.14c-2.25,0-3.47-1.49-3.47-4.07ZM70.8,55.78H64.57a5,5,0,0,1,.36-2,3,3,0,0,1,5.51,0,5,5,0,0,1,.36,2Z"/><path class="cls-1" d="M84,51.68a3.63,3.63,0,0,0-2.83-1.1,4,4,0,0,0-3.31,1.58V50.72H76.18V62.51h1.72V55.27a2.88,2.88,0,0,1,2.83-3.16,2.46,2.46,0,0,1,2,.86L84,51.68Z"/><path class="cls-1" d="M88,62.51V50.72H86.27V62.51Zm.12-15.11V45.45H86.17v1.94Z"/><path class="cls-1" d="M101.36,57.07v-.79c0-3.5-1.8-5.7-4.84-5.7s-4.84,2.23-4.84,6c0,4.17,2,6,5.15,6a5.39,5.39,0,0,0,4.31-1.82l-1.17-1a3.87,3.87,0,0,1-3.09,1.34c-2.25,0-3.47-1.49-3.47-4.07Zm-1.72-1.29H93.4a4.94,4.94,0,0,1,.36-2,3,3,0,0,1,5.51,0,5,5,0,0,1,.36,2Z"/><path class="cls-2" d="M113.52,59.06c0-2.2-1.41-3-3.47-3.19l-1.89-.17c-1.49-.12-2.06-.72-2.06-1.72,0-1.2.91-1.94,2.63-1.94a5,5,0,0,1,3.14.93L113,51.85a6.67,6.67,0,0,0-4.24-1.27c-2.51,0-4.33,1.29-4.33,3.45,0,1.94,1.22,3,3.52,3.16l1.94.17c1.37.12,2,.7,2,1.72,0,1.39-1.2,2.08-3.14,2.08A4.82,4.82,0,0,1,105,59.8l-1.15,1.15a6.5,6.5,0,0,0,4.84,1.7c2.85,0,4.79-1.32,4.79-3.59Z"/><polygon class="cls-2" points="17.74 41.32 17.74 24.26 15.92 24.26 10.51 36.36 4.95 24.26 3.13 24.26 3.13 41.32 4.95 41.32 4.95 28.36 9.69 38.63 11.25 38.63 15.92 28.36 15.92 41.32 17.74 41.32 17.74 41.32"/><path class="cls-1" d="M31.51,41.32V29.53H29.79v7.26c0,2.06-1.17,3.14-2.95,3.14S24,38.87,24,36.79V29.53H22.25v7.52a4.4,4.4,0,0,0,1.2,3.31,4.19,4.19,0,0,0,3,1.1A4.32,4.32,0,0,0,29.81,40v1.32Z"/><path class="cls-2" d="M44.33,37.87c0-2.2-1.41-3-3.47-3.19L39,34.52c-1.48-.12-2.06-.72-2.06-1.73,0-1.2.91-1.94,2.64-1.94a5,5,0,0,1,3.14.93l1.13-1.13a6.67,6.67,0,0,0-4.24-1.27c-2.51,0-4.33,1.29-4.33,3.45,0,1.94,1.22,3,3.52,3.16l1.94.17c1.37.12,2,.69,2,1.72,0,1.39-1.2,2.08-3.14,2.08a4.82,4.82,0,0,1-3.66-1.37L34.7,39.76a6.5,6.5,0,0,0,4.84,1.7c2.85,0,4.79-1.32,4.79-3.59Z"/><path class="cls-1" d="M56.74,35.88v-.79c0-3.5-1.8-5.7-4.84-5.7s-4.84,2.23-4.84,6c0,4.17,2,6,5.15,6a5.4,5.4,0,0,0,4.31-1.82l-1.17-1A3.87,3.87,0,0,1,52.26,40c-2.25,0-3.47-1.48-3.47-4.07ZM55,34.59H48.79a5,5,0,0,1,.36-2,3,3,0,0,1,5.51,0,5,5,0,0,1,.36,2Z"/><path class="cls-1" d="M69.55,41.32V29.53H67.83v7.26c0,2.06-1.17,3.14-2.94,3.14S62,38.87,62,36.79V29.53H60.28v7.52a4.39,4.39,0,0,0,1.2,3.31,4.19,4.19,0,0,0,3,1.1A4.32,4.32,0,0,0,67.85,40v1.32Z"/><path class="cls-1" d="M90.73,41.32V33.77a4.38,4.38,0,0,0-1.27-3.28,4.29,4.29,0,0,0-3-1.1,4.51,4.51,0,0,0-3.88,2,3.88,3.88,0,0,0-3.62-2,4.3,4.3,0,0,0-3.33,1.44V29.53H73.87V41.32h1.72V34.06c0-2.06,1.17-3.14,2.95-3.14s2.9,1.05,2.9,3.14v7.26h1.73V33.87a2.75,2.75,0,0,1,2.95-2.95c1.77,0,2.9,1.05,2.9,3.14v7.26Z"/><path class="cls-2" d="M103.42,37.87c0-2.2-1.41-3-3.47-3.19l-1.89-.17C96.57,34.4,96,33.8,96,32.79c0-1.2.91-1.94,2.64-1.94a5,5,0,0,1,3.14.93l1.13-1.13a6.67,6.67,0,0,0-4.24-1.27c-2.52,0-4.33,1.29-4.33,3.45,0,1.94,1.22,3,3.52,3.16l1.94.17c1.36.12,2,.69,2,1.72,0,1.39-1.2,2.08-3.14,2.08a4.82,4.82,0,0,1-3.66-1.37l-1.15,1.15a6.49,6.49,0,0,0,4.84,1.7c2.85,0,4.79-1.32,4.79-3.59Z"/><polygon class="cls-2" points="13.67 20.13 13.67 18.5 4.95 18.5 4.95 3.08 3.13 3.08 3.13 20.13 13.67 20.13 13.67 20.13"/><path class="cls-1" d="M25.57,14.69V13.9c0-3.5-1.8-5.7-4.84-5.7s-4.84,2.23-4.84,6c0,4.17,2,6,5.15,6a5.4,5.4,0,0,0,4.31-1.82l-1.17-1a3.87,3.87,0,0,1-3.09,1.34c-2.25,0-3.47-1.48-3.47-4.07ZM23.85,13.4H17.62a5,5,0,0,1,.36-2,3,3,0,0,1,5.51,0,5,5,0,0,1,.36,2Z"/><path class="cls-1" d="M38.27,14.69V13.9c0-3.5-1.8-5.7-4.84-5.7s-4.84,2.23-4.84,6c0,4.17,2,6,5.15,6a5.4,5.4,0,0,0,4.31-1.82l-1.17-1a3.87,3.87,0,0,1-3.09,1.34c-2.25,0-3.47-1.48-3.47-4.07ZM36.54,13.4H30.32a4.94,4.94,0,0,1,.36-2,3,3,0,0,1,5.51,0,5,5,0,0,1,.36,2Z"/><path class="cls-1" d="M50.67,20.13V3.08H49V9.71A3.79,3.79,0,0,0,45.62,8.2a4.11,4.11,0,0,0-2.87,1c-1.2,1.2-1.44,3.16-1.44,5s.24,3.81,1.44,5a4.1,4.1,0,0,0,2.87,1A3.81,3.81,0,0,0,49,18.72v1.41ZM49,14.24c0,2.3-.38,4.5-2.95,4.5s-3-2.2-3-4.5.41-4.5,3-4.5S49,11.94,49,14.24Z"/><path class="cls-2" d="M63.49,16.68c0-2.2-1.41-3-3.47-3.19l-1.89-.17c-1.48-.12-2.06-.72-2.06-1.72,0-1.2.91-1.94,2.63-1.94a5,5,0,0,1,3.14.93L63,9.47A6.66,6.66,0,0,0,58.72,8.2c-2.51,0-4.34,1.29-4.34,3.45,0,1.94,1.22,3,3.52,3.16l1.94.17c1.37.12,2,.69,2,1.72,0,1.39-1.2,2.08-3.14,2.08A4.82,4.82,0,0,1,55,17.42l-1.15,1.15a6.5,6.5,0,0,0,4.84,1.7c2.85,0,4.79-1.32,4.79-3.59Z"/></svg>