<svg id="Layer_1" data-name="Layer 1" xmlns="http://www.w3.org/2000/svg" viewBox="0 0 202 68"><defs><style>.cls-1{fill:#5c8727;}</style></defs><title>Artboard 2</title><path class="cls-1" d="M14.34,16.29v15H11.71v-15H6.93V13.92H19.12v2.37Z"/><path class="cls-1" d="M29.3,31.29V23.7A2.38,2.38,0,0,0,26.81,21,2.41,2.41,0,0,0,24.3,23.7v7.58H21.81V13.92H24.3v6.24a4.26,4.26,0,0,1,3.2-1.39c2.76,0,4.29,1.85,4.29,4.54v8Z"/><path class="cls-1" d="M47.69,31.29H45.57l-2.9-8.63-2.88,8.63H37.64L33.81,18.92h2.63l2.39,8.71,2.88-8.71h1.93l2.85,8.71,2.39-8.71h2.66Z"/><path class="cls-1" d="M60.35,31.29V30.17a4.07,4.07,0,0,1-3.29,1.27,4.37,4.37,0,0,1-3.32-1.12,3.8,3.8,0,0,1-1-2.66c0-2.07,1.44-3.56,4.27-3.56H60.3v-.88c0-1.56-.78-2.32-2.71-2.32a2.9,2.9,0,0,0-2.71,1.2l-1.63-1.54c1.17-1.37,2.39-1.78,4.44-1.78,3.39,0,5.1,1.44,5.1,4.24v8.27Zm0-5.46H57.4c-1.46,0-2.22.66-2.22,1.78s.71,1.76,2.27,1.76a3,3,0,0,0,2.32-.71,2.49,2.49,0,0,0,.54-1.83Z"/><path class="cls-1" d="M66.52,16.48V13.85h2.63v2.63Zm.07,14.8V18.92h2.49V31.29Z"/><path class="cls-1" d="M76.69,31.29a3.22,3.22,0,0,1-3.39-3.44V21H71.89v-1.9H73.3V15.39h2.49v3.76h2.39V21H75.79v6.68a1.26,1.26,0,0,0,1.37,1.44h1v2.12Z"/><path class="cls-1" d="M83.15,25.83c0,2.12,1.12,3.46,3.15,3.46a3.7,3.7,0,0,0,3-1.27l1.58,1.49a5.8,5.8,0,0,1-4.63,1.93c-3.1,0-5.56-1.63-5.56-6.34,0-4,2.07-6.32,5.24-6.32s5.24,2.44,5.24,6v1.1Zm5.22-3.41a2.55,2.55,0,0,0-2.44-1.56,2.58,2.58,0,0,0-2.46,1.56,3.92,3.92,0,0,0-.32,1.68h5.56A3.91,3.91,0,0,0,88.37,22.41Z"/><path class="cls-1" d="M113.25,31.29V19.68l-4,8.46h-2l-4.1-8.46V31.29h-2.63V13.92h2.63l5.07,10.8,5-10.8h2.63V31.29Z"/><path class="cls-1" d="M120,16.48V13.85h2.63v2.63Zm.07,14.8V18.92h2.49V31.29Z"/><path class="cls-1" d="M129.82,31.29a3.15,3.15,0,0,1-3.39-3.41v-14h2.49v13.8c0,1,.34,1.44,1.34,1.44h1.1v2.12Z"/><path class="cls-1" d="M137.38,31.29A3.15,3.15,0,0,1,134,27.88v-14h2.49v13.8c0,1,.34,1.44,1.34,1.44h1.1v2.12Z"/><path class="cls-1" d="M145.62,31.44a6.8,6.8,0,0,1-5.19-1.78L142.06,28a4.8,4.8,0,0,0,3.56,1.29c1.51,0,2.71-.54,2.71-1.71,0-.83-.46-1.37-1.66-1.46l-2-.17c-2.32-.2-3.66-1.24-3.66-3.41,0-2.41,2.07-3.78,4.66-3.78a6.78,6.78,0,0,1,4.59,1.39l-1.56,1.59a4.67,4.67,0,0,0-3-.9c-1.49,0-2.24.66-2.24,1.58,0,.73.39,1.29,1.71,1.42l2,.17c2.32.2,3.68,1.29,3.68,3.49C150.77,30.09,148.57,31.44,145.62,31.44Z"/><path class="cls-1" d="M22.64,53.1H20.34L16.81,40.93,13.29,53.1H11L6.47,35.73H9.25l3,12.42,3.49-12.42h2.12l3.49,12.42,3-12.42h2.78Z"/><path class="cls-1" d="M36.05,53.1V52a4.07,4.07,0,0,1-3.29,1.27,4.36,4.36,0,0,1-3.32-1.12,3.79,3.79,0,0,1-1-2.66c0-2.07,1.44-3.56,4.27-3.56H36V45c0-1.56-.78-2.32-2.71-2.32a2.9,2.9,0,0,0-2.71,1.19L29,42.37c1.17-1.37,2.39-1.78,4.44-1.78,3.39,0,5.1,1.44,5.1,4.24V53.1Zm0-5.46H33.1c-1.46,0-2.22.66-2.22,1.78s.71,1.76,2.27,1.76a3,3,0,0,0,2.32-.71A2.49,2.49,0,0,0,36,48.64Z"/><path class="cls-1" d="M46,53.1a3.22,3.22,0,0,1-3.39-3.44v-6.8H41.18V41h1.42V37.2h2.49V41h2.39v1.9H45.08v6.68A1.26,1.26,0,0,0,46.44,51h1V53.1Z"/><path class="cls-1" d="M52.44,47.64c0,2.12,1.12,3.46,3.15,3.46a3.69,3.69,0,0,0,3-1.27l1.59,1.49a5.8,5.8,0,0,1-4.63,1.93c-3.1,0-5.56-1.63-5.56-6.34,0-4,2.07-6.32,5.24-6.32s5.24,2.44,5.24,6v1.1Zm5.22-3.41a2.55,2.55,0,0,0-2.44-1.56,2.58,2.58,0,0,0-2.46,1.56,3.92,3.92,0,0,0-.32,1.68H58A3.92,3.92,0,0,0,57.66,44.22Z"/><path class="cls-1" d="M70.54,43.64a2.3,2.3,0,0,0-1.85-.83,2.54,2.54,0,0,0-2.46,2.78V53.1H63.74V40.73h2.44v1.34a4.1,4.1,0,0,1,3.29-1.49,3.83,3.83,0,0,1,3,1.17Z"/><path class="cls-1" d="M89.49,53.1V45.56c0-1.93-1.1-2.76-2.49-2.76a2.45,2.45,0,0,0-2.56,2.63V53.1H82V45.56c0-1.93-1.1-2.76-2.49-2.76a2.46,2.46,0,0,0-2.56,2.76V53.1H74.42V40.73h2.44V42a4.48,4.48,0,0,1,3.29-1.39,4,4,0,0,1,3.51,1.8,4.7,4.7,0,0,1,3.88-1.8,4.47,4.47,0,0,1,3.12,1.12A4.59,4.59,0,0,1,92,45.2v7.9Z"/><path class="cls-1" d="M95.71,38.3V35.66h2.63V38.3Zm.07,14.8V40.73h2.49V53.1Z"/><path class="cls-1" d="M105.52,53.1a3.15,3.15,0,0,1-3.39-3.41v-14h2.49v13.8c0,1,.34,1.44,1.34,1.44h1.1V53.1Z"/><path class="cls-1" d="M113.08,53.1a3.15,3.15,0,0,1-3.39-3.41v-14h2.49v13.8c0,1,.34,1.44,1.34,1.44h1.1V53.1Z"/></svg>