<svg id="Layer_1" data-name="Layer 1" xmlns="http://www.w3.org/2000/svg" viewBox="0 0 202 68"><defs><style>.cls-1{fill:#fff;}</style></defs><title>thwaiteMills-logo-w</title><path class="cls-1" d="M14.13,18.29v15H11.49v-15H6.71V15.92H18.91v2.37Z"/><path class="cls-1" d="M29.08,33.29V25.7A2.38,2.38,0,0,0,26.59,23a2.41,2.41,0,0,0-2.51,2.71v7.58H21.59V15.92h2.49v6.24a4.26,4.26,0,0,1,3.2-1.39c2.76,0,4.29,1.85,4.29,4.54v8Z"/><path class="cls-1" d="M47.47,33.29H45.35l-2.9-8.63-2.88,8.63H37.42L33.59,20.92h2.63l2.39,8.71,2.88-8.71h1.93l2.85,8.71,2.39-8.71h2.66Z"/><path class="cls-1" d="M60.13,33.29V32.17a4.07,4.07,0,0,1-3.29,1.27,4.37,4.37,0,0,1-3.32-1.12,3.8,3.8,0,0,1-1-2.66c0-2.07,1.44-3.56,4.27-3.56h3.27v-.88c0-1.56-.78-2.32-2.71-2.32a2.9,2.9,0,0,0-2.71,1.2L53,22.56c1.17-1.37,2.39-1.78,4.44-1.78,3.39,0,5.1,1.44,5.1,4.24v8.27Zm0-5.46h-2.9c-1.46,0-2.22.66-2.22,1.78s.71,1.76,2.27,1.76a3,3,0,0,0,2.32-.71,2.49,2.49,0,0,0,.54-1.83Z"/><path class="cls-1" d="M66.3,18.48V15.85h2.63v2.63Zm.07,14.8V20.92h2.49V33.29Z"/><path class="cls-1" d="M76.47,33.29a3.22,3.22,0,0,1-3.39-3.44V23H71.67v-1.9h1.42V17.39h2.49v3.76H78V23H75.57v6.68a1.26,1.26,0,0,0,1.37,1.44h1v2.12Z"/><path class="cls-1" d="M82.94,27.83c0,2.12,1.12,3.46,3.15,3.46a3.7,3.7,0,0,0,3-1.27l1.58,1.49A5.8,5.8,0,0,1,86,33.44c-3.1,0-5.56-1.63-5.56-6.34,0-4,2.07-6.32,5.24-6.32s5.24,2.44,5.24,6v1.1Zm5.22-3.41a2.55,2.55,0,0,0-2.44-1.56,2.58,2.58,0,0,0-2.46,1.56,3.92,3.92,0,0,0-.32,1.68H88.5A3.91,3.91,0,0,0,88.16,24.41Z"/><path class="cls-1" d="M113,33.29V21.68l-4,8.46h-2L103,21.68V33.29h-2.63V15.92H103l5.07,10.8,5-10.8h2.63V33.29Z"/><path class="cls-1" d="M119.79,18.48V15.85h2.63v2.63Zm.07,14.8V20.92h2.49V33.29Z"/><path class="cls-1" d="M129.6,33.29a3.15,3.15,0,0,1-3.39-3.41v-14h2.49v13.8c0,1,.34,1.44,1.34,1.44h1.1v2.12Z"/><path class="cls-1" d="M137.16,33.29a3.15,3.15,0,0,1-3.39-3.41v-14h2.49v13.8c0,1,.34,1.44,1.34,1.44h1.1v2.12Z"/><path class="cls-1" d="M145.4,33.44a6.8,6.8,0,0,1-5.19-1.78L141.84,30a4.8,4.8,0,0,0,3.56,1.29c1.51,0,2.71-.54,2.71-1.71,0-.83-.46-1.37-1.66-1.46l-2-.17c-2.32-.2-3.66-1.24-3.66-3.41,0-2.41,2.07-3.78,4.66-3.78a6.78,6.78,0,0,1,4.59,1.39l-1.56,1.59a4.67,4.67,0,0,0-3-.9c-1.49,0-2.24.66-2.24,1.58,0,.73.39,1.29,1.71,1.42l2,.17c2.32.2,3.68,1.29,3.68,3.49C150.55,32.09,148.35,33.44,145.4,33.44Z"/><path class="cls-1" d="M22.42,55.1H20.13L16.59,42.93,13.08,55.1H10.78L6.25,37.73H9l3,12.42,3.49-12.42h2.12l3.49,12.42,3-12.42H27Z"/><path class="cls-1" d="M35.83,55.1V54a4.07,4.07,0,0,1-3.29,1.27,4.36,4.36,0,0,1-3.32-1.12,3.79,3.79,0,0,1-1-2.66c0-2.07,1.44-3.56,4.27-3.56h3.27V47c0-1.56-.78-2.32-2.71-2.32a2.9,2.9,0,0,0-2.71,1.19l-1.63-1.54c1.17-1.37,2.39-1.78,4.44-1.78,3.39,0,5.1,1.44,5.1,4.24V55.1Zm0-5.46h-2.9c-1.46,0-2.22.66-2.22,1.78s.71,1.76,2.27,1.76a3,3,0,0,0,2.32-.71,2.49,2.49,0,0,0,.54-1.83Z"/><path class="cls-1" d="M45.76,55.1a3.22,3.22,0,0,1-3.39-3.44v-6.8H41V43h1.42V39.2h2.49V43h2.39v1.9H44.86v6.68A1.26,1.26,0,0,0,46.23,53h1V55.1Z"/><path class="cls-1" d="M52.23,49.64c0,2.12,1.12,3.46,3.15,3.46a3.69,3.69,0,0,0,3-1.27L60,53.32a5.8,5.8,0,0,1-4.63,1.93c-3.1,0-5.56-1.63-5.56-6.34,0-4,2.07-6.32,5.24-6.32s5.24,2.44,5.24,6v1.1Zm5.22-3.41A2.55,2.55,0,0,0,55,44.66a2.58,2.58,0,0,0-2.46,1.56,3.92,3.92,0,0,0-.32,1.68h5.56A3.92,3.92,0,0,0,57.45,46.22Z"/><path class="cls-1" d="M70.32,45.64a2.3,2.3,0,0,0-1.85-.83A2.54,2.54,0,0,0,66,47.59V55.1H63.52V42.73H66v1.34a4.1,4.1,0,0,1,3.29-1.49,3.83,3.83,0,0,1,3,1.17Z"/><path class="cls-1" d="M89.28,55.1V47.56c0-1.93-1.1-2.76-2.49-2.76a2.45,2.45,0,0,0-2.56,2.63V55.1H81.74V47.56c0-1.93-1.1-2.76-2.49-2.76a2.46,2.46,0,0,0-2.56,2.76V55.1H74.2V42.73h2.44V44a4.48,4.48,0,0,1,3.29-1.39,4,4,0,0,1,3.51,1.8,4.7,4.7,0,0,1,3.88-1.8,4.47,4.47,0,0,1,3.12,1.12,4.59,4.59,0,0,1,1.32,3.49v7.9Z"/><path class="cls-1" d="M95.5,40.3V37.66h2.63V40.3Zm.07,14.8V42.73h2.49V55.1Z"/><path class="cls-1" d="M105.3,55.1a3.15,3.15,0,0,1-3.39-3.41v-14h2.49v13.8c0,1,.34,1.44,1.34,1.44h1.1V55.1Z"/><path class="cls-1" d="M112.86,55.1a3.15,3.15,0,0,1-3.39-3.41v-14H112v13.8c0,1,.34,1.44,1.34,1.44h1.1V55.1Z"/></svg>