<svg id="Layer_1" data-name="Layer 1" xmlns="http://www.w3.org/2000/svg" viewBox="0 0 202 68"><defs><style>.cls-1{fill:#fff;}</style></defs><title>armleyMills-logo-w</title><path class="cls-1" d="M8.18,61.89v-.82A3,3,0,0,1,5.71,62a3,3,0,0,1-2.41-.78,2.47,2.47,0,0,1-.64-1.74C2.66,58,3.7,57,5.61,57H8.18V56.2c0-1.25-.62-1.87-2.19-1.87a2.24,2.24,0,0,0-2.15,1L3,54.52a3.31,3.31,0,0,1,3-1.27c2.29,0,3.42,1,3.42,2.84v5.79Zm0-3.94H5.78c-1.28,0-1.91.52-1.91,1.51s.61,1.46,2,1.46a2.49,2.49,0,0,0,1.91-.57,2,2,0,0,0,.43-1.47Z"/><path class="cls-1" d="M14.88,61.89a2.09,2.09,0,0,1-2.19-2.29V54.36H11.61v-1h1.08V50.73h1.25v2.67h1.82v1H13.94v5.2c0,.78.37,1.25,1.16,1.25h.66v1.08Z"/><path class="cls-1" d="M30,61.89,29,59.1h-5.4l-1,2.79H21.24l4.54-12.35H26.9l4.53,12.35ZM26.36,51.43,24,58h4.61Z"/><path class="cls-1" d="M38,55a1.78,1.78,0,0,0-1.48-.62,2.08,2.08,0,0,0-2,2.29v5.24H33.21V53.35h1.25v1a2.87,2.87,0,0,1,2.39-1.14,2.63,2.63,0,0,1,2,.8Z"/><path class="cls-1" d="M51.5,61.89V56.63a2.12,2.12,0,1,0-4.23-.14v5.39H46V56.63a2,2,0,0,0-2.1-2.27,2,2,0,0,0-2.13,2.27v5.26H40.53V53.35h1.25v.94a3.11,3.11,0,0,1,2.41-1,2.81,2.81,0,0,1,2.62,1.42,3.27,3.27,0,0,1,2.81-1.42,3.1,3.1,0,0,1,2.2.8,3.17,3.17,0,0,1,.92,2.38v5.47Z"/><path class="cls-1" d="M57.94,61.89a2,2,0,0,1-2.17-2.27V49.54H57v10c0,.83.28,1.25,1.15,1.25h.68v1.08Z"/><path class="cls-1" d="M61.32,58c0,1.87.88,2.95,2.51,2.95a2.8,2.8,0,0,0,2.24-1l.85.75A3.91,3.91,0,0,1,63.8,62c-2.26,0-3.73-1.35-3.73-4.37,0-2.76,1.33-4.37,3.5-4.37s3.51,1.6,3.51,4.13V58Zm4.25-2.36a2.19,2.19,0,0,0-4,0A3.52,3.52,0,0,0,61.32,57h4.51A3.55,3.55,0,0,0,65.57,55.59Z"/><path class="cls-1" d="M71.69,64a2.5,2.5,0,0,1-.61,1,2.35,2.35,0,0,1-1.67.59h-.54V64.44h.38c.87,0,1.13-.28,1.41-1.06l.61-1.67-3.07-8.36h1.35l2.34,6.85,2.33-6.85h1.35Z"/><path class="cls-1" d="M91.18,61.89V52.5L87.8,59.95H86.67L83.23,52.5v9.39H81.91V49.54h1.32l4,8.76,3.92-8.76H92.5V61.89Z"/><path class="cls-1" d="M95.79,50.93V49.52h1.4v1.41Zm.07,11V53.35h1.25v8.54Z"/><path class="cls-1" d="M102.4,61.89a2,2,0,0,1-2.17-2.27V49.54h1.25v10c0,.83.28,1.25,1.14,1.25h.68v1.08Z"/><path class="cls-1" d="M107.57,61.89a2,2,0,0,1-2.17-2.27V49.54h1.25v10c0,.83.28,1.25,1.14,1.25h.68v1.08Z"/><path class="cls-1" d="M113.3,62a4.7,4.7,0,0,1-3.5-1.23l.83-.83a3.48,3.48,0,0,0,2.65,1c1.41,0,2.27-.5,2.27-1.51,0-.75-.43-1.16-1.42-1.25L112.72,58c-1.67-.14-2.55-.88-2.55-2.29,0-1.56,1.32-2.5,3.14-2.5a4.82,4.82,0,0,1,3.07.92l-.81.82a3.63,3.63,0,0,0-2.27-.68c-1.25,0-1.91.54-1.91,1.41s.42,1.16,1.49,1.25l1.37.12c1.49.14,2.51.71,2.51,2.31S115.36,62,113.3,62Z"/><path class="cls-1" d="M4,23V6.47h2.5V20.73h8V23Z"/><path class="cls-1" d="M18.75,17.78c0,2,1.07,3.29,3,3.29a3.51,3.51,0,0,0,2.85-1.21l1.51,1.41a5.52,5.52,0,0,1-4.4,1.83c-2.95,0-5.29-1.55-5.29-6,0-3.8,2-6,5-6s5,2.32,5,5.66v1Zm5-3.25a2.42,2.42,0,0,0-2.32-1.48,2.46,2.46,0,0,0-2.34,1.48,3.73,3.73,0,0,0-.3,1.6H24A3.68,3.68,0,0,0,23.72,14.54Z"/><path class="cls-1" d="M31.23,17.78c0,2,1.07,3.29,3,3.29a3.51,3.51,0,0,0,2.85-1.21l1.51,1.41a5.52,5.52,0,0,1-4.41,1.83c-2.94,0-5.29-1.55-5.29-6,0-3.8,2-6,5-6s5,2.32,5,5.66v1Zm5-3.25a2.42,2.42,0,0,0-2.32-1.48,2.45,2.45,0,0,0-2.34,1.48,3.74,3.74,0,0,0-.3,1.6h5.29A3.72,3.72,0,0,0,36.19,14.54Z"/><path class="cls-1" d="M48.71,23V21.72a3.62,3.62,0,0,1-3.11,1.39,4.07,4.07,0,0,1-2.88-1c-1.18-1.18-1.32-3.2-1.32-5s.14-3.78,1.32-5a4,4,0,0,1,2.85-1,3.64,3.64,0,0,1,3.08,1.32V6.47H51V23Zm-2.48-9.78c-2.13,0-2.46,1.81-2.46,3.89S44.09,21,46.23,21s2.44-1.83,2.44-3.92S48.36,13.19,46.23,13.19Z"/><path class="cls-1" d="M58.56,23.12a6.47,6.47,0,0,1-4.94-1.69l1.55-1.55a4.56,4.56,0,0,0,3.38,1.23c1.44,0,2.57-.51,2.57-1.62,0-.79-.44-1.3-1.58-1.39l-1.88-.16c-2.2-.18-3.48-1.18-3.48-3.25,0-2.3,2-3.59,4.43-3.59A6.45,6.45,0,0,1,63,12.4l-1.48,1.51a4.45,4.45,0,0,0-2.9-.86c-1.41,0-2.13.63-2.13,1.51,0,.7.37,1.23,1.62,1.34l1.86.16c2.2.19,3.5,1.23,3.5,3.32C63.45,21.84,61.37,23.12,58.56,23.12Z"/><path class="cls-1" d="M4,43.7V27.2h2.5V43.7Z"/><path class="cls-1" d="M17.69,43.7V36.54c0-1.83-1-2.62-2.37-2.62a2.34,2.34,0,0,0-2.44,2.62V43.7H10.52V31.95h2.32v1.18A4.2,4.2,0,0,1,16,31.81a4.07,4.07,0,0,1,2.9,1.07,4.31,4.31,0,0,1,1.18,3.32V43.7Z"/><path class="cls-1" d="M30.42,43.7V42.45a3.62,3.62,0,0,1-3.11,1.39,4.07,4.07,0,0,1-2.88-1c-1.18-1.18-1.32-3.2-1.32-5s.14-3.78,1.32-5a4,4,0,0,1,2.85-1,3.64,3.64,0,0,1,3.08,1.32V27.2h2.37V43.7Zm-2.48-9.78c-2.13,0-2.46,1.81-2.46,3.89s.33,3.92,2.46,3.92,2.43-1.83,2.43-3.92S30.07,33.92,27.94,33.92Z"/><path class="cls-1" d="M43.56,43.7V42.52a4.21,4.21,0,0,1-3.13,1.32,4.07,4.07,0,0,1-2.9-1.07,4.31,4.31,0,0,1-1.18-3.32V31.95h2.36v7.16c0,1.83,1,2.62,2.37,2.62a2.34,2.34,0,0,0,2.43-2.62V31.95h2.36V43.7Z"/><path class="cls-1" d="M53.41,43.84a6.46,6.46,0,0,1-4.94-1.69L50,40.6a4.56,4.56,0,0,0,3.39,1.23c1.44,0,2.57-.51,2.57-1.62,0-.79-.44-1.3-1.58-1.39l-1.88-.16c-2.2-.18-3.48-1.18-3.48-3.25,0-2.3,2-3.59,4.43-3.59a6.44,6.44,0,0,1,4.36,1.32l-1.48,1.51a4.45,4.45,0,0,0-2.9-.86c-1.41,0-2.13.63-2.13,1.51,0,.69.37,1.23,1.62,1.34l1.86.16C57,37,58.3,38,58.3,40.11,58.3,42.57,56.22,43.84,53.41,43.84Z"/><path class="cls-1" d="M64.43,43.7a3.06,3.06,0,0,1-3.22-3.27V34H59.86V32.16h1.35V28.59h2.36v3.57h2.27V34H63.57v6.35a1.2,1.2,0,0,0,1.3,1.37h1v2Z"/><path class="cls-1" d="M75.3,34.71a2.18,2.18,0,0,0-1.76-.79,2.42,2.42,0,0,0-2.34,2.64V43.7H68.83V31.95h2.32v1.27a3.91,3.91,0,0,1,3.13-1.41,3.64,3.64,0,0,1,2.8,1.11Z"/><path class="cls-1" d="M78.91,29.63v-2.5h2.5v2.5ZM79,43.7V31.95h2.37V43.7Z"/><path class="cls-1" d="M91.41,43.7V42.64a3.87,3.87,0,0,1-3.13,1.21,4.15,4.15,0,0,1-3.15-1.07,3.61,3.61,0,0,1-.93-2.53c0-2,1.37-3.39,4.06-3.39h3.11V36c0-1.48-.74-2.2-2.57-2.2A2.76,2.76,0,0,0,86.22,35L84.67,33.5a4.82,4.82,0,0,1,4.22-1.69c3.22,0,4.85,1.37,4.85,4V43.7Zm0-5.19H88.61c-1.39,0-2.11.63-2.11,1.69s.67,1.67,2.16,1.67a2.81,2.81,0,0,0,2.2-.67,2.36,2.36,0,0,0,.51-1.74Z"/><path class="cls-1" d="M100.5,43.7a3,3,0,0,1-3.23-3.25V27.2h2.37V40.32c0,.9.32,1.37,1.28,1.37h1v2Z"/><path class="cls-1" d="M122.41,43.7v-11l-3.8,8h-1.85l-3.9-8v11h-2.5V27.2h2.5l4.82,10.27,4.73-10.27h2.5V43.7Z"/><path class="cls-1" d="M136,43.7V42.52a4.2,4.2,0,0,1-3.13,1.32,4.08,4.08,0,0,1-2.9-1.07,4.32,4.32,0,0,1-1.18-3.32V31.95h2.36v7.16c0,1.83,1,2.62,2.37,2.62a2.34,2.34,0,0,0,2.43-2.62V31.95h2.37V43.7Z"/><path class="cls-1" d="M145.85,43.84a6.48,6.48,0,0,1-4.94-1.69l1.56-1.55a4.56,4.56,0,0,0,3.39,1.23c1.44,0,2.57-.51,2.57-1.62,0-.79-.44-1.3-1.58-1.39L145,38.65c-2.2-.18-3.48-1.18-3.48-3.25,0-2.3,2-3.59,4.43-3.59a6.45,6.45,0,0,1,4.36,1.32l-1.48,1.51a4.45,4.45,0,0,0-2.9-.86c-1.41,0-2.13.63-2.13,1.51,0,.69.37,1.23,1.62,1.34l1.85.16c2.2.19,3.5,1.23,3.5,3.32C150.74,42.57,148.65,43.84,145.85,43.84Z"/><path class="cls-1" d="M155.33,38.51c0,2,1.07,3.29,3,3.29a3.52,3.52,0,0,0,2.85-1.2L162.68,42a5.52,5.52,0,0,1-4.41,1.83c-2.94,0-5.29-1.55-5.29-6,0-3.8,2-6,5-6s5,2.32,5,5.66v1Zm5-3.25A2.43,2.43,0,0,0,158,33.78a2.46,2.46,0,0,0-2.34,1.48,3.71,3.71,0,0,0-.3,1.6h5.29A3.74,3.74,0,0,0,160.29,35.26Z"/><path class="cls-1" d="M173.16,43.7V42.52A4.21,4.21,0,0,1,170,43.84a4.07,4.07,0,0,1-2.9-1.07A4.32,4.32,0,0,1,166,39.46V31.95h2.36v7.16c0,1.83,1,2.62,2.36,2.62a2.34,2.34,0,0,0,2.43-2.62V31.95h2.37V43.7Z"/><path class="cls-1" d="M193.54,43.7V36.54c0-1.83-1-2.62-2.37-2.62a2.33,2.33,0,0,0-2.43,2.5V43.7h-2.37V36.54c0-1.83-1-2.62-2.37-2.62a2.34,2.34,0,0,0-2.43,2.62V43.7h-2.36V31.95h2.32v1.18a4.25,4.25,0,0,1,3.13-1.32A3.75,3.75,0,0,1,188,33.53a4.47,4.47,0,0,1,3.69-1.72,4.25,4.25,0,0,1,3,1.07,4.36,4.36,0,0,1,1.25,3.32V43.7Z"/></svg>